<svg id="Layer_1" data-name="Layer 1" xmlns="http://www.w3.org/2000/svg" viewBox="0 0 35 35"><defs><style>.cls-1{fill:#007bbc;}.cls-2{fill:#fff;}</style></defs><path class="cls-1" d="M17.5,35A17.5,17.5,0,1,1,35,17.5,17.52,17.52,0,0,1,17.5,35Z"/><path class="cls-2" d="M27.48,19.12v6.49a.29.29,0,0,1-.3.29H23.73a.29.29,0,0,1-.3-.29v-6.2c0-1.63-.55-2.75-1.94-2.75a2.1,2.1,0,0,0-2,1.48,2.68,2.68,0,0,0-.13,1v6.49a.29.29,0,0,1-.29.29H15.84a.29.29,0,0,1-.29-.29c0-1.64,0-9.69,0-11.55a.29.29,0,0,1,.3-.29H19.1a.29.29,0,0,1,.29.29v1.69l0,0h0v0a3.92,3.92,0,0,1,3.55-1.95c2.59,0,4.54,1.69,4.54,5.32ZM9.57,25.9H13a.29.29,0,0,0,.29-.29V14.06a.29.29,0,0,0-.29-.29H9.57a.29.29,0,0,0-.29.29V25.61A.29.29,0,0,0,9.57,25.9Z"/><circle class="cls-2" cx="11.3" cy="9.72" r="2.02"/></svg>