<svg width="34" height="31" viewBox="0 0 34 31" fill="none" xmlns="http://www.w3.org/2000/svg"><path fill-rule="evenodd" clip-rule="evenodd" d="M12.8755 25.0956h14.1508l-.2163.2162c-.2878.2879-.2878.7558 0 1.0437.2879.2879.7558.2879 1.0437 0l1.4762-1.4762c.2886-.2879.2886-.7558 0-1.0437l-1.4762-1.4762c-.2879-.2878-.7558-.2878-1.0437 0-.2878.2879-.2878.7559 0 1.0437l.2163.2163H12.8755l.2163-.2163c.2878-.2878.2878-.7558 0-1.0437-.2879-.2878-.7558-.2878-1.0437 0l-1.4762 1.4762c-.2886.2879-.2886.7558 0 1.0437l1.4762 1.4762c.2879.2879.7558.2879 1.0437 0 .2878-.2879.2878-.7558 0-1.0437l-.2163-.2162ZM23.3382 18.4532l-.9543.9543c-.2879.2879-.2879.7558 0 1.0437.2878.2879.7558.2879 1.0436 0l.9544-.9544.9543.9544c.2879.2879.7559.2879 1.0437 0 .2879-.2879.2879-.7558 0-1.0437l-.9543-.9543.9543-.9544c.2879-.2878.2879-.7558 0-1.0436-.2878-.2879-.7558-.2879-1.0437 0l-.9543.9543-.9544-.9543c-.2878-.2879-.7558-.2879-1.0436 0-.2879.2878-.2879.7558 0 1.0436l.9543.9544Z" fill="#1B2C5C"/><path fill-rule="evenodd" clip-rule="evenodd" d="M18.2965 8.85714H7.40439v-.73809c0-1.22303-.99126-2.21429-2.21429-2.21429H3.71391c-.97871 0-1.91756.38898-2.6099 1.08058-.6916.69233-1.08057 1.63118-1.08057 2.6099V27.3095c0 .9787.38898 1.9176 1.08057 2.6099C1.79635 30.611 2.7352 31 3.71391 31H31.7615c1.2231 0 2.2143-.9913 2.2143-2.2143V11.0714c0-1.223-.9912-2.21426-2.2143-2.21426h-5.4722l4.2123-4.21231c.4156-.41554.6488-.97871.6488-1.5655 0-.58752-.234-1.15068-.6488-1.56623-.2805-.28048-.5838-.58384-.865-.86432C29.2217.23324 28.6586 0 28.0711 0c-.5876 0-1.1507.23324-1.5655.64878l-8.2091 8.20836Zm6.5166 1.47616-8.5213 8.5213c-.2428.2429-.5396.4259-.8658.5352-1.0274.3424-4.0979 1.3654-4.0979 1.3654-.265.0886-.5573.02-.7551-.1778-.1978-.1979-.2664-.4901-.1786-.7559 0 0 1.0237-3.0697 1.3662-4.0979.1085-.3262.2916-.6222.5351-.865l4.5246-4.5253H7.40439V22.881c0 .5875-.23324 1.1506-.64878 1.5655-.41481.4155-.97798.6487-1.56551.6487H3.71391c-.58752 0-1.15069.2333-1.5655.6488-.41555.4148-.64878.978-.64878 1.5655 0 .5875.23323 1.1507.64878 1.5655.41481.4156.97798.6488 1.5655.6488H31.7615c.4075 0 .7381-.3307.7381-.7381V11.0714c0-.4074-.3306-.7381-.7381-.7381h-6.9484ZM5.9282 22.881V8.11905c0-.40743-.33067-.7381-.7381-.7381H3.71391c-.58752 0-1.15069.23324-1.5655.64879-.41555.41481-.64878.97797-.64878 1.5655V24.3571c.63476-.476 1.41124-.7381 2.21428-.7381H5.1901c.1956 0 .38381-.0775.52184-.2162.13876-.138.21626-.3263.21626-.5218Zm6.3336-3.9931 1.9899-.6629-1.3264-1.3271-.6635 1.99Zm1.4164-3.3244 1.9087 1.9087L26.2893 6.76981l-1.9087-1.90872L13.6782 15.5635ZM27.333 5.72541l-1.9088-1.90798 2.125-2.12498c.138-.13876.3263-.21626.5219-.21626.1956 0 .3838.0775.5218.21626l.865.86432c.1381.13876.2163.32623.2163.52256 0 .1956-.0782.38307-.2163.52184L27.333 5.72541Z" fill="#1B2C5C"/></svg>