<svg width="37" height="38" viewBox="0 0 37 38" fill="none" xmlns="http://www.w3.org/2000/svg">
<path d="M26.4143 18.0952L33.8383 10.4707C33.971 10.334 34.0486 10.1543 34.0663 9.96388C34.2444 9.9457 34.4186 9.8701 34.5549 9.72965C36.4946 7.73731 36.4946 4.49578 34.5549 2.50344C33.6155 1.53763 32.3663 1.00598 31.0372 1.00598C29.708 1.00598 28.4589 1.53804 27.5194 2.50344C27.3799 2.64678 27.3063 2.82978 27.2906 3.0165C27.1088 3.03385 26.9322 3.10614 26.8007 3.24163L19.3779 10.8677L9.02413 0.232674C8.72251 -0.077971 8.18803 -0.0771448 7.8864 0.232674L0.23557 8.09464C-0.0785232 8.41726 -0.0785232 8.94023 0.23557 9.26286L10.5874 19.8979L3.87639 26.7916C3.79395 26.8763 3.7304 26.9779 3.69059 27.0902L1.21123 34.0029C0.708518 35.4004 1.16377 36.1543 1.47988 36.479C1.69423 36.6996 2.10082 36.9859 2.7656 36.9859C3.0801 36.9859 3.45251 36.9218 3.88926 36.7558L10.6034 34.2153C10.7148 34.176 10.8198 34.1107 10.9087 34.0194L10.9095 34.0186L17.6225 27.1245L27.9747 37.7579C28.1255 37.9128 28.3302 38 28.5433 38C28.7569 38 28.9616 37.9128 29.1124 37.7579L36.7644 29.896C37.0785 29.5733 37.0785 29.0504 36.7644 28.7277L26.4143 18.0952ZM31.0376 2.65876C31.9364 2.65876 32.7818 3.01856 33.4176 3.67208C34.7299 5.02041 34.7299 7.21351 33.4176 8.56184C33.3653 8.61554 33.3247 8.67627 33.2901 8.73947L28.4846 3.80303C28.5461 3.76709 28.6053 3.72536 28.6575 3.67166C29.293 3.01856 30.1383 2.65876 31.0376 2.65876ZM9.92378 16.8786L11.9933 14.7524C12.3074 14.4298 12.3074 13.9064 11.9933 13.5838C11.6792 13.2616 11.1701 13.2612 10.8556 13.5838L8.78645 15.71L5.99823 12.8456L8.06657 10.7211C8.38066 10.3984 8.38066 9.87547 8.06657 9.55285C7.75248 9.23022 7.24293 9.23022 6.92924 9.55285L4.8609 11.6774L1.94197 8.67875L8.45587 1.98501L18.2406 12.0359L11.7247 18.7293L9.92378 16.8786ZM10.3408 32.2655L7.69457 29.5469C7.38088 29.2243 6.87093 29.2243 6.55724 29.5469C6.24315 29.8695 6.24315 30.3925 6.55724 30.7151L8.88337 33.1049L3.33266 35.2054C2.87218 35.3798 2.64777 35.3298 2.62163 35.3149C2.59911 35.2794 2.55004 35.0489 2.72056 34.5746V34.5738L5.13879 27.8313L12.2785 20.4973C12.2837 20.4923 12.2897 20.4886 12.295 20.4837C12.3002 20.4787 12.3034 20.4721 12.3082 20.4667L19.9136 12.6539C19.9253 12.6432 19.9386 12.6353 19.9498 12.6234C19.9611 12.6118 19.9687 12.5982 19.9796 12.5862L27.3694 4.9948L32.1315 9.88663L17.0816 25.3433C17.0719 25.3524 17.0606 25.359 17.051 25.3689C17.0413 25.3788 17.0349 25.39 17.0261 25.3999L10.3408 32.2655ZM28.5433 36.0048L25.6224 33.0049L27.6919 30.8791C28.006 30.5565 28.006 30.0335 27.6919 29.7109C27.3782 29.3883 26.8683 29.3883 26.5546 29.7109L24.4851 31.8367L21.6976 28.9731L23.7676 26.8469C24.0817 26.5243 24.0817 26.0013 23.7676 25.6787C23.4539 25.3561 22.9439 25.3561 22.6303 25.6787L20.5603 27.8049L18.7598 25.9559L25.2765 19.2634L35.0576 29.3114L28.5433 36.0048Z" fill="#1B2C5C"/>
</svg>
