<svg width="40" height="40" viewBox="0 0 40 40" fill="none" xmlns="http://www.w3.org/2000/svg">
<path d="M39.9633 0.641289C39.9435 0.315876 39.6837 0.0565352 39.3587 0.0367588C35.3837 -0.205503 30.8877 0.753205 26.3553 2.80951C22.9264 4.36465 19.5504 6.52118 16.4262 9.13662L9.2101 7.41202C8.9548 7.3509 8.68872 7.45023 8.5359 7.66327L0.121056 19.3894C-0.0214235 19.5876 -0.0394021 19.8496 0.0738626 20.0653C0.185329 20.2779 0.405566 20.4105 0.64513 20.4105C0.649175 20.4105 0.65322 20.4105 0.657266 20.4105L7.55922 20.2797L9.27122 21.9918L5.56945 25.6935C5.44854 25.8144 5.38067 25.9785 5.38067 26.1497C5.38067 26.321 5.44854 26.4851 5.56945 26.606L13.3937 34.4302C13.5195 34.5561 13.685 34.619 13.8499 34.619C14.0149 34.619 14.1803 34.5561 14.3061 34.4302L18.0079 30.7284L19.7199 32.4405L19.5891 39.3424C19.5846 39.5865 19.7181 39.8121 19.9343 39.9258C20.0287 39.9753 20.1316 40 20.2341 40C20.3667 40 20.4984 39.9591 20.6103 39.8791L32.3359 31.4642C32.5489 31.3114 32.6482 31.0449 32.5871 30.79L30.8625 23.5739C33.4784 20.4492 35.6349 17.0733 37.1905 13.6447C39.2464 9.11235 40.2055 4.6159 39.9633 0.641289ZM38.7012 1.29796C38.9326 9.03099 34.5 18.3826 27.021 25.8612C25.9229 26.9592 24.7804 27.9961 23.6019 28.967L11.0327 16.3977C12.0031 15.2192 13.0404 14.0767 14.1385 12.9786C21.6171 5.49955 30.9677 1.06783 38.7012 1.29796ZM9.3319 8.76806L15.2248 10.1762C14.5439 10.7848 13.8769 11.415 13.2256 12.0662C11.0655 14.2264 9.13279 16.555 7.47517 18.9907L1.91981 19.0963L9.3319 8.76806ZM10.2205 17.4108L22.5888 29.7792C21.8867 30.3253 21.173 30.8476 20.4494 31.3451L8.65501 19.5503C9.15212 18.8266 9.67439 18.1129 10.2205 17.4108ZM13.8499 33.0616L6.93806 26.1497L10.1836 22.9042L17.0955 29.816L13.8499 33.0616ZM31.2315 30.6682L20.9033 38.0799L21.0085 32.5241C23.445 30.8664 25.7733 28.9333 27.9334 26.7736C28.5842 26.1228 29.2143 25.4553 29.8234 24.7748L31.2315 30.6682ZM3.14999 32.8594C2.98503 32.8594 2.81963 32.7964 2.69378 32.6706C2.44163 32.4184 2.44163 32.0103 2.69378 31.7582L5.02515 29.4268C5.2773 29.1746 5.68541 29.1746 5.93756 29.4268C6.18971 29.6789 6.18971 30.0871 5.93756 30.3392L3.60619 32.6706C3.48034 32.7964 3.31539 32.8594 3.14999 32.8594ZM8.25589 32.6567L3.85475 37.0578C3.7289 37.1837 3.56349 37.2466 3.39854 37.2466C3.23359 37.2466 3.06818 37.1837 2.94234 37.0578C2.69019 36.8057 2.69019 36.3975 2.94234 36.1454L7.34348 31.7442C7.59563 31.4921 8.00374 31.4921 8.25589 31.7442C8.50759 31.9959 8.50759 32.4045 8.25589 32.6567ZM10.5733 34.0617C10.8255 34.3138 10.8255 34.7219 10.5733 34.9741L8.24195 37.3055C8.1161 37.4313 7.9507 37.4942 7.78575 37.4942C7.6208 37.4942 7.45539 37.4313 7.32954 37.3055C7.07739 37.0533 7.07739 36.6452 7.32954 36.393L9.66091 34.0617C9.91306 33.81 10.3216 33.81 10.5733 34.0617ZM21.4359 13.709L22.8055 13.9904C22.881 14.2169 22.9722 14.4372 23.0792 14.6506L22.3097 15.8184C22.1411 16.0741 22.1758 16.413 22.3924 16.6296L23.3704 17.6077C23.5871 17.8243 23.926 17.8589 24.1817 17.6904L25.349 16.9209C25.5625 17.0274 25.7827 17.1191 26.0092 17.1946L26.2906 18.5641C26.3522 18.8639 26.6164 19.0792 26.9225 19.0792H28.3055C28.6116 19.0792 28.8759 18.8639 28.9375 18.5641L29.2188 17.1946C29.4454 17.1191 29.6656 17.0279 29.8791 16.9209L31.0468 17.6904C31.3026 17.8589 31.6414 17.8243 31.8581 17.6077L32.8361 16.6296C33.0528 16.413 33.0869 16.0741 32.9184 15.8184L32.1489 14.6506C32.2554 14.4372 32.3471 14.2169 32.4226 13.9904L33.7921 13.709C34.0919 13.6474 34.3072 13.3832 34.3072 13.0771V11.6941C34.3072 11.388 34.0919 11.1237 33.7921 11.0621L32.4226 10.7803C32.3471 10.5538 32.2559 10.3335 32.1489 10.12L32.9184 8.95234C33.0869 8.69659 33.0523 8.3577 32.8361 8.14105L31.8581 7.16302C31.6414 6.94638 31.3026 6.91177 31.0468 7.08032L29.8791 7.8498C29.6656 7.74283 29.4454 7.65159 29.2188 7.57608L28.9375 6.20656C28.8759 5.90677 28.6116 5.69147 28.3055 5.69147H26.9225C26.6164 5.69147 26.3522 5.90677 26.2906 6.20656L26.0092 7.57653C25.7827 7.65204 25.5625 7.74328 25.349 7.85025L24.1817 7.08077C23.926 6.91222 23.5871 6.94683 23.3704 7.16347L22.3924 8.1415C22.1758 8.35815 22.1411 8.69704 22.3097 8.95279L23.0792 10.1205C22.9727 10.334 22.881 10.5542 22.8055 10.7808L21.4359 11.0626C21.1361 11.1242 20.9209 11.3884 20.9209 11.6945V13.0775C20.9209 13.3832 21.1361 13.6474 21.4359 13.709ZM22.2113 12.2199L23.4473 11.966C23.6918 11.9157 23.8851 11.7291 23.9439 11.4869C24.0352 11.1125 24.1831 10.7551 24.3835 10.4257C24.513 10.2126 24.508 9.94386 24.3709 9.73575L23.6765 8.68221L23.9107 8.44804L24.9642 9.14246C25.1728 9.27955 25.4411 9.28449 25.6546 9.15505C25.9841 8.95459 26.3414 8.80671 26.7158 8.71547C26.958 8.65614 27.1446 8.46287 27.1949 8.21836L27.4489 6.98233H27.7801L28.0341 8.21836C28.0844 8.46287 28.2709 8.65614 28.5132 8.71547C28.8876 8.80671 29.2449 8.95459 29.5744 9.15505C29.7874 9.28449 30.0562 9.27955 30.2647 9.14246L31.3183 8.44804L31.5525 8.68221L30.858 9.73575C30.7209 9.94386 30.716 10.2126 30.8454 10.4257C31.0459 10.7551 31.1938 11.112 31.285 11.4869C31.3444 11.7291 31.5376 11.9157 31.7817 11.966L33.0177 12.2199V12.5512L31.7817 12.8051C31.5372 12.8555 31.3439 13.042 31.2846 13.2843C31.1933 13.6591 31.0455 14.016 30.845 14.3455C30.7156 14.5585 30.7205 14.8273 30.8576 15.0354L31.552 16.0889L31.3178 16.3231L30.2643 15.6287C30.0557 15.4916 29.787 15.4867 29.5739 15.6161C29.2445 15.8166 28.8876 15.9644 28.5127 16.0557C28.2705 16.115 28.0839 16.3083 28.0336 16.5528L27.7797 17.7888H27.4484L27.1945 16.5528C27.1441 16.3083 26.9576 16.115 26.7153 16.0557C26.3409 15.9644 25.9836 15.8166 25.6542 15.6161C25.4411 15.4867 25.1723 15.4911 24.9638 15.6287L23.9102 16.3231L23.6761 16.0889L24.3705 15.0354C24.5076 14.8273 24.5125 14.5585 24.3831 14.3455C24.1826 14.016 24.0347 13.6587 23.9435 13.2843C23.8846 13.042 23.6909 12.8555 23.4464 12.8051L22.2104 12.5512V12.2199H22.2113ZM27.6143 15.4664C29.3132 15.4664 30.6953 14.0843 30.6953 12.3853C30.6953 10.6864 29.3132 9.30427 27.6143 9.30427C25.9153 9.30427 24.5332 10.6864 24.5332 12.3853C24.5332 14.0843 25.9153 15.4664 27.6143 15.4664ZM27.6143 10.5947C28.6017 10.5947 29.4054 11.3979 29.4054 12.3858C29.4054 13.3733 28.6022 14.1765 27.6143 14.1765C26.6268 14.1765 25.8236 13.3733 25.8236 12.3858C25.8236 11.3979 26.6268 10.5947 27.6143 10.5947Z" fill="#1B2C5C"/>
</svg>
