<svg id="Layer_1" data-name="Layer 1" xmlns="http://www.w3.org/2000/svg" viewBox="0 0 35 35"><defs><style>.cls-1{fill:#0cf;}.cls-2,.cls-3{fill:#fff;}.cls-3{fill-rule:evenodd;}</style></defs><path class="cls-1" d="M17.5,35A17.5,17.5,0,1,1,35,17.5,17.52,17.52,0,0,1,17.5,35Z"/><path class="cls-2" d="M27.17,11.11a7.72,7.72,0,0,1-2.06.59c.34,0,.83-.65,1-.9a3.74,3.74,0,0,0,.69-1.25s0-.08,0-.1a.11.11,0,0,0-.11,0,10.59,10.59,0,0,1-2.44.93.17.17,0,0,1-.17,0,1.52,1.52,0,0,0-.22-.22,4.11,4.11,0,0,0-3-1,4.31,4.31,0,0,0-1.72.49,4.29,4.29,0,0,0-2.23,2.8,4.58,4.58,0,0,0,0,1.77c0,.05,0,.09-.09.08A13,13,0,0,1,8.39,10a.16.16,0,0,0-.24,0,4.26,4.26,0,0,0,.73,5,4.54,4.54,0,0,0,.52.45A4.13,4.13,0,0,1,7.77,15c-.09-.06-.14,0-.15.08a2.75,2.75,0,0,0,0,.49A4.32,4.32,0,0,0,10.3,19a2.6,2.6,0,0,0,.54.17,4.91,4.91,0,0,1-1.59,0c-.12,0-.16,0-.12.14a4.48,4.48,0,0,0,3.35,2.8c.15,0,.3,0,.45.07l0,0a5.23,5.23,0,0,1-2.29,1.21,8.18,8.18,0,0,1-3.47.45c-.18,0-.22,0-.27,0s0,.07,0,.12c.24.16.48.3.72.43a11.6,11.6,0,0,0,2.32.93,12.37,12.37,0,0,0,12-2.8c2.46-2.45,3.32-5.81,3.32-9.18,0-.13.15-.21.25-.28a8.12,8.12,0,0,0,1.62-1.69.5.5,0,0,0,.1-.33v0S27.26,11.08,27.17,11.11Z"/><path class="cls-3" d="M13.29,26.24Z"/><path class="cls-3" d="M14,25.85s.36,0,0,0C14,25.83,14,25.85,14,25.85Z"/><path class="cls-3" d="M21.2,9.08a.07.07,0,0,1-.09,0Z"/></svg>