<?xml version="1.0" encoding="utf-8"?>
<!-- Generator: Adobe Illustrator 17.0.0, SVG Export Plug-In . SVG Version: 6.00 Build 0)  -->
<!DOCTYPE svg PUBLIC "-//W3C//DTD SVG 1.1//EN" "http://www.w3.org/Graphics/SVG/1.1/DTD/svg11.dtd">
<svg version="1.1" id="Layer_1" xmlns="http://www.w3.org/2000/svg" xmlns:xlink="http://www.w3.org/1999/xlink" x="0px" y="0px"
	 width="799.9px" height="479.94px" viewBox="0 0 799.9 479.94" enable-background="new 0 0 799.9 479.94" xml:space="preserve">
<g>
	<g>
		<path fill="#2F4A60" d="M648.136,353.22V60.355c0-7.598-6.185-13.78-13.791-13.78H158.774c-7.599,0-13.789,6.183-13.789,13.78
			V353.22H648.136z"/>
		<path fill="#E5E8EC" d="M144.002,353.779v42.344c0,8.156,6.614,14.762,14.772,14.762h475.572c8.157,0,14.776-6.606,14.776-14.762
			v-42.344H144.002z"/>
		<path fill="#E5E8EC" d="M483.56,473.269c0,0-3.661-1.814-7.869-3.394c-4.484-1.684-9.882-3.8-13.055-5.328
			c-5.569-2.666-6.045-4.419-8.127-13.538c-2.273-9.95-4.403-30.959-5.261-40.124H343.891c-0.865,9.165-2.992,30.174-5.265,40.124
			c-2.085,9.118-2.552,10.872-8.123,13.538c-3.142,1.511-8.458,3.597-12.914,5.271l0,0c-4.275,1.614-7.762,2.855-7.762,2.855
			s-3.381,1.88,2.055,2.15h169.381C486.367,474.916,483.56,473.269,483.56,473.269z"/>
		<path fill="#CDD5D7" d="M450.352,421.95c-0.468-4.353-0.849-8.263-1.112-11.065H343.876c-0.258,2.802-0.641,6.712-1.112,11.065
			H450.352z"/>
		<rect x="168.365" y="70.199" fill="#FFA38F" width="456.382" height="256.997"/>
	</g>
	<g>
		<g>
			<circle fill="#596273" cx="300.33" cy="6.95" r="1.838"/>
		</g>
	</g>
	<g>
		<g>
			<path fill="#596273" d="M654.429,245.91c-0.812,0-1.471-0.656-1.471-1.471c0-0.812,0.659-1.464,1.471-1.464
				c0.812,0,1.469,0.652,1.469,1.464C655.898,245.254,655.241,245.91,654.429,245.91z"/>
		</g>
	</g>
</g>
<g>
	<g>
		<rect x="182.769" y="79.449" fill="#FE3401" width="238.657" height="238.651"/>
		<rect x="206.371" y="103.053" fill="#FF6B57" width="191.449" height="191.447"/>
		<path fill="#FE3401" d="M277.185,162.058c0,9.414-7.633,17.043-17.048,17.043c-9.417,0-17.048-7.629-17.048-17.043
			c0-9.419,7.631-17.048,17.048-17.048C269.552,145.01,277.185,152.639,277.185,162.058z"/>
		<g>
			<polygon fill="#FE3401" points="322.581,197.572 353.148,236.205 383.712,274.83 322.581,274.83 261.454,274.83 292.025,236.205 
							"/>
			<polygon fill="#FE3401" points="265.183,220.589 286.643,247.707 308.1,274.83 265.183,274.83 222.265,274.83 243.728,247.707 
							"/>
		</g>
	</g>
	<rect x="70.815" y="362.014" fill="#E0E1E4" width="73.434" height="73.434"/>
	<rect x="173.097" y="362.014" fill="#FE3401" width="73.432" height="73.434"/>
	<rect x="275.377" y="362.014" fill="#E0E1E4" width="73.434" height="73.434"/>
	<rect x="377.657" y="362.014" fill="#E0E1E4" width="73.434" height="73.434"/>
	<g>
		<g>
			<g>
				<path fill="#BCBCBC" d="M296.853,412.48c-0.294,0-0.565-0.118-0.773-0.318c-0.22-0.212-0.334-0.542-0.32-0.836l0.443-7.18
					c0-0.257,0.116-0.493,0.312-0.701l21.325-21.337c0.208-0.187,0.483-0.306,0.769-0.306l0,0c0.308,0,0.575,0.119,0.769,0.306
					l6.742,6.748c0.214,0.196,0.327,0.481,0.327,0.767c0,0.285-0.112,0.567-0.327,0.762l-21.337,21.354
					c-0.196,0.187-0.446,0.298-0.711,0.314l-7.142,0.428C296.893,412.48,296.879,412.48,296.853,412.48z M298.343,404.712
					l-0.33,5.509l5.521-0.33l20.279-20.269l-5.205-5.191L298.343,404.712z"/>
			</g>
			<g>
				<path fill="#BCBCBC" d="M321.558,393.846c-0.273,0-0.553-0.106-0.773-0.342l-6.061-6.035c-0.42-0.436-0.42-1.15,0-1.549
					c0.422-0.44,1.121-0.44,1.544,0l6.063,6.042c0.418,0.449,0.418,1.101,0,1.542C322.096,393.74,321.835,393.846,321.558,393.846z"
					/>
			</g>
			<g>
				<path fill="#BCBCBC" d="M301.766,407.583c-0.291,0-0.573-0.118-0.772-0.318c-0.434-0.448-0.434-1.129,0-1.554l16.646-16.66
					c0.42-0.445,1.121-0.445,1.543,0c0.424,0.432,0.424,1.121,0,1.541l-16.656,16.673
					C302.327,407.465,302.031,407.583,301.766,407.583z"/>
			</g>
			<g>
				<path fill="#BCBCBC" d="M299.513,412.272c-0.08,0-0.163,0-0.233-0.028c-0.577-0.102-0.954-0.661-0.83-1.264l0.014-0.061
					c0.057-0.436-0.047-0.722-0.238-0.93c-0.196-0.196-0.504-0.281-0.838-0.253c-0.591,0.118-1.201-0.277-1.329-0.868
					c-0.088-0.579,0.247-1.126,0.834-1.26c0.035,0,0.251-0.045,0.269-0.045c1.019-0.098,1.953,0.245,2.617,0.901
					c0.632,0.648,0.971,1.59,0.877,2.581c-0.016,0.151-0.047,0.237-0.079,0.343C300.477,411.901,300.006,412.272,299.513,412.272z"
					/>
			</g>
		</g>
		<g>
			<path fill="#BCBCBC" d="M326.757,412.244h-15.745c-0.602,0-1.095-0.481-1.095-1.093c0-0.591,0.493-1.097,1.095-1.097h15.745
				c0.591,0,1.095,0.506,1.095,1.097C327.851,411.762,327.348,412.244,326.757,412.244z"/>
		</g>
	</g>
	<g>
		<g>
			<path fill="#B7BEC0" d="M119.041,413.177c-0.33,0-0.665-0.122-0.92-0.371l-9.67-9.667c-0.518-0.514-0.518-1.349,0-1.892
				c0.512-0.493,1.354-0.493,1.849,0l9.7,9.672c0.491,0.509,0.491,1.366,0,1.888C119.734,413.055,119.388,413.177,119.041,413.177z"
				/>
		</g>
		<g>
			<path fill="#B7BEC0" d="M103.738,414.266c-0.018,0-0.018,0-0.018,0c-0.511,0-1.007-0.306-1.188-0.799l-12.039-28.444
				c-0.212-0.481-0.082-1.04,0.287-1.443c0.377-0.367,0.942-0.489,1.45-0.277l28.419,12.024c0.475,0.22,0.795,0.705,0.811,1.191
				c0,0.562-0.316,1.031-0.795,1.248l-10.946,4.774l-4.779,10.944C104.725,413.96,104.26,414.266,103.738,414.266z M94.195,387.008
				l9.559,22.609l3.753-8.599c0.139-0.298,0.383-0.554,0.679-0.689l8.601-3.759L94.195,387.008z"/>
		</g>
	</g>
	<g>
		<g>
			<rect x="210.487" y="398.617" fill="#FFFFFF" width="1.317" height="13.198"/>
		</g>
		<path fill="#FFFFFF" d="M211.156,397.956c-0.795,0-1.429,0.661-1.429,1.451c0,0.775,0.634,1.419,1.429,1.419
			c0.787,0,1.421-0.644,1.421-1.419C212.577,398.617,211.942,397.956,211.156,397.956L211.156,397.956z"/>
		<g>
			<rect x="202.781" y="383.449" fill="#FFFFFF" width="16.726" height="2.626"/>
		</g>
		<g>
			<path fill="#FFFFFF" d="M212.2,414.021h-2.108l-10.361-13.247l4.518-9.264v-4.758h13.806v4.758l4.53,9.264L212.2,414.021z
				 M202.832,400.451l8.324,10.659l8.322-10.659l-4.067-8.322v-2.74h-8.534v2.711L202.832,400.451z"/>
		</g>
	</g>
	<g>
		<g>
			<path fill="#B7BEC0" d="M424.41,400.774c-0.34,0-0.678-0.131-0.925-0.408c-0.534-0.514-0.534-1.321,0-1.851l6.028-6.039
				c0.73-0.693,1.099-1.627,1.099-2.589c0-0.844-0.33-1.635-0.903-2.226l-0.408-0.4c-1.255-1.26-3.435-1.191-4.813,0.183
				l-6.025,6.055c-0.526,0.506-1.347,0.506-1.873,0c-0.512-0.518-0.512-1.362,0-1.884l6.027-6.022
				c2.414-2.414,6.259-2.507,8.548-0.208l0.422,0.408c1.064,1.072,1.649,2.528,1.649,4.094c0,1.684-0.663,3.241-1.867,4.456
				l-6.029,6.022C425.095,400.643,424.753,400.774,424.41,400.774z"/>
		</g>
		<g>
			<path fill="#B7BEC0" d="M425.705,402.841c-0.318,0-0.675-0.139-0.921-0.4l-10.251-10.263c-0.526-0.494-0.526-1.354,0-1.859
				c0.506-0.53,1.346-0.53,1.857,0l10.249,10.246c0.522,0.53,0.522,1.354,0,1.876C426.39,402.702,426.051,402.841,425.705,402.841z"
				/>
		</g>
		<g>
			<path fill="#B7BEC0" d="M407.285,413.744c-0.377,0-0.695-0.139-0.948-0.383c-0.524-0.53-0.524-1.337,0-1.876l0.544-0.554
				c0.53-0.506,1.36-0.506,1.859,0c0.534,0.538,0.534,1.378,0,1.868l-0.55,0.562C407.946,413.605,407.607,413.744,407.285,413.744z"
				/>
		</g>
		<g>
			<path fill="#B7BEC0" d="M404.362,410.833c-0.334,0-0.677-0.131-0.924-0.383c-0.53-0.518-0.53-1.354,0-1.859l0.538-0.555
				c0.524-0.501,1.368-0.501,1.868,0c0.526,0.522,0.526,1.354,0,1.888l-0.542,0.526
				C405.053,410.702,404.706,410.833,404.362,410.833z"/>
		</g>
		<g>
			<path fill="#B7BEC0" d="M408.191,413.222c-0.714,0-1.309-0.583-1.309-1.321c0-0.722,0.595-1.313,1.309-1.313
				c0.495-0.016,0.928-0.2,1.278-0.534l11.292-11.298l-2.554-2.561l-11.298,11.319c-0.334,0.33-0.522,0.775-0.522,1.268
				c0,0.721-0.573,1.243-1.315,1.305c-0.744-0.008-1.335-0.583-1.335-1.321c0.026-1.199,0.471-2.3,1.317-3.144l12.228-12.216
				c0.5-0.506,1.364-0.506,1.858,0l4.416,4.412c0.516,0.522,0.516,1.358,0,1.88L411.33,411.93
				C410.496,412.761,409.389,413.222,408.191,413.222L408.191,413.222z"/>
		</g>
	</g>
	<g>
		<g>
			<g>
				<path fill="#FF876C" d="M586.571,460.728v-22.161H508.54v22.161c0,2.344,3.832,4.212,8.609,4.212h60.89
					C582.718,464.94,586.571,463.072,586.571,460.728z"/>
				<path fill="#FFA38F" d="M575.957,460.336v-21.769h-33.178v21.769c0,1.121,1.945,2.035,4.227,2.035h24.705
					C574.072,462.371,575.957,461.458,575.957,460.336z"/>
				<path fill="#E36E54" d="M526.841,438.567H508.54v22.161c0,2.344,3.832,4.212,8.609,4.212h9.692V438.567z"/>
			</g>
			<path fill="#FE3401" d="M587.594,363.657v-217.62c-9.633,0.726-17.08,4.343-18.279,8.901v208.718H587.594z"/>
			<path fill="#FF6B57" d="M525.877,363.657h43.439V154.938l0,0l-0.061-0.098l-0.039,0.098c-1.298-5.089-10.459-8.999-21.659-9.052
				c-11.125,0-20.246,3.963-21.602,9.052c-0.039,0-0.039-0.098-0.039-0.098l-0.039,0.098l0,0V363.657z"/>
			<path fill="#FE3401" d="M525.877,154.938c-1.26-4.559-8.689-8.175-18.258-8.901v217.62h18.258V154.938z"/>
			<path fill="#FFFFFF" d="M507.557,146.037c9.592,0.689,17.06,4.343,18.32,8.901l0,0v-0.098c0,0,0.039,0.098,0.078,0.098
				c1.356-5.089,10.477-9.052,21.602-9.052c11.201,0.053,20.361,3.963,21.659,9.052l0.039-0.098l0.061,0.098l0,0
				c1.199-4.559,8.724-8.212,18.336-8.901l-40.095-82.502L507.557,146.037z"/>
			<g>
				<rect x="508.071" y="363.657" fill="#F0CA67" width="79.108" height="75.71"/>
			</g>
			<g>
				<rect x="544.767" y="363.657" fill="#F4DA80" width="16.134" height="75.681"/>
			</g>
			<path fill="#30363D" d="M535.528,88.407c3.754,0.216,7.486,0.432,11.378,0.432c4.308,0,8.553-0.216,12.713-0.559l-12.063-24.746
				L535.528,88.407z"/>
			<g>
				<rect x="580.045" y="371.584" fill="#F4DA80" width="5.07" height="10.882"/>
				<rect x="568.408" y="371.584" fill="#F4DA80" width="5.113" height="10.882"/>
				<rect x="556.775" y="371.584" fill="#F0CA67" width="5.09" height="10.882"/>
				<rect x="545.138" y="371.584" fill="#F0CA67" width="5.129" height="10.882"/>
				<rect x="533.504" y="371.584" fill="#F4DA80" width="5.07" height="10.882"/>
				<rect x="521.867" y="371.584" fill="#F4DA80" width="5.07" height="10.882"/>
				<rect x="510.272" y="371.584" fill="#F4DA80" width="5.068" height="10.882"/>
			</g>
			<g>
				<rect x="580.045" y="417.968" fill="#F4DA80" width="5.07" height="10.919"/>
				<rect x="568.408" y="417.968" fill="#F4DA80" width="5.113" height="10.919"/>
				<rect x="556.775" y="417.968" fill="#F0CA67" width="5.09" height="10.919"/>
				<rect x="545.138" y="417.968" fill="#F0CA67" width="5.129" height="10.919"/>
				<rect x="533.504" y="417.968" fill="#F4DA80" width="5.07" height="10.919"/>
				<rect x="521.867" y="417.968" fill="#F4DA80" width="5.07" height="10.919"/>
				<rect x="510.272" y="417.968" fill="#F4DA80" width="5.068" height="10.919"/>
			</g>
		</g>
	</g>
	<g>
		<polygon fill="#FE3401" points="713.808,388.721 658.819,370.85 603.825,352.986 621.696,407.974 639.563,462.966 
			658.884,425.356 688.245,454.714 705.552,437.401 676.191,408.044 		"/>
		<polygon fill="#FF6B57" points="658.819,370.85 603.825,352.986 604.42,354.813 696.282,446.677 705.552,437.401 676.191,408.044 
			713.808,388.721 		"/>
	</g>
</g>
</svg>
