<?xml version="1.0" encoding="utf-8"?>
<!-- Generator: Adobe Illustrator 17.0.0, SVG Export Plug-In . SVG Version: 6.00 Build 0)  -->
<!DOCTYPE svg PUBLIC "-//W3C//DTD SVG 1.1//EN" "http://www.w3.org/Graphics/SVG/1.1/DTD/svg11.dtd">
<svg version="1.1" id="Layer_1" xmlns="http://www.w3.org/2000/svg" xmlns:xlink="http://www.w3.org/1999/xlink" x="0px" y="0px"
	 width="44px" height="33px" viewBox="0 0 44 33" enable-background="new 0 0 44 33" xml:space="preserve">
<g>
	<g>
		<path fill="#106cd5" d="M19.366,27.788c0.329-0.435,0.635-0.837,0.939-1.24c1.236-1.64,2.477-3.278,3.704-4.925
			c0.237-0.317,0.49-0.448,0.9-0.379c2.43,0.406,4.798,0.996,6.945,2.26c2.295,1.351,3.849,3.266,4.295,5.939
			c0.151,0.907,0.146,1.845,0.15,2.769c0.003,0.613-0.213,0.763-0.828,0.764c-7.855,0.008-15.71,0.019-23.564,0.023
			c-2.883,0.002-5.767-0.012-8.65-0.02c-0.614-0.002-0.796-0.156-0.835-0.769c-0.154-2.453,0.321-4.729,1.956-6.654
			c1.256-1.478,2.878-2.419,4.667-3.1c1.543-0.588,3.148-0.934,4.771-1.211c0.374-0.064,0.627,0.039,0.854,0.341
			c1.479,1.969,2.968,3.93,4.455,5.894C19.192,27.569,19.261,27.655,19.366,27.788z"/>
		<path fill="#106cd5" d="M12.433,15.369c-0.256,0.026-0.485,0.06-0.715,0.071c-1.165,0.056-2.151-0.779-2.299-1.937
			c-0.093-0.723-0.192-1.444-0.289-2.166c-0.106-0.78,0.15-1.426,0.697-1.983c0.115-0.116,0.21-0.311,0.211-0.471
			c0.006-1.117-0.009-2.236,0.348-3.312c1.029-3.102,3.216-4.911,6.401-5.362c1.971-0.279,3.996-0.309,5.97,0.102
			c3.604,0.75,6.087,3.861,6.089,7.538c0,0.431,0.005,0.862-0.002,1.292c-0.006,0.397-0.242,0.648-0.595,0.65
			c-0.354,0.002-0.58-0.25-0.601-0.646c-0.048-0.913,0.019-1.854-0.18-2.733c-0.622-2.741-2.43-4.347-5.131-4.966
			c-0.542-0.124-1.117-0.146-1.677-0.147c-1.225-0.002-2.459-0.047-3.673,0.082c-3.17,0.335-5.58,2.965-5.718,6.141
			c-0.018,0.405-0.002,0.812-0.002,1.239c0.123-0.012,0.218-0.021,0.228-0.022c0.289-0.935,0.491-1.858,0.855-2.712
			c1.075-2.525,3.071-3.847,5.753-4.183c1.339-0.168,2.67-0.094,3.968,0.298c2.179,0.659,3.636,2.097,4.46,4.198
			c0.781,1.991,0.833,4.052,0.511,6.132c-0.343,2.21-1.107,4.267-2.398,6.108c-0.803,1.146-1.77,2.124-3.051,2.732
			c-1.966,0.934-3.807,0.614-5.508-0.65c-1.676-1.245-2.708-2.967-3.481-4.867C12.548,15.662,12.496,15.529,12.433,15.369z
			 M14.478,16.907c0.823,1.484,1.83,2.785,3.459,3.45c0.952,0.388,1.917,0.377,2.872-0.005c0.881-0.352,1.601-0.931,2.213-1.641
			c1.614-1.871,2.458-4.085,2.837-6.493c0.179-1.138-0.397-2.05-1.47-2.435c-0.278-0.1-0.543-0.136-0.83-0.014
			c-0.252,0.107-0.527,0.161-0.788,0.249c-2.565,0.859-5.112,0.928-7.615-0.215c-0.394-0.18-0.671-0.096-0.951,0.164
			c-0.621,0.578-1.007,1.306-1.314,2.081c-0.037,0.094-0.026,0.221-0.002,0.325c0.163,0.697,0.327,1.395,0.513,2.086
			c0.039,0.146,0.147,0.296,0.263,0.397c1.269,1.103,2.764,1.66,4.424,1.819c0.184,0.018,0.297-0.034,0.416-0.182
			c0.316-0.395,0.743-0.547,1.24-0.446c0.542,0.11,0.955,0.57,1.01,1.094c0.06,0.583-0.248,1.11-0.778,1.332
			c-0.518,0.216-1.091,0.072-1.474-0.359c-0.081-0.092-0.189-0.218-0.291-0.225C16.909,17.8,15.669,17.48,14.478,16.907z"/>
	</g>
	<g>
		<path fill="#106cd5" d="M35.753,3.09c0.051,0.829,0.163,1.045,0.525,1.06c0.362,0.015,0.466-0.168,0.583-1.043
			c1.043,0,2.093-0.058,3.133,0.017c0.938,0.068,1.607,0.903,1.607,1.848c0.004,4.395,0.004,8.791,0,13.186
			c-0.001,1.085-0.826,1.899-1.917,1.901c-2.242,0.005-4.484,0.004-6.726,0c-1.173-0.002-1.963-0.811-1.963-1.99
			c0-4.318,0-8.636-0.001-12.954c0-1.237,0.791-2.029,2.027-2.027C33.925,3.091,34.829,3.09,35.753,3.09z M39.481,14.773
			c0-0.662,0.001-1.324,0-1.986c-0.002-0.793-0.413-1.21-1.197-1.211c-1.324-0.001-2.648-0.001-3.972,0
			c-0.77,0.001-1.193,0.419-1.194,1.18c-0.002,1.335-0.002,2.67,0,4.005c0.001,0.748,0.422,1.176,1.164,1.177
			c1.346,0.003,2.692,0.002,4.038,0c0.738-0.001,1.159-0.431,1.161-1.18C39.483,16.097,39.481,15.435,39.481,14.773z M36.298,6.803
			c-0.496,0-0.992-0.002-1.487,0.001c-0.387,0.002-0.627,0.204-0.631,0.524c-0.004,0.321,0.232,0.532,0.618,0.534
			c1.003,0.004,2.005,0.004,3.008,0.001c0.382-0.001,0.62-0.216,0.614-0.539c-0.006-0.309-0.239-0.516-0.601-0.519
			C37.312,6.799,36.805,6.803,36.298,6.803z M36.333,8.925c-0.518,0-1.036-0.003-1.553,0.001c-0.363,0.003-0.595,0.209-0.6,0.519
			c-0.004,0.313,0.226,0.536,0.581,0.538c1.025,0.005,2.049,0.005,3.074-0.001c0.36-0.002,0.587-0.222,0.583-0.535
			c-0.004-0.311-0.235-0.518-0.598-0.521C37.325,8.921,36.829,8.924,36.333,8.925z"/>
		<path fill="#106cd5" d="M34.202,12.65c1.408,0,2.795,0,4.201,0c0,1.401,0,2.788,0,4.203c-1.387,0-2.781,0-4.201,0
			C34.202,15.469,34.202,14.074,34.202,12.65z"/>
	</g>
</g>
</svg>
