<?xml version="1.0" encoding="utf-8"?>
<!-- Generator: Adobe Illustrator 17.0.0, SVG Export Plug-In . SVG Version: 6.00 Build 0)  -->
<!DOCTYPE svg PUBLIC "-//W3C//DTD SVG 1.1//EN" "http://www.w3.org/Graphics/SVG/1.1/DTD/svg11.dtd">
<svg version="1.1" id="Layer_1" xmlns="http://www.w3.org/2000/svg" xmlns:xlink="http://www.w3.org/1999/xlink" x="0px" y="0px"
	 width="44px" height="33px" viewBox="0 0 44 33" enable-background="new 0 0 44 33" xml:space="preserve">
<g>
	<path fill="#106cd5" d="M26.83,24.027c-0.519-1.109-1.408-1.671-2.553-1.861c-0.472-0.078-0.945-0.153-1.42-0.204
		c-0.307-0.033-0.491-0.157-0.616-0.454c-0.24-0.567-0.504-1.127-0.8-1.667c-0.557-1.016-1.393-1.664-2.589-1.662
		c-1.195,0.001-2.034,0.641-2.588,1.663c-0.301,0.555-0.569,1.13-0.823,1.708c-0.114,0.26-0.274,0.382-0.549,0.405
		c-0.276,0.023-0.549,0.081-0.825,0.112c-1.358,0.153-2.568,0.554-3.188,1.973c-0.281-0.691-0.203-1.175,0.355-1.665
		c0.849-0.746,1.178-1.738,0.798-2.851c-0.385-1.129-1.261-1.685-2.405-1.814c-0.521-0.059-0.871-0.223-1.066-0.752
		c-0.135-0.366-0.412-0.679-0.658-1.067c0.555-0.916,1.274-1.774,2.2-2.387c0.931-0.616,1.957-1.092,2.957-1.598
		c0.123-0.062,0.391,0.011,0.509,0.115c3.117,2.746,7.3,2.767,10.501,0.05c0.11-0.094,0.341-0.148,0.472-0.101
		c2.046,0.739,3.713,1.983,4.98,3.761c0.16,0.224,0.105,0.352,0.004,0.595c-0.402,0.97-1.11,1.325-2.119,1.567
		c-1.796,0.432-2.428,2.482-1.37,4.003c0.123,0.176,0.247,0.375,0.42,0.489C27.091,22.802,27.098,23.351,26.83,24.027z"/>
	<path fill="#106cd5" d="M25.153,6.32c-0.011,3.47-2.851,6.294-6.321,6.283c-3.471-0.011-6.293-2.85-6.283-6.321
		C12.56,2.813,15.401-0.011,18.87,0C22.341,0.011,25.164,2.85,25.153,6.32z"/>
	<path fill="#106cd5" d="M14.215,31.314c0.121-0.749,0.245-1.652,0.423-2.543c0.073-0.366-0.009-0.603-0.271-0.853
		c-0.548-0.521-1.072-1.068-1.594-1.615c-0.445-0.467-0.751-0.996-0.516-1.671c0.234-0.67,0.79-0.902,1.434-1.001
		c0.762-0.117,1.527-0.223,2.284-0.367c0.161-0.031,0.357-0.175,0.432-0.32c0.339-0.657,0.638-1.335,0.956-2.003
		c0.093-0.195,0.185-0.392,0.303-0.571c0.642-0.968,1.78-0.974,2.376,0.026c0.393,0.659,0.744,1.358,1.007,2.078
		c0.231,0.632,0.615,0.864,1.252,0.901c0.598,0.035,1.191,0.164,1.784,0.266c0.624,0.107,1.158,0.357,1.372,1.014
		c0.208,0.637-0.058,1.152-0.479,1.598c-0.572,0.607-1.176,1.183-1.739,1.797c-0.123,0.134-0.206,0.382-0.182,0.561
		c0.106,0.81,0.271,1.612,0.385,2.421c0.042,0.3,0.06,0.625-0.009,0.916c-0.22,0.927-1.082,1.31-1.999,0.871
		c-0.736-0.352-1.449-0.756-2.155-1.168c-0.297-0.173-0.526-0.201-0.836-0.015c-0.701,0.419-1.415,0.824-2.152,1.173
		C15.173,33.336,14.201,32.69,14.215,31.314z"/>
	<path fill="#106cd5" d="M36.349,20.361c-0.137,0.267-0.234,0.567-0.42,0.793c-0.292,0.356-0.627,0.684-0.977,0.984
		c-0.26,0.222-0.312,0.456-0.245,0.771c0.09,0.422,0.164,0.849,0.218,1.277c0.129,1.02-0.696,1.662-1.647,1.269
		c-0.469-0.194-0.901-0.474-1.368-0.675c-0.155-0.067-0.387-0.065-0.542,0.002c-0.41,0.176-0.794,0.411-1.193,0.611
		c-0.454,0.228-0.922,0.293-1.358-0.026c-0.433-0.317-0.531-0.771-0.443-1.281c0.045-0.258,0.042-0.533,0.131-0.774
		c0.239-0.654,0.015-1.112-0.512-1.504c-0.245-0.182-0.453-0.421-0.65-0.657c-0.633-0.76-0.333-1.692,0.633-1.929
		c0.448-0.11,0.911-0.177,1.371-0.207c0.344-0.023,0.519-0.173,0.65-0.474c0.178-0.409,0.378-0.813,0.612-1.192
		c0.558-0.904,1.517-0.9,2.072,0.01c0.256,0.42,0.436,0.886,0.689,1.308c0.087,0.145,0.279,0.278,0.445,0.314
		c0.451,0.099,0.915,0.133,1.371,0.211C35.844,19.305,36.269,19.754,36.349,20.361z"/>
	<path fill="#106cd5" d="M10.757,20.391c-0.131,0.254-0.221,0.542-0.401,0.755c-0.317,0.376-0.709,0.689-1.028,1.065
		c-0.127,0.15-0.21,0.398-0.197,0.594c0.03,0.444,0.135,0.883,0.204,1.325c0.075,0.473-0.019,0.903-0.406,1.21
		c-0.405,0.322-0.857,0.31-1.307,0.089c-0.415-0.204-0.814-0.444-1.241-0.617c-0.182-0.074-0.442-0.08-0.623-0.007
		C5.344,24.97,4.96,25.209,4.56,25.407c-0.459,0.227-0.929,0.272-1.354-0.058c-0.405-0.315-0.499-0.759-0.418-1.25
		c0.048-0.289,0.052-0.593,0.146-0.866c0.2-0.581,0.028-0.997-0.448-1.349c-0.233-0.173-0.429-0.4-0.629-0.614
		c-0.345-0.369-0.555-0.785-0.359-1.303c0.191-0.508,0.605-0.713,1.108-0.786c0.428-0.062,0.86-0.101,1.28-0.197
		c0.167-0.038,0.36-0.169,0.447-0.314c0.238-0.395,0.406-0.832,0.636-1.232c0.583-1.012,1.588-1.017,2.177-0.016
		c0.141,0.239,0.294,0.482,0.372,0.743c0.197,0.657,0.642,0.902,1.294,0.925c0.365,0.013,0.739,0.084,1.088,0.194
		C10.421,19.449,10.702,19.869,10.757,20.391z"/>
	<path fill="#106cd5" d="M42.579,12.089c-0.098,0.162-0.217,0.557-0.483,0.758c-0.821,0.622-1.016,1.369-0.714,2.325
		c0.077,0.245,0.04,0.558-0.036,0.813c-0.168,0.561-0.783,0.848-1.346,0.627c-0.414-0.162-0.811-0.377-1.193-0.606
		c-0.233-0.139-0.409-0.126-0.629,0.01c-0.301,0.186-0.617,0.349-0.933,0.508c-0.413,0.207-0.835,0.242-1.224-0.047
		c-0.399-0.296-0.56-0.733-0.424-1.19c0.298-1.007,0.176-1.83-0.739-2.487c-0.386-0.277-0.552-0.744-0.374-1.246
		c0.182-0.515,0.605-0.781,1.101-0.78c0.965,0.002,1.525-0.421,1.799-1.338c0.154-0.516,0.522-0.894,1.106-0.901
		c0.587-0.008,0.964,0.365,1.12,0.88c0.281,0.929,0.852,1.342,1.829,1.365C42.139,10.797,42.58,11.314,42.579,12.089z"/>
	<path fill="#106cd5" d="M24.591,28.813c0.879-1.081,2.144-1.828,2.381-3.383c0.088,0.099,0.144,0.144,0.177,0.202
		c0.718,1.266,2.049,1.743,3.403,1.207c0.271-0.107,0.528-0.249,0.79-0.381c0.494-0.248,0.87-0.006,0.854,0.552
		c-0.025,0.874-0.655,1.746-1.519,1.779C28.669,28.864,26.656,28.813,24.591,28.813z"/>
	<path fill="#106cd5" d="M10.71,25.362c0.232,1.591,1.491,2.358,2.399,3.439c-0.101,0.022-0.167,0.05-0.234,0.05
		c-1.803,0.002-3.606,0.016-5.409-0.006c-1.158-0.014-1.972-0.856-1.957-1.958c0.005-0.387,0.405-0.639,0.759-0.476
		c0.363,0.167,0.712,0.375,1.089,0.499c1.303,0.429,2.512-0.061,3.182-1.258C10.576,25.587,10.615,25.524,10.71,25.362z"/>
</g>
</svg>
