<?xml version="1.0" encoding="utf-8"?>
<!-- Generator: Adobe Illustrator 17.0.0, SVG Export Plug-In . SVG Version: 6.00 Build 0)  -->
<!DOCTYPE svg PUBLIC "-//W3C//DTD SVG 1.1//EN" "http://www.w3.org/Graphics/SVG/1.1/DTD/svg11.dtd">
<svg version="1.1" id="Layer_1" xmlns="http://www.w3.org/2000/svg" xmlns:xlink="http://www.w3.org/1999/xlink" x="0px" y="0px"
	 width="44px" height="33px" viewBox="0 0 44 33" enable-background="new 0 0 44 33" xml:space="preserve">
<g>
	<path fill="#106cd5" d="M42.208,5.209c0,8.579,0,17.129,0,25.701c-13.477,0-26.936,0-40.427,0c0-8.553,0-17.112,0-25.701
		C15.239,5.209,28.708,5.209,42.208,5.209z M19.232,18.76c-0.044,0.02-0.088,0.04-0.132,0.06c-0.082-0.109-0.172-0.213-0.244-0.328
		c-0.364-0.583-0.705-1.181-1.087-1.752c-0.392-0.585-1.104-0.754-1.627-0.425c-0.5,0.314-0.652,1.016-0.348,1.623
		c0.042,0.084,0.093,0.164,0.143,0.244c0.832,1.355,1.68,2.701,2.492,4.068c0.404,0.68,0.819,1.288,1.755,1.145
		c0.022,0.343,0.136,0.649-0.254,0.828c-0.075,0.034-0.114,0.211-0.117,0.323c-0.013,0.431-0.004,0.863-0.004,1.295
		c0,0.314,0.15,0.473,0.469,0.473c2.333-0.001,4.667-0.001,7-0.001c0.297,0,0.453-0.149,0.455-0.445
		c0.004-0.445,0.022-0.892-0.011-1.334c-0.011-0.143-0.134-0.315-0.256-0.404c-0.224-0.164-0.327-0.709-0.091-0.848
		c0.846-0.499,0.966-1.303,0.967-2.167c0.001-1.281-0.001-2.563-0.002-3.844c-0.001-0.661,0.014-1.322-0.008-1.982
		c-0.018-0.534-0.347-0.92-0.843-1.061c-0.49-0.139-0.972,0.036-1.276,0.467c-0.058,0.082-0.106,0.172-0.17,0.275
		c-0.492-0.925-1.533-1.134-2.274-0.096c-0.054-0.63-0.275-1.132-0.929-1.277c-0.614-0.136-1.064,0.13-1.399,0.663
		c-0.031-0.143-0.031-0.271-0.032-0.398c-0.002-0.796-0.004-1.592-0.007-2.387c0-0.108,0.003-0.216-0.009-0.323
		c-0.067-0.629-0.539-1.057-1.132-1.033c-0.596,0.025-1.026,0.484-1.028,1.127c-0.005,2.293-0.001,4.586-0.001,6.879
		C19.232,18.336,19.232,18.548,19.232,18.76z"/>
	<path fill="#106cd5" d="M42.225,4.517c-13.502,0-26.96,0-40.414,0c0-0.981-0.093-1.969,0.026-2.931
		c0.122-0.984,1.009-1.584,2.051-1.585C9.473-0.001,15.058,0,20.643,0c6.435,0,12.87,0,19.304,0c1.448,0,2.276,0.832,2.278,2.286
		C42.226,3.014,42.225,3.742,42.225,4.517z M39.333,1.265c-7.009,0-13.987,0-20.963,0c0,0.688,0,1.343,0,2.001
		c7.002,0,13.979,0,20.963,0C39.333,2.577,39.333,1.923,39.333,1.265z M10.236,2.278c0.007-0.63-0.508-1.184-1.12-1.203
		c-0.629-0.019-1.171,0.522-1.182,1.18c-0.01,0.646,0.533,1.211,1.159,1.204C9.706,3.452,10.229,2.912,10.236,2.278z M6.755,2.284
		C6.767,1.637,6.229,1.074,5.6,1.075C4.984,1.076,4.466,1.607,4.454,2.249C4.443,2.9,4.977,3.461,5.606,3.459
		C6.217,3.457,6.744,2.918,6.755,2.284z M13.708,2.266c0-0.632-0.519-1.179-1.131-1.193c-0.622-0.014-1.173,0.546-1.173,1.193
		c0,0.647,0.549,1.206,1.172,1.193C13.187,3.445,13.708,2.896,13.708,2.266z"/>
	<path fill="#106cd5" d="M42.215,31.61c0,0.474,0,0.917,0,1.39c-13.479,0-26.947,0-40.44,0c0-0.453,0-0.905,0-1.39
		C15.239,31.61,28.706,31.61,42.215,31.61z"/>
</g>
</svg>
