<?xml version="1.0" encoding="utf-8"?>
<!-- Generator: Adobe Illustrator 17.0.0, SVG Export Plug-In . SVG Version: 6.00 Build 0)  -->
<!DOCTYPE svg PUBLIC "-//W3C//DTD SVG 1.1//EN" "http://www.w3.org/Graphics/SVG/1.1/DTD/svg11.dtd">
<svg version="1.1" id="Layer_1" xmlns="http://www.w3.org/2000/svg" xmlns:xlink="http://www.w3.org/1999/xlink" x="0px" y="0px"
	 width="44px" height="33px" viewBox="0 0 44 33" enable-background="new 0 0 44 33" xml:space="preserve">
<g>
	<path fill="#FFFFFF" d="M34.361,19.921c0-4.124,0-8.249,0-12.373c0-0.518,0.113-0.633,0.623-0.633c1.028,0,2.057-0.001,3.085,0.001
		c0.438,0.001,0.606,0.167,0.606,0.608c0.001,8.282,0.001,16.565,0.001,24.847c0,0.393-0.121,0.515-0.525,0.516
		c-1.084,0.003-2.168,0.002-3.253-0.001c-0.462-0.001-0.536-0.081-0.537-0.558C34.361,28.192,34.361,24.057,34.361,19.921z"/>
	<path fill="#FFFFFF" d="M28.418,21.801c0-3.509,0-7.018,0-10.527c0-0.555,0.109-0.663,0.668-0.663c1.017-0.001,2.034-0.001,3.051,0
		c0.495,0.001,0.61,0.116,0.61,0.613c0.001,7.04,0.001,14.08,0,21.12c0,0.49-0.104,0.595-0.585,0.596
		c-1.05,0.002-2.101,0.001-3.151,0.001c-0.497,0-0.592-0.09-0.592-0.579C28.417,28.841,28.418,25.321,28.418,21.801z"/>
	<path fill="#FFFFFF" d="M22.543,24.718c0-2.548,0-5.095,0.001-7.643c0-0.521,0.113-0.635,0.623-0.635
		c1.028-0.001,2.056-0.001,3.084,0c0.478,0.001,0.614,0.138,0.614,0.62c0.001,5.084,0.001,10.168,0.001,15.251
		c0,0.535-0.091,0.628-0.618,0.629c-1.028,0.002-2.056,0.001-3.084-0.001c-0.556-0.001-0.62-0.066-0.62-0.613
		C22.543,29.791,22.543,27.254,22.543,24.718z"/>
	<path fill="#FFFFFF" d="M15.103,18.373c0,1.144,0,2.239,0,3.334c0,0.647-0.072,0.72-0.704,0.72c-1.632,0-3.264,0-4.897,0
		c-0.132,0-0.264,0-0.436,0c0,0.158,0,0.277,0,0.397c0,3.186,0,6.372,0,9.559c0,0.502-0.111,0.615-0.606,0.616
		C7.59,33,6.718,33,5.846,33c-0.264,0-0.508-0.038-0.521-0.376c-0.01-0.267,0.176-0.411,0.534-0.413
		c0.757-0.004,1.514-0.001,2.314-0.001c0-0.178,0-0.32,0-0.461c0-3.119,0-6.238,0-9.357c0-0.601,0.082-0.685,0.672-0.685
		c1.643-0.001,3.287,0,4.93,0c0.131,0,0.263,0,0.434,0c0-0.159,0-0.279,0-0.399c0-1.029-0.002-2.057,0-3.086
		c0.001-0.447,0.137-0.582,0.58-0.582c1.643-0.001,3.287,0,4.93,0.001c0.131,0,0.262,0,0.431,0c0-0.489,0-0.944,0-1.399
		c0-0.76,0-1.52,0.002-2.281c0.001-0.477,0.11-0.587,0.598-0.588c1.632-0.003,3.264-0.002,4.897-0.002c0.111,0,0.221,0,0.382,0
		c0-0.142,0-0.26,0-0.378c0.001-1.532,0.001-3.063,0.002-4.595c0-0.759,0.046-0.805,0.79-0.805c1.61,0,3.22,0,4.83-0.001
		c0.109,0,0.218,0,0.368,0c0-0.232,0-0.43,0-0.628c0-0.816,0.001-1.632,0.001-2.448c0-0.512,0.11-0.62,0.636-0.62
		c1.04,0,2.079,0,3.119,0c0.121,0,0.242,0,0.386,0c0-0.814,0-1.601,0-2.464c-0.173,0.152-0.31,0.271-0.445,0.391
		c-0.192,0.171-0.401,0.228-0.589,0.021c-0.168-0.185-0.133-0.396,0.036-0.571c0.38-0.394,0.764-0.784,1.15-1.173
		c0.148-0.149,0.305-0.122,0.443,0.013C37.153,0.506,37.55,0.9,37.94,1.3c0.175,0.18,0.18,0.388,0.002,0.566
		c-0.179,0.179-0.386,0.167-0.568-0.002c-0.131-0.121-0.241-0.264-0.444-0.371c-0.006,0.1-0.016,0.2-0.016,0.3
		c-0.001,0.749,0,1.498-0.001,2.247c-0.001,0.516-0.071,0.586-0.569,0.586c-1.128,0-2.256,0-3.424,0
		c-0.006,0.133-0.016,0.251-0.017,0.368c-0.001,0.917,0.001,1.833-0.001,2.75C32.9,8.2,32.781,8.32,32.326,8.32
		c-1.643,0.002-3.287,0.001-4.93,0.001c-0.122,0-0.245,0-0.407,0c-0.009,0.131-0.023,0.247-0.023,0.364
		c-0.001,1.52-0.001,3.041,0.001,4.561c0.001,0.836-0.016,0.854-0.837,0.853c-1.576-0.002-3.153-0.001-4.729-0.002
		c-0.11,0-0.219,0-0.35,0c-0.007,0.139-0.017,0.247-0.017,0.355c-0.001,1.084-0.001,2.169,0,3.253c0,0.566-0.099,0.668-0.654,0.667
		c-1.621,0-3.242,0-4.863,0C15.394,18.373,15.273,18.373,15.103,18.373z"/>
	<path fill="#FFFFFF" d="M16.664,26.831c0-1.855,0-3.711,0-5.566c0-0.497,0.11-0.606,0.611-0.606c1.039,0,2.079-0.001,3.118,0.001
		c0.438,0.001,0.58,0.139,0.58,0.583c0.002,3.733,0.002,7.466,0,11.199c0,0.377-0.12,0.497-0.505,0.498
		c-1.106,0.003-2.213,0.003-3.319,0c-0.385-0.001-0.485-0.11-0.485-0.509C16.664,30.564,16.664,28.697,16.664,26.831z"/>
	<path fill="#FFFFFF" d="M15.052,28.841c0,1.184,0.001,2.367-0.001,3.551c-0.001,0.421-0.119,0.546-0.531,0.547
		c-1.094,0.003-2.189,0.004-3.283,0.001c-0.41-0.001-0.513-0.105-0.513-0.522c-0.002-2.378-0.002-4.757,0.001-7.135
		c0.001-0.439,0.12-0.556,0.562-0.558c1.061-0.004,2.122-0.005,3.182-0.001c0.484,0.002,0.584,0.111,0.584,0.6
		c0,1.172,0,2.345,0,3.517C15.053,28.841,15.053,28.841,15.052,28.841z"/>
	<path fill="#FFFFFF" d="M16.719,10.707c0.006-1.095,0.848-1.927,1.938-1.916c1.092,0.012,1.913,0.854,1.904,1.954
		c-0.009,1.055-0.87,1.904-1.931,1.904C17.54,12.649,16.714,11.81,16.719,10.707z"/>
	<path fill="#FFFFFF" d="M6.258,12.216c0.003-1.104,0.831-1.915,1.944-1.905c1.088,0.01,1.898,0.83,1.896,1.922
		c-0.002,1.082-0.86,1.928-1.946,1.919C7.088,14.143,6.255,13.292,6.258,12.216z"/>
	<path fill="#FFFFFF" d="M26.751,4.398c0.008,1.084-0.835,1.946-1.911,1.955c-1.04,0.009-1.923-0.884-1.932-1.952
		c-0.009-1.057,0.844-1.906,1.916-1.908C25.884,2.491,26.744,3.341,26.751,4.398z"/>
	<path fill="#FFFFFF" d="M14.264,8.059c-1.044-0.003-1.917-0.875-1.922-1.919c-0.005-1.093,0.83-1.925,1.929-1.923
		c1.074,0.003,1.933,0.87,1.923,1.943C16.186,7.219,15.327,8.062,14.264,8.059z"/>
	<path fill="#FFFFFF" d="M20.747,9.052c-0.16-0.175-0.324-0.355-0.468-0.513c0.796-0.796,1.613-1.612,2.434-2.433
		c0.156,0.147,0.34,0.322,0.504,0.477C22.396,7.403,21.579,8.22,20.747,9.052z"/>
	<path fill="#FFFFFF" d="M10.293,10.57c-0.169-0.16-0.338-0.32-0.543-0.515c0.792-0.738,1.589-1.48,2.35-2.189
		c0.098,0.076,0.288,0.222,0.507,0.391c-0.811,0.755-1.598,1.487-2.385,2.219C10.245,10.507,10.269,10.539,10.293,10.57z"/>
	<path fill="#FFFFFF" d="M17.05,8.509c-0.194,0.185-0.368,0.351-0.558,0.533c-0.211-0.228-0.42-0.454-0.652-0.704
		c0.181-0.17,0.354-0.333,0.564-0.53C16.622,8.045,16.835,8.276,17.05,8.509z"/>
</g>
</svg>
