<?xml version="1.0" encoding="utf-8"?>
<!-- Generator: Adobe Illustrator 17.0.0, SVG Export Plug-In . SVG Version: 6.00 Build 0)  -->
<!DOCTYPE svg PUBLIC "-//W3C//DTD SVG 1.1//EN" "http://www.w3.org/Graphics/SVG/1.1/DTD/svg11.dtd">
<svg version="1.1" id="Layer_1" xmlns="http://www.w3.org/2000/svg" xmlns:xlink="http://www.w3.org/1999/xlink" x="0px" y="0px"
	 width="298px" height="216px" viewBox="0 0 298 216" enable-background="new 0 0 298 216" xml:space="preserve">
<circle fill="#FFC6BD" cx="150.096" cy="102.701" r="99.579"/>
<path fill="#FF6B57" d="M238.388,177.079c-0.01,2.149-0.02,4.298-0.031,6.446c0.011,0.726,0.021,1.451,0.031,2.176
	c-0.037,1.189,0.005,2.389-0.132,3.566c-0.197,1.709,0.438,2.347,2.113,1.908c0.725,0.011,1.446,0.02,2.171,0.03
	c2.15-0.011,4.3-0.02,6.45-0.03c0.724,0.011,1.448,0.02,2.171,0.03c5.563,0.224,5.352-0.721,5.239,5.634
	c-0.07,3.915,0.337,7.843-0.307,11.741c-1.007,2.825-2.93,4.736-5.751,5.747c-5.005,0.726-10.037,0.311-15.052,0.314
	c-61.325,0.036-122.651,0.02-183.978,0.007c-6.554-0.002-9.776-3.249-9.777-9.8c0-4.235,0.045-8.472,0.071-12.707
	c0.71-0.788,1.656-0.908,2.636-0.937c2.15-0.011,4.301-0.02,6.451-0.03c0.724,0.011,1.447,0.02,2.171,0.03
	c7.165,0.36,7.165,0.36,6.802-6.803c-0.01-0.725-0.019-1.447-0.029-2.172c0.01-2.15,0.02-4.301,0.029-6.45
	c-0.009-0.724-0.019-1.447-0.029-2.171c0.01-2.15,0.02-4.3,0.029-6.451c-0.01-0.723-0.019-1.447-0.029-2.171
	c0.01-2.15,0.02-4.3,0.029-6.45c-0.01-0.724-0.019-1.446-0.029-2.171c0.01-2.15,0.02-4.3,0.029-6.45
	c-0.01-0.724-0.019-1.447-0.029-2.171c0.003-1.729,0.006-3.458,0.009-5.188c-0.008-0.849-0.016-1.698-0.025-2.548
	c0.208-12.65,0.166-25.3,0.021-37.95c-0.019-1.135-0.039-2.271-0.059-3.406c0.241-0.913,0.191-1.832,0.038-2.75
	c-0.001-1.992-0.002-3.984-0.003-5.977c0.009-0.841,0.018-1.682,0.027-2.523c0.466-4.985,2.741-7.948,6.985-8.875
	c1.315-0.287,2.705-0.229,4.058-0.33c0.518,0.022,1.037,0.046,1.556,0.07c1.727-0.007,3.453-0.014,5.18-0.021
	c0.847,0.121,1.692,0.176,2.525-0.091c2.018,0.002,4.035,0.006,6.053,0.007c0.856,0.284,1.713,0.23,2.569-0.007
	c2.017,0.002,4.035,0.006,6.052,0.007c0.857,0.284,1.713,0.23,2.569-0.007c2.018,0.002,4.035,0.004,6.053,0.006
	c2.181,0.333,4.369,0.208,6.556,0.082c2.973,0.143,2.975,0.143,2.978-2.851c0.001-1.647-0.002-3.294-0.007-4.941
	c-0.013-4.538,1.675-6.705,6.06-7.772c1.288,0.03,2.576,0.087,3.864,0.088c18.201,0.006,36.403,0.005,54.604-0.001
	c1.362,0,2.718-0.006,4.022,0.464c2.822,1.522,3.996,3.924,3.885,7.079c-0.069,2.002,0.104,4.017-0.044,6.01
	c-0.136,1.786,0.516,2.347,2.182,1.933c0.292,0.004,0.584,0.007,0.877,0.011c0.428-0.005,0.854-0.011,1.28-0.018
	c0.849,0.121,1.693,0.176,2.526-0.091c2.019,0.002,4.034,0.006,6.053,0.007c0.856,0.284,1.713,0.23,2.569-0.007
	c2.017,0.002,4.033,0.006,6.051,0.008c0.856,0.28,1.715,0.23,2.57-0.008c2.017,0.002,4.035,0.006,6.053,0.007
	c0.856,0.284,1.713,0.23,2.569-0.007c2.017,0.002,4.033,0.006,6.051,0.008c0.597,0.035,1.194,0.069,1.792,0.104
	c0.573-0.002,1.146-0.005,1.721-0.007c0.496,0.025,0.992,0.067,1.487,0.073c5.401,0.07,8.555,2.831,9.364,8.208
	c0.004,0.143,0.007,0.287,0.01,0.431c0.002,0.569,0.004,1.138,0.005,1.707c0.004,0.148,0.005,0.296,0.008,0.445
	c0.003,0.427,0.007,0.853,0.011,1.279c-0.006,0.576-0.012,1.152-0.019,1.729c0,1.723,0,3.446,0,5.169
	c0.004,0.148,0.005,0.296,0.008,0.444c0.003,0.427,0.007,0.854,0.011,1.28c-0.005,0.433-0.01,0.865-0.018,1.298
	c0,0.437,0,0.874,0,1.31c-0.002,0.858-0.004,1.717-0.006,2.575c0.001,0.578,0.002,1.157,0.002,1.735
	c0.003,0.141,0.008,0.282,0.011,0.423c0,0.724,0.001,1.447,0.001,2.171c-0.004,0.281-0.008,0.56-0.011,0.84
	c0,1.729,0,3.457-0.001,5.187c0.003,0.142,0.008,0.282,0.011,0.423c0,0.723,0.001,1.447,0.001,2.171
	c-0.004,0.28-0.008,0.562-0.011,0.841c0,1.729,0,3.458-0.001,5.186c0.003,0.142,0.008,0.282,0.011,0.425
	c0,0.723,0.001,1.447,0.001,2.17c-0.004,0.281-0.008,0.562-0.011,0.841c0,1.729,0,3.459-0.001,5.187
	c0.003,0.142,0.008,0.282,0.011,0.424c0,0.724,0,1.446,0.001,2.17c0.056,0.218,0.112,0.436,0.168,0.654
	c-0.044,0.554-0.089,1.106-0.132,1.658c-0.267,1.535-0.152,3.071-0.012,4.606c0.01,0.424,0.019,0.849,0.028,1.272
	c-0.011,2.147-0.021,4.297-0.032,6.445c0.011,0.725,0.021,1.447,0.031,2.172c-0.011,2.15-0.021,4.301-0.031,6.453
	c0.011,0.724,0.021,1.449,0.031,2.173c-0.01,2.148-0.02,4.297-0.031,6.446c0.011,0.725,0.021,1.449,0.031,2.176
	c-0.01,2.147-0.02,4.297-0.031,6.445C238.367,175.629,238.378,176.354,238.388,177.079z M181.661,77.924
	c0.026-2.853,0.104-5.707,0.062-8.558c-0.032-2.035-1.164-3.105-3.221-3.194c-0.779-0.034-1.565,0.056-2.349,0.089
	c-0.571-0.034-1.143-0.097-1.715-0.097c-16.293-0.002-32.585-0.027-48.878,0.043c-2.133,0.009-4.275-0.632-6.402,0.031
	c-2.011,0.113-2.891,1.319-2.912,3.189c-0.03,2.828,0.035,5.656,0.06,8.483c1.2,0.833,2.513,0.338,3.786,0.323
	c0.428-0.01,0.856-0.02,1.285-0.031c8.949,0.037,17.899,0.101,26.848,0.104c10.74,0.002,21.479-0.047,32.219-0.073
	c0.293-0.004,0.585-0.007,0.879-0.01C181.589,78.298,181.688,78.182,181.661,77.924z M118.809,191.171
	c1.003,0.013,2.007,0.027,3.011,0.041c18.114,0,36.227,0.001,54.342,0.002c0.425,0.022,0.851,0.061,1.277,0.062
	c3.267,0.012,4.302-1.034,4.312-4.345c0.003-0.997,0.001-1.994,0-2.991c-0.006-5.006-0.007-5.006-5.158-4.679
	c-3.722-0.024-7.444-0.076-11.168-0.072c-14.678,0.015-29.356,0.046-44.036,0.07c-1.208-0.027-2.421,0.005-3.623-0.101
	c-1.23-0.107-1.599,0.374-1.559,1.572c0.081,2.348,0.035,4.698,0.024,7.047c-0.007,1.487,0.5,2.63,2.002,3.148
	C118.426,191.008,118.617,191.089,118.809,191.171z M85.271,89.596c-0.152,3.405-0.152,3.391,3.125,3.388
	c7.512-0.004,15.026-0.038,22.538,0.045c1.535,0.017,2.077-0.456,1.853-1.927c-0.075-0.492-0.067-0.997-0.097-1.496
	c0.144-0.976,0.292-1.853-1.217-1.847c-8.174,0.031-16.347,0.012-24.52-0.004C85.678,87.753,85.067,88.284,85.271,89.596z
	 M185.315,89.619c-0.213,3.375-0.213,3.377,3.094,3.375c7.041-0.004,14.082-0.006,21.122-0.015c3.316-0.005,3.316-0.012,3.165-3.378
	c0.307-1.735-0.788-1.855-2.073-1.853c-7.895,0.014-15.789,0.037-23.683-0.018C185.464,87.719,184.956,88.212,185.315,89.619z
	 M79.238,100.405c-4.257-0.017-8.514-0.046-12.77-0.037c-0.63,0.001-1.255,0.247-1.888,0.284c-1.109,0.065-1.416,0.649-1.385,1.687
	c0.065,2.211,0.041,4.427,0.053,6.639c-0.013,17.127-0.028,34.255-0.038,51.383c-0.005,9.625,0.033,19.249-0.036,28.871
	c-0.012,1.595,0.408,2.215,2.049,2.073c1.497-0.13,3.014-0.026,4.522-0.029c12.351-0.03,24.702-0.061,37.054-0.091
	c1.254,0.016,2.509,0.03,3.763,0.045c0.632-0.032,1.263-0.064,1.894-0.095c0.44,0.042,1.188,0.375,0.813-0.569
	c-0.616-1.56-0.374-3.197-0.598-4.788c0.036-0.714,0.103-1.429,0.103-2.144c0.004-24.89,0.003-49.777,0.001-74.666
	c0.001-2.146-0.118-4.301,0.041-6.436c0.139-1.877-0.63-2.443-2.338-2.196c-1.052,0.152-2.168,0.57-3.153,0.368
	c-4.376-0.898-8.773-0.073-13.155-0.245c-3.015-0.119-6.074-0.125-9.113-0.12c-1.347,0.002-2.729-0.117-3.794,0.978
	C80.811,100.521,80.122,100.247,79.238,100.405z M218.956,100.705c-0.512-0.461-1.134-0.265-1.719-0.292
	c-4.181-0.024-8.362-0.028-12.544-0.084c-1.077-0.015-2.031,0.58-3.161,0.378c-4.854-0.867-9.761,0.078-14.638-0.317
	c-1.158-0.094-1.751,0.678-1.71,1.947c0.071,2.214,0.028,4.433,0.033,6.649c-0.004,3.296-0.013,6.592-0.011,9.889
	c0.015,22.431,0.031,44.862,0.048,67.293c-0.144,1.457,0.061,2.924-0.678,4.344c-0.457,0.877,0.441,0.691,0.956,0.644
	c0.627,0.026,1.257,0.054,1.883,0.079c1.256-0.016,2.514-0.033,3.77-0.051c14.064,0.03,28.129,0.05,42.192,0.104
	c1.203,0.006,1.416-0.565,1.413-1.589c-0.037-13.133-0.051-26.264-0.069-39.397c0.009-0.41,0.018-0.821,0.026-1.232
	c0.005-13.368,0.01-26.735,0.014-40.102c0.004-2.352-0.019-4.704,0.025-7.055c0.02-1.031-0.248-1.654-1.424-1.561
	C228.566,100.732,223.742,99.925,218.956,100.705z M116.271,119.338c-0.013,17.159-0.022,34.317-0.04,51.475
	c-0.006,5.083-0.017,5.083,5.143,4.894c17.096,0.017,34.191,0.034,51.287,0.05c1.319-0.003,2.64-0.005,3.959-0.007
	c0.646,0.004,1.293,0.016,1.939,0.012c3.627-0.027,3.182,0.401,3.184-3.24c0.009-28.516,0.005-57.031,0.004-85.547
	c0-5.222-0.003-5.222-5.135-5.151c-18.411-0.002-36.822-0.004-55.232-0.007c-1.073-0.004-2.153,0.067-3.217-0.031
	c-1.493-0.138-1.965,0.424-1.957,1.933C116.271,95.591,116.259,107.464,116.271,119.338z M234.724,94.297
	c0.032-2.295,0.106-4.59,0.087-6.884c-0.032-3.645-1.959-5.578-5.561-5.609c-3.229-0.028-6.458-0.016-9.687-0.016
	c-10.764,0-21.527-0.004-32.29,0.022c-0.66,0.001-1.489-0.346-1.957,0.451c-0.987,1.691,0.164,3.772,2.074,3.773
	c7.822,0.004,15.644,0.029,23.464-0.017c1.838-0.011,3.246,0.717,3.531,2.447c0.329,1.999,0.581,4.186-1.281,5.792
	c-0.944,0.381-1.92,0.483-2.939,0.479c-7.603-0.021-15.205,0.013-22.807-0.034c-1.401-0.008-2.217,0.072-2.213,1.894
	c0.004,1.796,0.646,2.096,2.243,2.09c14.418-0.053,28.834-0.036,43.251-0.027C234.993,98.661,234.993,98.68,234.724,94.297z
	 M84.362,93.825c-2.602-4.826-0.867-7.813,4.495-7.8c7.391,0.02,14.782-0.042,22.172,0.045c1.71,0.02,1.862-0.788,1.766-2.097
	c-0.08-1.091,0.342-2.24-1.601-2.23c-14.279,0.074-28.559,0.026-42.838,0.058c-2.974,0.006-5.107,2.192-5.152,5.181
	c-0.037,2.438,0.036,4.877,0.06,7.315c-0.023,0.5-0.067,1.002-0.065,1.502c0.015,3.328-0.233,2.851,2.872,2.853
	c14.921,0.006,29.841-0.009,44.762,0.042c1.448,0.005,2.024-0.314,1.993-1.883c-0.028-1.483-0.257-2.153-1.989-2.13
	c-7.603,0.102-15.208,0.03-22.811,0.072C86.693,94.763,85.461,94.622,84.362,93.825z M45.096,205.947
	c0.02,3.236,1.751,5.072,4.958,5.236c0.789,0.039,1.581,0.02,2.371,0.02c46.336,0.001,92.672,0.003,139.007-0.001
	c18.678-0.001,37.356-0.005,56.033-0.027c3.561-0.006,5.365-1.807,5.388-5.229c0.031-3.159-0.011-6.321,0.126-9.476
	c0.062-1.476-0.491-1.771-1.842-1.769c-23.854,0.04-47.706,0.048-71.557,0.016c-1.238-0.002-1.642,0.337-1.929,1.569
	c-0.929,3.98-3.815,6.249-7.904,6.259c-13.937,0.031-27.875,0.019-41.812-0.016c-3.694-0.009-6.766-2.273-7.519-5.861
	c-0.379-1.805-1.174-1.963-2.709-1.952c-9.482,0.065-18.966,0.033-28.45,0.031c-14.081-0.003-28.163-0.012-42.244,0.001
	c-0.907,0-2.106-0.444-2.052,1.295C45.063,199.343,45.057,202.646,45.096,205.947z M148.973,194.747
	c-8.468,0-16.937,0.032-25.405-0.029c-1.634-0.012-2.019,0.444-1.475,1.981c0.891,2.516,2.715,4.012,5.461,4.073
	c3.371,0.077,6.746,0.042,10.118,0.043c10.692,0.005,21.386,0.023,32.079-0.007c3.083-0.01,5.041-1.301,5.95-3.711
	c0.774-2.053,0.59-2.349-1.539-2.351C165.767,194.74,157.369,194.744,148.973,194.747z"/>
<path fill="#FFC6BD" d="M70.693,78.201c-1.355,0.1-2.745,0.042-4.06,0.329c-4.245,0.927-6.519,3.891-6.985,8.875
	c-1.765,0.663-2.762,2.238-3.971,3.51c-1.117,1.175-1.902,1.289-2.817-0.061c0.271-1.047-0.857-1.63-0.859-2.587
	c0.317-0.789,1.584-1.006,1.296-2.159c1.057-0.226,1.77-0.612,0.83-1.773c-0.007-0.618,0.142-1.266-0.469-1.736
	c-0.302-0.231-0.474-0.763-0.221-0.916c1.898-1.143,0.781-2.75,0.722-4.192l-0.005,0.004c0.947,0.081,1.397-0.333,1.297-1.299
	L55.447,76.2c0.056-0.037,0.166-0.089,0.16-0.108c-0.031-0.104-0.09-0.198-0.14-0.297c-0.518-0.318-0.436-0.841-0.454-1.33
	c1.011-0.529,2.062-0.992,1.334-2.506c-0.186-0.386-0.152-1.045,0.452-1.279c0.964-0.374,1.157-0.908,0.548-1.778
	c-0.097-0.138,0.071-0.687,0.234-0.751c2.001-0.795,0.961-2.309,0.888-3.591l-0.003,0.003c0.145-0.144,0.289-0.289,0.433-0.433
	c1.235-0.665,0.812-2.035,1.286-3.023v-0.001c0.928,0.047,1.664-0.166,1.728-1.282c1.198-0.236,1.961-0.124,2.474,1.35
	C66.377,66.889,68.573,72.531,70.693,78.201z"/>
<path fill="#FFC6BD" d="M59.645,102.061c0.145,12.65,0.187,25.299-0.021,37.95c-0.393-0.006-0.787-0.011-1.18-0.017
	c0.507-1.963-1.231-3.123-1.696-4.737c0.886-1.209,0.033-1.27-0.861-1.304c0.88-2.051-0.374-3.564-1.294-5.162
	c0.593-0.771,0.776-1.433-0.448-1.731c0.356-1.828-0.278-3.493-0.849-5.169l-0.004,0.004c0.354-0.185,0.427-0.508,0.43-0.867
	c-0.43-0.288-0.859-0.577-1.289-0.866c0.033-0.615-0.108-1.26,0.457-1.761c0.176-0.156,0.31-0.684,0.283-0.697
	c-2.287-1.188-0.372-2.687-0.309-4.034c0.263-0.793,1.096-1.701-0.437-2.125c-0.216-1.407-1.908-2.633-0.536-4.271
	c0.042-0.051-0.492-0.587-0.758-0.896c0-0.577-0.001-1.154-0.002-1.73h0.001c0.569-0.078,1.09-0.179,0.425-0.864
	c-0.313-0.938-1.151-1.966,0.439-2.581c1.019,0.382,1.786,0.236,2.632-0.625c1.594-1.623,2.983-3.489,4.994-4.671
	c0.153,0.919,0.203,1.837-0.04,2.75c-1.844,0.186-3.149,1.583-3.328,2.973c-0.103,0.807,2.061,0.207,3.178,0.433
	C59.502,102.073,59.574,102.061,59.645,102.061z"/>
<path fill="#FFC6BD" d="M238.327,88.681c-0.001-0.569-0.003-1.138-0.005-1.707c0.045-0.043,0.134-0.098,0.126-0.129
	c-0.026-0.105-0.088-0.202-0.136-0.302c-0.81-5.377-3.963-8.138-9.364-8.208c-0.495-0.006-0.991-0.047-1.487-0.073
	c0.048-0.352,0.032-0.727,0.152-1.052c1.79-4.822,3.619-9.63,5.396-14.458c0.987-2.687,0.951-2.7,3.472-1.659
	c0.279,1.167,1.544,1.341,2.172,2.157c-0.276,0.722-0.845,1.445,0.015,2.159c0.687,0.018,1.209,0.621,1.066,1.036
	c-0.544,1.58,0.616,2.116,1.502,2.856c-0.14,0.579-0.279,1.158-0.419,1.737c0.833,0.958,1.624,1.839,0.93,3.327
	c-0.423,0.912,0.901,0.832,1.236,1.382c0.287,0.728-0.782,1.444-0.021,2.176c1.681,1.12,0.389,2.573,0.436,3.876
	c-0.227,3.225-2.463,5.07-4.73,6.895C238.554,88.689,238.441,88.685,238.327,88.681z"/>
<path fill="#FFC6BD" d="M238.324,114.566c0.001-1.729,0.001-3.457,0.001-5.187c0.354-0.275,0.356-0.555,0.011-0.84
	c0-0.724-0.001-1.448-0.001-2.171c0.042-0.042,0.128-0.096,0.121-0.126c-0.026-0.103-0.085-0.198-0.132-0.297
	c0-0.578-0.001-1.157-0.002-1.735c2.555-0.801,5.107-0.532,7.662,0.008c-0.118,0.88,0.109,1.621,0.868,2.147
	c0.413,1.09-1.77,1.803-0.438,3.026c-1.268,1.711,0.551,4.038-1.17,5.728c-0.412,0.405-0.03,1.089,0.733,1.168
	c0,0.575,0.001,1.148,0.003,1.723l0.002-0.002c-0.952-0.085-1.393,0.338-1.288,1.3c0.357,0.845,0.954,1.734-0.425,2.255
	c-0.063,0.023-0.168,0.105-0.162,0.116c0.789,1.704-0.913,3.267-0.279,4.956c0.035,0.674-0.078,1.274-0.721,1.666
	c-0.619,0.377-0.751,0.834-0.148,1.357c0.076,0.776-0.19,1.395-0.82,1.867c-0.33,0.248-1.004,0.526-0.786,0.894
	c1.129,1.898-0.936,2.486-1.416,3.708c-0.521,0.196-1.044,0.393-1.565,0.589c0.044-0.553,0.089-1.105,0.134-1.659
	c-0.057-0.219-0.113-0.438-0.169-0.654c-0.001-0.724-0.001-1.446-0.001-2.17c0.042-0.043,0.128-0.096,0.121-0.126
	c-0.026-0.104-0.085-0.198-0.132-0.298c0.001-1.728,0.001-3.457,0.001-5.187c0.354-0.275,0.356-0.555,0.011-0.841
	c0-0.723-0.001-1.447-0.001-2.17c0.042-0.043,0.128-0.096,0.121-0.127c-0.026-0.104-0.085-0.198-0.132-0.298
	c0.001-1.728,0.001-3.456,0.001-5.185c0.354-0.276,0.356-0.558,0.011-0.842c0-0.724-0.001-1.448-0.001-2.171
	c0.042-0.043,0.128-0.097,0.121-0.127C238.43,114.76,238.371,114.664,238.324,114.566z"/>
<path fill="#FFC6BD" d="M59.624,95.904c-2.011,1.183-3.4,3.048-4.994,4.671c-0.846,0.861-1.613,1.006-2.632,0.625
	c0.044-1.231-1.369-2.102-0.851-3.449c1.141-0.141,0.775-1.03,0.845-1.703c0.817-0.057,1.267-0.481,1.308-1.312
	c1.62-0.338,2.264-1.874,3.416-2.788c0.927-0.735,1.497-1.976,2.904-2.021C59.622,91.92,59.623,93.912,59.624,95.904z"/>
<path fill="#FFC6BD" d="M238.327,97.303c0-1.724,0-3.446,0-5.169c0.501-0.49,0.27-1.133,0.354-1.709
	c1.544-0.325,2.253-1.701,3.242-2.68c0.855-0.846,1.636-1.313,2.788-0.755c-0.719,1.493,1.626,1.662,1.29,2.989
	c-0.458,0.497-1.059,0.921-0.879,1.74c-0.898-0.003-1.328,0.717-1.878,1.237c-1.533,1.448-3.052,2.909-4.577,4.365
	C238.554,97.312,238.441,97.306,238.327,97.303z"/>
<path fill="#FFC6BD" d="M238.328,101.635c0-0.437,0-0.873,0-1.31c0.408-0.347,0.311-0.833,0.353-1.28
	c2.025-0.736,3.025-2.658,4.562-3.962c0.697-0.591,1.248-1.383,2.328-1.2c-0.425,1.46,1.325,2.116,1.272,3.438l0.003-0.003
	c-0.876,0.042-0.874,0.666-0.86,1.297c-0.001,0.141-0.001,0.282,0,0.423c-0.459,0.062-0.801,0.243-0.835,0.774
	c-0.04,0.615,0.261,0.917,0.849,0.978c-0.004,0.422-0.007,0.844-0.01,1.266C243.439,101.834,240.839,102.558,238.328,101.635z"/>
<path fill="#FFC6BD" d="M59.621,89.928c-1.408,0.045-1.978,1.285-2.904,2.021c-1.152,0.914-1.796,2.449-3.416,2.788
	c-0.191-0.345-0.514-0.424-0.873-0.434c0.024-0.576-0.108-1.075-0.458-1.571c-0.767-1.088-0.298-1.674,0.891-1.877
	c0.915,1.35,1.7,1.235,2.817,0.061c1.208-1.271,2.206-2.847,3.971-3.51C59.639,88.246,59.63,89.086,59.621,89.928z"/>
<path fill="#FFC6BD" d="M244.707,82.653c0.02,0.863-1.021,1.723-0.011,2.59c0.306,0.58,1.516,1.151,0.015,1.745
	c-1.152-0.558-1.933-0.09-2.788,0.755c-0.989,0.979-1.698,2.355-3.242,2.68c-0.111-0.01-0.223-0.017-0.335-0.019
	c-0.004-0.426-0.008-0.853-0.011-1.279c0.11-0.143,0.221-0.286,0.332-0.429c2.268-1.825,4.504-3.67,4.73-6.895
	C244.022,81.796,244.646,81.792,244.707,82.653z"/>
<path fill="#EAE9E9" d="M59.639,173.61c0.01,0.724,0.02,1.447,0.029,2.171"/>
<path fill="#FFC6BD" d="M245.122,91.717c0.308,0.503,0.815,0.415,1.287,0.436c-0.078,0.676,0.309,1.575-0.839,1.731
	c-1.08-0.183-1.631,0.609-2.328,1.2c-1.536,1.304-2.536,3.227-4.562,3.962c-0.111-0.01-0.223-0.016-0.335-0.019
	c-0.004-0.426-0.008-0.854-0.011-1.28c0.11-0.143,0.221-0.286,0.332-0.428c1.525-1.456,3.044-2.917,4.577-4.365
	C243.794,92.434,244.224,91.714,245.122,91.717z"/>
<path fill="#FFA38F" d="M238.328,101.635c2.511,0.923,5.111,0.199,7.661,0.421c0.888,0.723,1.62,1.445-0.005,2.162
	c-2.555-0.541-5.107-0.81-7.662-0.008C238.324,103.352,238.326,102.494,238.328,101.635z"/>
<path fill="#FFC6BD" d="M239.074,139.577c0.394,0.839,0.217,1.446-0.714,1.744c-0.141-1.535-0.255-3.071,0.012-4.606
	c0.521-0.195,1.043-0.392,1.564-0.588c0.548,0.951,0.658,1.741-0.653,2.166C238.485,138.55,238.553,139.051,239.074,139.577z"/>
<path fill="#FFA38F" d="M245.985,99.038c0.56,0.021,0.844,0.317,0.866,0.873c-0.022,0.547-0.307,0.841-0.853,0.879
	c-0.588-0.062-0.889-0.363-0.849-0.978C245.185,99.281,245.526,99.101,245.985,99.038z"/>
<path fill="#FFC6BD" d="M244.694,119.308c-0.104-0.962,0.336-1.385,1.288-1.3C245.707,118.594,245.27,119.02,244.694,119.308z"/>
<path fill="#FFA38F" d="M234.722,150.302c0.019,13.134,0.032,26.265,0.069,39.397c0.003,1.023-0.21,1.595-1.413,1.589
	c-14.063-0.055-28.128-0.074-42.192-0.103c0.369-0.213,0.728-0.453,1.112-0.639c9.313-4.491,17.521-10.536,24.964-17.681
	c1.217-1.167,1.342-1.974,0.047-3.132c-1.603-1.433-3.031-3.058-4.598-4.532c-0.939-0.885-1.633-1.651-0.261-2.735
	c0.441-0.348,0.458-0.871,0.056-1.333c-0.459-0.525-0.878-0.318-1.277,0.079c-1.32,1.319-2.641,2.638-3.957,3.96
	c-0.329,0.329-0.542,0.7-0.17,1.121c0.379,0.427,0.941,0.634,1.315,0.178c1.553-1.892,2.521-0.544,3.58,0.555
	c0.946,0.98,1.869,1.995,2.897,2.883c1.183,1.021,0.997,1.793-0.062,2.796c-5.483,5.199-11.488,9.689-18.044,13.434
	c-3.087,1.764-6.245,3.401-9.372,5.096c-0.626-0.025-1.256-0.053-1.883-0.078c0.679-1.959,1.319-3.931,2.042-5.873
	c7.822-21.057,15.632-42.115,23.513-63.149c1.653-4.411,3.006-8.94,5.058-13.198c6.205,0.011,12.411,0.021,18.616,0.032
	c-0.004,13.367-0.009,26.734-0.014,40.102c-0.556-0.231-1.132-0.808-1.651,0.033c-0.215,0.347-0.532,0.748-0.089,1.13
	C233.541,150.691,234.127,150.839,234.722,150.302z M220.314,146.875c1.43,0,2.858,0.004,4.287-0.001
	c0.526-0.002,1.023-0.074,1.073-0.755c0.057-0.791-0.449-0.957-1.092-0.956c-2.857,0.001-5.715,0.001-8.573,0.009
	c-0.566,0.001-0.976,0.209-0.971,0.86c0.002,0.664,0.432,0.837,0.989,0.839C217.458,146.875,218.887,146.873,220.314,146.875z
	 M220.267,135.711c1.36,0,2.72,0.009,4.081-0.006c0.641-0.006,1.379,0.057,1.34-0.925c-0.032-0.823-0.667-0.806-1.242-0.808
	c-2.722-0.006-5.442-0.005-8.163,0c-0.583,0.002-1.216-0.006-1.237,0.814c-0.025,0.97,0.711,0.913,1.355,0.919
	C217.688,135.718,218.978,135.709,220.267,135.711z M220.209,141.293c0-0.004,0-0.008,0-0.012c1.5,0,2.998,0.004,4.496-0.002
	c0.556-0.002,0.979-0.174,0.988-0.84c0.009-0.664-0.398-0.854-0.963-0.855c-2.785-0.007-5.568-0.002-8.352-0.016
	c-0.682-0.003-1.112,0.312-1.19,0.966c-0.117,0.968,0.667,0.732,1.167,0.746C217.639,141.317,218.925,141.293,220.209,141.293z
	 M212.789,139.148c-0.824,0.059-1.298,0.499-1.264,1.354c0.03,0.753,0.489,1.171,1.232,1.175c0.859,0.006,1.313-0.485,1.281-1.336
	C214.012,139.593,213.549,139.21,212.789,139.148z M212.743,144.752c-0.742,0.071-1.201,0.459-1.217,1.215
	c-0.017,0.854,0.451,1.349,1.31,1.319c0.868-0.028,1.285-0.582,1.215-1.414C213.986,145.124,213.487,144.768,212.743,144.752z
	 M214.076,134.791c-0.1-0.725-0.449-1.272-1.232-1.154c-0.762,0.118-1.307,0.639-1.271,1.464c0.027,0.659,0.518,0.997,1.165,1.006
	C213.599,136.114,214.036,135.646,214.076,134.791z M224.272,162.9c-0.623,0.054-0.878,0.532-0.971,0.996
	c-0.129,0.643,0.479,0.861,0.924,0.937c0.627,0.105,0.843-0.495,0.917-0.952C225.238,163.297,224.784,163.021,224.272,162.9z
	 M230.27,154.68c-0.594,0.09-0.877,0.547-0.854,1.019c0.024,0.502,0.476,0.908,0.983,0.913c0.596,0.005,0.761-0.593,0.805-1.043
	C231.265,154.975,230.775,154.771,230.27,154.68z M233.049,152.671c-0.074-0.462-0.305-0.9-0.906-0.9
	c-0.501,0-0.752,0.407-0.783,0.857c-0.04,0.578,0.288,0.98,0.87,0.996C232.739,153.635,232.912,153.194,233.049,152.671z
	 M228.245,157.354c-0.325,0.138-0.649,0.381-0.73,0.844c-0.105,0.604,0.218,0.982,0.774,1.06c0.505,0.07,0.775-0.325,0.854-0.768
	C229.245,157.902,228.903,157.568,228.245,157.354z M226.355,161.981c0.537-0.08,0.978-0.333,0.929-0.938
	c-0.038-0.47-0.448-0.752-0.9-0.747c-0.557,0.007-0.977,0.339-0.942,0.929C225.468,161.711,225.892,161.906,226.355,161.981z
	 M219.689,170.04c0.497-0.084,0.787-0.394,0.816-0.853c0.034-0.557-0.248-0.992-0.835-1.012c-0.483-0.016-0.767,0.371-0.802,0.825
	C218.825,169.563,219.135,169.922,219.689,170.04z"/>
<path fill="#FFA38F" d="M106.799,191.186c-12.352,0.03-24.703,0.061-37.054,0.091c-1.508,0.003-3.025-0.101-4.522,0.029
	c-1.641,0.142-2.061-0.479-2.049-2.073c0.069-9.622,0.031-19.246,0.036-28.871c0.01-17.128,0.025-34.256,0.038-51.383
	c6.21-0.016,12.422-0.033,18.633-0.05c1.701,4.471,3.427,8.932,5.099,13.416c5.07,13.601,10.13,27.206,15.173,40.816
	c3.452,9.317,6.871,18.648,10.305,27.974c-0.632,0.032-1.264,0.064-1.896,0.098c-0.252-0.616-0.855-0.673-1.371-0.913
	c-9.622-4.479-18.34-10.295-26.044-17.619c-1.063-1.011-1.229-1.774-0.058-2.798c1.132-0.989,2.172-2.091,3.205-3.188
	c0.954-1.013,1.838-1.926,3.105-0.369c0.441,0.543,1.031,0.463,1.485-0.058c0.467-0.537,0.047-0.918-0.309-1.276
	c-1.112-1.123-2.209-2.26-3.359-3.342c-0.457-0.43-0.873-1.384-1.719-0.54c-0.636,0.632-0.161,1.162,0.295,1.659
	c0.377,0.413,1.005,0.892,0.375,1.434c-2.134,1.837-3.497,4.565-6.366,5.548c-1.301,0.446-1.06,1.058-0.29,1.855
	c2.492,2.584,5.168,4.959,7.941,7.235C93.406,183.748,99.951,187.702,106.799,191.186z M80.18,146.884c1.433,0,2.865,0.001,4.297,0
	c0.638,0,1.151-0.143,1.1-0.946c-0.044-0.687-0.523-0.77-1.058-0.77c-2.793-0.004-5.586-0.007-8.379-0.004
	c-0.589,0.001-1.195,0.02-1.213,0.843c-0.019,0.823,0.571,0.875,1.171,0.878C77.459,146.892,78.819,146.887,80.18,146.884z
	 M80.163,135.706c1.433,0,2.865,0.002,4.298-0.001c0.628-0.002,1.164-0.128,1.116-0.938c-0.039-0.674-0.506-0.786-1.048-0.787
	c-2.866-0.001-5.731-0.002-8.596,0.001c-0.554,0-0.998,0.16-1.013,0.825c-0.019,0.813,0.552,0.896,1.16,0.898
	C77.44,135.714,78.801,135.707,80.163,135.706z M80.408,141.273c1.356,0,2.713,0.005,4.069-0.002
	c0.516-0.002,1.032-0.038,1.085-0.731c0.06-0.786-0.434-0.963-1.08-0.963c-2.856,0.002-5.712,0.002-8.569,0.007
	c-0.558,0.001-0.986,0.167-0.985,0.834c0.001,0.662,0.42,0.848,0.98,0.85C77.409,141.273,78.908,141.27,80.408,141.273z
	 M73.974,140.465c-0.028-0.664-0.332-1.199-1.087-1.29c-0.832-0.103-1.39,0.284-1.461,1.152c-0.061,0.737,0.301,1.256,1.053,1.351
	C73.314,141.783,73.826,141.373,73.974,140.465z M72.616,144.759c-0.854,0.095-1.266,0.604-1.183,1.437
	c0.075,0.739,0.563,1.144,1.31,1.093c0.859-0.058,1.276-0.599,1.197-1.429C73.87,145.113,73.366,144.767,72.616,144.759z
	 M73.94,135.072c-0.101-0.771-0.538-1.336-1.307-1.446c-0.779-0.114-1.173,0.419-1.212,1.154c-0.04,0.753,0.364,1.226,1.108,1.309
	C73.255,136.168,73.766,135.854,73.94,135.072z M73.06,162.079c-0.452,0.181-1.058,0.275-1.039,0.877
	c0.016,0.509,0.438,0.94,0.939,1.019c0.571,0.089,0.943-0.331,0.968-0.879C73.953,162.557,73.645,162.172,73.06,162.079z
	 M67.917,154.486c-0.122-0.483-0.265-1.019-0.907-0.927c-0.552,0.081-0.812,0.524-0.786,1.079c0.022,0.459,0.214,0.851,0.748,0.812
	C67.528,155.411,67.849,155.061,67.917,154.486z M71.776,160.334c-0.093-0.524-0.405-0.913-0.966-0.894
	c-0.504,0.018-1.022,0.249-0.937,0.883c0.075,0.558,0.525,0.808,1.074,0.79C71.414,161.098,71.751,160.889,71.776,160.334z
	 M65.126,150.806c-0.445,0.09-0.879,0.267-0.888,0.761c-0.01,0.58,0.399,0.906,0.965,0.896c0.452-0.008,0.862-0.266,0.876-0.748
	C66.097,151.128,65.694,150.845,65.126,150.806z M75.293,166.596c0.546-0.164,0.875-0.512,0.776-1.094
	c-0.074-0.441-0.345-0.846-0.848-0.781c-0.565,0.074-0.866,0.498-0.779,1.07C74.51,166.238,74.781,166.566,75.293,166.596z
	 M77.448,167.28c-0.56,0.116-0.881,0.475-0.839,1.046c0.034,0.46,0.328,0.848,0.814,0.84c0.599-0.01,0.886-0.451,0.846-1.016
	C78.237,167.693,77.958,167.364,77.448,167.28z M69.676,157.568c0-0.494-0.202-0.943-0.647-0.96
	c-0.473-0.015-0.986,0.239-1.018,0.84c-0.024,0.449,0.242,0.86,0.676,0.933C69.261,158.479,69.553,158.065,69.676,157.568z"/>
<path fill="#FF6B57" d="M176.62,175.749c-1.319,0.002-2.64,0.004-3.958,0.007c-0.515-0.589-0.996-1.211-1.548-1.763
	c-9.877-9.889-19.766-19.767-29.641-29.657c-1.11-1.111-2.161-2.283-3.239-3.427c10.264-0.02,20.527-0.03,30.792-0.061
	c3.635-0.011,4.93-1.301,4.935-4.924c0.014-9.548,0.014-19.096,0.006-28.641c-0.004-3.301-1.418-4.72-4.721-4.722
	c-13.494-0.008-26.989-0.007-40.483,0c-3.325,0.001-4.739,1.404-4.748,4.688c-0.018,6.458-0.025,12.918-0.036,19.379
	c-0.982-0.391-1.363-1.646-2.534-1.765c-0.037-0.405-0.074-0.812-0.109-1.219c0.014-13.943,0.029-27.886,0.043-41.83
	c18.411,0.002,36.822,0.005,55.233,0.006C176.614,113.132,176.617,144.439,176.62,175.749z"/>
<path fill="#FCFDFF" d="M45.096,205.947c-0.039-3.301-0.033-6.604-0.135-9.904c-0.054-1.739,1.145-1.295,2.052-1.295
	c14.081-0.013,28.163-0.004,42.244-0.001c9.484,0.002,18.968,0.034,28.45-0.031c1.535-0.011,2.331,0.147,2.709,1.952
	c0.753,3.588,3.825,5.853,7.519,5.861c13.938,0.034,27.876,0.047,41.812,0.016c4.089-0.01,6.976-2.278,7.904-6.259
	c0.287-1.232,0.69-1.571,1.929-1.569c23.851,0.032,47.703,0.024,71.557-0.016c1.351-0.002,1.904,0.293,1.842,1.769
	c-0.137,3.154-0.095,6.316-0.126,9.476C183.602,205.946,114.349,205.946,45.096,205.947z"/>
<path fill="#FFA38F" d="M138.234,140.909c1.078,1.144,2.129,2.315,3.239,3.427c9.875,9.891,19.764,19.769,29.641,29.657
	c0.552,0.552,1.033,1.174,1.548,1.763c-17.097-0.016-34.192-0.033-51.288-0.049c0.024-16.947,0.048-33.895,0.072-50.843
	c1.171,0.119,1.552,1.374,2.534,1.765c0.011,3.284,0.012,6.57,0.036,9.855c0.021,2.855,1.47,4.319,4.363,4.36
	C131.664,140.893,134.949,140.89,138.234,140.909z"/>
<path fill="#FFA38F" d="M112.775,108.969c0.001,24.888,0.003,49.776-0.001,74.666c0,0.715-0.067,1.43-0.103,2.144
	c-2.459-5.417-4.247-11.092-6.336-16.65c-5.116-13.608-10.137-27.253-15.174-40.894c-2.356-6.38-4.968-12.667-6.963-19.178
	C93.724,109.027,103.25,108.998,112.775,108.969z"/>
<path fill="#FFA38F" d="M185.255,186.169c-0.017-22.432-0.033-44.863-0.048-67.294c-0.002-3.297,0.007-6.593,0.011-9.889
	c9.521,0.023,19.044,0.046,28.565,0.07c-0.244,0.822-0.441,1.661-0.738,2.465c-6.338,17.118-12.677,34.237-19.038,51.348
	C191.115,170.645,188.174,178.402,185.255,186.169z"/>
<path fill="#E7F3FB" d="M45.096,205.947c69.253-0.001,138.505-0.001,207.757-0.002c-0.022,3.423-1.827,5.224-5.388,5.229
	c-18.677,0.022-37.355,0.026-56.033,0.027c-46.335,0.004-92.671,0.002-139.007,0.001c-0.79,0-1.582,0.02-2.371-0.02
	C46.847,211.02,45.116,209.184,45.096,205.947z"/>
<path fill="#FFC6BD" d="M180.443,78.234c-10.739,0.026-21.479,0.076-32.219,0.073c-8.949-0.003-17.899-0.067-26.848-0.104
	c0.008-3.114-0.292-6.27,0.125-9.329c0.311-2.286-0.3-2.87-2.343-2.636c2.127-0.663,4.27-0.021,6.402-0.031
	c16.293-0.07,32.585-0.045,48.878-0.043c0.572,0,1.144,0.063,1.715,0.097c0.613,2.533,0.407,5.111,0.427,7.676
	c0.027,3.564,0.014,3.563,3.5,4.08C180.209,78.037,180.322,78.16,180.443,78.234z M148.775,73.285c0,0.003,0,0.006,0,0.009
	c3.518,0,7.037,0.014,10.555-0.011c0.735-0.005,1.778,0.241,1.74-0.993c-0.032-1.052-0.966-0.873-1.646-0.874
	c-6.966-0.013-13.931-0.013-20.896,0c-0.678,0.001-1.613-0.191-1.633,0.875c-0.022,1.235,1.026,0.976,1.754,0.981
	C142.025,73.301,145.4,73.285,148.775,73.285z M172.691,70.672c-0.964,0.169-1.633,0.692-1.596,1.696
	c0.036,0.972,0.659,1.621,1.661,1.602c0.993-0.019,1.612-0.656,1.594-1.652C174.333,71.313,173.647,70.821,172.691,70.672z"/>
<path fill="#FFC6BD" d="M176.162,191.214c-18.115-0.001-36.229-0.002-54.342-0.002c-0.881-3.957-0.195-7.973-0.431-11.953
	c14.679-0.024,29.358-0.056,44.036-0.07c3.724-0.004,7.446,0.048,11.168,0.072C176.399,183.244,176.986,187.255,176.162,191.214z
	 M149.032,181.814c0-0.003,0-0.006,0-0.009c-0.719,0-1.438-0.001-2.155,0c-0.79,0.003-1.586-0.048-2.37,0.023
	c-2.281,0.206-3.065,1.203-3.235,4.444c-0.084,1.611,1.484,2.63,3.334,2.917c2.934,0.456,5.824-0.121,8.734-0.062
	c2.157,0.043,3.445-1.463,3.401-3.758c-0.041-2.17-1.316-3.519-3.398-3.552C151.905,181.795,150.469,181.814,149.032,181.814z"/>
<path fill="#FFA38F" d="M176.62,175.749c-0.003-31.31-0.006-62.617-0.008-93.927c5.132-0.071,5.135-0.071,5.135,5.151
	c0.001,28.516,0.005,57.031-0.004,85.547c-0.002,3.642,0.443,3.213-3.184,3.24C177.913,175.765,177.267,175.753,176.62,175.749z"/>
<path fill="#FFA38F" d="M63.264,94.298c-0.024-2.438-0.096-4.878-0.06-7.315c0.044-2.988,2.178-5.174,5.152-5.181
	c14.279-0.032,28.559,0.016,42.838-0.058c1.943-0.01,1.521,1.139,1.601,2.23c0.096,1.309-0.056,2.117-1.766,2.097
	c-7.39-0.088-14.782-0.025-22.172-0.045c-5.362-0.014-7.097,2.974-4.495,7.8c-0.606,0.75-1.455,0.465-2.205,0.467
	C75.86,94.311,69.562,94.3,63.264,94.298z M75.083,86.823c-0.374,1.824-2.996,1.611-2.898,2.913c0.073,0.985,0.49,2.573,1.213,3.351
	c0.723,0.776,2.436,0.266,3.492,0.143c1.352-0.158,0.562-2.572,1.783-3.492C77.542,88.818,76.409,87.899,75.083,86.823z"/>
<path fill="#FFA38F" d="M213.104,94.256c1.862-1.606,1.61-3.793,1.281-5.792c-0.285-1.73-1.693-2.458-3.531-2.447
	c-7.82,0.046-15.642,0.021-23.464,0.017c-1.91-0.001-3.062-2.083-2.074-3.773c0.468-0.797,1.297-0.449,1.957-0.451
	c10.763-0.026,21.526-0.022,32.29-0.022c3.229,0,6.458-0.012,9.687,0.016c3.602,0.031,5.528,1.964,5.561,5.609
	c0.02,2.294-0.055,4.589-0.086,6.884c-2.367-0.035-4.732-0.07-7.099-0.104c0.256-0.646-0.062-1.158-0.489-1.538
	c-1.217-1.08-1.995-2.082-1.605-4.016c0.396-1.971-1.418-3.419-3.538-3.407c-2.095,0.012-3.564,1.443-3.579,3.482
	c-0.015,2.033,1.473,3.795,3.482,3.509c2.079-0.297,3.247,0.525,4.232,2.083C221.788,94.29,217.445,94.273,213.104,94.256z"/>
<path fill="#E7F3FB" d="M148.973,194.746c8.396-0.002,16.794-0.006,25.189,0.001c2.129,0.002,2.313,0.298,1.539,2.351
	c-0.909,2.41-2.867,3.701-5.95,3.711c-10.692,0.03-21.386,0.012-32.079,0.007c-3.373-0.001-6.747,0.034-10.118-0.043
	c-2.746-0.062-4.57-1.558-5.461-4.073c-0.544-1.537-0.16-1.993,1.475-1.981C132.036,194.779,140.505,194.747,148.973,194.746z"/>
<path fill="#FF6B57" d="M121.446,124.864c-0.024,16.948-0.047,33.896-0.072,50.843c-5.16,0.188-5.148,0.188-5.143-4.895
	c0.018-17.157,0.027-34.315,0.039-51.476c1.929,1.152,2.882,3.454,5.066,4.309C121.372,124.052,121.409,124.459,121.446,124.864z"/>
<path fill="#FF6B57" d="M213.783,109.056c-9.521-0.023-19.045-0.047-28.565-0.07c-0.005-2.216,0.038-4.435-0.033-6.649
	c-0.041-1.27,0.552-2.042,1.71-1.947c4.877,0.395,9.783-0.55,14.638,0.317c1.13,0.202,2.084-0.393,3.161-0.378
	c4.182,0.056,8.363,0.06,12.543,0.083C216.027,103.27,215.263,106.306,213.783,109.056z"/>
<path fill="#FF6B57" d="M112.775,108.969c-9.526,0.029-19.052,0.058-28.577,0.086c-1.349-2.439-2.112-5.1-2.937-7.737
	c1.066-1.095,2.447-0.976,3.794-0.978c3.04-0.005,6.099,0,9.113,0.12c4.382,0.172,8.779-0.653,13.155,0.245
	c0.984,0.202,2.101-0.216,3.153-0.368c1.708-0.247,2.478,0.319,2.338,2.196C112.657,104.668,112.777,106.823,112.775,108.969z"/>
<path fill="#FFA38F" d="M121.336,123.646c-2.184-0.854-3.137-3.156-5.066-4.309c-0.011-11.873,0-23.746-0.065-35.62
	c-0.008-1.509,0.464-2.071,1.957-1.933c1.064,0.099,2.144,0.027,3.217,0.032C121.365,95.76,121.351,109.702,121.336,123.646z"/>
<path fill="#FFA38F" d="M63.264,94.298c6.298,0.002,12.596,0.013,18.894-0.005c0.75-0.002,1.598,0.283,2.205-0.467
	c1.099,0.796,2.331,0.938,3.664,0.93c7.603-0.042,15.208,0.029,22.811-0.072c1.732-0.023,1.961,0.646,1.989,2.13
	c0.031,1.569-0.545,1.888-1.993,1.883c-14.921-0.051-29.841-0.036-44.762-0.042c-3.105-0.002-2.857,0.475-2.872-2.853
	C63.197,95.3,63.241,94.798,63.264,94.298z"/>
<path fill="#FFA38F" d="M213.104,94.256c4.341,0.017,8.684,0.034,13.024,0.051c0.519,0.219,1.019,0.2,1.497-0.114
	c2.366,0.035,4.731,0.07,7.099,0.104c0.269,4.383,0.269,4.364-4.085,4.361c-14.417-0.009-28.833-0.025-43.251,0.027
	c-1.597,0.006-2.239-0.293-2.243-2.09c-0.004-1.822,0.812-1.902,2.213-1.894c7.602,0.047,15.204,0.013,22.807,0.034
	C211.185,94.739,212.16,94.637,213.104,94.256z"/>
<path fill="#FFC6BD" d="M213.783,109.056c1.479-2.75,2.244-5.786,3.453-8.644c0.586,0.028,1.208-0.168,1.719,0.293
	c-0.938,2.744-1.873,5.488-2.81,8.23c-2.052,4.258-3.404,8.787-5.058,13.198c-7.881,21.034-15.69,42.093-23.513,63.149
	c-0.723,1.942-1.363,3.914-2.042,5.873c-0.515,0.047-1.413,0.232-0.956-0.645c0.738-1.42,0.534-2.887,0.678-4.344
	c2.919-7.766,5.86-15.523,8.752-23.3c6.361-17.11,12.7-34.229,19.038-51.348C213.342,110.717,213.539,109.878,213.783,109.056z"/>
<path fill="#FFC6BD" d="M81.262,101.318c0.824,2.637,1.588,5.298,2.937,7.737c1.994,6.512,4.606,12.799,6.962,19.179
	c5.037,13.641,10.058,27.285,15.174,40.894c2.089,5.559,3.876,11.233,6.336,16.65c0.224,1.591-0.018,3.229,0.598,4.788
	c0.375,0.944-0.373,0.611-0.812,0.568c-3.434-9.326-6.852-18.657-10.304-27.975c-5.043-13.61-10.104-27.216-15.173-40.816
	c-1.671-4.483-3.398-8.944-5.1-13.415c-0.623-2.921-2.362-5.497-2.641-8.524C80.122,100.247,80.811,100.521,81.262,101.318z"/>
<path fill="#FFA38F" d="M216.146,108.936c0.937-2.743,1.872-5.487,2.81-8.23c4.787-0.78,9.611,0.027,14.408-0.354
	c1.176-0.093,1.443,0.53,1.424,1.561c-0.044,2.351-0.021,4.703-0.025,7.055C228.557,108.957,222.351,108.946,216.146,108.936z"/>
<path fill="#FFA38F" d="M79.238,100.405c0.279,3.027,2.018,5.603,2.641,8.524c-6.209,0.016-12.421,0.033-18.631,0.049
	c-0.012-2.212,0.013-4.428-0.053-6.639c-0.03-1.038,0.276-1.622,1.385-1.687c0.633-0.037,1.258-0.282,1.888-0.284
	C70.725,100.358,74.981,100.388,79.238,100.405z"/>
<path fill="#FFC6BD" d="M106.799,191.186c-6.848-3.483-13.393-7.438-19.347-12.325c-2.772-2.276-5.449-4.651-7.941-7.235
	c-0.77-0.798-1.011-1.409,0.29-1.855c2.869-0.982,4.231-3.711,6.366-5.548c0.63-0.542,0.002-1.021-0.375-1.434
	c-0.456-0.497-0.931-1.027-0.295-1.659c0.846-0.844,1.262,0.11,1.719,0.54c1.149,1.082,2.247,2.219,3.359,3.342
	c0.356,0.358,0.776,0.739,0.309,1.276c-0.454,0.521-1.044,0.601-1.485,0.058c-1.268-1.557-2.151-0.644-3.105,0.369
	c-1.032,1.097-2.072,2.198-3.205,3.188c-1.171,1.023-1.005,1.787,0.058,2.798c7.704,7.324,16.422,13.14,26.044,17.619
	c0.516,0.24,1.119,0.297,1.371,0.913C109.308,191.216,108.053,191.201,106.799,191.186z"/>
<path fill="#FCFDFF" d="M212.696,89.6c0.151,3.366,0.151,3.373-3.165,3.378c-7.04,0.009-14.081,0.011-21.122,0.015
	c-3.307,0.002-3.307,0-3.094-3.375C194.443,89.613,203.569,89.606,212.696,89.6z"/>
<path fill="#FCFDFF" d="M112.689,89.606c0.03,0.499,0.022,1.003,0.097,1.496c0.224,1.472-0.318,1.944-1.853,1.927
	c-7.512-0.083-15.026-0.05-22.538-0.045c-3.277,0.003-3.277,0.017-3.125-3.388C94.411,89.599,103.55,89.603,112.689,89.606z"/>
<path fill="#FFC6BD" d="M187.416,191.234c3.127-1.694,6.285-3.332,9.372-5.096c6.556-3.744,12.561-8.234,18.044-13.434
	c1.06-1.003,1.245-1.774,0.062-2.796c-1.028-0.888-1.951-1.902-2.897-2.883c-1.059-1.099-2.027-2.446-3.58-0.555
	c-0.374,0.456-0.937,0.249-1.315-0.178c-0.372-0.421-0.159-0.792,0.17-1.121c1.316-1.322,2.637-2.641,3.957-3.96
	c0.399-0.397,0.818-0.604,1.277-0.079c0.402,0.462,0.386,0.985-0.056,1.333c-1.372,1.084-0.679,1.851,0.261,2.735
	c1.566,1.475,2.995,3.1,4.598,4.532c1.295,1.158,1.17,1.965-0.047,3.132c-7.443,7.145-15.65,13.189-24.964,17.681
	c-0.385,0.186-0.743,0.426-1.112,0.639C189.93,191.201,188.672,191.219,187.416,191.234z"/>
<path fill="#FCFDFF" d="M50.695,191.176c-2.15,0.011-4.301,0.02-6.451,0.03"/>
<path fill="#FCFDFF" d="M59.668,175.781c-0.009,2.149-0.019,4.3-0.029,6.45"/>
<path fill="#FCFDFF" d="M176.162,191.214c0.824-3.959,0.237-7.97,0.431-11.953c5.151-0.327,5.152-0.327,5.158,4.679
	c0.001,0.997,0.003,1.994,0,2.991c-0.01,3.311-1.045,4.356-4.312,4.345C177.013,191.274,176.587,191.236,176.162,191.214z"/>
<path fill="#FCFDFF" d="M121.389,179.259c0.236,3.98-0.451,7.996,0.431,11.953c-1.004-0.014-2.008-0.028-3.011-0.041
	c-0.192-0.082-0.383-0.163-0.575-0.245c-1.502-0.519-2.009-1.661-2.002-3.148c0.01-2.349,0.057-4.699-0.024-7.047
	c-0.041-1.198,0.328-1.68,1.559-1.572C118.968,179.264,120.181,179.231,121.389,179.259z"/>
<path fill="#FCFDFF" d="M119.158,66.238c2.043-0.233,2.654,0.351,2.343,2.636c-0.417,3.059-0.117,6.215-0.125,9.329
	c-0.429,0.011-0.857,0.021-1.285,0.031c-1.215-0.654-2.529-0.15-3.786-0.323c-0.025-2.828-0.09-5.655-0.06-8.483
	C116.267,67.558,117.146,66.351,119.158,66.238z"/>
<path fill="#FCFDFF" d="M180.443,78.234c-0.121-0.074-0.234-0.197-0.363-0.217c-3.486-0.517-3.473-0.516-3.5-4.08
	c-0.02-2.565,0.187-5.144-0.427-7.676c0.783-0.034,1.569-0.123,2.349-0.089c2.057,0.089,3.188,1.159,3.221,3.194
	c0.043,2.852-0.035,5.706-0.062,8.558c-0.113,0.1-0.227,0.199-0.339,0.3C181.028,78.227,180.736,78.23,180.443,78.234z"/>
<path fill="#FFA38F" d="M112.689,89.606c-9.14-0.003-18.279-0.007-27.419-0.011c-0.204-1.312,0.408-1.843,1.682-1.84
	c8.173,0.016,16.346,0.035,24.52,0.004C112.982,87.753,112.833,88.631,112.689,89.606z"/>
<path fill="#FFA38F" d="M212.696,89.6c-9.127,0.006-18.253,0.013-27.381,0.018c-0.359-1.406,0.148-1.899,1.625-1.889
	c7.894,0.055,15.788,0.032,23.683,0.018C211.908,87.745,213.003,87.865,212.696,89.6z"/>
<path fill="#EAE9E9" d="M59.639,182.231c0.01,0.725,0.02,1.447,0.029,2.172"/>
<path fill="#EAE9E9" d="M52.866,191.206c-0.724-0.011-1.448-0.02-2.171-0.03"/>
<path fill="#FFC6BD" d="M59.645,102.061c-0.07,0-0.143,0.012-0.211-0.001c-1.117-0.226-3.281,0.374-3.178-0.433
	c0.179-1.39,1.484-2.787,3.328-2.973C59.606,99.79,59.625,100.926,59.645,102.061z"/>
<path fill="#FFC6BD" d="M234.722,150.302c-0.595,0.537-1.181,0.39-1.714-0.069c-0.443-0.382-0.126-0.783,0.089-1.13
	c0.52-0.841,1.096-0.265,1.651-0.033C234.739,149.48,234.73,149.892,234.722,150.302z"/>
<path fill="#FFA38F" d="M223.948,78.166c0.433-0.995,1.041-1.793,2.206-1.97c-0.139,0.692-0.277,1.383-0.414,2.074
	C225.143,78.235,224.545,78.201,223.948,78.166z"/>
<path fill="#D7ECF7" d="M116.306,77.911c1.256,0.173,2.57-0.331,3.786,0.323C118.819,78.249,117.506,78.744,116.306,77.911z"/>
<path fill="#FFC6BD" d="M238.346,90.405c0.112,0.002,0.224,0.009,0.335,0.019c-0.084,0.577,0.147,1.219-0.354,1.709
	C238.334,91.557,238.34,90.981,238.346,90.405z"/>
<path fill="#FFC6BD" d="M238.346,99.027c0.112,0.002,0.224,0.009,0.335,0.019c-0.042,0.447,0.056,0.933-0.353,1.28
	C238.336,99.892,238.341,99.46,238.346,99.027z"/>
<path fill="#A7CDED" d="M187.349,78.255c0.287-0.121,0.574-0.242,0.861-0.364c0.006,0.125,0.011,0.25,0.016,0.375
	C187.933,78.262,187.641,78.259,187.349,78.255z"/>
<path fill="#BFD8EF" d="M238.336,125.781c0.346,0.286,0.343,0.565-0.011,0.841C238.328,126.343,238.332,126.062,238.336,125.781z"/>
<path fill="#BFD8EF" d="M238.336,117.16c0.346,0.284,0.343,0.565-0.011,0.842C238.328,117.722,238.332,117.44,238.336,117.16z"/>
<path fill="#BFD8EF" d="M238.336,108.54c0.346,0.285,0.343,0.565-0.011,0.84C238.328,109.1,238.332,108.82,238.336,108.54z"/>
<path fill="#FFC6BD" d="M238.667,88.697c-0.111,0.143-0.222,0.286-0.332,0.429c-0.003-0.148-0.004-0.296-0.008-0.445
	C238.441,88.685,238.554,88.689,238.667,88.697z"/>
<path fill="#D7ECF7" d="M181.322,78.224c0.112-0.101,0.226-0.2,0.339-0.3C181.688,78.182,181.589,78.298,181.322,78.224z"/>
<path fill="#DBEEF7" d="M118.234,190.926c0.192,0.082,0.383,0.163,0.575,0.245C118.617,191.089,118.426,191.008,118.234,190.926z"/>
<path fill="#FFC6BD" d="M238.312,86.543c0.048,0.1,0.109,0.197,0.136,0.302c0.008,0.031-0.081,0.085-0.126,0.129
	C238.319,86.83,238.316,86.687,238.312,86.543z"/>
<path fill="#BFD8EF" d="M238.324,131.809c0.047,0.1,0.105,0.194,0.132,0.298c0.007,0.03-0.079,0.083-0.121,0.126
	C238.332,132.091,238.327,131.95,238.324,131.809z"/>
<path fill="#BFD8EF" d="M238.324,114.566c0.047,0.098,0.105,0.193,0.132,0.296c0.007,0.03-0.079,0.084-0.121,0.127
	C238.332,114.849,238.327,114.708,238.324,114.566z"/>
<path fill="#BFD8EF" d="M238.324,105.945c0.047,0.099,0.105,0.194,0.132,0.297c0.007,0.03-0.079,0.083-0.121,0.126
	C238.332,106.228,238.327,106.086,238.324,105.945z"/>
<path fill="#BFD8EF" d="M238.324,123.187c0.047,0.1,0.105,0.194,0.132,0.298c0.007,0.031-0.079,0.084-0.121,0.127
	C238.332,123.469,238.327,123.328,238.324,123.187z"/>
<path fill="#BFD8EF" d="M238.336,134.402c0.056,0.217,0.112,0.436,0.169,0.654C238.448,134.838,238.392,134.62,238.336,134.402z"/>
<path fill="#FFC6BD" d="M238.667,97.318c-0.111,0.143-0.222,0.286-0.332,0.428c-0.003-0.148-0.004-0.296-0.008-0.444
	C238.441,97.306,238.554,97.312,238.667,97.318z"/>
<path fill="#FF6B57" d="M219.628,66.135c-0.699,0.049-1.396,0.099-2.096,0.147c-2.153,0.008-4.309,0.017-6.464,0.025
	c-0.719-0.008-1.438-0.017-2.156-0.025c-2.139,0.008-2.146-1.506-2.156-3.017c0.215-1.373-0.477-1.816-1.729-1.683
	c-4.67-1.564-9.457-2.709-14.234-3.881c-1.103-0.469-2.242-0.785-3.436-0.904c-1.56-0.873-2.856-1.048-3.422,1.146
	c-0.137,0.526-0.539,0.983-0.819,1.472l-0.047,0.062c-0.111,0.12-0.222,0.241-0.332,0.361l-0.1,0.099
	c-0.118,0.11-0.237,0.222-0.358,0.332l-0.082,0.06c-3.387,2.081-6.817,2.716-10.343,0.318c-0.817-1.019-1.635-2.038-2.451-3.057
	c-0.207-0.554-0.412-1.106-0.619-1.66c-0.018-0.29-0.037-0.581-0.055-0.872c-0.103-1.104,0.421-2.275-0.36-3.305
	c-0.88-0.262-1.762-0.517-2.639-0.786c-1.004-0.308-1.836-0.582-2.161,0.972c-0.27,1.285-1.474,1.055-2.475,0.883
	c-0.88-0.967-0.727-2.195-0.851-3.354c-0.034-0.719-0.067-1.439-0.102-2.159c0.006-2.152,0.013-4.305,0.02-6.457
	c-0.007-0.722-0.014-1.443-0.02-2.165c0.034-2.154,0.067-4.308,0.102-6.462c0.266-0.952,0.354-2.043,1.69-2.153
	c0.81-0.066,1.531,0.247,1.651,1.035c0.245,1.622,1.231,1.215,2.203,0.958c10.198-2.708,20.394-5.42,30.59-8.131
	c1.77-0.509,3.62-0.743,5.3-1.561c0.425-0.103,0.85-0.206,1.274-0.308c0.834-0.186,1.662-0.42,2.507-0.545
	c1.077-0.159,1.441-0.765,1.348-1.786c-0.2-2.182,1-2.938,2.981-2.927c2.574,0.013,5.151,0.041,7.725-0.024
	c2.07-0.052,3.338,0.64,3.19,2.936c0.009,0.723,0.017,1.445,0.026,2.168c-0.205,2.15-0.182,4.301-0.025,6.452
	c-0.162,0.869-0.158,1.735,0.024,2.601c-0.016,2.291-0.03,4.583-0.046,6.874c0.016,0.581,0.031,1.162,0.048,1.744
	c-0.215,2.006-0.183,4.013-0.024,6.021c-0.164,0.871-0.162,1.74,0.024,2.607c-0.213,2.004-0.185,4.009-0.024,6.014
	c-0.164,0.871-0.162,1.739,0.024,2.607c-0.213,2.004-0.185,4.009-0.024,6.015c-0.063,0.862-0.128,1.724-0.191,2.584
	C220.22,65.65,219.923,65.893,219.628,66.135z M164.092,43.43c0.004,1.718-0.59,3.551,2.09,4.13
	c4.464,0.966,8.877,2.19,13.281,3.417c1.531,0.426,1.922-0.048,1.9-1.496c-0.053-3.446-0.018-6.894-0.018-10.341
	c0.742-1.796,0.188-3.679,0.374-5.511c0.178-1.753-0.558-2.089-2.154-1.645c-3.7,1.03-7.437,1.935-11.154,2.902
	c-4.367,1.136-4.367,1.142-4.358,5.758C164.055,41.572,164.077,42.501,164.092,43.43z M217.106,27.921
	c0.02-2.069,0.006-4.14,0.075-6.209c0.037-1.128-0.467-1.688-1.518-1.438c-1.787,0.423-3.968-1.152-5.388,1.053
	c-0.066,0.102-0.021,0.28-0.019,0.422c0.032,2.068,0.067,4.135,0.102,6.203c-0.005,0.853-0.009,1.705-0.013,2.558
	c0.004,0.14,0.008,0.279,0.011,0.418c-0.003,2.734-0.007,5.469-0.011,8.203c0.004,0.14,0.008,0.279,0.011,0.418
	c-0.003,2.734-0.007,5.469-0.011,8.203c0.004,0.139,0.008,0.279,0.011,0.419c-0.003,2.734-0.007,5.468-0.011,8.202
	c0.004,0.14,0.008,0.279,0.011,0.419c0.01,1.16,0.021,2.319,0.031,3.479c-0.003,0.272-0.007,0.544-0.011,0.817
	c0.016,0.441,0.032,0.882,0.048,1.323l0.019,0.183l0.183,0.018c1.582,0.309,3.17,0.142,4.757,0.069
	c0.141,0.003,0.28,0.007,0.419,0.011c0.29,0.001,0.579,0.002,0.869,0.003c0.254,0.064,0.353-0.067,0.373-0.295
	C217.066,50.907,217.087,39.414,217.106,27.921z M185.197,37.836c-0.005,4.306,0.022,8.613-0.029,12.919
	c-0.016,1.176,0.312,1.846,1.531,2.161c6.018,1.553,12.036,3.113,18.016,4.8c1.686,0.476,2.1,0.136,2.083-1.59
	c-0.078-7.966-0.042-15.934-0.046-23.9c0.005-1.937-0.026-3.875,0.029-5.811c0.037-1.281-0.312-1.588-1.641-1.219
	c-6.128,1.701-12.286,3.296-18.441,4.896c-1.055,0.274-1.583,0.77-1.538,1.932C185.236,33.959,185.19,35.898,185.197,37.836z
	 M176.872,58.882c1.859-0.113,3.22-1.031,4.187-2.594c0.456-0.736,0.25-1.194-0.57-1.414c-2.343-0.626-4.685-1.259-7.027-1.884
	c-0.921-0.245-1.264,0.112-1.308,1.069C172.038,56.573,174.258,58.887,176.872,58.882z"/>
<path fill="#FFA38F" d="M202.953,22.066c-0.425,0.103-0.85,0.206-1.275,0.308c-1.327-0.739-2.653-1.478-3.98-2.216
	c-5.693-3.742-11.923-6.321-18.339-8.512c-5.134-1.753-10.407-2.936-15.718-3.975c-0.717-0.031-1.441,0.001-2.146-0.102
	c-3.25-0.472-6.503-0.809-9.797-0.806c-1.38,0.001-1.947,0.397-1.867,1.834c0.099,1.788,0.062,3.588,0.015,5.38
	c-0.029,1.137,0.094,2.021,1.567,1.896c0.561-0.048,0.985,0.2,0.97,0.86c-0.016,0.667-0.465,0.82-1.019,0.826
	c-1.219,0.014-2.438,0.021-3.658,0.032c-0.72-0.007-1.438-0.016-2.157-0.023c0.128-0.591-0.985-1.785,0.565-1.667
	c2.081,0.16,2.111-0.991,2.031-2.48c-0.072-1.342-0.019-2.689-0.021-4.035c-0.004-0.579-0.009-1.157-0.013-1.736
	c-0.054-0.606-0.407-0.869-0.992-0.848c-2.11,0.075-4.25-0.294-6.314,0.432c-0.72-0.001-1.44-0.003-2.16-0.005
	c-1.466,0.145-2.944,0.226-4.316,0.851c-2.526-0.062-4.967,0.59-7.375,1.158c-7.896,1.862-15.465,4.664-22.646,8.473
	c-1.616,0.857-3.278,1.654-3.609,3.743c-1.115-0.506-2.168-0.815-3.209,0.266c-0.35,0.363-1.023,0.416-1.55,0.61
	c-0.456-0.032-0.946,0.088-1.325-0.292c0.652-1.287,2.011-1.728,3.1-2.432c1.058-0.683,2.201-1.063,1.319-2.643
	c-0.066-0.119,0.246-0.451,0.384-0.683c1.733,1.883,3.164,0.461,4.738-0.352c7.748-4.001,15.91-6.861,24.436-8.688
	c1.92-0.412,3.831-0.867,5.745-1.303c5.343-0.22,10.635-1.115,16.021-0.938c2.857,0.094,5.678,0.714,8.546,0.489
	c7.083,0.816,14.049,2.272,20.815,4.477c5.216,1.7,10.284,3.844,15.09,6.548c1.048,0.59,2.066,1.292,3.306,1.475
	c1.139,0.797,2.299,1.567,3.41,2.402C202.111,20.833,202.929,21.124,202.953,22.066z"/>
<path fill="#FF6B57" d="M94.613,22.037c0.379,0.38,0.87,0.26,1.326,0.292c1.89,0.532,3.779,1.063,5.669,1.595
	c9.929,2.635,19.856,5.276,29.789,7.896c1.276,0.336,2.752,1.269,3.214-1.124c0.147-0.762,1.173-0.642,1.885-0.662
	c1.539,0.945,1.006,2.56,1.266,3.918c0.026,0.721,0.053,1.441,0.079,2.161c-0.007,2.152-0.013,4.305-0.021,6.458
	c0.007,0.721,0.014,1.443,0.021,2.165c-0.031,1.414-0.062,2.828-0.093,4.242c-0.45,0.647-0.235,1.389-0.28,2.09
	c-0.06,0.928-0.26,1.739-1.381,1.833c-0.917,0.077-1.633-0.376-1.707-1.26c-0.105-1.252-0.718-1.087-1.583-0.88
	c-3.277,0.785-3.281,0.766-3.625,4.181c-0.394,3.905-3.429,6.858-7.359,7.123c-0.854,0.057-1.716,0.003-2.574,0
	c-2.616-0.891-4.721-2.361-5.668-5.096c-0.274-0.793-0.734-0.886-1.478-0.658c-1.492,0.458-3.069,0.637-4.479,1.368
	c-0.475-0.028-0.96-0.109-1.357,0.264c-0.552,0.165-1.106,0.33-1.659,0.495c-2.908,0.635-5.809,1.305-8.625,2.289
	c-3.198,0.188-4.933,1.891-5.249,5.065l-0.037-0.023c-0.826,0.171-1.651,0.343-2.476,0.516c-2.693-0.016-5.388-0.094-8.079-0.025
	c-1.842,0.048-2.822-0.667-2.855-2.547c0.162-0.872,0.163-1.742-0.027-2.609c0.213-2.002,0.184-4.006,0.024-6.011
	c0.167-0.872,0.165-1.742-0.024-2.611c0.211-2.004,0.186-4.009,0.024-6.016c0.167-3.74,0.228-7.48-0.024-11.22
	c0.213-2.005,0.183-4.012,0.024-6.018c0.167-0.872,0.165-1.743-0.024-2.611c0.211-2.004,0.186-4.01,0.024-6.016
	c0.03-0.866,0.061-1.733,0.091-2.599c0.618-0.946,1.544-1.2,2.606-1.197c2.727,0.008,5.455-0.014,8.182,0.001
	c1.913,0.011,3.167,0.665,3.059,2.913C91.092,22.209,93.351,21.442,94.613,22.037z M133.908,43.439
	c0.006-1.929-0.025-3.859,0.037-5.786c0.032-0.997-0.267-1.64-1.276-1.905c-4.818-1.261-9.636-2.522-14.445-3.816
	c-1.323-0.356-1.654,0.227-1.623,1.41c0.053,1.927,0.042,3.856,0.059,5.785c-0.007,3.447,0.021,6.894-0.037,10.34
	c-0.024,1.428,0.334,1.954,1.884,1.514c3.987-1.132,8.009-2.143,12.025-3.173C133.93,46.937,133.935,46.956,133.908,43.439z
	 M81.309,62.696c1.584-0.004,3.167-0.01,4.751-0.014c0.14,0.003,0.279,0.007,0.419,0.011c0.291-0.027,0.583-0.054,0.875-0.08
	l0.183-0.018l0.018-0.183c0.014-0.437,0.027-0.874,0.041-1.311c0.066-0.143,0.043-0.271-0.067-0.384
	c0.339-2.596,0.2-5.199,0.106-7.801c-0.004-0.14-0.007-0.28-0.01-0.419c0.003-2.734,0.006-5.469,0.01-8.203
	c-0.004-0.139-0.007-0.279-0.01-0.418c0.003-2.734,0.006-5.468,0.01-8.203c-0.004-0.14-0.007-0.279-0.01-0.419
	c-0.001-2.434-0.003-4.868-0.004-7.303c0.035-2.067,0.052-4.135,0.113-6.203c0.028-0.96-0.354-1.652-1.333-1.462
	c-1.843,0.358-3.945-1.045-5.539,0.801c-0.145,0.167-0.045,0.555-0.043,0.84c0.016,1.998,0.036,3.997,0.055,5.994
	c-0.017,1.856-0.055,3.712-0.049,5.568c0.03,9.637,0.072,19.274,0.11,28.911C80.958,62.626,81.055,62.761,81.309,62.696z
	 M112.789,37.837c0.008-1.938-0.026-3.878,0.04-5.814c0.035-1.022-0.323-1.624-1.32-1.885c-6.293-1.653-12.591-3.286-18.867-5.006
	c-1.374-0.376-1.454,0.276-1.441,1.278c0.023,1.938,0.024,3.876,0.034,5.814c-0.003,7.966,0.034,15.933-0.043,23.897
	c-0.017,1.717,0.382,2.079,2.075,1.594c5.834-1.668,11.698-3.248,17.586-4.719c1.475-0.369,2-0.958,1.971-2.458
	C112.741,46.307,112.791,42.071,112.789,37.837z M121.052,58.879c2.454-0.041,4.337-1.853,4.782-4.263
	c0.275-1.488-0.062-2.038-1.613-1.569c-1.704,0.515-3.438,0.927-5.142,1.445c-0.829,0.253-2.171,0.036-2.295,1.086
	c-0.128,1.087,0.943,1.844,1.805,2.485C119.354,58.633,120.265,58.824,121.052,58.879z"/>
<path fill="#FFC6BD" d="M55.447,76.202c0.001-0.135,0.008-0.271,0.02-0.406c0.05,0.1,0.109,0.194,0.14,0.298
	C55.613,76.112,55.503,76.165,55.447,76.202z"/>
<path fill="#FCFDFF" d="M58.466,64.563c0.145-0.144,0.289-0.289,0.433-0.433C58.755,64.274,58.61,64.419,58.466,64.563z"/>
<path fill="#FFC6BD" d="M246.846,97.318c0.006,0.626-0.291,1.053-0.86,1.297C245.972,97.984,245.97,97.36,246.846,97.318z"/>
<path fill="#FFC6BD" d="M220.314,146.874c-1.428-0.001-2.856,0.001-4.286-0.003c-0.558-0.002-0.987-0.175-0.989-0.839
	c-0.005-0.651,0.404-0.859,0.971-0.86c2.858-0.008,5.716-0.008,8.573-0.009c0.643-0.001,1.148,0.165,1.092,0.956
	c-0.05,0.681-0.547,0.753-1.073,0.755C223.173,146.879,221.744,146.875,220.314,146.874z"/>
<path fill="#FFC6BD" d="M220.267,135.709c-1.289,0-2.578,0.009-3.866-0.003c-0.645-0.006-1.381,0.051-1.355-0.919
	c0.021-0.82,0.654-0.812,1.237-0.814c2.721-0.005,5.441-0.006,8.163,0c0.575,0.002,1.21-0.016,1.242,0.808
	c0.039,0.981-0.699,0.919-1.34,0.925C222.986,135.72,221.627,135.711,220.267,135.709z"/>
<path fill="#FFC6BD" d="M220.209,141.293c-1.284,0-2.57,0.024-3.854-0.013c-0.5-0.014-1.284,0.222-1.167-0.746
	c0.078-0.653,0.509-0.969,1.19-0.966c2.783,0.014,5.566,0.009,8.352,0.016c0.564,0.001,0.972,0.191,0.963,0.855
	c-0.009,0.666-0.433,0.838-0.988,0.84c-1.498,0.006-2.996,0.002-4.496,0.002C220.209,141.285,220.209,141.289,220.209,141.293z"/>
<path fill="#FFC6BD" d="M212.789,139.148c0.76,0.062,1.223,0.444,1.25,1.193c0.032,0.851-0.422,1.342-1.281,1.336
	c-0.743-0.004-1.202-0.422-1.232-1.175C211.491,139.647,211.965,139.207,212.789,139.148z"/>
<path fill="#FFC6BD" d="M212.743,144.752c0.744,0.016,1.243,0.372,1.308,1.12c0.07,0.832-0.347,1.386-1.215,1.414
	c-0.858,0.029-1.326-0.466-1.31-1.319C211.542,145.211,212.001,144.823,212.743,144.752z"/>
<path fill="#FFC6BD" d="M214.076,134.791c-0.04,0.855-0.478,1.323-1.339,1.315c-0.647-0.009-1.138-0.347-1.165-1.006
	c-0.035-0.825,0.51-1.346,1.271-1.464C213.627,133.519,213.977,134.066,214.076,134.791z"/>
<path fill="#FFC6BD" d="M224.272,162.9c0.512,0.121,0.966,0.396,0.87,0.98c-0.074,0.457-0.29,1.058-0.917,0.952
	c-0.445-0.075-1.053-0.294-0.924-0.937C223.395,163.433,223.649,162.954,224.272,162.9z"/>
<path fill="#FFC6BD" d="M230.27,154.68c0.506,0.092,0.995,0.295,0.935,0.889c-0.044,0.45-0.209,1.048-0.805,1.043
	c-0.508-0.005-0.959-0.411-0.983-0.913C229.393,155.227,229.676,154.77,230.27,154.68z"/>
<path fill="#FFC6BD" d="M233.049,152.671c-0.137,0.523-0.31,0.964-0.819,0.953c-0.582-0.016-0.91-0.418-0.87-0.996
	c0.031-0.45,0.282-0.857,0.783-0.857C232.744,151.771,232.975,152.209,233.049,152.671z"/>
<path fill="#FFC6BD" d="M228.245,157.354c0.658,0.215,1,0.549,0.897,1.136c-0.078,0.442-0.349,0.838-0.854,0.768
	c-0.557-0.077-0.88-0.456-0.774-1.06C227.596,157.734,227.92,157.491,228.245,157.354z"/>
<path fill="#FFC6BD" d="M226.355,161.981c-0.464-0.075-0.888-0.271-0.914-0.756c-0.034-0.59,0.386-0.922,0.942-0.929
	c0.452-0.005,0.862,0.277,0.9,0.747C227.333,161.648,226.893,161.901,226.355,161.981z"/>
<path fill="#FFC6BD" d="M219.689,170.04c-0.555-0.118-0.864-0.477-0.82-1.039c0.035-0.454,0.318-0.841,0.802-0.825
	c0.587,0.02,0.869,0.455,0.835,1.012C220.477,169.646,220.187,169.956,219.689,170.04z"/>
<path fill="#FFC6BD" d="M80.18,146.887c-1.361,0-2.721,0.005-4.082-0.002c-0.601-0.003-1.19-0.055-1.171-0.878
	c0.018-0.823,0.624-0.842,1.213-0.843c2.793-0.003,5.586,0,8.379,0.004c0.535,0,1.014,0.083,1.058,0.77
	c0.052,0.804-0.461,0.946-1.1,0.946C83.045,146.885,81.613,146.884,80.18,146.887z"/>
<path fill="#FFC6BD" d="M80.163,135.707c-1.361,0-2.722,0.007-4.083-0.002c-0.607-0.003-1.178-0.085-1.16-0.898
	c0.016-0.665,0.459-0.825,1.013-0.825c2.865-0.003,5.73-0.002,8.596-0.001c0.542,0.001,1.009,0.113,1.048,0.787
	c0.047,0.81-0.488,0.936-1.116,0.938C83.027,135.708,81.595,135.706,80.163,135.707z"/>
<path fill="#FFC6BD" d="M80.408,141.271c-1.5-0.002-2.999,0.002-4.499-0.004c-0.56-0.002-0.979-0.188-0.98-0.85
	c-0.001-0.667,0.427-0.833,0.985-0.834c2.856-0.005,5.712-0.005,8.569-0.007c0.646,0,1.14,0.177,1.08,0.963
	c-0.053,0.693-0.569,0.729-1.085,0.731C83.121,141.278,81.764,141.273,80.408,141.271z"/>
<path fill="#FFC6BD" d="M73.974,140.465c-0.148,0.908-0.659,1.318-1.495,1.213c-0.752-0.095-1.114-0.613-1.053-1.351
	c0.072-0.868,0.629-1.255,1.461-1.152C73.642,139.266,73.945,139.801,73.974,140.465z"/>
<path fill="#FFC6BD" d="M72.616,144.759c0.75,0.008,1.254,0.354,1.325,1.101c0.079,0.83-0.338,1.371-1.197,1.429
	c-0.747,0.051-1.235-0.354-1.31-1.093C71.35,145.363,71.761,144.854,72.616,144.759z"/>
<path fill="#FFC6BD" d="M73.94,135.072c-0.175,0.781-0.686,1.096-1.411,1.017c-0.744-0.083-1.148-0.556-1.108-1.309
	c0.039-0.735,0.433-1.269,1.212-1.154C73.403,133.736,73.84,134.302,73.94,135.072z"/>
<path fill="#FFC6BD" d="M73.06,162.079c0.585,0.093,0.893,0.478,0.869,1.017c-0.025,0.548-0.397,0.968-0.968,0.879
	c-0.501-0.078-0.924-0.51-0.939-1.019C72.002,162.354,72.608,162.26,73.06,162.079z"/>
<path fill="#FFC6BD" d="M67.917,154.486c-0.068,0.574-0.389,0.925-0.944,0.964c-0.534,0.039-0.726-0.353-0.748-0.812
	c-0.027-0.555,0.233-0.998,0.786-1.079C67.652,153.468,67.795,154.003,67.917,154.486z"/>
<path fill="#FFC6BD" d="M71.776,160.334c-0.024,0.555-0.362,0.764-0.829,0.779c-0.548,0.018-0.999-0.232-1.074-0.79
	c-0.085-0.634,0.432-0.865,0.937-0.883C71.371,159.421,71.683,159.81,71.776,160.334z"/>
<path fill="#FFC6BD" d="M65.126,150.806c0.568,0.039,0.971,0.322,0.954,0.908c-0.015,0.482-0.425,0.74-0.876,0.748
	c-0.566,0.011-0.975-0.315-0.965-0.896C64.247,151.072,64.681,150.896,65.126,150.806z"/>
<path fill="#FFC6BD" d="M75.293,166.596c-0.512-0.029-0.783-0.357-0.851-0.805c-0.086-0.572,0.214-0.996,0.779-1.07
	c0.503-0.064,0.773,0.34,0.848,0.781C76.167,166.084,75.839,166.432,75.293,166.596z"/>
<path fill="#FFC6BD" d="M77.448,167.28c0.51,0.084,0.789,0.413,0.821,0.87c0.04,0.564-0.247,1.006-0.846,1.016
	c-0.486,0.008-0.78-0.38-0.814-0.84C76.567,167.755,76.889,167.396,77.448,167.28z"/>
<path fill="#FFC6BD" d="M69.676,157.568c-0.124,0.497-0.415,0.911-0.988,0.812c-0.435-0.072-0.701-0.483-0.676-0.933
	c0.032-0.601,0.545-0.854,1.018-0.84C69.475,156.625,69.676,157.074,69.676,157.568z"/>
<path fill="#FFC6BD" d="M138.234,140.909c-3.285-0.02-6.571-0.017-9.855-0.064c-2.894-0.041-4.343-1.505-4.363-4.36
	c-0.023-3.285-0.025-6.571-0.036-9.855c0.011-6.461,0.018-12.921,0.036-19.379c0.009-3.284,1.423-4.687,4.748-4.688
	c13.494-0.007,26.989-0.008,40.483,0c3.303,0.002,4.717,1.421,4.721,4.722c0.008,9.545,0.008,19.093-0.006,28.641
	c-0.005,3.623-1.3,4.913-4.935,4.924C158.762,140.879,148.498,140.89,138.234,140.909z M125.806,113.288
	c0.028,5.291,0.056,10.583,0.083,15.874c-0.041,2.505-0.144,5.012-0.102,7.517c0.027,1.586,0.854,2.512,2.583,2.457
	c2.435-0.075,4.871-0.094,7.306-0.137c11.403,0.034,22.807,0.069,34.21,0.104c1.987,0.005,2.326-1.329,2.328-2.897
	c0.011-7.246-0.013-14.491,0.033-21.737c0.007-1.168-0.271-1.648-1.545-1.644c-14.849,0.054-29.698,0.059-44.547,0.075
	C125.902,112.905,125.775,113.025,125.806,113.288z M148.859,111.104c7.112,0,14.224,0.011,21.336-0.017
	c0.658-0.002,1.487,0.353,1.939-0.478c1.549-2.843-0.416-6.286-3.59-6.292c-7.328-0.013-14.656-0.017-21.983-0.021
	c-5.675-0.003-11.351-0.006-17.025,0.001c-3.285,0.004-3.782,0.496-3.792,3.688c-0.001,0.287,0.038,0.581-0.004,0.861
	c-0.257,1.735,0.366,2.333,2.214,2.303C134.921,111.037,141.891,111.104,148.859,111.104z"/>
<path fill="#FF6B57" d="M148.775,73.285c-3.375,0-6.75,0.016-10.125-0.012c-0.728-0.006-1.776,0.253-1.754-0.981
	c0.02-1.067,0.955-0.875,1.633-0.875c6.965-0.013,13.93-0.013,20.896,0c0.68,0.001,1.613-0.178,1.646,0.874
	c0.038,1.234-1.005,0.988-1.74,0.993c-3.518,0.024-7.037,0.011-10.555,0.011C148.775,73.292,148.775,73.288,148.775,73.285z"/>
<path fill="#FF6B57" d="M172.691,70.672c0.956,0.149,1.642,0.642,1.659,1.645c0.019,0.997-0.601,1.633-1.594,1.652
	c-1.002,0.019-1.625-0.63-1.661-1.602C171.059,71.364,171.728,70.841,172.691,70.672z"/>
<path fill="#FFA38F" d="M149.032,181.814c1.437,0,2.874-0.02,4.311,0.005c2.082,0.033,3.357,1.382,3.398,3.552
	c0.044,2.295-1.244,3.801-3.401,3.758c-2.91-0.06-5.8,0.518-8.734,0.062c-1.851-0.287-3.419-1.306-3.334-2.917
	c0.17-3.241,0.954-4.238,3.235-4.444c0.784-0.071,1.58-0.021,2.37-0.023c0.718-0.001,1.436,0,2.155,0
	C149.032,181.809,149.032,181.812,149.032,181.814z"/>
<path fill="#FF6B57" d="M75.083,86.823c1.326,1.076,2.458,1.996,3.59,2.915c-1.221,0.92-0.431,3.334-1.783,3.492
	c-1.056,0.123-2.77,0.633-3.492-0.143c-0.723-0.778-1.14-2.366-1.213-3.351C72.088,88.434,74.709,88.646,75.083,86.823z"/>
<path fill="#FF6B57" d="M227.626,94.193c-0.479,0.314-0.979,0.333-1.497,0.114c-0.985-1.558-2.153-2.38-4.232-2.083
	c-2.01,0.287-3.497-1.476-3.482-3.509c0.015-2.04,1.484-3.47,3.579-3.482c2.12-0.013,3.935,1.436,3.538,3.407
	c-0.39,1.934,0.389,2.936,1.605,4.016C227.563,93.035,227.882,93.547,227.626,94.193z M223.996,88.667
	c-0.291-1.096-0.889-1.852-2.091-1.757c-1.16,0.092-1.888,0.794-1.775,1.982c0.107,1.125,0.929,1.902,2.016,1.818
	C223.201,90.628,223.862,89.792,223.996,88.667z"/>
<path fill="#FF6B57" d="M151.58,47.313c0.001-5.027,0.002-10.055,0.002-15.083c0.138-1.307,0.688-2.216,2.158-2.242
	c0.699,0.231,1.153,0.707,1.39,1.399c-0.018,6.347-0.062,12.692-0.031,19.039c0.009,1.614-0.376,2.676-2.234,2.559
	c-1.481-0.792-1.141-2.239-1.265-3.518C151.592,48.75,151.586,48.032,151.58,47.313z"/>
<path fill="#FF6B57" d="M146.426,36.111c-0.018,5.03-0.037,10.059-0.056,15.088c-0.343,1.04-0.897,1.83-2.139,1.807
	c-0.708-0.212-1.161-0.678-1.368-1.385c-0.017-3.726-0.034-7.452-0.051-11.178c-0.004-0.432-0.01-0.864-0.014-1.296
	c0.022-2.588,0.044-5.177,0.066-7.766c0.341-1.134,1.197-1.41,2.252-1.354c1.635,0.912,1.062,2.549,1.289,3.923
	C146.412,34.67,146.419,35.391,146.426,36.111z"/>
<path fill="#C5DCF0" d="M182.737,59.84c0.11-0.121,0.221-0.241,0.332-0.361C182.958,59.6,182.848,59.719,182.737,59.84z"/>
<path fill="#C5DCF0" d="M182.279,60.271c0.121-0.11,0.24-0.222,0.358-0.332C182.52,60.049,182.4,60.16,182.279,60.271z"/>
<path fill="#FFA38F" d="M206.752,32.227c0.004,7.966-0.032,15.934,0.046,23.9c0.017,1.726-0.397,2.065-2.083,1.59
	c-5.979-1.688-11.998-3.247-18.016-4.8c-1.219-0.315-1.547-0.985-1.531-2.161c0.052-4.306,0.024-8.613,0.029-12.919
	C192.381,35.966,199.566,34.096,206.752,32.227z"/>
<path fill="#FFC6BD" d="M210.347,39.13c0.004-2.734,0.008-5.469,0.01-8.203c0.038-0.043,0.113-0.094,0.106-0.128
	c-0.021-0.101-0.075-0.194-0.116-0.291c0.004-0.853,0.008-1.705,0.012-2.558c2.25-0.009,4.499-0.019,6.748-0.03
	c-0.02,11.493-0.04,22.986-0.062,34.479c-0.123,0.099-0.248,0.197-0.373,0.295c-0.29-0.001-0.579-0.002-0.869-0.002
	c-0.139-0.003-0.278-0.007-0.419-0.011c-1.587,0.073-3.175,0.239-4.757-0.068c-0.049-0.084-0.116-0.151-0.201-0.202
	c-0.016-0.441-0.032-0.882-0.049-1.323c0.292-0.269,0.295-0.541,0.012-0.817c-0.011-1.16-0.021-2.319-0.032-3.479
	c0.038-0.043,0.113-0.094,0.106-0.128c-0.021-0.1-0.075-0.194-0.116-0.291c0.004-2.734,0.008-5.468,0.01-8.202
	c0.038-0.043,0.113-0.095,0.106-0.128c-0.021-0.101-0.075-0.195-0.116-0.291c0.004-2.734,0.008-5.469,0.01-8.203
	c0.038-0.042,0.113-0.094,0.106-0.128C210.441,39.32,210.388,39.226,210.347,39.13z"/>
<path fill="#FFC6BD" d="M206.752,32.227c-7.186,1.87-14.371,3.739-21.555,5.609c-0.007-1.938,0.039-3.876-0.036-5.811
	c-0.045-1.162,0.483-1.657,1.538-1.932c6.155-1.601,12.313-3.195,18.441-4.896c1.329-0.369,1.678-0.062,1.641,1.219
	C206.726,28.352,206.757,30.29,206.752,32.227z"/>
<path fill="#FFA38F" d="M181.346,39.14c0,3.448-0.035,6.895,0.018,10.341c0.021,1.447-0.369,1.922-1.9,1.496
	c-4.404-1.227-8.817-2.451-13.281-3.417c-2.68-0.579-2.086-2.412-2.091-4.13c1.372-0.331,2.749-0.639,4.113-0.997
	C172.572,41.286,176.877,39.884,181.346,39.14z"/>
<path fill="#FFC6BD" d="M181.346,39.14c-4.469,0.745-8.773,2.146-13.142,3.293c-1.364,0.358-2.741,0.667-4.113,0.997
	c-0.014-0.929-0.036-1.857-0.038-2.786c-0.009-4.617-0.009-4.623,4.358-5.758c3.718-0.967,7.454-1.872,11.154-2.902
	c1.597-0.444,2.332-0.108,2.154,1.645C181.534,35.461,182.088,37.344,181.346,39.14z"/>
<path fill="#FFA38F" d="M217.106,27.921c-2.249,0.011-4.498,0.021-6.748,0.03c-0.033-2.067-0.068-4.135-0.101-6.203
	c-0.002-0.142-0.048-0.32,0.019-0.422c1.42-2.205,3.601-0.629,5.388-1.053c1.051-0.249,1.555,0.31,1.518,1.438
	C217.112,23.781,217.126,25.852,217.106,27.921z"/>
<path fill="#FFC6BD" d="M176.869,58.879c-2.611,0.007-4.831-2.307-4.716-4.821c0.044-0.957,0.387-1.313,1.308-1.069
	c2.343,0.625,4.685,1.258,7.027,1.884c0.82,0.22,1.026,0.678,0.57,1.414C180.092,57.851,178.731,58.769,176.869,58.879z"/>
<path fill="#FFC6BD" d="M196.379,23.935c-0.573-1.613,1.538-2.288,1.318-3.777c1.327,0.738,2.653,1.477,3.98,2.216
	C199.999,23.192,198.148,23.426,196.379,23.935z"/>
<path fill="#FFC6BD" d="M168.729,55.06c-0.698-1.038-0.195-2.208-0.36-3.305C169.15,52.785,168.627,53.957,168.729,55.06z"/>
<path fill="#A7CDED" d="M210.389,60.271c0.283,0.277,0.28,0.549-0.012,0.817C210.382,60.816,210.386,60.543,210.389,60.271z"/>
<path fill="#A7CDED" d="M216.672,62.695c0.125-0.099,0.25-0.197,0.373-0.295C217.024,62.628,216.926,62.76,216.672,62.695z"/>
<path fill="#A7CDED" d="M210.347,39.13c0.041,0.096,0.095,0.19,0.116,0.291c0.007,0.034-0.068,0.085-0.106,0.128
	C210.354,39.409,210.351,39.27,210.347,39.13z"/>
<path fill="#A7CDED" d="M210.347,30.508c0.041,0.096,0.095,0.19,0.116,0.291c0.007,0.034-0.068,0.085-0.106,0.128
	C210.354,30.788,210.351,30.648,210.347,30.508z"/>
<path fill="#A7CDED" d="M210.347,56.373c0.041,0.097,0.095,0.191,0.116,0.291c0.007,0.034-0.068,0.085-0.106,0.128
	C210.354,56.652,210.351,56.513,210.347,56.373z"/>
<path fill="#A7CDED" d="M210.426,62.412c0.085,0.05,0.152,0.118,0.201,0.202c0-0.001-0.183-0.019-0.183-0.019L210.426,62.412z"/>
<path fill="#A7CDED" d="M210.347,47.751c0.041,0.096,0.095,0.19,0.116,0.291c0.007,0.033-0.068,0.084-0.106,0.128
	C210.354,48.031,210.351,47.891,210.347,47.751z"/>
<path fill="#A7CDED" d="M215.384,62.682c0.141,0.004,0.28,0.008,0.419,0.011C215.664,62.688,215.524,62.685,215.384,62.682z"/>
<g>
	<path fill="#FFA38F" d="M56.924,29.233c8.572-8.559,17.138-17.125,25.697-25.698c0.543-0.543,1.269-0.988,1.28-1.9
		c-2.011-0.007-4.022-0.014-6.032-0.022c-1.347,1.384-2.69,2.773-4.035,4.159c1.345-1.386,2.687-2.775,4.035-4.159
		c-0.864,0.008-1.727,0.016-2.59,0.023c-0.011,0.909-0.733,1.351-1.274,1.894c0.54-0.543,1.263-0.985,1.274-1.894
		C64.932,1.629,54.585,1.621,44.238,1.613c2.307,7.544,5.445,14.783,8.106,22.198c0.089,0.249,0.337,0.442,0.51,0.661
		c0.018,0.474-0.068,0.983,0.429,1.299c0.124-0.003,0.24-0.018,0.349-0.044c0.218-0.051,0.409-0.144,0.582-0.262
		c-0.173,0.118-0.364,0.21-0.582,0.262c-0.109,0.026-0.225,0.041-0.349,0.044c0.321,1.672,0.631,3.349,1.737,4.733
		C55.935,30.502,56.38,29.776,56.924,29.233z"/>
	<path fill="#FFA38F" d="M79.381,75.783c2.496-2.559,5.049-5.062,7.566-7.6c0.54-0.545,1.265-0.988,1.263-1.901
		c-2.694-0.016-5.388-0.094-8.079-0.025c-1.842,0.048-2.822-0.668-2.856-2.547c-1.009-0.148-1.514,0.604-2.117,1.183
		c-1.83,1.758-3.66,3.516-5.491,5.275c0.58,2.79,2.207,5.247,2.58,8.102c1.727-0.008,3.453-0.015,5.179-0.022
		C77.623,77.07,78.652,76.53,79.381,75.783z"/>
	<path fill="#FFA38F" d="M108.926,72.295c-0.06-1.475,0.992-3.163-0.842-4.317c-0.132-0.083-0.028-0.543-0.034-0.828
		c-0.406-0.015-0.711,0.14-0.982,0.354c0.271-0.214,0.576-0.37,0.982-0.354c0.622-0.46,0.37-1.13,0.417-1.729
		c-0.136-0.02-0.267-0.029-0.394-0.03c0.127,0.001,0.259,0.01,0.395,0.03c0.954-0.175,1.045-0.607,0.401-1.291
		c-1.774-1.885-2.251-4.028-1.256-6.454c-0.475-0.028-0.96-0.109-1.357,0.264c0.479,1.104-0.053,1.813-0.828,2.579
		c-5.152,5.094-10.263,10.23-15.382,15.356c-0.65,0.651-1.452,1.214-1.47,2.281c2.015,0.004,4.033,0.008,6.051,0.01c0,0,0,0,0-0.001
		c0.857,0.283,1.713,0.23,2.569-0.009c0,0,0-0.001,0-0.001c2.017,0.004,4.034,0.006,6.052,0.008
		C104.788,75.867,106.872,74.096,108.926,72.295z M107.703,65.416c0.054-0.008,0.112-0.007,0.168-0.011
		C107.815,65.409,107.757,65.408,107.703,65.416z M107.356,65.493c0.027-0.008,0.055-0.011,0.082-0.018
		C107.411,65.482,107.383,65.485,107.356,65.493z"/>
	<path fill="#FFA38F" d="M90.045,75.875c5.119-5.127,10.23-10.262,15.382-15.356c0.775-0.767,1.307-1.475,0.828-2.58
		c-0.552,0.166-1.105,0.331-1.657,0.496c0,0,0,0,0-0.001c-2.908,0.636-5.809,1.306-8.625,2.29c-0.811,1.348-1.726,2.588-2.881,3.58
		c1.155-0.991,2.069-2.232,2.88-3.58c-3.198,0.188-4.933,1.891-5.249,5.064l-0.036-0.023c0.184,0.85-0.393,1.283-0.894,1.735
		c0.501-0.453,1.077-0.886,0.893-1.735c-0.826,0.172-1.651,0.344-2.475,0.517c0.002,0.912-0.723,1.356-1.263,1.901
		c-2.517,2.538-5.07,5.041-7.566,7.6c-0.729,0.747-1.758,1.286-1.955,2.465c0.847,0.12,1.692,0.176,2.526-0.093
		c2.016,0.005,4.034,0.008,6.052,0.011c0,0,0-0.001,0-0.001c0.856,0.284,1.713,0.23,2.57-0.009
		C88.592,77.089,89.395,76.526,90.045,75.875z M80.804,76.483c-0.031,0.032-0.06,0.064-0.091,0.096
		C80.744,76.547,80.773,76.514,80.804,76.483z M80.079,77.5c-0.012,0.031-0.018,0.065-0.028,0.097
		C80.061,77.565,80.067,77.53,80.079,77.5z M80.586,76.714c-0.198,0.222-0.369,0.462-0.483,0.736
		C80.217,77.176,80.388,76.937,80.586,76.714z M86.265,77.561c0.242-0.388,0.584-0.697,0.925-1.004
		C86.85,76.865,86.507,77.173,86.265,77.561z"/>
	<path fill="#FFA38F" d="M110.486,76.65c-1.27-1.141-1.001-2.405-0.799-3.771c0.059-0.397-0.405-0.515-0.76-0.583
		c-2.054,1.801-4.138,3.572-5.678,5.868c2.181,0.333,4.368,0.208,6.556,0.082C109.727,77.557,111.01,77.121,110.486,76.65z"/>
	<path fill="#FFA38F" d="M77.274,20.598c0.03-0.866,0.06-1.733,0.091-2.599c0.618-0.946,1.544-1.2,2.606-1.197
		c2.727,0.007,5.455-0.015,8.182,0.001c1.913,0.011,3.167,0.665,3.059,2.913c-0.12,2.492,2.139,1.726,3.401,2.32
		c0.652-1.287,2.011-1.727,3.1-2.432c1.057-0.684,2.2-1.064,1.319-2.643c-0.066-0.119,0.246-0.451,0.384-0.683
		c1.246-2.618-1.774-4.6-1.114-7.051c0.763-2.837-1.907-4.904-1.47-7.611c-3.447-0.001-6.894-0.001-10.342-0.002l0,0l0,0
		c0,0-0.001,0-0.001,0l0,0c-0.863,0.008-1.725,0.015-2.587,0.021c-0.011,0.911-0.737,1.357-1.28,1.9
		c-8.559,8.573-17.124,17.139-25.697,25.698c-0.544,0.543-0.989,1.269-1.904,1.271c-0.033,0.847,0.171,1.598,0.855,2.159
		c0.321,1.539,0.428,3.159,1.716,4.311c0.068,0.596-0.19,1.271,0.436,1.726c5.651-5.579,11.299-11.162,16.957-16.734
		C75.631,21.331,76.153,20.453,77.274,20.598z"/>
	<path fill="#FFA38F" d="M66.659,61.972c1.078-0.043,1.533-0.971,2.206-1.574c2.865-2.566,5.17-5.725,8.384-7.921
		c0.211-2.003,0.185-4.008,0.024-6.014c0,0,0.001,0,0.001,0c0.167-3.741,0.228-7.48-0.024-11.22
		c0.212-2.006,0.182-4.012,0.024-6.018c-0.001,0-0.002,0-0.004,0c0.001,0,0.002,0,0.003,0c0.167-0.872,0.165-1.743-0.024-2.609
		c0.001,0,0.001,0,0.002-0.001c0.211-2.004,0.185-4.01,0.024-6.016c-1.122-0.145-1.643,0.733-2.289,1.368
		c-5.658,5.571-11.306,11.155-16.957,16.734c0.281,1.686,0.93,3.237,1.732,4.734c0,0-0.001,0.001-0.001,0.001
		c-0.05,0.743,0.077,1.399,0.855,1.734c5.096-5.166,10.193-10.331,15.287-15.499c0.096-0.097,0.198-0.176,0.304-0.239
		c-0.106,0.063-0.207,0.141-0.303,0.239c-5.094,5.168-10.191,10.333-15.287,15.499c-0.178,1.747,1.128,3.085,1.306,4.734
		c4.442-4.373,8.877-8.753,13.332-13.112c0.45-0.44,0.817-1.004,1.37-1.324c-0.553,0.32-0.92,0.885-1.369,1.326
		c-4.455,4.359-8.89,8.739-13.332,13.112c0.752,2.545,2.415,4.719,3.002,7.331c0,0,0,0,0,0
		C65.094,58.966,65.804,60.497,66.659,61.972z"/>
	<path fill="#FFA38F" d="M77.275,63.709c0.162-0.872,0.163-1.741-0.026-2.609c0.212-2.003,0.184-4.006,0.024-6.011
		c-0.519-0.034-0.991,0.057-1.376,0.452c0.385-0.395,0.857-0.487,1.376-0.452c0.167-0.871,0.165-1.742-0.024-2.611
		c-3.215,2.196-5.519,5.355-8.384,7.921c-0.673,0.603-1.128,1.531-2.206,1.574c-0.034,0.845,0.172,1.597,0.857,2.157
		c0.152,1.734,0.886,3.258,1.719,4.745c0.02,0.473-0.07,0.982,0.431,1.292c1.831-1.758,3.661-3.516,5.491-5.275
		C75.76,64.313,76.266,63.561,77.275,63.709z"/>
	<path fill="#FFA38F" d="M97.488,21.719c-0.35,0.363-1.024,0.416-1.55,0.61c1.89,0.532,3.779,1.063,5.669,1.595
		c-0.382-0.795-1.183-1.435-0.91-2.471C99.582,20.947,98.529,20.638,97.488,21.719z"/>
</g>
<path fill="#FFA38F" d="M112.789,37.837c0.002,4.234-0.048,8.469,0.034,12.702c0.029,1.5-0.496,2.09-1.971,2.458
	c-5.888,1.471-11.751,3.051-17.586,4.719c-1.693,0.484-2.092,0.123-2.075-1.594c0.077-7.965,0.04-15.932,0.043-23.897
	C98.419,34.096,105.604,35.967,112.789,37.837z"/>
<path fill="#FFC6BD" d="M87.622,27.951c0.001,2.435,0.002,4.869,0.004,7.303c-0.038,0.043-0.112,0.094-0.105,0.128
	c0.021,0.101,0.075,0.195,0.116,0.292c-0.004,2.734-0.007,5.468-0.01,8.203c-0.038,0.043-0.112,0.094-0.105,0.127
	c0.021,0.101,0.075,0.194,0.116,0.291c-0.004,2.734-0.007,5.469-0.01,8.202c-0.038,0.043-0.112,0.095-0.105,0.129
	c0.021,0.1,0.075,0.194,0.116,0.291c0.093,2.602,0.233,5.206-0.106,7.801c-0.021,0.044-0.07,0.098-0.06,0.133
	c0.028,0.088,0.082,0.168,0.126,0.251c-0.014,0.437-0.027,0.874-0.04,1.31c-0.084,0.05-0.151,0.117-0.202,0.201
	c-0.292,0.026-0.584,0.053-0.875,0.081c-0.14-0.003-0.279-0.007-0.419-0.011c-1.584,0.004-3.167,0.01-4.751,0.015
	c-0.125-0.099-0.249-0.198-0.374-0.297c-0.038-9.637-0.08-19.274-0.11-28.911c-0.006-1.855,0.032-3.712,0.049-5.568
	C83.124,27.932,85.373,27.941,87.622,27.951z"/>
<path fill="#FFC6BD" d="M112.789,37.837c-7.185-1.871-14.37-3.742-21.555-5.613c-0.01-1.938-0.01-3.876-0.034-5.814
	c-0.012-1.002,0.067-1.655,1.441-1.278c6.275,1.721,12.574,3.353,18.867,5.006c0.997,0.262,1.355,0.863,1.32,1.885
	C112.763,33.959,112.797,35.899,112.789,37.837z"/>
<path fill="#FFA38F" d="M133.908,43.439c0.027,3.517,0.022,3.498-3.376,4.369c-4.016,1.03-8.038,2.041-12.025,3.173
	c-1.55,0.44-1.908-0.086-1.884-1.514c0.058-3.446,0.03-6.894,0.037-10.34c0.417,0.064,0.843,0.093,1.25,0.198
	C123.244,40.689,128.575,42.065,133.908,43.439z"/>
<path fill="#FFC6BD" d="M133.908,43.439c-5.333-1.374-10.664-2.75-15.999-4.115c-0.407-0.104-0.833-0.133-1.25-0.198
	c-0.016-1.929-0.006-3.858-0.059-5.785c-0.031-1.184,0.3-1.766,1.623-1.41c4.809,1.294,9.627,2.555,14.445,3.816
	c1.009,0.265,1.308,0.908,1.276,1.905C133.883,39.58,133.914,41.51,133.908,43.439z"/>
<path fill="#FFA38F" d="M87.622,27.951c-2.249-0.009-4.498-0.019-6.747-0.03c-0.019-1.998-0.039-3.997-0.055-5.994
	c-0.002-0.286-0.102-0.673,0.043-0.84c1.593-1.846,3.696-0.443,5.539-0.801c0.979-0.189,1.361,0.502,1.333,1.462
	C87.673,23.815,87.656,25.883,87.622,27.951z"/>
<path fill="#FFC6BD" d="M121.052,58.879c-0.787-0.055-1.699-0.247-2.463-0.815c-0.862-0.641-1.933-1.397-1.805-2.485
	c0.124-1.05,1.466-0.833,2.295-1.086c1.703-0.519,3.438-0.93,5.142-1.445c1.552-0.469,1.889,0.081,1.613,1.569
	C125.389,57.026,123.506,58.838,121.052,58.879z"/>
<path fill="#A7CDED" d="M87.636,44.294c-0.041-0.097-0.095-0.19-0.116-0.291c-0.007-0.033,0.068-0.084,0.105-0.127
	C87.629,44.015,87.632,44.155,87.636,44.294z"/>
<path fill="#A7CDED" d="M87.636,35.673c-0.041-0.097-0.095-0.191-0.116-0.292c-0.007-0.034,0.068-0.085,0.105-0.128
	C87.629,35.394,87.632,35.533,87.636,35.673z"/>
<path fill="#A7CDED" d="M87.636,52.916c-0.041-0.097-0.095-0.191-0.116-0.291c-0.007-0.034,0.068-0.085,0.105-0.129
	C87.629,52.636,87.632,52.776,87.636,52.916z"/>
<path fill="#A7CDED" d="M87.596,61.101c-0.044-0.083-0.098-0.163-0.126-0.251c-0.011-0.035,0.039-0.088,0.06-0.133
	C87.639,60.83,87.662,60.958,87.596,61.101z"/>
<path fill="#A7CDED" d="M80.936,62.399c0.125,0.099,0.249,0.198,0.374,0.297C81.055,62.761,80.958,62.626,80.936,62.399z"/>
<path fill="#A7CDED" d="M86.061,62.682c0.14,0.004,0.279,0.008,0.419,0.011C86.34,62.688,86.201,62.685,86.061,62.682z"/>
<path fill="#A7CDED" d="M87.355,62.612c0.05-0.084,0.118-0.151,0.202-0.201c-0.001,0-0.019,0.184-0.019,0.184L87.355,62.612z"/>
<path fill="#FF6B57" d="M126.157,112.899c14.849-0.017,29.698-0.021,44.547-0.075c1.273-0.005,1.552,0.476,1.545,1.644
	c-0.046,7.246-0.022,14.491-0.033,21.737c-0.002,1.568-0.341,2.902-2.328,2.897c-11.403-0.034-22.807-0.069-34.211-0.104
	c-2.876-3.663-6.205-6.876-9.786-9.837c-0.028-5.291-0.056-10.583-0.084-15.874C125.923,113.157,126.04,113.029,126.157,112.899z
	 M148.537,135.274c7.073-0.146,12.355-2.973,16.404-8.247c0.658-0.857,0.699-1.444,0.014-2.404
	c-7.833-10.953-24.247-10.924-31.974,0.064c-0.613,0.873-0.621,1.397-0.002,2.223C136.977,132.233,142.26,135.049,148.537,135.274z"
	/>
<path fill="#FF6B57" d="M148.859,111.104c-6.969,0-13.938-0.067-20.904,0.046c-1.848,0.03-2.471-0.568-2.214-2.303
	c0.042-0.281,0.003-0.574,0.004-0.861c0.01-3.191,0.506-3.684,3.792-3.688c5.675-0.007,11.35-0.004,17.025-0.001
	c7.327,0.004,14.655,0.008,21.983,0.021c3.174,0.006,5.139,3.449,3.59,6.292c-0.452,0.83-1.281,0.476-1.939,0.478
	C163.083,111.115,155.972,111.104,148.859,111.104z M138.629,107.598c-0.057-0.609-0.469-0.927-1.001-0.914
	c-0.549,0.014-0.951,0.438-0.95,0.983c0.001,0.59,0.461,0.852,1.028,0.858C138.317,108.533,138.621,108.206,138.629,107.598z
	 M134.65,107.638c-0.178-0.562-0.465-1.06-1.132-1.001c-0.519,0.045-0.91,0.369-0.926,0.956c-0.015,0.574,0.254,0.931,0.858,0.949
	C134.08,108.561,134.521,108.311,134.65,107.638z"/>
<path fill="#FFA38F" d="M125.89,129.162c3.583,2.961,6.911,6.174,9.787,9.837c-2.435,0.043-4.871,0.062-7.306,0.137
	c-1.729,0.055-2.556-0.871-2.583-2.457C125.746,134.174,125.849,131.667,125.89,129.162z"/>
<path fill="#5D9DD4" d="M126.157,112.899c-0.118,0.13-0.234,0.258-0.351,0.389C125.775,113.025,125.902,112.905,126.157,112.899z"/>
<path fill="#FFA38F" d="M223.996,88.667c-0.134,1.125-0.795,1.961-1.851,2.043c-1.087,0.083-1.908-0.693-2.016-1.818
	c-0.112-1.188,0.615-1.89,1.775-1.982C223.107,86.816,223.705,87.572,223.996,88.667z"/>
<path fill="#C5DCF0" d="M142.476,39.117c0.01-2.149,0.02-4.299,0.028-6.448c0.042-0.452-0.071-0.946,0.36-1.289
	c-0.022,2.588-0.044,5.177-0.066,7.766C142.689,39.144,142.582,39.134,142.476,39.117z"/>
<path fill="#FFC6BD" d="M148.537,135.274c-6.277-0.226-11.561-3.041-15.559-8.364c-0.618-0.825-0.61-1.35,0.002-2.223
	c7.727-10.988,24.141-11.018,31.974-0.064c0.686,0.96,0.645,1.547-0.014,2.404C160.893,132.302,155.61,135.129,148.537,135.274z
	 M149.024,133.485c5.109-0.013,10.418-2.533,13.58-6.385c0.688-0.838,0.873-1.532,0.127-2.453
	c-7.01-8.657-20.716-8.522-27.612,0.134c-0.577,0.724-0.63,1.279,0.02,2.048C138.778,131.141,143.428,133.283,149.024,133.485z"/>
<path fill="#FFC6BD" d="M138.629,107.599c-0.008,0.607-0.312,0.934-0.924,0.927c-0.566-0.006-1.027-0.268-1.028-0.858
	c-0.001-0.545,0.401-0.97,0.95-0.983C138.16,106.671,138.572,106.989,138.629,107.599z"/>
<path fill="#FFC6BD" d="M134.65,107.638c-0.128,0.672-0.57,0.923-1.2,0.904c-0.604-0.018-0.873-0.375-0.858-0.949
	c0.016-0.586,0.407-0.91,0.926-0.956C134.185,106.579,134.472,107.076,134.65,107.638z"/>
<path fill="#FF6B57" d="M149.024,133.485c-5.596-0.202-10.246-2.345-13.886-6.656c-0.649-0.769-0.596-1.324-0.02-2.048
	c6.896-8.656,20.603-8.791,27.612-0.134c0.746,0.921,0.562,1.615-0.127,2.453C159.442,130.952,154.133,133.473,149.024,133.485z
	 M149.079,120.521c-3.053-0.007-5.573,2.46-5.51,5.391c0.059,2.753,2.751,5.403,5.459,5.376c2.732-0.028,5.354-2.674,5.394-5.443
	C154.462,123.014,151.969,120.527,149.079,120.521z"/>
<path fill="#FFC6BD" d="M149.079,120.521c2.89,0.007,5.383,2.493,5.343,5.323c-0.04,2.77-2.662,5.415-5.394,5.443
	c-2.708,0.027-5.4-2.623-5.459-5.376C143.506,122.98,146.026,120.514,149.079,120.521z M149.021,129.308
	c2.319-0.029,3.52-1.28,3.485-3.634c-0.031-2.096-1.396-3.403-3.547-3.393c-2.214,0.011-3.537,1.408-3.479,3.677
	C145.537,128.15,146.79,129.338,149.021,129.308z"/>
<path fill="#FF6B57" d="M149.021,129.308c-2.231,0.03-3.485-1.157-3.541-3.35c-0.058-2.269,1.265-3.666,3.479-3.677
	c2.15-0.011,3.516,1.297,3.547,3.393C152.541,128.027,151.341,129.278,149.021,129.308z M150.13,125.666
	c-0.226-0.514-0.549-1.045-1.206-0.976c-0.604,0.064-1.099,0.513-1.037,1.162c0.059,0.603,0.507,1.1,1.16,1.036
	C149.658,126.831,150.027,126.359,150.13,125.666z"/>
<path fill="#FFC6BD" d="M150.13,125.666c-0.103,0.693-0.472,1.165-1.083,1.223c-0.652,0.063-1.101-0.434-1.16-1.036
	c-0.062-0.649,0.433-1.098,1.037-1.162C149.581,124.621,149.904,125.152,150.13,125.666z"/>
<path fill="#FFC6BD" d="M69.667,70.168c-0.503-0.311-0.412-0.821-0.432-1.293c-0.833-1.487-1.567-3.011-1.719-4.745
	c-0.685-0.56-0.891-1.312-0.857-2.157c-0.856-1.477-1.566-3.007-1.735-4.736c-0.587-2.613-2.251-4.787-3.002-7.333
	c-0.178-1.649-1.484-2.987-1.306-4.734c-0.778-0.335-0.905-0.991-0.855-1.734c-0.801-1.497-1.451-3.048-1.732-4.735
	c-0.626-0.455-0.368-1.131-0.436-1.727c-1.289-1.151-1.396-2.773-1.717-4.311c-0.684-0.561-0.888-1.312-0.855-2.159
	c-1.106-1.384-1.416-3.061-1.737-4.733c-0.497-0.316-0.411-0.825-0.429-1.299c-0.174-0.219-0.421-0.412-0.51-0.661
	c-2.661-7.414-5.799-14.654-8.105-22.197c-1.481-0.324-1.816-0.162-1.566,1.006l12.243,33.023c0.196,0.423,0.353,0.86,0.484,1.307
	l2.056,5.547c0.098,0.235,0.188,0.472,0.265,0.714l2.012,5.424c0.18,0.426,0.341,0.858,0.481,1.299l1.806,4.872
	c0.216,0.449,0.398,0.899,0.503,1.355l1.743,4.701c0.042,0.097,0.083,0.2,0.123,0.312c0.061,0.175,0.126,0.349,0.187,0.524
	L70.694,78.2c0.518,0.022,1.037,0.046,1.556,0.07C71.875,75.414,70.248,72.958,69.667,70.168z"/>
<g>
	<path fill="#FFC6BD" d="M113.569,56.968c-0.275-0.793-0.735-0.886-1.478-0.658c-1.493,0.458-3.069,0.638-4.479,1.368
		c-0.994,2.427-0.517,4.569,1.256,6.454c0.644,0.684,0.553,1.116-0.401,1.291c-0.047,0.598,0.205,1.269-0.417,1.729
		c0.006,0.285-0.098,0.745,0.034,0.828c1.834,1.154,0.781,2.841,0.842,4.316c0.356,0.069,0.819,0.187,0.76,0.583
		c-0.202,1.366-0.471,2.629,0.799,3.771c0.524,0.471-0.76,0.907-0.681,1.596c2.974,0.142,2.975,0.142,2.978-2.851
		c0.001-1.647-0.002-3.294-0.007-4.941c-0.013-4.538,1.676-6.705,6.06-7.772c0.134-0.207,0.268-0.412,0.402-0.619
		C116.621,61.172,114.516,59.702,113.569,56.968z"/>
	<path fill="#FFC6BD" d="M197.698,20.158c-5.693-3.741-11.923-6.321-18.339-8.512c-5.134-1.753-10.407-2.935-15.718-3.975
		c0.132,0.895-0.384,1.465-0.963,2.042c-7.772,7.759-15.536,15.528-23.302,23.294c-0.455,0.455-0.877,0.971-1.615,0.944
		c0.026,0.721,0.053,1.441,0.079,2.161c1.005-0.147,1.525-0.918,2.135-1.575c-0.609,0.657-1.129,1.428-2.134,1.575
		c-0.007,2.153-0.014,4.305-0.021,6.457c0,0-0.001,0-0.001,0c0.008,0.722,0.014,1.443,0.021,2.165h0
		c-0.031,1.414-0.062,2.828-0.093,4.242c0.028,0.081,0.044,0.168,0.053,0.258c-0.008-0.09-0.024-0.176-0.053-0.258
		c-0.449,0.647-0.235,1.389-0.28,2.09c-0.06,0.928-0.26,1.739-1.381,1.833c-0.917,0.076-1.633-0.376-1.707-1.26
		c-0.105-1.252-0.719-1.087-1.583-0.88c-3.276,0.785-3.281,0.766-3.625,4.181c-0.394,3.905-3.429,6.859-7.359,7.123
		c-0.854,0.057-1.716,0.002-2.574,0c-0.134,0.207-0.268,0.412-0.402,0.619c1.287,0.03,2.576,0.087,3.864,0.088
		c18.201,0.006,36.403,0.005,54.604-0.001c1.362-0.001,2.717-0.006,4.022,0.464c2.823,1.522,3.996,3.924,3.885,7.079
		c-0.069,2.002,0.104,4.017-0.044,6.01c-0.135,1.786,0.516,2.347,2.182,1.933c0.287-0.121,0.574-0.242,0.861-0.364
		c-0.684-1.772,0.375-3.492,0.16-5.233c-0.125-1.009-0.018-1.866,0.311-2.867c0.833-2.524,1.878-5.078,1.328-7.84
		c-0.309-1.548,0.912-2.764,0.784-4.249c-1.103-0.469-2.242-0.785-3.436-0.904c-0.001,0-0.001,0-0.002,0
		c-1.559-0.873-2.856-1.047-3.42,1.147c-0.136,0.526-0.539,0.984-0.819,1.472c0.445,0.034,0.805-0.086,1.128-0.285
		c-0.323,0.199-0.683,0.319-1.128,0.285l-0.047,0.062c-0.111,0.121-0.222,0.24-0.332,0.361l-0.1,0.099
		c-0.118,0.11-0.237,0.222-0.358,0.332l-0.082,0.06c0.026,0.14,0.027,0.272,0.011,0.399c0.016-0.126,0.015-0.258-0.011-0.397
		c-3.387,2.08-6.818,2.716-10.343,0.317c-1.125,1.441-5.083,2.432-6.729,1.71c-0.29-0.128-0.429-0.294-0.45-0.467
		c0.022,0.172,0.16,0.338,0.45,0.465c1.646,0.723,5.603-0.268,6.729-1.709c-0.817-1.019-1.634-2.037-2.45-3.056c0,0,0,0,0,0
		c-0.207-0.554-0.412-1.106-0.619-1.66c-2.193,0.928-3.495,2.895-5.033,4.527c-1.409,1.491-2.868,2.156-4.891,1.966
		c-1.702-0.16-3.429-0.067-5.146-0.086c-2.142,0.007-4.285,0.015-6.427,0.021c0,0,0.001-0.001,0.001-0.001
		c2.142-0.006,4.283-0.014,6.425-0.021c1.511-2.736,4.123-4.465,6.184-6.7c0.509-0.552,0.918-1.091,1.104-1.725
		c-0.186,0.634-0.595,1.174-1.103,1.726c-2.061,2.235-4.673,3.964-6.184,6.7c1.716,0.018,3.444-0.075,5.146,0.085
		c2.024,0.19,3.483-0.474,4.891-1.966c1.538-1.631,2.84-3.599,5.033-4.527c-0.018-0.29-0.037-0.581-0.055-0.872
		c-0.698-1.038-0.195-2.208-0.36-3.305c-0.88-0.262-1.762-0.517-2.639-0.786c-1.004-0.308-1.836-0.582-2.161,0.972
		c-0.27,1.285-1.474,1.055-2.475,0.883c-0.879-0.966-0.727-2.193-0.851-3.352c0.001-0.001,0.002-0.001,0.003-0.002
		c-0.035-0.72-0.068-1.439-0.102-2.159c-0.001,0-0.001,0.001-0.002,0.001c0.005-2.153,0.012-4.305,0.02-6.458
		c0.001,0,0.001-0.001,0.002-0.001c-0.007-0.722-0.014-1.443-0.02-2.165c-0.001,0-0.001,0.001-0.002,0.001
		c0.034-2.153,0.067-4.308,0.101-6.462c-0.222,0.094-0.438,0.197-0.647,0.307c0.21-0.111,0.427-0.214,0.649-0.308
		c0.265-0.952,0.354-2.044,1.69-2.153c0.809-0.066,1.531,0.247,1.651,1.035c0.245,1.622,1.231,1.216,2.203,0.958
		c10.198-2.708,20.394-5.42,30.59-8.131C195.806,22.322,197.918,21.647,197.698,20.158z M141.57,41.632
		c-0.658,0.435-1.083,1.179-1.703,1.666C140.486,42.811,140.911,42.068,141.57,41.632z M138.775,61.841
		c0.025-0.123,0.115-0.27,0.291-0.44C138.89,61.572,138.8,61.718,138.775,61.841z M139.713,62.377c-0.004,0-0.007-0.001-0.011-0.001
		C139.706,62.376,139.709,62.377,139.713,62.377L139.713,62.377z M156.745,50.126c-0.211,0.166-0.41,0.334-0.588,0.417
		c0.178-0.083,0.376-0.25,0.586-0.416c1.013-0.795,1.648-2.05,2.849-2.617C158.392,48.078,157.758,49.331,156.745,50.126z
		 M156.73,41.519c-0.226,0.179-0.43,0.341-0.609,0.412c0.178-0.071,0.382-0.233,0.607-0.411c1.016-0.803,1.655-2.06,2.862-2.631
		C158.385,39.461,157.746,40.716,156.73,41.519z M146.429,36.11c1.416-0.23,1.96-1.562,2.949-2.333
		c0.71-0.553,1.129-1.518,2.207-1.547c0.137-1.307,0.688-2.216,2.158-2.242c0.612-1.789,2.304-2.655,3.445-3.993
		c0.692-0.814,1.421-1.643,2.283-2.256c1.07-0.76,1.436-2.63,3.171-2.253c0.506,0.109,0.083,5.362-0.479,5.953
		c-1.967,2.063-3.967,4.095-5.877,6.06c-1.275-0.483-0.451-1.633-1.154-2.111c-0.017,6.347-0.061,12.693-0.031,19.039
		c0.009,1.614-0.376,2.676-2.234,2.559c0.155,1.005-0.537,1.561-1.144,2.166c-1.824,1.816-3.646,3.634-5.458,5.461
		c-0.495,0.499-1.12,0.923-1.17,1.727c0.731,0.007,1.463,0.014,2.192,0.021c0,0-0.001,0-0.002,0
		c-0.731-0.006-1.462-0.014-2.193-0.021h0c0.049-0.804,0.675-1.228,1.17-1.727c1.812-1.827,3.634-3.645,5.458-5.461
		c0.608-0.605,1.299-1.161,1.144-2.166c-1.482-0.792-1.141-2.239-1.265-3.518c-0.072,0.005-0.164-0.018-0.211,0.017
		c0.048-0.036,0.141-0.013,0.212-0.018c-0.008-0.718-0.014-1.436-0.02-2.154c-1.455,0.246-2.02,1.617-3.038,2.413
		c-0.692,0.541-1.108,1.482-2.172,1.474c-0.344,1.04-0.898,1.83-2.14,1.807c0.044,0.513,0.006,1.003-0.387,1.396
		c-1.773,1.772-3.523,3.565-5.323,5.307c-0.691,0.667-1.366,0.864-1.607-0.448c-0.556-3.025,1.906-7.889,4.722-9.037
		c1.395-0.568,0.511,1.189,1.228,1.397c-0.017-3.726-0.034-7.452-0.051-11.178c-0.102,0.283-0.205,0.566-0.308,0.849
		c0.004,0.711-0.091,1.439,0.03,2.129c0.478,2.751-0.575,4.816-2.739,6.418c-0.54,0.4-0.881,1.418-1.641,1.086
		c-0.09-0.039-0.16-0.089-0.215-0.148c0.055,0.058,0.124,0.108,0.214,0.147c0.76,0.332,1.1-0.686,1.641-1.086
		c2.164-1.601,3.217-3.667,2.739-6.418c-0.12-0.69-0.026-1.418-0.03-2.129c0.102-0.283,0.205-0.566,0.307-0.851
		c-0.004-0.432-0.01-0.864-0.014-1.296c-0.108-0.002-0.215-0.012-0.321-0.029c0.009-2.149,0.019-4.298,0.03-6.447
		c0,0,0.001,0,0.001,0c0.041-0.452-0.072-0.947,0.36-1.289c0.34-1.134,1.196-1.409,2.252-1.354c0.002-0.83,0.649-1.246,1.145-1.743
		c5.022-5.033,10.044-10.064,15.087-15.075c0.426-0.424,0.792-1.272,1.504-0.966c0.707,0.303,0.267,1.157,0.363,1.761
		c0.412,2.622-0.52,4.554-2.511,6.394c-4.216,3.896-8.165,8.08-12.24,12.129c-0.594,0.588-1.055,1.411-2.059,1.422
		C146.415,34.669,146.423,35.389,146.429,36.11z"/>
	<path fill="#FFC6BD" d="M134.61,30.695c0.147-0.762,1.173-0.642,1.885-0.662c0.012-0.912,0.748-1.345,1.287-1.891
		c2.871-2.895,5.766-5.766,8.639-8.66c0.542-0.545,1.263-0.99,1.284-1.895c-0.719-0.007-1.438-0.016-2.157-0.023
		c0.009,0.638-0.394,1.044-0.804,1.453c-2.531,2.526-5.052,5.062-7.593,7.578c-0.38,0.376-0.725,1.004-1.419,0.633
		c-0.504-0.269-0.489-0.81-0.54-1.318c-0.239-2.375,0.196-4.326,2.171-6.081c3.733-3.318,7.189-6.946,10.76-10.446
		c-0.004-0.578-0.009-1.157-0.013-1.736c-0.908,0.024-1.352,0.747-1.898,1.289c-3.153,3.132-6.284,6.284-9.438,9.415
		c-0.433,0.43-0.836,1.132-1.6,0.765c-0.652-0.313-0.319-1.016-0.411-1.552c-0.44-2.563,0.485-4.477,2.443-6.195
		c1.353-1.186,3.024-2.222,3.597-4.137c-0.72-0.002-1.44-0.003-2.16-0.005c0,0,0,0.001,0,0.001
		c-1.466,0.145-2.943,0.226-4.314,0.851c0.004,0.643-0.005,1.286,0.014,1.928c0.011,0.37,0.094,0.667,0.233,0.855
		c-0.14-0.188-0.223-0.485-0.234-0.856c-0.019-0.642-0.011-1.285-0.015-1.928c-2.526-0.062-4.967,0.59-7.375,1.158
		c-7.896,1.863-15.464,4.664-22.646,8.473c-1.616,0.857-3.277,1.654-3.609,3.743c-0.274,1.036,0.528,1.677,0.91,2.471
		c9.929,2.635,19.856,5.276,29.789,7.896C132.672,32.155,134.148,33.088,134.61,30.695z M134.732,11.012
		c-0.018-0.011-0.032-0.032-0.048-0.046C134.7,10.98,134.714,11,134.732,11.012z"/>
	<path fill="#FFC6BD" d="M200.566,3.123c-0.15-0.58-0.262-1.139-0.231-1.726h-38.444h-23.599H97.096
		c-0.09,0.06-0.178,0.131-0.264,0.219c-0.437,2.707,2.233,4.774,1.47,7.611c-0.66,2.451,2.36,4.433,1.114,7.051
		c1.733,1.883,3.164,0.461,4.738-0.352c7.748-4.001,15.91-6.861,24.436-8.688c1.92-0.412,3.831-0.867,5.745-1.303
		c5.343-0.22,10.635-1.115,16.021-0.938c2.857,0.094,5.678,0.714,8.546,0.489c7.083,0.816,14.049,2.272,20.815,4.477
		c5.216,1.7,10.284,3.844,15.09,6.548c1.048,0.59,2.066,1.292,3.306,1.475c0.303-0.987-1.035-2.008,0.074-2.984
		c1.402-1.236,1.528-2.966,1.132-4.507c-0.347-1.344-0.161-2.426,0.643-3.282C201.181,5.92,200.938,4.543,200.566,3.123z"/>
</g>
<g>
	<path fill="#FFA38F" d="M201.955,76.04c2.615-2.613,5.235-5.223,7.839-7.849c0.537-0.541,1.26-0.979,1.274-1.883
		c-0.718-0.008-1.438-0.017-2.156-0.026c0,0,0,0.001,0,0.001c-2.138,0.008-2.146-1.506-2.156-3.017
		c0.215-1.373-0.477-1.817-1.728-1.683c-0.017,0.91-0.75,1.346-1.291,1.888c-4.289,4.309-8.599,8.6-12.887,12.911
		c-0.406,0.408-0.918,0.752-1.18,1.275c0.261-0.523,0.774-0.867,1.179-1.275c4.288-4.31,8.598-8.601,12.887-12.911
		c0.541-0.542,1.274-0.978,1.291-1.888c-4.67-1.565-9.457-2.709-14.234-3.881c0.128,1.486-1.093,2.701-0.784,4.249
		c0.55,2.762-0.495,5.317-1.328,7.84c-0.33,1.001-0.436,1.858-0.311,2.867c0.215,1.741-0.844,3.461-0.16,5.233
		c0.006,0.125,0.011,0.25,0.016,0.375c0.427-0.006,0.854-0.012,1.28-0.018c0.848,0.12,1.693,0.176,2.527-0.093
		c2.018,0.005,4.033,0.008,6.052,0.011c0-0.001,0.001-0.001,0.001-0.002c0.856,0.283,1.712,0.23,2.568-0.009
		C200.669,77.19,201.352,76.641,201.955,76.04z"/>
	<path fill="#FFA38F" d="M253.745,1.616L253.745,1.616c-1.148-0.001-2.297-0.002-3.445-0.003c0,0-0.001,0.001-0.001,0.001
		c-0.863,0.008-1.725,0.015-2.588,0.022c0.001,0.072-0.024,0.128-0.033,0.194c0.009-0.066,0.034-0.123,0.033-0.195
		c-2.164-0.008-4.326-0.017-6.49-0.026c-0.126,0-0.255,0-0.382,0c0,0,0-0.001,0-0.001c-0.583,0.009-1.167,0.019-1.749,0.028
		c0.004,0.366-0.125,0.651-0.312,0.902c0.186-0.25,0.315-0.536,0.311-0.901c-11.789-0.01-23.58-0.027-35.368-0.019
		c-1.149,0.001-2.275-0.063-3.38-0.375c-0.066,0.644,0.061,1.248,0.225,1.88c0.372,1.421,0.615,2.798-0.605,4.092
		c-0.804,0.856-0.99,1.938-0.643,3.282c0.396,1.541,0.27,3.271-1.132,4.507c-1.109,0.976,0.229,1.997-0.074,2.984
		c1.139,0.797,2.299,1.567,3.41,2.402c0.589,0.443,1.407,0.735,1.431,1.677c0.834-0.186,1.662-0.42,2.507-0.545
		c1.077-0.159,1.442-0.765,1.348-1.786c-0.201-2.182,1-2.938,2.981-2.927c2.575,0.013,5.152,0.04,7.725-0.024
		c2.07-0.052,3.337,0.64,3.19,2.936c0,0,0.001,0,0.001,0c0.008,0.723,0.016,1.444,0.026,2.167c0.115,0.013,0.223,0.015,0.325,0.007
		c-0.103,0.008-0.211,0.006-0.326-0.007c-0.205,2.15-0.181,4.301-0.025,6.452c0.82,0.113,1.324-0.387,1.844-0.906
		c8.059-8.069,16.126-16.132,24.188-24.198c0.34-0.34,0.722-0.657,0.889-1.104c-0.167,0.448-0.548,0.765-0.889,1.105
		c-8.062,8.066-16.128,16.129-24.188,24.198c-0.52,0.519-1.025,1.018-1.844,0.906c-0.162,0.867-0.158,1.734,0.025,2.6
		c0,0,0,0-0.001,0c-0.016,2.291-0.03,4.583-0.046,6.874c0.016,0.581,0.031,1.162,0.048,1.744c0.354-0.057,0.639-0.205,0.888-0.4
		c-0.249,0.194-0.534,0.343-0.888,0.4c-0.214,2.005-0.182,4.013-0.024,6.02c-0.164,0.871-0.162,1.74,0.025,2.607h0
		c-0.212,2.004-0.184,4.009-0.024,6.014c2.166-0.29,2.876-2.432,4.438-3.475c0.965-0.644,1.682-2.816,2.86-1.679
		c0.85,0.822-0.749,1.76-1.617,2.511c0.868-0.751,2.465-1.688,1.616-2.51c-1.177-1.137-1.894,1.034-2.86,1.679
		c-1.562,1.044-2.272,3.185-4.438,3.475c-0.164,0.871-0.162,1.739,0.023,2.607c0,0,0.001,0,0.001-0.001
		c-0.212,2.005-0.184,4.009-0.024,6.015c-0.063,0.862-0.128,1.724-0.191,2.585c-0.001,0-0.001,0-0.002,0
		c-0.296,0.244-0.592,0.485-0.887,0.728c-0.699,0.049-1.396,0.098-2.094,0.147c-0.005,0.135-0.024,0.26-0.054,0.377
		c0.03-0.117,0.048-0.241,0.053-0.375c-2.153,0.008-4.309,0.017-6.464,0.025c-0.013,0.904-0.737,1.341-1.274,1.883
		c-2.604,2.626-5.224,5.236-7.839,7.849c-0.603,0.601-1.286,1.15-1.301,2.115c2.017,0.004,4.033,0.008,6.051,0.01
		c0.856,0.28,1.713,0.23,2.57-0.01c0,0,0,0,0,0c2.016,0.004,4.034,0.008,6.052,0.01c0.382-1.151,1.398-1.779,2.187-2.577
		c3.761-3.805,7.548-7.58,11.344-11.349c0.589-0.586,1.052-1.397,2.05-1.403v0c-0.998,0.006-1.46,0.818-2.049,1.403
		c-3.796,3.768-7.583,7.544-11.344,11.349c-0.79,0.799-1.805,1.426-2.187,2.576c0.856,0.284,1.713,0.23,2.569-0.009
		c0.007-0.128,0.024-0.25,0.051-0.368c-0.027,0.117-0.044,0.239-0.051,0.368c2.017,0.004,4.033,0.008,6.051,0.01
		c0.433-0.994,1.041-1.792,2.205-1.97c-0.139,0.692-0.277,1.383-0.414,2.074c0.573-0.002,1.146-0.005,1.721-0.007
		c0.014-0.098,0.021-0.198,0.029-0.298l-0.374,0.164l24.521-65.592c0.177-0.513,0.369-1.021,0.57-1.527l3.24-8.666
		C255.298,1.552,254.536,1.564,253.745,1.616z M238.124,3.229C232.93,8.426,227.73,13.62,222.54,18.822
		c5.19-5.202,10.389-10.395,15.583-15.592c0.01-0.01,0.021-0.02,0.031-0.031C238.144,3.209,238.134,3.219,238.124,3.229z
		 M228.731,66.508c0.271-0.273,0.558-0.507,0.913-0.608C229.289,66.001,229.003,66.236,228.731,66.508z M249.102,9.509
		c-8.773,8.754-17.523,17.531-26.316,26.263C231.579,27.039,240.329,18.263,249.102,9.509z M222.1,45.124
		c-0.182,0.157-0.38,0.29-0.607,0.374C221.721,45.413,221.918,45.281,222.1,45.124z M221.516,47.767
		c1.015-0.682,1.699-1.744,2.612-2.546C223.216,46.023,222.531,47.085,221.516,47.767z M223.134,44.084
		c0.441-0.384,0.877-0.851,1.422-0.204C224.011,43.233,223.574,43.701,223.134,44.084z M224.238,45.12
		c0.273-0.233,0.557-0.518,0.505-0.863C224.795,44.603,224.51,44.888,224.238,45.12z M226.199,51.73
		C226.199,51.73,226.199,51.73,226.199,51.73c-0.011,0.011-0.022,0.023-0.034,0.034C226.177,51.753,226.188,51.741,226.199,51.73z
		 M229.853,54.62c-2.344,2.321-4.667,4.663-7.003,6.99C225.186,59.283,227.509,56.941,229.853,54.62
		c0.077-0.076,0.152-0.156,0.227-0.237C230.005,54.464,229.93,54.544,229.853,54.62z M231.759,53.35
		c0.023-0.049,0.055-0.09,0.079-0.138C231.815,53.261,231.783,53.301,231.759,53.35L231.759,53.35z M236.08,49.044
		c-0.872,0.399-1.62,0.922-2.283,1.532C234.459,49.966,235.208,49.442,236.08,49.044C236.08,49.044,236.08,49.044,236.08,49.044z
		 M234.733,52.499c0.014-0.004,0.028-0.008,0.042-0.012l0,0C234.761,52.491,234.747,52.495,234.733,52.499z M233.254,51.128
		c0.095-0.105,0.172-0.227,0.272-0.326C233.426,50.901,233.349,51.023,233.254,51.128z M250.286,11.102
		c-0.992,0.028-1.459,0.839-2.049,1.427c-8.509,8.491-17.003,16.998-25.515,25.486c-0.146,0.145-0.283,0.302-0.421,0.46
		c0.138-0.158,0.275-0.316,0.421-0.461c8.512-8.488,17.006-16.995,25.515-25.486c0.59-0.589,1.057-1.399,2.049-1.427
		C250.286,11.101,250.286,11.102,250.286,11.102z"/>
</g>
</svg>
