<?xml version="1.0" encoding="utf-8"?>
<!-- Generator: Adobe Illustrator 17.0.0, SVG Export Plug-In . SVG Version: 6.00 Build 0)  -->
<!DOCTYPE svg PUBLIC "-//W3C//DTD SVG 1.1//EN" "http://www.w3.org/Graphics/SVG/1.1/DTD/svg11.dtd">
<svg version="1.1" id="Layer_1" xmlns="http://www.w3.org/2000/svg" xmlns:xlink="http://www.w3.org/1999/xlink" x="0px" y="0px"
	 width="44px" height="33px" viewBox="0 0 44 33" enable-background="new 0 0 44 33" xml:space="preserve">
<g>
	<path fill="#106cd5" d="M13.239,5.475c0.696-0.018,1.191-0.627,1.195-1.357c0.008-1.278,0.003-2.556,0.001-3.834
		c0-0.066-0.022-0.132-0.026-0.159c-1.782,1.782-3.564,3.564-5.362,5.362C10.449,5.486,11.845,5.511,13.239,5.475z"/>
	<g>
		<path fill="#106cd5" d="M20.66,10.004c0.421-0.422,0.422-1.099,0.002-1.52c-0.417-0.419-1.104-0.42-1.522-0.003
			c-0.419,0.418-0.418,1.101,0.002,1.521C19.565,10.425,20.24,10.426,20.66,10.004z"/>
		<path fill="#106cd5" d="M33.598,0.002C27.765-0.001,21.932,0,16.098,0c-0.074,0-0.147,0-0.257,0
			c-0.008,0.133-0.021,0.245-0.021,0.358c-0.001,1.203,0.001,2.406-0.001,3.609c-0.003,1.741-1.172,2.911-2.91,2.914
			c-1.321,0.002-2.642,0.005-3.963,0.008c0,8.338,0,16.675,0,25.013c0.287,0.812,0.872,1.098,1.716,1.097
			c7.616-0.015,15.233-0.009,22.849-0.009c0.805,0,1.349-0.388,1.508-1.083c0.031-0.134,0.035-0.277,0.035-0.415
			c0.002-10.001,0.002-20.002,0.001-30.003C35.054,0.589,34.486,0.002,33.598,0.002z M18.288,7.35
			c1.05-1.454,2.983-1.822,4.481-0.851c0.362,0.235,0.656,0.539,0.908,0.889c0.035,0.049,0.122,0.098,0.176,0.09
			c0.412-0.06,0.703,0.094,0.887,0.462c0.019,0.037,0.06,0.064,0.076,0.102c0.138,0.309,0.381,0.421,0.704,0.372
			c0.079-0.012,0.164-0.036,0.228-0.08c0.175-0.121,0.346-0.248,0.508-0.386c0.131-0.111,0.278-0.131,0.442-0.146
			c0.468-0.043,0.904,0.045,1.289,0.311c0.288,0.199,0.539,0.186,0.789-0.049c0.027-0.025,0.066-0.036,0.093-0.061
			c0.316-0.295,0.703-0.299,1.094-0.252c0.103,0.012,0.218,0.068,0.293,0.14c0.469,0.45,0.929,0.908,1.389,1.367
			c0.164,0.163,0.162,0.418,0,0.591c-0.12,0.128-0.248,0.249-0.372,0.374c-0.595,0.582-0.355,0.489-1.188,0.491
			c-1.997,0.004-3.994,0.003-5.991-0.001c-0.132,0-0.204,0.033-0.272,0.154c-0.982,1.737-3.288,2.198-4.857,0.975
			C17.577,10.761,17.274,8.754,18.288,7.35z M12.397,18.561c0.408-0.01,0.816-0.002,1.224-0.002c5.949,0,11.897,0,17.846,0
			c0.544,0,0.846,0.262,0.83,0.714c-0.012,0.345-0.254,0.611-0.598,0.646c-0.128,0.013-0.257,0.008-0.386,0.008
			c-3.103,0-6.206,0-9.31,0c-3.168,0-6.335,0.001-9.503-0.001c-0.486,0-0.763-0.219-0.796-0.613
			C11.67,18.889,11.955,18.571,12.397,18.561z M31.694,30.227c-0.128,0.012-0.257,0.006-0.386,0.006c-3.114,0-6.228,0-9.342,0
			c-3.157,0-6.314,0-9.471-0.001c-0.515,0-0.811-0.272-0.792-0.716c0.015-0.342,0.262-0.607,0.603-0.643
			c0.074-0.008,0.15-0.005,0.225-0.005c6.314,0,12.628,0,18.942,0.001c0.543,0,0.843,0.263,0.824,0.716
			C32.283,29.926,32.036,30.194,31.694,30.227z M31.699,26.797c-0.106,0.015-0.214,0.008-0.322,0.008c-3.125,0-6.249,0-9.374,0
			c-3.157,0-6.314,0.001-9.471,0c-0.534,0-0.845-0.273-0.83-0.719c0.011-0.331,0.237-0.591,0.567-0.64
			c0.116-0.017,0.235-0.016,0.353-0.016c6.26-0.001,12.521-0.001,18.781,0c0.568,0,0.858,0.202,0.892,0.617
			C32.327,26.429,32.08,26.744,31.699,26.797z M32.298,22.712c-0.013,0.316-0.223,0.569-0.541,0.631
			c-0.125,0.024-0.256,0.025-0.384,0.025c-3.136,0.001-6.271,0.001-9.407,0.001c-3.135-0.001-6.271,0-9.406-0.001
			c-0.538,0-0.842-0.236-0.859-0.659c-0.014-0.355,0.215-0.643,0.572-0.707c0.104-0.019,0.214-0.015,0.321-0.015
			c6.26-0.001,12.521-0.001,18.781,0.001c0.149,0,0.303,0.004,0.445,0.043C32.131,22.118,32.311,22.39,32.298,22.712z"/>
	</g>
</g>
</svg>
