<?xml version="1.0" encoding="utf-8"?>
<!-- Generator: Adobe Illustrator 17.0.0, SVG Export Plug-In . SVG Version: 6.00 Build 0)  -->
<!DOCTYPE svg PUBLIC "-//W3C//DTD SVG 1.1//EN" "http://www.w3.org/Graphics/SVG/1.1/DTD/svg11.dtd">
<svg version="1.1" id="Layer_1" xmlns="http://www.w3.org/2000/svg" xmlns:xlink="http://www.w3.org/1999/xlink" x="0px" y="0px"
	 width="44px" height="33px" viewBox="0 0 44 33" enable-background="new 0 0 44 33" xml:space="preserve">
<g>
	<path fill="#FFFFFF" d="M15.088,5.509c0.041-0.748,0.017-1.455,0.128-2.139c0.306-1.889,1.998-3.331,3.908-3.352
		c1.918-0.021,3.837-0.026,5.755,0c2.154,0.029,3.942,1.835,3.99,3.992c0.011,0.484,0.002,0.968,0.002,1.5c0.187,0,0.34,0,0.492,0
		c2.548,0,5.096-0.002,7.645,0.001c2.177,0.003,3.837,1.397,4.18,3.545c0.047,0.296-0.015,0.667-0.161,0.927
		c-1.555,2.768-3.136,5.521-4.714,8.275c-0.127,0.221-0.314,0.409-0.434,0.633c-0.081,0.15-0.129,0.338-0.129,0.509
		c-0.007,4.352-0.005,8.704-0.006,13.056c0,0.157,0,0.314,0,0.507c-0.905,0-1.797,0-2.739,0c0-4.547,0-9.104,0-13.685
		c-7.344,0-14.639,0-21.982,0c0,4.551,0,9.108,0,13.693c-0.939,0-1.831,0-2.767,0c0-0.338,0-0.664,0-0.989
		c0-4.18-0.001-8.36,0.005-12.541c0-0.268-0.069-0.463-0.245-0.686c-0.307-0.389-0.534-0.844-0.782-1.278
		c-1.434-2.508-2.869-5.015-4.287-7.531C2.829,9.737,2.761,9.457,2.784,9.221c0.205-2.106,1.961-3.7,4.083-3.709
		c2.52-0.01,5.039-0.003,7.559-0.003C14.639,5.509,14.852,5.509,15.088,5.509z M17.88,5.478c2.773,0,5.496,0,8.243,0
		c0-0.173,0-0.315,0-0.456c-0.001-0.329,0.014-0.659-0.008-0.987c-0.047-0.691-0.593-1.258-1.283-1.265
		c-1.888-0.019-3.777-0.019-5.666,0c-0.686,0.007-1.246,0.582-1.282,1.267C17.86,4.506,17.88,4.977,17.88,5.478z"/>
	<path fill="#FFFFFF" d="M12.399,32.967c0-4.12,0-8.208,0-12.318c6.399,0,12.776,0,19.189,0c0,4.092,0,8.19,0,12.318
		C25.207,32.967,18.819,32.967,12.399,32.967z"/>
	<path fill="#FFFFFF" d="M2.789,12.435c1.228,2.157,2.372,4.218,3.573,6.246c0.388,0.654,0.539,1.297,0.533,2.051
		c-0.029,3.919-0.013,7.839-0.013,11.758c0,0.155,0,0.31,0,0.51c-1.361-0.043-2.435-0.567-3.254-1.598
		c-0.559-0.704-0.864-1.519-0.865-2.419C2.755,23.562,2.759,18.14,2.76,12.719C2.76,12.666,2.77,12.613,2.789,12.435z"/>
	<path fill="#FFFFFF" d="M41.241,12.557c0,0.093,0,0.185,0,0.278c0,5.35,0.004,10.7-0.004,16.051
		c-0.003,2.117-1.603,3.875-3.7,4.094c-0.124,0.013-0.251,0.002-0.421,0.002c0-0.171,0-0.325,0-0.479
		c0-4.091,0.004-8.183-0.006-12.274c-0.001-0.428,0.099-0.788,0.316-1.163c1.17-2.014,2.311-4.045,3.463-6.069
		c0.088-0.155,0.18-0.308,0.27-0.462C41.187,12.542,41.214,12.549,41.241,12.557z"/>
</g>
</svg>
