<?xml version="1.0" encoding="utf-8"?>
<!-- Generator: Adobe Illustrator 16.0.0, SVG Export Plug-In . SVG Version: 6.00 Build 0)  -->
<!DOCTYPE svg PUBLIC "-//W3C//DTD SVG 1.1//EN" "http://www.w3.org/Graphics/SVG/1.1/DTD/svg11.dtd">
<svg version="1.1" id="Layer_1" xmlns="http://www.w3.org/2000/svg" xmlns:xlink="http://www.w3.org/1999/xlink" x="0px" y="0px"
	 width="159.5px" height="39px" viewBox="0 0 159.5 39" enable-background="new 0 0 159.5 39" xml:space="preserve">
<g>
	<g>
		<path fill="#1C1C1C" d="M60.677,16.908h-3.831V1.848h6.471c3.757,0,5.782,1.857,5.782,4.968c0,1.848-0.918,3.538-2.567,4.259
			l3.006,5.834h-4.3l-2.578-5.271h-1.983V16.908z M60.677,9.018h2.265c1.409,0,2.244-0.824,2.244-2.129
			c0-1.284-0.887-2.15-2.255-2.15h-2.254V9.018z"/>
		<path fill="#1C1C1C" d="M81.333,16.908H71.011V1.848h10.322v3.089h-6.492v2.996h6.105v2.817h-6.105v3.069h6.492V16.908z"/>
		<path fill="#1C1C1C" d="M86.648,12.546c0.136,1.033,1.294,1.722,2.714,1.722c1.493,0,2.463-0.668,2.463-1.576
			c0-0.835-0.636-1.242-2.348-1.597l-1.973-0.386c-2.776-0.532-4.206-2.035-4.206-4.321c0-2.922,2.505-4.801,5.991-4.801
			c3.768,0,5.991,1.826,6.033,4.654h-3.528c-0.073-1.096-1.085-1.753-2.463-1.753c-1.336,0-2.223,0.605-2.223,1.523
			c0,0.814,0.668,1.263,2.244,1.587l1.952,0.365c2.975,0.574,4.311,1.92,4.311,4.3c0,2.995-2.474,4.905-6.356,4.905
			c-3.841,0-6.21-1.701-6.251-4.623H86.648z"/>
		<path fill="#1C1C1C" d="M107.723,16.908H97.401V1.848h10.322v3.089h-6.492v2.996h6.105v2.817h-6.105v3.069h6.492V16.908z"/>
		<path fill="#1C1C1C" d="M119.937,16.908h-10.061V1.848h3.83v11.972h6.231V16.908z"/>
		<path fill="#1C1C1C" d="M131.744,16.908h-10.061V1.848h3.831v11.972h6.23V16.908z"/>
		<path fill="#1C1C1C" d="M143.813,16.908h-10.322V1.848h10.322v3.089h-6.492v2.996h6.105v2.817h-6.105v3.069h6.492V16.908z"/>
		<path fill="#1C1C1C" d="M149.796,16.908h-3.83V1.848h6.471c3.757,0,5.782,1.857,5.782,4.968c0,1.848-0.918,3.538-2.567,4.259
			l3.006,5.834h-4.3l-2.578-5.271h-1.983V16.908z M149.796,9.018h2.265c1.409,0,2.244-0.824,2.244-2.129
			c0-1.284-0.887-2.15-2.254-2.15h-2.255V9.018z"/>
	</g>
	<g>
		<g>
			<path fill="#1C1C1C" d="M63.453,19.987c3.225,0,5.417,2.098,5.417,5.333c0,3.215-2.307,5.312-5.657,5.312h-2.536v4.415h-3.831
				V19.987H63.453z M60.677,27.752h1.732c1.628,0,2.588-0.845,2.588-2.421c0-1.565-0.96-2.411-2.568-2.411h-1.753V27.752z"/>
			<path fill="#1C1C1C" d="M74.393,35.048h-3.83V19.987h6.471c3.757,0,5.782,1.857,5.782,4.968c0,1.848-0.918,3.538-2.567,4.259
				l3.006,5.834h-4.3l-2.578-5.271h-1.983V35.048z M74.393,27.157h2.265c1.409,0,2.244-0.824,2.244-2.129
				c0-1.284-0.887-2.15-2.254-2.15h-2.255V27.157z"/>
			<path fill="#1C1C1C" d="M99.183,27.522c0,4.802-2.87,7.786-7.431,7.786c-4.571,0-7.441-2.984-7.441-7.786
				c0-4.801,2.88-7.796,7.441-7.796S99.183,22.722,99.183,27.522z M88.213,27.522c0,2.86,1.388,4.676,3.538,4.676
				c2.14,0,3.538-1.815,3.538-4.676c0-2.87-1.398-4.686-3.538-4.686S88.213,24.652,88.213,27.522z"/>
			<path fill="#1C1C1C" d="M110.873,35.048v-6.063h-6.001v6.063h-3.83V19.987h3.83v5.907h6.001v-5.907h3.82v15.061H110.873z"/>
			<path fill="#1C1C1C" d="M120.799,29.297c0,1.754,0.95,2.797,2.662,2.797c1.701,0,2.651-1.043,2.651-2.797v-9.31h3.831v9.717
				c0,3.382-2.567,5.604-6.481,5.604c-3.924,0-6.492-2.223-6.492-5.604v-9.717h3.83V29.297z"/>
			<path fill="#1C1C1C" d="M132.208,35.048V19.987h7.045c2.964,0,4.759,1.43,4.759,3.757c0,1.691-1.284,3.038-2.954,3.268v0.083
				c2.035,0.094,3.653,1.607,3.653,3.611c0,2.641-2.045,4.342-5.271,4.342H132.208z M136.038,26.124h2.015
				c1.398,0,2.223-0.657,2.223-1.743c0-1.054-0.751-1.68-2.035-1.68h-2.203V26.124z M138.355,32.334
				c1.576,0,2.463-0.688,2.463-1.962c0-1.231-0.897-1.92-2.484-1.92h-2.296v3.882H138.355z"/>
		</g>
	</g>
	<g>
		<g>
			
				<linearGradient id="SVGID_1_" gradientUnits="userSpaceOnUse" x1="6181.4609" y1="-1384.2388" x2="6169.4326" y2="-1398.9398" gradientTransform="matrix(0.9405 -0.3397 -0.3397 -0.9405 -6268.251 807.1348)">
				<stop  offset="0" style="stop-color:#F9A840"/>
				<stop  offset="1" style="stop-color:#F16332"/>
			</linearGradient>
			<path fill="url(#SVGID_1_)" d="M16.438,11.104c-0.777-2.15-3.141-3.268-5.293-2.509c-0.002,0-0.002,0-0.004,0.002l-0.029,0.009
				c-0.02,0.008-0.039,0.015-0.061,0.023c-0.043,0.018-0.092,0.034-0.137,0.054c-0.113,0.045-0.225,0.091-0.336,0.139
				c-3.422,1.484-5.705,4.597-6.256,8.09c-0.271,1.708-0.125,3.511,0.506,5.255c1.877,5.2,7.396,8.036,12.643,6.672
				c-3.088,0.606-6.236-1.11-7.338-4.157c-1.188-3.286,0.443-6.899,3.646-8.199c0.08-0.035,0.162-0.066,0.244-0.096
				c0.049-0.018,0.096-0.034,0.146-0.048l0.01-0.005c1.037-0.449,1.807-1.277,2.203-2.261C16.753,13.155,16.8,12.105,16.438,11.104z
				"/>
			<g>
				
					<linearGradient id="SVGID_2_" gradientUnits="userSpaceOnUse" x1="-50.3418" y1="229.2812" x2="-38.0852" y2="212.8716" gradientTransform="matrix(0.7548 0.6559 -0.6559 0.7548 189.8926 -116.0967)">
					<stop  offset="0.0036" style="stop-color:#F1BF66"/>
					<stop  offset="1" style="stop-color:#F2DB6D"/>
				</linearGradient>
				<path fill="url(#SVGID_2_)" d="M22.823,25.534c0.047-0.293,0.076-0.59,0.096-0.889l-1.658,1.91
					c-0.527,0.654-1.188,1.209-1.955,1.624c-0.279,0.148-0.574,0.28-0.881,0.393c-0.314,0.113-0.629,0.199-0.947,0.263l-0.006,0.003
					c-5.246,1.364-10.766-1.472-12.643-6.672c-0.631-1.744-0.777-3.547-0.506-5.255c0.551-3.493,2.834-6.605,6.256-8.09
					C3.499,11.749-0.175,19.638,2.165,26.95c0.01,0.029,0.02,0.061,0.029,0.092c0.021,0.073,0.043,0.146,0.072,0.221
					c0.021,0.072,0.047,0.147,0.072,0.22l0.016,0.036c0.061,0.172,0.127,0.341,0.197,0.509c2.184,5.162,8.053,7.771,13.387,5.844
					C19.71,32.51,22.237,29.231,22.823,25.534z"/>
			</g>
			
				<linearGradient id="SVGID_3_" gradientUnits="userSpaceOnUse" x1="4075.4102" y1="-83.7334" x2="4075.4102" y2="-120.7607" gradientTransform="matrix(0.7534 0.6575 0.6575 -0.7534 -2985.1387 -2736.1602)">
				<stop  offset="0" style="stop-color:#F9A840"/>
				<stop  offset="1" style="stop-color:#F16332"/>
			</linearGradient>
			<path fill="url(#SVGID_3_)" d="M26.692,32.96l12.078-13.867c1.508-1.727,1.33-4.349-0.395-5.854
				c-1.086-0.944-2.523-1.227-3.816-0.876c-0.23,0.062-0.457,0.146-0.674,0.248c-0.508,0.234-0.975,0.581-1.367,1.027L20.556,27.371
				c-0.039,0.046-0.08,0.095-0.121,0.141c-0.041,0.047-0.082,0.095-0.125,0.141c-1.193,1.32-2.648,2.273-4.215,2.846
				c-3.508,1.28-7.59,0.662-10.607-1.969c-4.264-3.72-4.828-10.104-1.385-14.507c-4.943,6.134-4.197,15.13,1.787,20.354
				c6.033,5.261,15.127,4.739,20.521-1.104C26.507,33.17,26.603,33.064,26.692,32.96z"/>
		</g>
		<g>
			
				<linearGradient id="SVGID_4_" gradientUnits="userSpaceOnUse" x1="6602.0547" y1="-1758.0591" x2="6590.0264" y2="-1772.7601" gradientTransform="matrix(-0.9405 0.3397 0.3397 0.9405 6842.7461 -559.4316)">
				<stop  offset="0" style="stop-color:#F9A840"/>
				<stop  offset="1" style="stop-color:#F16332"/>
			</linearGradient>
			<path fill="url(#SVGID_4_)" d="M35.501,27.896c0.777,2.15,3.141,3.27,5.295,2.511c0-0.001,0-0.001,0.004-0.002l0.025-0.01
				c0.021-0.009,0.043-0.015,0.061-0.023c0.047-0.019,0.096-0.034,0.141-0.053c0.113-0.047,0.223-0.092,0.334-0.14
				c3.424-1.485,5.705-4.597,6.258-8.091c0.27-1.709,0.123-3.509-0.508-5.254c-1.879-5.201-7.395-8.035-12.643-6.672
				c3.086-0.607,6.24,1.109,7.34,4.157c1.188,3.286-0.445,6.9-3.648,8.198c-0.082,0.036-0.16,0.065-0.242,0.096
				c-0.049,0.018-0.098,0.035-0.146,0.05l-0.012,0.003c-1.035,0.45-1.805,1.277-2.201,2.262
				C35.188,25.845,35.138,26.895,35.501,27.896z"/>
			<g>
				
					<linearGradient id="SVGID_5_" gradientUnits="userSpaceOnUse" x1="481.0107" y1="44.0547" x2="493.2687" y2="27.6433" gradientTransform="matrix(-0.7548 -0.6559 0.6559 -0.7548 384.603 363.8008)">
					<stop  offset="0.0036" style="stop-color:#F1BF66"/>
					<stop  offset="1" style="stop-color:#F2DB6D"/>
				</linearGradient>
				<path fill="url(#SVGID_5_)" d="M29.116,13.466c-0.045,0.293-0.074,0.59-0.098,0.889l1.66-1.91
					c0.527-0.653,1.188-1.21,1.955-1.624c0.281-0.149,0.574-0.28,0.881-0.393c0.314-0.114,0.629-0.2,0.949-0.263l0.004-0.003
					c5.248-1.363,10.764,1.471,12.643,6.672c0.631,1.745,0.777,3.545,0.508,5.254c-0.553,3.494-2.834,6.605-6.258,8.091
					c7.082-2.929,10.756-10.815,8.414-18.129c-0.008-0.029-0.018-0.061-0.027-0.092c-0.021-0.074-0.045-0.148-0.072-0.221
					c-0.021-0.073-0.045-0.146-0.074-0.221l-0.014-0.035c-0.062-0.173-0.129-0.343-0.197-0.511c-2.184-5.16-8.055-7.77-13.387-5.842
					C32.231,6.49,29.7,9.768,29.116,13.466z"/>
			</g>
			
				<linearGradient id="SVGID_6_" gradientUnits="userSpaceOnUse" x1="4606.373" y1="102.627" x2="4606.373" y2="65.6001" gradientTransform="matrix(-0.7534 -0.6575 -0.6575 0.7534 3559.6377 2983.8638)">
				<stop  offset="0" style="stop-color:#F9A840"/>
				<stop  offset="1" style="stop-color:#F16332"/>
			</linearGradient>
			<path fill="url(#SVGID_6_)" d="M25.249,6.04l-12.08,13.867c-1.506,1.726-1.33,4.348,0.396,5.854
				c1.086,0.944,2.523,1.226,3.816,0.876c0.23-0.062,0.457-0.146,0.674-0.247c0.506-0.235,0.975-0.581,1.365-1.028l11.965-13.733
				c0.037-0.046,0.078-0.094,0.121-0.142c0.041-0.046,0.08-0.095,0.123-0.14c1.193-1.321,2.648-2.273,4.217-2.846
				c3.508-1.279,7.59-0.663,10.605,1.969c4.264,3.72,4.828,10.103,1.385,14.507c4.945-6.134,4.199-15.13-1.787-20.354
				c-6.031-5.26-15.129-4.739-20.52,1.104C25.435,5.831,25.339,5.935,25.249,6.04z"/>
		</g>
	</g>
</g>
</svg>
