<?xml version="1.0" encoding="utf-8"?>
<!-- Generator: Adobe Illustrator 17.0.0, SVG Export Plug-In . SVG Version: 6.00 Build 0)  -->
<!DOCTYPE svg PUBLIC "-//W3C//DTD SVG 1.1//EN" "http://www.w3.org/Graphics/SVG/1.1/DTD/svg11.dtd">
<svg version="1.1" id="Layer_1" xmlns="http://www.w3.org/2000/svg" xmlns:xlink="http://www.w3.org/1999/xlink" x="0px" y="0px"
	 width="44px" height="33px" viewBox="0 0 44 33" enable-background="new 0 0 44 33" xml:space="preserve">
<g>
	<path fill="#FFFFFF" d="M0.073,21.118c0.129-0.669,0.213-1.349,0.394-2.004c0.671-2.431,2.014-4.416,4.04-5.929
		c0.086-0.064,0.174-0.124,0.263-0.184c0.025-0.017,0.057-0.025,0.085-0.037c2.269,3.045,5.136,4.323,8.889,2.996
		c0.237,0.965,0.467,1.903,0.696,2.837c-1.778,1.136-3.238,2.564-4.291,4.392c-0.046,0.079-0.18,0.152-0.274,0.152
		c-2.814,0.008-5.627,0.011-8.441,0.002c-0.716-0.002-1.115-0.45-1.362-1.071C0.073,21.888,0.073,21.503,0.073,21.118z"/>
	<path fill="#FFFFFF" d="M28.165,21.163c1.195,0.799,2.167,1.795,2.945,2.978c1.181,1.795,1.801,3.768,1.834,5.918
		c0.013,0.862-0.623,1.508-1.487,1.508c-6.322,0.002-12.643,0.002-18.965-0.001c-0.854,0-1.467-0.561-1.451-1.377
		c0.072-3.734,1.617-6.712,4.625-8.929c0.042-0.031,0.089-0.055,0.15-0.092c1.524,2.122,3.47,3.535,6.172,3.535
		C24.693,24.702,26.639,23.289,28.165,21.163z"/>
	<path fill="#FFFFFF" d="M16.511,15.486c-0.001-3.271,2.235-5.617,5.215-5.836c2.718-0.2,5.328,1.928,5.681,4.693
		c0.267,2.09-0.465,3.914-1.697,5.558c-0.286,0.381-0.633,0.73-1.002,1.033c-1.724,1.412-3.823,1.409-5.502-0.052
		C17.469,19.369,16.655,17.395,16.511,15.486z"/>
	<path fill="#FFFFFF" d="M16.544,6.948c-0.057,0.46-0.089,0.898-0.171,1.327c-0.114,0.602-0.349,1.143-0.725,1.651
		c-0.474,0.64-0.846,1.355-1.264,2.037c-0.066,0.108-0.132,0.221-0.218,0.313c-1.73,1.866-4.227,1.985-6.079,0.249
		c-1.576-1.476-2.421-3.33-2.529-5.48C5.422,4.324,7.58,1.813,10.274,1.476c2.88-0.361,5.551,1.508,6.109,4.285
		C16.462,6.158,16.493,6.564,16.544,6.948z"/>
	<path fill="#FFFFFF" d="M43.926,21.118c-0.129-0.669-0.213-1.349-0.394-2.004c-0.671-2.431-2.014-4.416-4.04-5.929
		c-0.086-0.064-0.174-0.124-0.263-0.184c-0.025-0.017-0.057-0.025-0.085-0.037c-2.269,3.045-5.136,4.323-8.889,2.996
		c-0.237,0.965-0.467,1.903-0.696,2.837c1.778,1.136,3.238,2.564,4.291,4.392c0.046,0.079,0.18,0.152,0.274,0.152
		c2.814,0.008,5.627,0.011,8.441,0.002c0.716-0.002,1.115-0.45,1.362-1.071C43.926,21.888,43.926,21.503,43.926,21.118z"/>
	<path fill="#FFFFFF" d="M27.456,6.948c0.057,0.46,0.089,0.898,0.171,1.327c0.114,0.602,0.349,1.143,0.725,1.651
		c0.474,0.64,0.846,1.355,1.264,2.037c0.066,0.108,0.132,0.221,0.218,0.313c1.73,1.866,4.227,1.985,6.079,0.249
		c1.576-1.476,2.421-3.33,2.529-5.48c0.137-2.721-2.021-5.232-4.715-5.569c-2.88-0.361-5.551,1.508-6.109,4.285
		C27.537,6.158,27.507,6.564,27.456,6.948z"/>
</g>
</svg>
