<?xml version="1.0" encoding="utf-8"?>
<!-- Generator: Adobe Illustrator 17.0.0, SVG Export Plug-In . SVG Version: 6.00 Build 0)  -->
<!DOCTYPE svg PUBLIC "-//W3C//DTD SVG 1.1//EN" "http://www.w3.org/Graphics/SVG/1.1/DTD/svg11.dtd">
<svg version="1.1" id="Layer_1" xmlns="http://www.w3.org/2000/svg" xmlns:xlink="http://www.w3.org/1999/xlink" x="0px" y="0px"
	 width="799.9px" height="479.94px" viewBox="0 0 799.9 479.94" enable-background="new 0 0 799.9 479.94" xml:space="preserve">
<g>
	<g>
		<g>
			<g>
				<path fill="#596273" d="M-47.536,245.91c-0.812,0-1.471-0.656-1.471-1.471c0-0.812,0.659-1.464,1.471-1.464
					c0.812,0,1.469,0.652,1.469,1.464C-46.066,245.254-46.724,245.91-47.536,245.91z"/>
			</g>
		</g>
	</g>
</g>
<g>
	<rect x="159.972" y="153.467" fill="#30363D" width="478.485" height="254.052"/>
	<rect x="181.132" y="174.627" fill="#596273" width="436.166" height="211.731"/>
	<g>
		<rect x="159.972" y="123.491" fill="#CDD5D7" width="478.485" height="30.892"/>
		<line fill="none" stroke="#879BA6" stroke-width="10.7463" x1="169.984" y1="138.617" x2="178.955" y2="138.617"/>
		<line fill="none" stroke="#879BA6" stroke-width="10.7463" x1="187.473" y1="138.617" x2="196.442" y2="138.617"/>
		<line fill="none" stroke="#879BA6" stroke-width="10.7463" x1="204.968" y1="138.617" x2="213.943" y2="138.617"/>
	</g>
	<g>
		<path fill="#FE3401" d="M239.908,93.603c0,4.135-3.355,7.493-7.495,7.493h-64.948c-4.138,0-7.493-3.358-7.493-7.493v-64.95
			c0-4.135,3.355-7.493,7.493-7.493h64.948c4.14,0,7.495,3.358,7.495,7.493V93.603z"/>
		<polygon fill="#FF3D0D" points="237.41,50.3 237.41,71.953 262.39,93.603 262.39,28.653 		"/>
		<polygon fill="#F32606" points="237.41,50.3 237.41,71.953 262.39,93.603 262.39,63.295 242.406,45.976 		"/>
		<polygon fill="#FFFFFF" points="194.947,48.638 194.947,73.622 212.432,61.13 		"/>
	</g>
	<path fill="#FFFFFF" d="M399.213,241.798c-19.17,0-34.71,15.542-34.71,34.712c0,19.166,15.54,34.709,34.71,34.709
		c19.171,0,34.714-15.542,34.714-34.709C433.926,257.34,418.384,241.798,399.213,241.798z M402.977,283.076l-11.362,6.552V276.51
		v-13.118l11.362,6.559l11.362,6.559L402.977,283.076z"/>
	<g>
		<path fill="#FE3401" d="M567.079,289.656c16.649,21.814,36.732,34.569,58.35,34.569c21.613,0,41.699-12.754,58.349-34.569
			c-16.65-21.828-36.736-34.583-58.349-34.583C603.812,255.073,583.729,267.828,567.079,289.656z"/>
		<polygon fill="#FFFFFF" points="619.361,270.546 619.361,308.199 642.595,289.369 		"/>
	</g>
	<g>
		<polygon fill="#F3F3F3" points="455.003,153.001 455.003,223.538 516.132,162.408 		"/>
		<path fill="#F3F3F3" d="M699.239,184.17c0,5.006-4.056,9.06-9.06,9.06H440.017c-5.004,0-9.058-4.054-9.058-9.06V9.057
			c0-5.002,4.054-9.057,9.058-9.057h250.162c5.004,0,9.06,4.055,9.06,9.057V184.17z"/>
		<circle fill="#CDD5D7" cx="468.052" cy="29.545" r="13.802"/>
		<g>
			<rect x="493.93" y="33.428" fill="#CDD5D7" width="142.335" height="6.038"/>
			<rect x="493.93" y="19.625" fill="#879BA6" width="80.226" height="6.041"/>
		</g>
		<g>
			<rect x="455.003" y="56.953" fill="#FE3401" width="222.666" height="113.77"/>
			<polygon fill="#FFFFFF" points="577.458,113.84 563.483,121.903 549.499,129.983 549.499,113.84 549.499,97.703 563.483,105.766 
							"/>
		</g>
	</g>
	<g>
		<g>
			<rect x="100.661" y="348.152" fill="#FE3401" width="379.927" height="131.788"/>
			<g>
				<g>
					<rect x="275.727" y="373.975" fill="#FFFFFF" width="141.954" height="9.476"/>
				</g>
				<g>
					<rect x="275.727" y="394.271" fill="#FFFFFF" width="161.927" height="7.105"/>
				</g>
				<g>
					<rect x="275.062" y="410.866" fill="#FFFFFF" width="141.363" height="7.157"/>
				</g>
				<g>
					<rect x="275.062" y="426.901" fill="#FFFFFF" width="157.398" height="7.101"/>
				</g>
				<g>
					<rect x="275.062" y="444.182" fill="#FFFFFF" width="35.168" height="7.094"/>
				</g>
			</g>
			<rect x="113.58" y="360.314" fill="#FF3D0D" width="142.859" height="105.199"/>
		</g>
		<g>
			<path fill="#FFFFFF" d="M199.699,413.028v-5.296c0-1.651-1.334-2.987-2.98-2.987h-42.513c-1.644,0-2.984,1.336-2.984,2.987
				v11.565v15.581c0,1.655,1.34,2.987,2.984,2.987h42.513c1.646,0,2.98-1.333,2.98-2.987v-5.307l16.056,7.979v-12.23v-2.005v-2.015
				v-16.252L199.699,413.028z"/>
			<path fill="#FFFFFF" d="M162.863,403.608c5.634,0,10.194-4.569,10.194-10.197c0-5.625-4.56-10.197-10.194-10.197
				c-5.629,0-10.195,4.572-10.195,10.197C152.668,399.039,157.235,403.608,162.863,403.608z"/>
			<path fill="#FFFFFF" d="M184.742,403.608c5.632,0,10.195-4.569,10.195-10.197c0-5.625-4.563-10.197-10.195-10.197
				c-5.632,0-10.195,4.572-10.195,10.197C174.547,399.039,179.11,403.608,184.742,403.608z"/>
		</g>
	</g>
</g>
</svg>
