<?xml version="1.0" encoding="utf-8"?>
<!-- Generator: Adobe Illustrator 17.0.0, SVG Export Plug-In . SVG Version: 6.00 Build 0)  -->
<!DOCTYPE svg PUBLIC "-//W3C//DTD SVG 1.1//EN" "http://www.w3.org/Graphics/SVG/1.1/DTD/svg11.dtd">
<svg version="1.1" id="Layer_1" xmlns="http://www.w3.org/2000/svg" xmlns:xlink="http://www.w3.org/1999/xlink" x="0px" y="0px"
	 width="799.9px" height="479.94px" viewBox="0 0 799.9 479.94" enable-background="new 0 0 799.9 479.94" xml:space="preserve">
<g>
	<path fill="#FE3401" d="M606.789,295.425l-0.005-35.838l0.002-135.786l0.002-35.838c-15.456-8.293-25.979-24.595-25.974-43.367
		C580.811,24.818,592.511,7.814,609.347,0l-0.002,41.904l20.654,11.923l20.657-11.923V0c16.83,7.811,28.528,24.818,28.528,44.595
		c0.002,18.769-10.515,35.071-25.973,43.364l0.002,35.842v135.786l-0.005,35.835c15.458,8.297,25.978,24.595,25.978,43.364
		c-0.002,19.78-11.7,36.787-28.531,44.598V341.48l-20.659-11.923l-20.652,11.92v41.904c-16.834-7.804-28.533-24.815-28.533-44.592
		C580.814,320.016,591.328,303.721,606.789,295.425z"/>
	<g>
		<path fill="#B7BEC0" d="M105.031,181.148v262.063c0,3.581,2.918,6.493,6.493,6.493h576.866c3.575,0,6.48-2.911,6.48-6.493V181.148
			H105.031z"/>
		<path fill="#CDD5D7" d="M105.031,177.897V439.97c0,3.578,2.918,6.48,6.493,6.48h576.866c3.575,0,6.48-2.902,6.48-6.48V177.897
			H105.031z"/>
		<g>
			<path fill="#B7BEC0" d="M149.797,235.027c0,1.784-1.457,3.238-3.232,3.238H116.4c-1.774,0-3.232-1.454-3.232-3.238v-14.378
				c0-1.784,1.457-3.251,3.232-3.251h30.165c1.775,0,3.232,1.467,3.232,3.251V235.027z"/>
			<path fill="#B7BEC0" d="M191.092,235.027c0,1.784-1.431,3.238-3.232,3.238h-30.152c-1.789,0-3.232-1.454-3.232-3.238v-14.378
				c0-1.784,1.442-3.251,3.232-3.251h30.152c1.801,0,3.232,1.467,3.232,3.251V235.027z"/>
			<path fill="#B7BEC0" d="M232.4,235.027c0,1.784-1.459,3.238-3.25,3.238h-30.134c-1.776,0-3.245-1.454-3.245-3.238v-14.378
				c0-1.784,1.469-3.251,3.245-3.251h30.134c1.791,0,3.25,1.467,3.25,3.251V235.027z"/>
			<path fill="#B7BEC0" d="M273.708,235.027c0,1.784-1.457,3.238-3.25,3.238h-30.147c-1.774,0-3.232-1.454-3.232-3.238v-14.378
				c0-1.784,1.457-3.251,3.232-3.251h30.147c1.793,0,3.25,1.467,3.25,3.251V235.027z"/>
			<path fill="#B7BEC0" d="M315.016,235.027c0,1.784-1.457,3.238-3.236,3.238h-30.16c-1.775,0-3.232-1.454-3.232-3.238v-14.378
				c0-1.784,1.457-3.251,3.232-3.251h30.16c1.779,0,3.236,1.467,3.236,3.251V235.027z"/>
			<path fill="#B7BEC0" d="M356.324,235.027c0,1.784-1.457,3.238-3.248,3.238h-30.149c-1.804,0-3.248-1.454-3.248-3.238v-14.378
				c0-1.784,1.444-3.251,3.248-3.251h30.149c1.791,0,3.248,1.467,3.248,3.251V235.027z"/>
			<path fill="#B7BEC0" d="M397.631,235.027c0,1.784-1.457,3.238-3.248,3.238h-30.162c-1.761,0-3.222-1.454-3.222-3.238v-14.378
				c0-1.784,1.461-3.251,3.222-3.251h30.162c1.791,0,3.248,1.467,3.248,3.251V235.027z"/>
			<path fill="#B7BEC0" d="M438.939,235.027c0,1.784-1.473,3.238-3.248,3.238H405.53c-1.791,0-3.235-1.454-3.235-3.238v-14.378
				c0-1.784,1.444-3.251,3.235-3.251h30.162c1.775,0,3.248,1.467,3.248,3.251V235.027z"/>
			<path fill="#B7BEC0" d="M480.234,235.027c0,1.784-1.474,3.238-3.261,3.238h-30.136c-1.791,0-3.25-1.454-3.25-3.238v-14.378
				c0-1.784,1.459-3.251,3.25-3.251h30.136c1.787,0,3.261,1.467,3.261,3.251V235.027z"/>
			<path fill="#B7BEC0" d="M521.542,235.027c0,1.784-1.473,3.238-3.248,3.238h-30.162c-1.791,0-3.237-1.454-3.237-3.238v-14.378
				c0-1.784,1.446-3.251,3.237-3.251h30.162c1.775,0,3.248,1.467,3.248,3.251V235.027z"/>
			<path fill="#B7BEC0" d="M562.847,235.027c0,1.784-1.47,3.238-3.245,3.238h-30.178c-1.774,0-3.232-1.454-3.232-3.238v-14.378
				c0-1.784,1.457-3.251,3.232-3.251h30.178c1.775,0,3.245,1.467,3.245,3.251V235.027z"/>
			<path fill="#B7BEC0" d="M604.14,235.027c0,1.784-1.469,3.238-3.243,3.238h-30.149c-1.778,0-3.261-1.454-3.261-3.238v-14.378
				c0-1.784,1.483-3.251,3.261-3.251h30.149c1.774,0,3.243,1.467,3.243,3.251V235.027z"/>
			<path fill="#B7BEC0" d="M645.448,235.027c0,1.784-1.469,3.238-3.243,3.238H612.04c-1.775,0-3.245-1.454-3.245-3.238v-14.378
				c0-1.784,1.47-3.251,3.245-3.251h30.165c1.774,0,3.243,1.467,3.243,3.251V235.027z"/>
			<path fill="#B7BEC0" d="M686.744,235.027c0,1.784-1.457,3.238-3.248,3.238h-30.149c-1.787,0-3.258-1.454-3.258-3.238v-14.378
				c0-1.784,1.47-3.251,3.258-3.251h30.149c1.791,0,3.248,1.467,3.248,3.251V235.027z"/>
			<path fill="#B7BEC0" d="M147.89,274.333c0,1.781-1.457,3.251-3.235,3.251H116.4c-1.774,0-3.232-1.47-3.232-3.251v-27.286
				c0-1.784,1.457-3.245,3.232-3.245h28.254c1.778,0,3.235,1.46,3.235,3.245V274.333z"/>
			<path fill="#B7BEC0" d="M187.843,274.333c0,1.781-1.469,3.251-3.256,3.251h-28.243c-1.773,0-3.246-1.47-3.246-3.251v-27.286
				c0-1.784,1.474-3.245,3.246-3.245h28.243c1.788,0,3.256,1.46,3.256,3.245V274.333z"/>
			<path fill="#B7BEC0" d="M227.774,274.333c0,1.781-1.469,3.251-3.246,3.251h-28.228c-1.801,0-3.245-1.47-3.245-3.251v-27.286
				c0-1.784,1.444-3.245,3.245-3.245h28.228c1.778,0,3.246,1.46,3.246,3.245V274.333z"/>
			<path fill="#B7BEC0" d="M267.717,274.333c0,1.781-1.47,3.251-3.245,3.251h-28.241c-1.791,0-3.248-1.47-3.248-3.251v-27.286
				c0-1.784,1.457-3.245,3.248-3.245h28.241c1.774,0,3.245,1.46,3.245,3.245V274.333z"/>
			<path fill="#B7BEC0" d="M307.631,274.333c0,1.781-1.43,3.251-3.23,3.251h-28.241c-1.775,0-3.232-1.47-3.232-3.251v-27.286
				c0-1.784,1.457-3.245,3.232-3.245h28.241c1.8,0,3.23,1.46,3.23,3.245V274.333z"/>
			<path fill="#B7BEC0" d="M347.59,274.333c0,1.781-1.47,3.251-3.235,3.251h-28.254c-1.788,0-3.245-1.47-3.245-3.251v-27.286
				c0-1.784,1.457-3.245,3.245-3.245h28.254c1.765,0,3.235,1.46,3.235,3.245V274.333z"/>
			<path fill="#B7BEC0" d="M387.531,274.333c0,1.781-1.457,3.251-3.245,3.251h-28.254c-1.791,0-3.235-1.47-3.235-3.251v-27.286
				c0-1.784,1.444-3.245,3.235-3.245h28.254c1.788,0,3.245,1.46,3.245,3.245V274.333z"/>
			<path fill="#B7BEC0" d="M427.463,274.333c0,1.781-1.457,3.251-3.235,3.251h-28.254c-1.788,0-3.245-1.47-3.245-3.251v-27.286
				c0-1.784,1.457-3.245,3.245-3.245h28.254c1.778,0,3.235,1.46,3.235,3.245V274.333z"/>
			<path fill="#B7BEC0" d="M467.404,274.333c0,1.781-1.47,3.251-3.233,3.251h-28.266c-1.778,0-3.237-1.47-3.237-3.251v-27.286
				c0-1.784,1.459-3.245,3.237-3.245h28.266c1.763,0,3.233,1.46,3.233,3.245V274.333z"/>
			<path fill="#B7BEC0" d="M507.332,274.333c0,1.781-1.47,3.251-3.245,3.251h-28.228c-1.8,0-3.263-1.47-3.263-3.251v-27.286
				c0-1.784,1.462-3.245,3.263-3.245h28.228c1.775,0,3.245,1.46,3.245,3.245V274.333z"/>
			<path fill="#B7BEC0" d="M547.29,274.333c0,1.781-1.47,3.251-3.261,3.251h-28.241c-1.774,0-3.232-1.47-3.232-3.251v-27.286
				c0-1.784,1.457-3.245,3.232-3.245h28.241c1.791,0,3.261,1.46,3.261,3.245V274.333z"/>
			<path fill="#B7BEC0" d="M587.218,274.333c0,1.781-1.459,3.251-3.232,3.251h-28.267c-1.778,0-3.235-1.47-3.235-3.251v-27.286
				c0-1.784,1.457-3.245,3.235-3.245h28.267c1.773,0,3.232,1.46,3.232,3.245V274.333z"/>
			<path fill="#B7BEC0" d="M627.15,274.333c0,1.781-1.46,3.251-3.235,3.251h-28.254c-1.775,0-3.245-1.47-3.245-3.251v-27.286
				c0-1.784,1.47-3.245,3.245-3.245h28.254c1.774,0,3.235,1.46,3.235,3.245V274.333z"/>
			<path fill="#B7BEC0" d="M686.744,274.333c0,1.781-1.457,3.251-3.248,3.251h-47.891c-1.791,0-3.235-1.47-3.235-3.251v-27.286
				c0-1.784,1.444-3.245,3.235-3.245h47.891c1.791,0,3.248,1.46,3.248,3.245V274.333z"/>
			<path fill="#B7BEC0" d="M168.761,312.513c0,1.778-1.457,3.245-3.245,3.245H116.4c-1.774,0-3.232-1.467-3.232-3.245v-27.293
				c0-1.787,1.457-3.248,3.232-3.248h49.116c1.787,0,3.245,1.461,3.245,3.248V312.513z"/>
			<path fill="#B7BEC0" d="M207.938,312.513c0,1.778-1.473,3.245-3.261,3.245h-28.241c-1.791,0-3.236-1.467-3.236-3.245v-27.293
				c0-1.787,1.446-3.248,3.236-3.248h28.241c1.788,0,3.261,1.461,3.261,3.248V312.513z"/>
			<path fill="#B7BEC0" d="M247.798,312.513c0,1.778-1.457,3.245-3.245,3.245h-28.256c-1.791,0-3.233-1.467-3.233-3.245v-27.293
				c0-1.787,1.443-3.248,3.233-3.248h28.256c1.788,0,3.245,1.461,3.245,3.248V312.513z"/>
			<path fill="#B7BEC0" d="M287.662,312.513c0,1.778-1.457,3.245-3.232,3.245h-28.241c-1.791,0-3.248-1.467-3.248-3.245v-27.293
				c0-1.787,1.457-3.248,3.248-3.248h28.241c1.775,0,3.232,1.461,3.232,3.248V312.513z"/>
			<path fill="#B7BEC0" d="M327.524,312.513c0,1.778-1.456,3.245-3.23,3.245h-28.254c-1.778,0-3.235-1.467-3.235-3.245v-27.293
				c0-1.787,1.457-3.248,3.235-3.248h28.254c1.774,0,3.23,1.461,3.23,3.248V312.513z"/>
			<path fill="#B7BEC0" d="M367.415,312.513c0,1.778-1.47,3.245-3.261,3.245h-28.238c-1.791,0-3.222-1.467-3.222-3.245v-27.293
				c0-1.787,1.431-3.248,3.222-3.248h28.238c1.791,0,3.261,1.461,3.261,3.248V312.513z"/>
			<path fill="#B7BEC0" d="M407.278,312.513c0,1.778-1.457,3.245-3.248,3.245h-28.238c-1.791,0-3.261-1.467-3.261-3.245v-27.293
				c0-1.787,1.47-3.248,3.261-3.248h28.238c1.791,0,3.248,1.461,3.248,3.248V312.513z"/>
			<path fill="#B7BEC0" d="M447.155,312.513c0,1.778-1.47,3.245-3.248,3.245h-28.254c-1.788,0-3.258-1.467-3.258-3.245v-27.293
				c0-1.787,1.47-3.248,3.258-3.248h28.254c1.778,0,3.248,1.461,3.248,3.248V312.513z"/>
			<path fill="#B7BEC0" d="M487.044,312.513c0,1.778-1.483,3.245-3.261,3.245h-28.254c-1.775,0-3.245-1.467-3.245-3.245v-27.293
				c0-1.787,1.47-3.248,3.245-3.248h28.254c1.778,0,3.261,1.461,3.261,3.248V312.513z"/>
			<path fill="#B7BEC0" d="M526.895,312.513c0,1.778-1.457,3.245-3.248,3.245h-28.255c-1.789,0-3.232-1.467-3.232-3.245v-27.293
				c0-1.787,1.443-3.248,3.232-3.248h28.255c1.791,0,3.248,1.461,3.248,3.248V312.513z"/>
			<path fill="#B7BEC0" d="M606.635,312.513c0,1.778-1.486,3.245-3.261,3.245h-28.241c-1.787,0-3.248-1.467-3.248-3.245v-27.293
				c0-1.787,1.461-3.248,3.248-3.248h28.241c1.775,0,3.261,1.461,3.261,3.248V312.513z"/>
			<path fill="#B7BEC0" d="M566.746,312.513c0,1.778-1.46,3.245-3.235,3.245h-28.228c-1.8,0-3.245-1.467-3.245-3.245v-27.293
				c0-1.787,1.444-3.248,3.245-3.248h28.228c1.775,0,3.235,1.461,3.235,3.248V312.513z"/>
			<path fill="#B7BEC0" d="M646.499,312.513c0,1.778-1.462,3.245-3.248,3.245h-28.241c-1.774,0-3.248-1.467-3.248-3.245v-27.293
				c0-1.787,1.474-3.248,3.248-3.248h28.241c1.786,0,3.248,1.461,3.248,3.248V312.513z"/>
			<path fill="#B7BEC0" d="M178.437,352.208c0,1.784-1.457,3.245-3.235,3.245H116.4c-1.774,0-3.232-1.46-3.232-3.245v-27.289
				c0-1.784,1.457-3.248,3.232-3.248h58.801c1.778,0,3.235,1.464,3.235,3.248V352.208z"/>
			<path fill="#B7BEC0" d="M219.136,352.208c0,1.784-1.474,3.245-3.261,3.245h-28.254c-1.775,0-3.237-1.46-3.237-3.245v-27.289
				c0-1.784,1.462-3.248,3.237-3.248h28.254c1.787,0,3.261,1.464,3.261,3.248V352.208z"/>
			<path fill="#B7BEC0" d="M258.867,352.208c0,1.784-1.473,3.245-3.261,3.245h-28.241c-1.774,0-3.248-1.46-3.248-3.245v-27.289
				c0-1.784,1.474-3.248,3.248-3.248h28.241c1.788,0,3.261,1.464,3.261,3.248V352.208z"/>
			<path fill="#B7BEC0" d="M298.581,352.208c0,1.784-1.457,3.245-3.246,3.245h-28.24c-1.778,0-3.248-1.46-3.248-3.245v-27.289
				c0-1.784,1.47-3.248,3.248-3.248h28.24c1.789,0,3.246,1.464,3.246,3.248V352.208z"/>
			<path fill="#B7BEC0" d="M338.31,352.208c0,1.784-1.455,3.245-3.243,3.245h-28.254c-1.778,0-3.235-1.46-3.235-3.245v-27.289
				c0-1.784,1.457-3.248,3.235-3.248h28.254c1.788,0,3.243,1.464,3.243,3.248V352.208z"/>
			<path fill="#B7BEC0" d="M378.043,352.208c0,1.784-1.472,3.245-3.232,3.245h-28.254c-1.778,0-3.248-1.46-3.248-3.245v-27.289
				c0-1.784,1.47-3.248,3.248-3.248h28.254c1.76,0,3.232,1.464,3.232,3.248V352.208z"/>
			<path fill="#B7BEC0" d="M417.774,352.208c0,1.784-1.457,3.245-3.232,3.245h-28.254c-1.791,0-3.248-1.46-3.248-3.245v-27.289
				c0-1.784,1.457-3.248,3.248-3.248h28.254c1.775,0,3.232,1.464,3.232,3.248V352.208z"/>
			<path fill="#B7BEC0" d="M457.505,352.208c0,1.784-1.457,3.245-3.232,3.245h-28.241c-1.804,0-3.261-1.46-3.261-3.245v-27.289
				c0-1.784,1.457-3.248,3.261-3.248h28.241c1.774,0,3.232,1.464,3.232,3.248V352.208z"/>
			<path fill="#B7BEC0" d="M497.248,352.208c0,1.784-1.457,3.245-3.245,3.245h-28.241c-1.804,0-3.261-1.46-3.261-3.245v-27.289
				c0-1.784,1.457-3.248,3.261-3.248h28.241c1.788,0,3.245,1.464,3.245,3.248V352.208z"/>
			<path fill="#B7BEC0" d="M536.966,352.208c0,1.784-1.444,3.245-3.248,3.245h-28.227c-1.804,0-3.26-1.46-3.26-3.245v-27.289
				c0-1.784,1.456-3.248,3.26-3.248h28.227c1.804,0,3.248,1.464,3.248,3.248V352.208z"/>
			<path fill="#B7BEC0" d="M576.697,352.208c0,1.784-1.457,3.245-3.248,3.245h-28.225c-1.804,0-3.248-1.46-3.248-3.245v-27.289
				c0-1.784,1.444-3.248,3.248-3.248h28.225c1.791,0,3.248,1.464,3.248,3.248V352.208z"/>
			<path fill="#B7BEC0" d="M616.439,352.208c0,1.784-1.469,3.245-3.246,3.245h-28.256c-1.773,0-3.23-1.46-3.23-3.245v-27.289
				c0-1.784,1.457-3.248,3.23-3.248h28.256c1.778,0,3.246,1.464,3.246,3.248V352.208z"/>
			<path fill="#B7BEC0" d="M656.172,352.208c0,1.784-1.459,3.245-3.235,3.245h-28.267c-1.775,0-3.232-1.46-3.232-3.245v-27.289
				c0-1.784,1.457-3.248,3.232-3.248h28.267c1.776,0,3.235,1.464,3.235,3.248V352.208z"/>
			<path fill="#B7BEC0" d="M654.967,281.972c-1.804,0-3.248,1.461-3.248,3.248v27.293c0,1.778,1.444,3.245,3.248,3.245h4.187
				c1.773,0,3.245,1.457,3.245,3.242v33.209c0,1.784,1.461,3.245,3.235,3.245h17.862c1.791,0,3.248-1.46,3.248-3.245v-66.988
				c0-1.787-1.457-3.248-3.248-3.248H654.967z"/>
			<path fill="#B7BEC0" d="M156.556,391.91c0,1.787-1.47,3.238-3.245,3.238H116.4c-1.774,0-3.232-1.451-3.232-3.238v-27.293
				c0-1.788,1.457-3.245,3.232-3.245h36.91c1.774,0,3.245,1.457,3.245,3.245V391.91z"/>
			<path fill="#B7BEC0" d="M198.249,391.91c0,1.787-1.457,3.238-3.248,3.238H166.76c-1.775,0-3.233-1.451-3.233-3.238v-27.293
				c0-1.788,1.459-3.245,3.233-3.245h28.241c1.791,0,3.248,1.457,3.248,3.245V391.91z"/>
			<path fill="#B7BEC0" d="M238.086,391.91c0,1.787-1.475,3.238-3.248,3.238h-28.241c-1.774,0-3.245-1.451-3.245-3.238v-27.293
				c0-1.788,1.47-3.245,3.245-3.245h28.241c1.773,0,3.248,1.457,3.248,3.245V391.91z"/>
			<path fill="#B7BEC0" d="M277.934,391.91c0,1.787-1.457,3.238-3.258,3.238h-28.241c-1.805,0-3.248-1.451-3.248-3.238v-27.293
				c0-1.788,1.443-3.245,3.248-3.245h28.241c1.801,0,3.258,1.457,3.258,3.245V391.91z"/>
			<path fill="#B7BEC0" d="M317.759,391.91c0,1.787-1.457,3.238-3.248,3.238h-28.238c-1.778,0-3.237-1.451-3.237-3.238v-27.293
				c0-1.788,1.459-3.245,3.237-3.245h28.238c1.791,0,3.248,1.457,3.248,3.245V391.91z"/>
			<path fill="#B7BEC0" d="M357.609,391.91c0,1.787-1.47,3.238-3.248,3.238h-28.254c-1.775,0-3.232-1.451-3.232-3.238v-27.293
				c0-1.788,1.457-3.245,3.232-3.245h28.254c1.778,0,3.248,1.457,3.248,3.245V391.91z"/>
			<path fill="#B7BEC0" d="M397.442,391.91c0,1.787-1.469,3.238-3.256,3.238h-28.228c-1.787,0-3.248-1.451-3.248-3.238v-27.293
				c0-1.788,1.46-3.245,3.248-3.245h28.228c1.788,0,3.256,1.457,3.256,3.245V391.91z"/>
			<path fill="#B7BEC0" d="M437.281,391.91c0,1.787-1.47,3.238-3.261,3.238h-28.238c-1.778,0-3.237-1.451-3.237-3.238v-27.293
				c0-1.788,1.459-3.245,3.237-3.245h28.238c1.791,0,3.261,1.457,3.261,3.245V391.91z"/>
			<path fill="#B7BEC0" d="M477.106,391.91c0,1.787-1.47,3.238-3.248,3.238H445.63c-1.788,0-3.258-1.451-3.258-3.238v-27.293
				c0-1.788,1.47-3.245,3.258-3.245h28.228c1.778,0,3.248,1.457,3.248,3.245V391.91z"/>
			<path fill="#B7BEC0" d="M516.957,391.91c0,1.787-1.474,3.238-3.248,3.238h-28.241c-1.804,0-3.248-1.451-3.248-3.238v-27.293
				c0-1.788,1.444-3.245,3.248-3.245h28.241c1.774,0,3.248,1.457,3.248,3.245V391.91z"/>
			<path fill="#B7BEC0" d="M556.778,391.91c0,1.787-1.457,3.238-3.232,3.238h-28.268c-1.765,0-3.235-1.451-3.235-3.238v-27.293
				c0-1.788,1.47-3.245,3.235-3.245h28.268c1.774,0,3.232,1.457,3.232,3.245V391.91z"/>
			<path fill="#B7BEC0" d="M596.616,391.91c0,1.787-1.444,3.238-3.235,3.238h-28.255c-1.774,0-3.245-1.451-3.245-3.238v-27.293
				c0-1.788,1.47-3.245,3.245-3.245h28.255c1.791,0,3.235,1.457,3.235,3.245V391.91z"/>
			<path fill="#B7BEC0" d="M686.744,391.91c0,1.787-1.457,3.238-3.248,3.238h-77.923c-1.761,0-3.245-1.451-3.245-3.238v-27.293
				c0-1.788,1.483-3.245,3.245-3.245h77.923c1.791,0,3.248,1.457,3.248,3.245V391.91z"/>
			<path fill="#B7BEC0" d="M147.89,434.662c0,1.781-1.457,3.245-3.235,3.245H116.4c-1.774,0-3.232-1.464-3.232-3.245v-30.864
				c0-1.784,1.457-3.235,3.232-3.235h28.254c1.778,0,3.235,1.451,3.235,3.235V434.662z"/>
			<path fill="#B7BEC0" d="M187.843,434.662c0,1.781-1.469,3.245-3.256,3.245h-28.243c-1.773,0-3.246-1.464-3.246-3.245v-30.864
				c0-1.784,1.474-3.235,3.246-3.235h28.243c1.788,0,3.256,1.451,3.256,3.235V434.662z"/>
			<path fill="#B7BEC0" d="M227.774,434.662c0,1.781-1.469,3.245-3.246,3.245h-28.228c-1.801,0-3.245-1.464-3.245-3.245v-30.864
				c0-1.784,1.444-3.235,3.245-3.235h28.228c1.778,0,3.246,1.451,3.246,3.235V434.662z"/>
			<path fill="#B7BEC0" d="M278.4,434.662c0,1.781-1.457,3.245-3.248,3.245h-38.921c-1.791,0-3.248-1.464-3.248-3.245v-30.864
				c0-1.784,1.457-3.235,3.248-3.235h38.921c1.791,0,3.248,1.451,3.248,3.235V434.662z"/>
			<path fill="#B7BEC0" d="M527.281,434.662c0,1.781-1.474,3.245-3.248,3.245h-38.937c-1.775,0-3.245-1.464-3.245-3.245v-30.864
				c0-1.784,1.47-3.235,3.245-3.235h38.937c1.774,0,3.248,1.451,3.248,3.235V434.662z"/>
			<path fill="#B7BEC0" d="M477.385,434.662c0,1.781-1.457,3.245-3.248,3.245H286.59c-1.791,0-3.235-1.464-3.235-3.245v-30.864
				c0-1.784,1.444-3.235,3.235-3.235h187.547c1.791,0,3.248,1.451,3.248,3.235V434.662z"/>
			<path fill="#B7BEC0" d="M566.626,434.662c0,1.781-1.457,3.245-3.25,3.245h-28.24c-1.788,0-3.245-1.464-3.245-3.245v-30.864
				c0-1.784,1.457-3.235,3.245-3.235h28.24c1.792,0,3.25,1.451,3.25,3.235V434.662z"/>
			<path fill="#B7BEC0" d="M606.794,434.662c0,1.781-1.47,3.245-3.222,3.245h-28.267c-1.775,0-3.245-1.464-3.245-3.245v-12.539
				c0-1.781,1.47-3.242,3.245-3.242h28.267c1.752,0,3.222,1.461,3.222,3.242V434.662z"/>
			<path fill="#B7BEC0" d="M647.014,434.662c0,1.781-1.47,3.245-3.248,3.245h-28.251c-1.778,0-3.235-1.464-3.235-3.245v-30.864
				c0-1.784,1.457-3.235,3.235-3.235h28.251c1.778,0,3.248,1.451,3.248,3.235V434.662z"/>
			<path fill="#B7BEC0" d="M686.744,434.662c0,1.781-1.457,3.245-3.248,3.245h-28.24c-1.791,0-3.246-1.464-3.246-3.245v-12.539
				c0-1.781,1.456-3.242,3.246-3.242h28.24c1.791,0,3.248,1.461,3.248,3.242V434.662z"/>
		</g>
		<path fill="#E5E8EC" d="M116.4,236.976c-1.072,0-1.946-0.871-1.946-1.949v-14.378c0-1.072,0.874-1.956,1.946-1.956h30.165
			c1.07,0,1.933,0.884,1.933,1.956v14.378c0,1.078-0.863,1.949-1.933,1.949H116.4z"/>
		<path fill="#E5E8EC" d="M157.709,236.976c-1.085,0-1.947-0.871-1.947-1.949v-14.378c0-1.072,0.861-1.956,1.947-1.956h30.152
			c1.072,0,1.933,0.884,1.933,1.956v14.378c0,1.078-0.861,1.949-1.933,1.949H157.709z"/>
		<path fill="#E5E8EC" d="M199.016,236.976c-1.072,0-1.933-0.871-1.933-1.949v-14.378c0-1.072,0.861-1.956,1.933-1.956h30.134
			c1.09,0,1.977,0.884,1.977,1.956v14.378c0,1.078-0.887,1.949-1.977,1.949H199.016z"/>
		<path fill="#E5E8EC" d="M240.311,236.976c-1.072,0-1.933-0.871-1.933-1.949v-14.378c0-1.072,0.862-1.956,1.933-1.956h30.147
			c1.09,0,1.964,0.884,1.964,1.956v14.378c0,1.078-0.874,1.949-1.964,1.949H240.311z"/>
		<path fill="#E5E8EC" d="M281.619,236.976c-1.074,0-1.947-0.871-1.947-1.949v-14.378c0-1.072,0.873-1.956,1.947-1.956h30.16
			c1.064,0,1.951,0.884,1.951,1.956v14.378c0,1.078-0.887,1.949-1.951,1.949H281.619z"/>
		<path fill="#E5E8EC" d="M322.927,236.976c-1.072,0-1.949-0.871-1.949-1.949v-14.378c0-1.072,0.877-1.956,1.949-1.956h30.149
			c1.075,0,1.948,0.884,1.948,1.956v14.378c0,1.078-0.873,1.949-1.948,1.949H322.927z"/>
		<path fill="#E5E8EC" d="M364.222,236.976c-1.059,0-1.937-0.871-1.937-1.949v-14.378c0-1.072,0.878-1.956,1.937-1.956h30.162
			c1.088,0,1.948,0.884,1.948,1.956v14.378c0,1.078-0.86,1.949-1.948,1.949H364.222z"/>
		<path fill="#E5E8EC" d="M405.53,236.976c-1.088,0-1.949-0.871-1.949-1.949v-14.378c0-1.072,0.862-1.956,1.949-1.956h30.162
			c1.075,0,1.937,0.884,1.937,1.956v14.378c0,1.078-0.861,1.949-1.937,1.949H405.53z"/>
		<path fill="#E5E8EC" d="M446.838,236.976c-1.075,0-1.949-0.871-1.949-1.949v-14.378c0-1.072,0.874-1.956,1.949-1.956h30.136
			c1.085,0,1.962,0.884,1.962,1.956v14.378c0,1.078-0.878,1.949-1.962,1.949H446.838z"/>
		<path fill="#E5E8EC" d="M488.132,236.976c-1.062,0-1.937-0.871-1.937-1.949v-14.378c0-1.072,0.874-1.956,1.937-1.956h30.162
			c1.072,0,1.933,0.884,1.933,1.956v14.378c0,1.078-0.862,1.949-1.933,1.949H488.132z"/>
		<path fill="#E5E8EC" d="M529.424,236.976c-1.059,0-1.933-0.871-1.933-1.949v-14.378c0-1.072,0.874-1.956,1.933-1.956h30.178
			c1.072,0,1.933,0.884,1.933,1.956v14.378c0,1.078-0.861,1.949-1.933,1.949H529.424z"/>
		<path fill="#E5E8EC" d="M570.748,236.976c-1.075,0-1.95-0.871-1.95-1.949v-14.378c0-1.072,0.874-1.956,1.95-1.956h30.149
			c1.085,0,1.946,0.884,1.946,1.956v14.378c0,1.078-0.861,1.949-1.946,1.949H570.748z"/>
		<path fill="#E5E8EC" d="M612.04,236.976c-1.072,0-1.933-0.871-1.933-1.949v-14.378c0-1.072,0.862-1.956,1.933-1.956h30.165
			c1.072,0,1.933,0.884,1.933,1.956v14.378c0,1.078-0.862,1.949-1.933,1.949H612.04z"/>
		<path fill="#E5E8EC" d="M653.348,236.976c-1.072,0-1.946-0.871-1.946-1.949v-14.378c0-1.072,0.874-1.956,1.946-1.956h30.149
			c1.088,0,1.962,0.884,1.962,1.956v14.378c0,1.078-0.874,1.949-1.962,1.949H653.348z"/>
		<path fill="#E5E8EC" d="M116.4,276.277c-1.072,0-1.946-0.868-1.946-1.943v-27.286c0-1.075,0.874-1.949,1.946-1.949h28.254
			c1.075,0,1.949,0.874,1.949,1.949v27.286c0,1.075-0.874,1.943-1.949,1.943H116.4z"/>
		<path fill="#E5E8EC" d="M156.343,276.277c-1.073,0-1.948-0.868-1.948-1.943v-27.286c0-1.075,0.874-1.949,1.948-1.949h28.243
			c1.072,0,1.946,0.874,1.946,1.949v27.286c0,1.075-0.874,1.943-1.946,1.943H156.343z"/>
		<path fill="#E5E8EC" d="M196.299,276.277c-1.085,0-1.959-0.868-1.959-1.943v-27.286c0-1.075,0.874-1.949,1.959-1.949h28.228
			c1.075,0,1.949,0.874,1.949,1.949v27.286c0,1.075-0.874,1.943-1.949,1.943H196.299z"/>
		<path fill="#E5E8EC" d="M236.231,276.277c-1.088,0-1.949-0.868-1.949-1.943v-27.286c0-1.075,0.861-1.949,1.949-1.949h28.241
			c1.072,0,1.933,0.874,1.933,1.949v27.286c0,1.075-0.861,1.943-1.933,1.943H236.231z"/>
		<path fill="#E5E8EC" d="M276.159,276.277c-1.072,0-1.949-0.868-1.949-1.943v-27.286c0-1.075,0.877-1.949,1.949-1.949h28.241
			c1.059,0,1.962,0.874,1.962,1.949v27.286c0,1.075-0.904,1.943-1.962,1.943H276.159z"/>
		<path fill="#E5E8EC" d="M316.101,276.277c-1.072,0-1.946-0.868-1.946-1.943v-27.286c0-1.075,0.874-1.949,1.946-1.949h28.254
			c1.075,0,1.937,0.874,1.937,1.949v27.286c0,1.075-0.861,1.943-1.937,1.943H316.101z"/>
		<path fill="#E5E8EC" d="M356.032,276.277c-1.075,0-1.937-0.868-1.937-1.943v-27.286c0-1.075,0.861-1.949,1.937-1.949h28.254
			c1.085,0,1.946,0.874,1.946,1.949v27.286c0,1.075-0.861,1.943-1.946,1.943H356.032z"/>
		<path fill="#E5E8EC" d="M395.973,276.277c-1.059,0-1.946-0.868-1.946-1.943v-27.286c0-1.075,0.887-1.949,1.946-1.949h28.254
			c1.075,0,1.948,0.874,1.948,1.949v27.286c0,1.075-0.873,1.943-1.948,1.943H395.973z"/>
		<path fill="#E5E8EC" d="M435.905,276.277c-1.075,0-1.937-0.868-1.937-1.943v-27.286c0-1.075,0.862-1.949,1.937-1.949h28.266
			c1.06,0,1.933,0.874,1.933,1.949v27.286c0,1.075-0.873,1.943-1.933,1.943H435.905z"/>
		<path fill="#E5E8EC" d="M475.859,276.277c-1.085,0-1.962-0.868-1.962-1.943v-27.286c0-1.075,0.878-1.949,1.962-1.949h28.228
			c1.072,0,1.946,0.874,1.946,1.949v27.286c0,1.075-0.874,1.943-1.946,1.943H475.859z"/>
		<path fill="#E5E8EC" d="M515.787,276.277c-1.072,0-1.933-0.868-1.933-1.943v-27.286c0-1.075,0.862-1.949,1.933-1.949h28.241
			c1.075,0,1.95,0.874,1.95,1.949v27.286c0,1.075-0.874,1.943-1.95,1.943H515.787z"/>
		<path fill="#E5E8EC" d="M555.719,276.277c-1.062,0-1.95-0.868-1.95-1.943v-27.286c0-1.075,0.887-1.949,1.95-1.949h28.267
			c1.059,0,1.934,0.874,1.934,1.949v27.286c0,1.075-0.874,1.943-1.934,1.943H555.719z"/>
		<path fill="#E5E8EC" d="M595.661,276.277c-1.072,0-1.947-0.868-1.947-1.943v-27.286c0-1.075,0.874-1.949,1.947-1.949h28.254
			c1.075,0,1.936,0.874,1.936,1.949v27.286c0,1.075-0.861,1.943-1.936,1.943H595.661z"/>
		<path fill="#E5E8EC" d="M635.605,276.277c-1.075,0-1.949-0.868-1.949-1.943v-27.286c0-1.075,0.874-1.949,1.949-1.949h47.891
			c1.088,0,1.962,0.874,1.962,1.949v27.286c0,1.075-0.874,1.943-1.962,1.943H635.605z"/>
		<path fill="#E5E8EC" d="M116.4,314.463c-1.072,0-1.946-0.881-1.946-1.949v-27.293c0-1.075,0.874-1.949,1.946-1.949h49.116
			c1.072,0,1.959,0.874,1.959,1.949v27.293c0,1.069-0.887,1.949-1.959,1.949H116.4z"/>
		<path fill="#E5E8EC" d="M176.435,314.463c-1.075,0-1.949-0.881-1.949-1.949v-27.293c0-1.075,0.874-1.949,1.949-1.949h28.241
			c1.072,0,1.946,0.874,1.946,1.949v27.293c0,1.069-0.874,1.949-1.946,1.949H176.435z"/>
		<path fill="#E5E8EC" d="M216.297,314.463c-1.073,0-1.948-0.881-1.948-1.949v-27.293c0-1.075,0.874-1.949,1.948-1.949h28.256
			c1.072,0,1.959,0.874,1.959,1.949v27.293c0,1.069-0.887,1.949-1.959,1.949H216.297z"/>
		<path fill="#E5E8EC" d="M256.189,314.463c-1.075,0-1.949-0.881-1.949-1.949v-27.293c0-1.075,0.874-1.949,1.949-1.949h28.241
			c1.072,0,1.933,0.874,1.933,1.949v27.293c0,1.069-0.861,1.949-1.933,1.949H256.189z"/>
		<path fill="#E5E8EC" d="M296.039,314.463c-1.088,0-1.937-0.881-1.937-1.949v-27.293c0-1.075,0.849-1.949,1.937-1.949h28.254
			c1.059,0,1.933,0.874,1.933,1.949v27.293c0,1.069-0.874,1.949-1.933,1.949H296.039z"/>
		<path fill="#E5E8EC" d="M335.916,314.463c-1.075,0-1.937-0.881-1.937-1.949v-27.293c0-1.075,0.862-1.949,1.937-1.949h28.238
			c1.075,0,1.949,0.874,1.949,1.949v27.293c0,1.069-0.874,1.949-1.949,1.949H335.916z"/>
		<path fill="#E5E8EC" d="M375.792,314.463c-1.088,0-1.962-0.881-1.962-1.949v-27.293c0-1.075,0.874-1.949,1.962-1.949h28.238
			c1.088,0,1.962,0.874,1.962,1.949v27.293c0,1.069-0.874,1.949-1.962,1.949H375.792z"/>
		<path fill="#E5E8EC" d="M415.653,314.463c-1.074,0-1.946-0.881-1.946-1.949v-27.293c0-1.075,0.872-1.949,1.946-1.949h28.254
			c1.06,0,1.937,0.874,1.937,1.949v27.293c0,1.069-0.876,1.949-1.937,1.949H415.653z"/>
		<path fill="#E5E8EC" d="M455.529,314.463c-1.072,0-1.933-0.881-1.933-1.949v-27.293c0-1.075,0.861-1.949,1.933-1.949h28.254
			c1.075,0,1.937,0.874,1.937,1.949v27.293c0,1.069-0.862,1.949-1.937,1.949H455.529z"/>
		<path fill="#E5E8EC" d="M495.393,314.463c-1.072,0-1.933-0.881-1.933-1.949v-27.293c0-1.075,0.861-1.949,1.933-1.949h28.255
			c1.062,0,1.949,0.874,1.949,1.949v27.293c0,1.069-0.887,1.949-1.949,1.949H495.393z"/>
		<path fill="#E5E8EC" d="M575.133,314.463c-1.072,0-1.948-0.881-1.948-1.949v-27.293c0-1.075,0.876-1.949,1.948-1.949h28.241
			c1.072,0,1.949,0.874,1.949,1.949v27.293c0,1.069-0.877,1.949-1.949,1.949H575.133z"/>
		<path fill="#E5E8EC" d="M535.282,314.463c-1.085,0-1.959-0.881-1.959-1.949v-27.293c0-1.075,0.874-1.949,1.959-1.949h28.228
			c1.059,0,1.935,0.874,1.935,1.949v27.293c0,1.069-0.876,1.949-1.935,1.949H535.282z"/>
		<path fill="#E5E8EC" d="M615.009,314.463c-1.072,0-1.933-0.881-1.933-1.949v-27.293c0-1.075,0.862-1.949,1.933-1.949h28.241
			c1.072,0,1.946,0.874,1.946,1.949v27.293c0,1.069-0.874,1.949-1.946,1.949H615.009z"/>
		<path fill="#E5E8EC" d="M116.4,354.151c-1.072,0-1.946-0.865-1.946-1.943v-27.289c0-1.072,0.874-1.953,1.946-1.953h58.801
			c1.062,0,1.949,0.881,1.949,1.953v27.289c0,1.078-0.887,1.943-1.949,1.943H116.4z"/>
		<path fill="#E5E8EC" d="M187.621,354.151c-1.059,0-1.937-0.865-1.937-1.943v-27.289c0-1.072,0.877-1.953,1.937-1.953h28.254
			c1.072,0,1.945,0.881,1.945,1.953v27.289c0,1.078-0.873,1.943-1.945,1.943H187.621z"/>
		<path fill="#E5E8EC" d="M227.364,354.151c-1.075,0-1.938-0.865-1.938-1.943v-27.289c0-1.072,0.863-1.953,1.938-1.953h28.241
			c1.072,0,1.933,0.881,1.933,1.953v27.289c0,1.078-0.861,1.943-1.933,1.943H227.364z"/>
		<path fill="#E5E8EC" d="M267.095,354.151c-1.075,0-1.937-0.865-1.937-1.943v-27.289c0-1.072,0.861-1.953,1.937-1.953h28.24
			c1.086,0,1.948,0.881,1.948,1.953v27.289c0,1.078-0.861,1.943-1.948,1.943H267.095z"/>
		<path fill="#E5E8EC" d="M306.813,354.151c-1.062,0-1.937-0.865-1.937-1.943v-27.289c0-1.072,0.874-1.953,1.937-1.953h28.254
			c1.072,0,1.946,0.881,1.946,1.953v27.289c0,1.078-0.874,1.943-1.946,1.943H306.813z"/>
		<path fill="#E5E8EC" d="M346.557,354.151c-1.075,0-1.949-0.865-1.949-1.943v-27.289c0-1.072,0.874-1.953,1.949-1.953h28.254
			c1.07,0,1.933,0.881,1.933,1.953v27.289c0,1.078-0.863,1.943-1.933,1.943H346.557z"/>
		<path fill="#E5E8EC" d="M386.288,354.151c-1.075,0-1.949-0.865-1.949-1.943v-27.289c0-1.072,0.874-1.953,1.949-1.953h28.254
			c1.072,0,1.933,0.881,1.933,1.953v27.289c0,1.078-0.861,1.943-1.933,1.943H386.288z"/>
		<path fill="#E5E8EC" d="M426.032,354.151c-1.103,0-1.962-0.865-1.962-1.943v-27.289c0-1.072,0.86-1.953,1.962-1.953h28.241
			c1.072,0,1.946,0.881,1.946,1.953v27.289c0,1.078-0.874,1.943-1.946,1.943H426.032z"/>
		<path fill="#E5E8EC" d="M465.762,354.151c-1.075,0-1.949-0.865-1.949-1.943v-27.289c0-1.072,0.874-1.953,1.949-1.953h28.241
			c1.059,0,1.945,0.881,1.945,1.953v27.289c0,1.078-0.886,1.943-1.945,1.943H465.762z"/>
		<path fill="#E5E8EC" d="M505.492,354.151c-1.074,0-1.961-0.865-1.961-1.943v-27.289c0-1.072,0.887-1.953,1.961-1.953h28.227
			c1.088,0,1.962,0.881,1.962,1.953v27.289c0,1.078-0.874,1.943-1.962,1.943H505.492z"/>
		<path fill="#E5E8EC" d="M545.224,354.151c-1.075,0-1.95-0.865-1.95-1.943v-27.289c0-1.072,0.874-1.953,1.95-1.953h28.225
			c1.075,0,1.948,0.881,1.948,1.953v27.289c0,1.078-0.873,1.943-1.948,1.943H545.224z"/>
		<path fill="#E5E8EC" d="M584.937,354.151c-1.07,0-1.933-0.865-1.933-1.943v-27.289c0-1.072,0.863-1.953,1.933-1.953h28.256
			c1.075,0,1.95,0.881,1.95,1.953v27.289c0,1.078-0.874,1.943-1.95,1.943H584.937z"/>
		<path fill="#E5E8EC" d="M624.669,354.151c-1.072,0-1.933-0.865-1.933-1.943v-27.289c0-1.072,0.862-1.953,1.933-1.953h28.267
			c1.062,0,1.937,0.881,1.937,1.953v27.289c0,1.078-0.874,1.943-1.937,1.943H624.669z"/>
		<path fill="#E5E8EC" d="M665.634,354.151c-1.075,0-1.937-0.865-1.937-1.943V319c0-2.503-2.04-4.537-4.543-4.537h-4.187
			c-1.09,0-1.975-0.881-1.975-1.949v-27.293c0-1.075,0.886-1.949,1.975-1.949h28.529c1.088,0,1.962,0.874,1.962,1.949v66.988
			c0,1.078-0.874,1.943-1.962,1.943H665.634z"/>
		<path fill="#E5E8EC" d="M116.4,393.853c-1.072,0-1.946-0.874-1.946-1.943v-27.293c0-1.075,0.874-1.949,1.946-1.949h36.91
			c1.072,0,1.933,0.874,1.933,1.949v27.293c0,1.068-0.862,1.943-1.933,1.943H116.4z"/>
		<path fill="#E5E8EC" d="M166.76,393.853c-1.072,0-1.947-0.874-1.947-1.943v-27.293c0-1.075,0.874-1.949,1.947-1.949h28.241
			c1.088,0,1.961,0.874,1.961,1.949v27.293c0,1.068-0.873,1.943-1.961,1.943H166.76z"/>
		<path fill="#E5E8EC" d="M206.597,393.853c-1.073,0-1.933-0.874-1.933-1.943v-27.293c0-1.075,0.86-1.949,1.933-1.949h28.241
			c1.075,0,1.949,0.874,1.949,1.949v27.293c0,1.068-0.874,1.943-1.949,1.943H206.597z"/>
		<path fill="#E5E8EC" d="M246.435,393.853c-1.075,0-1.951-0.874-1.951-1.943v-27.293c0-1.075,0.876-1.949,1.951-1.949h28.241
			c1.072,0,1.959,0.874,1.959,1.949v27.293c0,1.068-0.887,1.943-1.959,1.943H246.435z"/>
		<path fill="#E5E8EC" d="M286.273,393.853c-1.075,0-1.937-0.874-1.937-1.943v-27.293c0-1.075,0.861-1.949,1.937-1.949h28.238
			c1.075,0,1.961,0.874,1.961,1.949v27.293c0,1.068-0.886,1.943-1.961,1.943H286.273z"/>
		<path fill="#E5E8EC" d="M326.107,393.853c-1.074,0-1.933-0.874-1.933-1.943v-27.293c0-1.075,0.859-1.949,1.933-1.949h28.254
			c1.073,0,1.937,0.874,1.937,1.949v27.293c0,1.068-0.863,1.943-1.937,1.943H326.107z"/>
		<path fill="#E5E8EC" d="M365.957,393.853c-1.072,0-1.951-0.874-1.951-1.943v-27.293c0-1.075,0.879-1.949,1.951-1.949h28.228
			c1.085,0,1.959,0.874,1.959,1.949v27.293c0,1.068-0.874,1.943-1.959,1.943H365.957z"/>
		<path fill="#E5E8EC" d="M405.782,393.853c-1.062,0-1.949-0.874-1.949-1.943v-27.293c0-1.075,0.887-1.949,1.949-1.949h28.238
			c1.088,0,1.962,0.874,1.962,1.949v27.293c0,1.068-0.874,1.943-1.962,1.943H405.782z"/>
		<path fill="#E5E8EC" d="M445.63,393.853c-1.085,0-1.946-0.874-1.946-1.943v-27.293c0-1.075,0.862-1.949,1.946-1.949h28.228
			c1.088,0,1.937,0.874,1.937,1.949v27.293c0,1.068-0.849,1.943-1.937,1.943H445.63z"/>
		<path fill="#E5E8EC" d="M485.467,393.853c-1.088,0-1.962-0.874-1.962-1.943v-27.293c0-1.075,0.874-1.949,1.962-1.949h28.241
			c1.072,0,1.946,0.874,1.946,1.949v27.293c0,1.068-0.874,1.943-1.946,1.943H485.467z"/>
		<path fill="#E5E8EC" d="M525.279,393.853c-1.075,0-1.936-0.874-1.936-1.943v-27.293c0-1.075,0.861-1.949,1.936-1.949h28.268
			c1.059,0,1.933,0.874,1.933,1.949v27.293c0,1.068-0.874,1.943-1.933,1.943H525.279z"/>
		<path fill="#E5E8EC" d="M565.126,393.853c-1.06,0-1.946-0.874-1.946-1.943v-27.293c0-1.075,0.886-1.949,1.946-1.949h28.255
			c1.086,0,1.949,0.874,1.949,1.949v27.293c0,1.068-0.863,1.943-1.949,1.943H565.126z"/>
		<path fill="#E5E8EC" d="M605.573,393.853c-1.072,0-1.933-0.874-1.933-1.943v-27.293c0-1.075,0.862-1.949,1.933-1.949h77.923
			c1.088,0,1.962,0.874,1.962,1.949v27.293c0,1.068-0.874,1.943-1.962,1.943H605.573z"/>
		<path fill="#E5E8EC" d="M116.4,436.605c-1.072,0-1.946-0.874-1.946-1.943v-30.864c0-1.072,0.874-1.946,1.946-1.946h28.254
			c1.075,0,1.949,0.874,1.949,1.946v30.864c0,1.069-0.874,1.943-1.949,1.943H116.4z"/>
		<path fill="#E5E8EC" d="M156.343,436.605c-1.073,0-1.948-0.874-1.948-1.943v-30.864c0-1.072,0.874-1.946,1.948-1.946h28.243
			c1.072,0,1.946,0.874,1.946,1.946v30.864c0,1.069-0.874,1.943-1.946,1.943H156.343z"/>
		<path fill="#E5E8EC" d="M196.299,436.605c-1.085,0-1.959-0.874-1.959-1.943v-30.864c0-1.072,0.874-1.946,1.959-1.946h28.228
			c1.075,0,1.949,0.874,1.949,1.946v30.864c0,1.069-0.874,1.943-1.949,1.943H196.299z"/>
		<path fill="#E5E8EC" d="M236.231,436.605c-1.088,0-1.949-0.874-1.949-1.943v-30.864c0-1.072,0.861-1.946,1.949-1.946h38.921
			c1.088,0,1.936,0.874,1.936,1.946v30.864c0,1.069-0.848,1.943-1.936,1.943H236.231z"/>
		<path fill="#E5E8EC" d="M485.095,436.605c-1.072,0-1.946-0.874-1.946-1.943v-30.864c0-1.072,0.874-1.946,1.946-1.946h38.937
			c1.07,0,1.946,0.874,1.946,1.946v30.864c0,1.069-0.876,1.943-1.946,1.943H485.095z"/>
		<path fill="#E5E8EC" d="M286.59,436.605c-1.075,0-1.949-0.874-1.949-1.943v-30.864c0-1.072,0.874-1.946,1.949-1.946h187.547
			c1.075,0,1.949,0.874,1.949,1.946v30.864c0,1.069-0.874,1.943-1.949,1.943H286.59z"/>
		<path fill="#E5E8EC" d="M535.136,436.605c-1.085,0-1.946-0.874-1.946-1.943v-30.864c0-1.072,0.862-1.946,1.946-1.946h28.24
			c1.09,0,1.951,0.874,1.951,1.946v30.864c0,1.069-0.862,1.943-1.951,1.943H535.136z"/>
		<path fill="#E5E8EC" d="M575.305,436.605c-1.072,0-1.946-0.874-1.946-1.943v-12.539c0-1.062,0.874-1.946,1.946-1.946h28.267
			c1.062,0,1.924,0.884,1.924,1.946v12.539c0,1.069-0.861,1.943-1.924,1.943H575.305z"/>
		<path fill="#E5E8EC" d="M615.515,436.605c-1.075,0-1.937-0.874-1.937-1.943v-30.864c0-1.072,0.861-1.946,1.937-1.946h28.251
			c1.062,0,1.949,0.874,1.949,1.946v30.864c0,1.069-0.887,1.943-1.949,1.943H615.515z"/>
		<path fill="#E5E8EC" d="M655.257,436.605c-1.073,0-1.948-0.874-1.948-1.943v-12.539c0-1.062,0.874-1.946,1.948-1.946h28.24
			c1.088,0,1.962,0.884,1.962,1.946v12.539c0,1.069-0.874,1.943-1.962,1.943H655.257z"/>
	</g>
	<g>
		<g>
			<g>
				<rect x="139.334" y="116.686" fill="#253858" width="432.886" height="333.018"/>
				<rect x="139.334" y="91.042" fill="#CDD5D7" width="432.886" height="27.95"/>
				<line fill="none" stroke="#879BA6" stroke-width="9.5718" x1="148.392" y1="104.727" x2="156.508" y2="104.727"/>
				<line fill="none" stroke="#879BA6" stroke-width="9.5718" x1="164.213" y1="104.727" x2="172.331" y2="104.727"/>
				<line fill="none" stroke="#879BA6" stroke-width="9.5718" x1="180.043" y1="104.727" x2="188.162" y2="104.727"/>
			</g>
		</g>
		<g>
			
				<line fill="none" stroke="#6D5CBB" stroke-width="6.3812" stroke-miterlimit="10" x1="206.327" y1="144.526" x2="296.907" y2="144.526"/>
			
				<line fill="none" stroke="#FF876C" stroke-width="6.3812" stroke-miterlimit="10" x1="213.817" y1="159.011" x2="228.802" y2="159.011"/>
			
				<line fill="none" stroke="#FF876C" stroke-width="6.3812" stroke-miterlimit="10" x1="213.817" y1="173.493" x2="228.802" y2="173.493"/>
			
				<line fill="none" stroke="#FF876C" stroke-width="6.3812" stroke-miterlimit="10" x1="213.817" y1="187.977" x2="228.802" y2="187.977"/>
			
				<line fill="none" stroke="#7EC896" stroke-width="6.3812" stroke-miterlimit="10" x1="258.088" y1="159.011" x2="304.059" y2="159.011"/>
			
				<line fill="none" stroke="#7EC896" stroke-width="6.3812" stroke-miterlimit="10" x1="258.088" y1="173.493" x2="304.059" y2="173.493"/>
			
				<line fill="none" stroke="#7EC896" stroke-width="6.3812" stroke-miterlimit="10" x1="258.088" y1="187.977" x2="304.059" y2="187.977"/>
			
				<line fill="none" stroke="#F1FAFC" stroke-width="6.3812" stroke-miterlimit="10" x1="235.272" y1="159.011" x2="245.829" y2="159.011"/>
			
				<line fill="none" stroke="#F1FAFC" stroke-width="6.3812" stroke-miterlimit="10" x1="235.272" y1="173.493" x2="245.829" y2="173.493"/>
			
				<line fill="none" stroke="#F1FAFC" stroke-width="6.3812" stroke-miterlimit="10" x1="235.272" y1="187.977" x2="245.829" y2="187.977"/>
			
				<line fill="none" stroke="#FBD260" stroke-width="6.3812" stroke-miterlimit="10" x1="250.384" y1="159.011" x2="253.192" y2="159.011"/>
			
				<line fill="none" stroke="#FBD260" stroke-width="6.3812" stroke-miterlimit="10" x1="250.384" y1="173.493" x2="253.192" y2="173.493"/>
			
				<line fill="none" stroke="#FBD260" stroke-width="6.3812" stroke-miterlimit="10" x1="250.384" y1="187.977" x2="253.192" y2="187.977"/>
			
				<line fill="none" stroke="#FBD260" stroke-width="6.3812" stroke-miterlimit="10" x1="206.667" y1="159.011" x2="209.478" y2="159.011"/>
			
				<line fill="none" stroke="#FBD260" stroke-width="6.3812" stroke-miterlimit="10" x1="206.667" y1="173.493" x2="209.478" y2="173.493"/>
			
				<line fill="none" stroke="#FBD260" stroke-width="6.3812" stroke-miterlimit="10" x1="206.667" y1="187.977" x2="209.478" y2="187.977"/>
			
				<line fill="none" stroke="#FF876C" stroke-width="6.3812" stroke-miterlimit="10" x1="213.817" y1="216.944" x2="236.974" y2="216.944"/>
			
				<line fill="none" stroke="#7EC896" stroke-width="6.3812" stroke-miterlimit="10" x1="268.985" y1="216.944" x2="304.059" y2="216.944"/>
			
				<line fill="none" stroke="#F1FAFC" stroke-width="6.3812" stroke-miterlimit="10" x1="243.446" y1="216.944" x2="256.724" y2="216.944"/>
			
				<line fill="none" stroke="#FBD260" stroke-width="6.3812" stroke-miterlimit="10" x1="261.279" y1="216.944" x2="264.088" y2="216.944"/>
			
				<line fill="none" stroke="#6D5CBB" stroke-width="6.3812" stroke-miterlimit="10" x1="305.419" y1="245.908" x2="414.048" y2="245.908"/>
			
				<line fill="none" stroke="#F1FAFC" stroke-width="6.3812" stroke-miterlimit="10" x1="244.806" y1="245.908" x2="296.907" y2="245.908"/>
			
				<line fill="none" stroke="#7EC896" stroke-width="6.3812" stroke-miterlimit="10" x1="344.92" y1="216.944" x2="379.994" y2="216.944"/>
			
				<line fill="none" stroke="#F1FAFC" stroke-width="6.3812" stroke-miterlimit="10" x1="313.933" y1="216.944" x2="332.661" y2="216.944"/>
			
				<line fill="none" stroke="#FBD260" stroke-width="6.3812" stroke-miterlimit="10" x1="337.218" y1="216.944" x2="340.025" y2="216.944"/>
			
				<line fill="none" stroke="#FBD260" stroke-width="6.3812" stroke-miterlimit="10" x1="383.529" y1="216.944" x2="386.336" y2="216.944"/>
			
				<line fill="none" stroke="#FBD260" stroke-width="6.3812" stroke-miterlimit="10" x1="206.667" y1="216.944" x2="209.478" y2="216.944"/>
			
				<line fill="none" stroke="#FF876C" stroke-width="6.3812" stroke-miterlimit="10" x1="213.817" y1="274.874" x2="236.974" y2="274.874"/>
			
				<line fill="none" stroke="#F1FAFC" stroke-width="6.3812" stroke-miterlimit="10" x1="206.667" y1="274.874" x2="209.478" y2="274.874"/>
			
				<line fill="none" stroke="#F1FAFC" stroke-width="6.3812" stroke-miterlimit="10" x1="241.402" y1="274.874" x2="244.212" y2="274.874"/>
			
				<line fill="none" stroke="#FF876C" stroke-width="6.3812" stroke-miterlimit="10" x1="196.11" y1="332.807" x2="219.267" y2="332.807"/>
			
				<line fill="none" stroke="#F1FAFC" stroke-width="6.3812" stroke-miterlimit="10" x1="188.96" y1="332.807" x2="191.77" y2="332.807"/>
			
				<line fill="none" stroke="#F1FAFC" stroke-width="6.3812" stroke-miterlimit="10" x1="223.692" y1="332.807" x2="226.503" y2="332.807"/>
			
				<line fill="none" stroke="#FBD260" stroke-width="6.3812" stroke-miterlimit="10" x1="226.077" y1="260.389" x2="228.89" y2="260.389"/>
			
				<line fill="none" stroke="#FF876C" stroke-width="6.3812" stroke-miterlimit="10" x1="226.077" y1="231.429" x2="239.699" y2="231.429"/>
			
				<line fill="none" stroke="#FBD260" stroke-width="6.3812" stroke-miterlimit="10" x1="244.806" y1="231.429" x2="297.913" y2="231.429"/>
			
				<line fill="none" stroke="#7EC896" stroke-width="6.3812" stroke-miterlimit="10" x1="336.41" y1="159.011" x2="382.377" y2="159.011"/>
			
				<line fill="none" stroke="#7EC896" stroke-width="6.3812" stroke-miterlimit="10" x1="336.41" y1="173.493" x2="382.377" y2="173.493"/>
			
				<line fill="none" stroke="#7EC896" stroke-width="6.3812" stroke-miterlimit="10" x1="336.41" y1="187.977" x2="382.377" y2="187.977"/>
			
				<line fill="none" stroke="#7EC896" stroke-width="6.3812" stroke-miterlimit="10" x1="384.766" y1="159.011" x2="465.128" y2="159.011"/>
			
				<line fill="none" stroke="#7EC896" stroke-width="6.3812" stroke-miterlimit="10" x1="384.766" y1="173.493" x2="494.755" y2="173.493"/>
			
				<line fill="none" stroke="#7EC896" stroke-width="6.3812" stroke-miterlimit="10" x1="384.766" y1="187.977" x2="514.502" y2="187.977"/>
			
				<line fill="none" stroke="#F1FAFC" stroke-width="6.3812" stroke-miterlimit="10" x1="313.592" y1="159.011" x2="324.148" y2="159.011"/>
			
				<line fill="none" stroke="#F1FAFC" stroke-width="6.3812" stroke-miterlimit="10" x1="313.592" y1="173.493" x2="324.148" y2="173.493"/>
			
				<line fill="none" stroke="#F1FAFC" stroke-width="6.3812" stroke-miterlimit="10" x1="313.592" y1="187.977" x2="324.148" y2="187.977"/>
			
				<line fill="none" stroke="#FBD260" stroke-width="6.3812" stroke-miterlimit="10" x1="328.706" y1="159.011" x2="331.512" y2="159.011"/>
			
				<line fill="none" stroke="#FBD260" stroke-width="6.3812" stroke-miterlimit="10" x1="328.706" y1="173.493" x2="331.512" y2="173.493"/>
			
				<line fill="none" stroke="#FBD260" stroke-width="6.3812" stroke-miterlimit="10" x1="328.706" y1="187.977" x2="331.512" y2="187.977"/>
			
				<line fill="none" stroke="#FBD260" stroke-width="6.3812" stroke-miterlimit="10" x1="475.684" y1="159.011" x2="478.494" y2="159.011"/>
			
				<line fill="none" stroke="#FBD260" stroke-width="6.3812" stroke-miterlimit="10" x1="502.713" y1="173.493" x2="505.522" y2="173.493"/>
			
				<line fill="none" stroke="#FBD260" stroke-width="6.3812" stroke-miterlimit="10" x1="521.102" y1="187.977" x2="523.912" y2="187.977"/>
			
				<line fill="none" stroke="#7EC8EF" stroke-width="6.3812" stroke-miterlimit="10" x1="206.327" y1="202.459" x2="296.907" y2="202.459"/>
			
				<line fill="none" stroke="#FF876C" stroke-width="6.3812" stroke-miterlimit="10" x1="195.431" y1="363.607" x2="210.415" y2="363.607"/>
			
				<line fill="none" stroke="#FF876C" stroke-width="6.3812" stroke-miterlimit="10" x1="230.504" y1="392.571" x2="245.488" y2="392.571"/>
			
				<line fill="none" stroke="#7EC896" stroke-width="6.3812" stroke-miterlimit="10" x1="274.773" y1="392.571" x2="374.205" y2="392.571"/>
			
				<line fill="none" stroke="#F1FAFC" stroke-width="6.3812" stroke-miterlimit="10" x1="207.35" y1="378.086" x2="353.094" y2="378.086"/>
			
				<line fill="none" stroke="#F1FAFC" stroke-width="6.3812" stroke-miterlimit="10" x1="251.959" y1="392.571" x2="262.513" y2="392.571"/>
			
				<line fill="none" stroke="#FBD260" stroke-width="6.3812" stroke-miterlimit="10" x1="267.068" y1="392.571" x2="269.878" y2="392.571"/>
			
				<line fill="none" stroke="#FBD260" stroke-width="6.3812" stroke-miterlimit="10" x1="188.28" y1="363.607" x2="191.086" y2="363.607"/>
			
				<line fill="none" stroke="#FBD260" stroke-width="6.3812" stroke-miterlimit="10" x1="213.817" y1="363.607" x2="216.628" y2="363.607"/>
			
				<line fill="none" stroke="#FF876C" stroke-width="6.3812" stroke-miterlimit="10" x1="250.596" y1="407.052" x2="257.403" y2="407.052"/>
			
				<line fill="none" stroke="#FBD260" stroke-width="6.3812" stroke-miterlimit="10" x1="243.446" y1="407.052" x2="246.253" y2="407.052"/>
			
				<line fill="none" stroke="#FBD260" stroke-width="6.3812" stroke-miterlimit="10" x1="260.811" y1="407.052" x2="263.62" y2="407.052"/>
			
				<line fill="none" stroke="#FF876C" stroke-width="6.3812" stroke-miterlimit="10" x1="269.663" y1="436.019" x2="276.473" y2="436.019"/>
			
				<line fill="none" stroke="#FBD260" stroke-width="6.3812" stroke-miterlimit="10" x1="262.513" y1="436.019" x2="265.322" y2="436.019"/>
			
				<line fill="none" stroke="#FBD260" stroke-width="6.3812" stroke-miterlimit="10" x1="279.882" y1="436.019" x2="282.691" y2="436.019"/>
			
				<line fill="none" stroke="#FBD260" stroke-width="6.3812" stroke-miterlimit="10" x1="223.351" y1="392.571" x2="226.163" y2="392.571"/>
			
				<line fill="none" stroke="#F1FAFC" stroke-width="6.3812" stroke-miterlimit="10" x1="262.855" y1="421.534" x2="406.603" y2="421.534"/>
			
				<line fill="none" stroke="#FBD260" stroke-width="6.3812" stroke-miterlimit="10" x1="377.609" y1="392.571" x2="380.422" y2="392.571"/>
			
				<line fill="none" stroke="#7EC8EF" stroke-width="6.3812" stroke-miterlimit="10" x1="206.327" y1="289.356" x2="330.961" y2="289.356"/>
			
				<line fill="none" stroke="#7EC8EF" stroke-width="6.3812" stroke-miterlimit="10" x1="206.327" y1="303.841" x2="390.894" y2="303.841"/>
			
				<line fill="none" stroke="#7EC8EF" stroke-width="6.3812" stroke-miterlimit="10" x1="206.327" y1="318.319" x2="268.985" y2="318.319"/>
			
				<line fill="none" stroke="#FBD260" stroke-width="6.3812" stroke-miterlimit="10" x1="156.609" y1="144.526" x2="163.419" y2="144.526"/>
			
				<line fill="none" stroke="#FBD260" stroke-width="6.3812" stroke-miterlimit="10" x1="156.609" y1="159.011" x2="163.419" y2="159.011"/>
			
				<line fill="none" stroke="#FBD260" stroke-width="6.3812" stroke-miterlimit="10" x1="156.609" y1="173.493" x2="163.419" y2="173.493"/>
			
				<line fill="none" stroke="#FBD260" stroke-width="6.3812" stroke-miterlimit="10" x1="156.609" y1="187.977" x2="163.419" y2="187.977"/>
			
				<line fill="none" stroke="#FBD260" stroke-width="6.3812" stroke-miterlimit="10" x1="156.609" y1="202.459" x2="163.419" y2="202.459"/>
			
				<line fill="none" stroke="#FBD260" stroke-width="6.3812" stroke-miterlimit="10" x1="156.609" y1="216.944" x2="163.419" y2="216.944"/>
			
				<line fill="none" stroke="#FBD260" stroke-width="6.3812" stroke-miterlimit="10" x1="156.609" y1="231.429" x2="163.419" y2="231.429"/>
			
				<line fill="none" stroke="#FBD260" stroke-width="6.3812" stroke-miterlimit="10" x1="156.609" y1="245.908" x2="163.419" y2="245.908"/>
			
				<line fill="none" stroke="#FBD260" stroke-width="6.3812" stroke-miterlimit="10" x1="156.609" y1="260.389" x2="163.419" y2="260.389"/>
			
				<line fill="none" stroke="#FBD260" stroke-width="6.3812" stroke-miterlimit="10" x1="156.609" y1="274.874" x2="163.419" y2="274.874"/>
			
				<line fill="none" stroke="#FBD260" stroke-width="6.3812" stroke-miterlimit="10" x1="156.609" y1="289.356" x2="163.419" y2="289.356"/>
			
				<line fill="none" stroke="#FBD260" stroke-width="6.3812" stroke-miterlimit="10" x1="156.609" y1="303.841" x2="163.419" y2="303.841"/>
			
				<line fill="none" stroke="#FBD260" stroke-width="6.3812" stroke-miterlimit="10" x1="156.609" y1="318.319" x2="163.419" y2="318.319"/>
			
				<line fill="none" stroke="#FBD260" stroke-width="6.3812" stroke-miterlimit="10" x1="156.609" y1="332.807" x2="163.419" y2="332.807"/>
			
				<line fill="none" stroke="#FBD260" stroke-width="6.3812" stroke-miterlimit="10" x1="156.609" y1="347.289" x2="163.419" y2="347.289"/>
			
				<line fill="none" stroke="#FBD260" stroke-width="6.3812" stroke-miterlimit="10" x1="156.609" y1="361.771" x2="163.419" y2="361.771"/>
			
				<line fill="none" stroke="#FBD260" stroke-width="6.3812" stroke-miterlimit="10" x1="156.609" y1="376.253" x2="163.419" y2="376.253"/>
		</g>
	</g>
	<circle fill="#FE3401" cx="540.466" cy="389.63" r="90.312"/>
	<g>
		<g>
			<rect x="533.981" y="373.387" fill="#FFFFFF" width="6.632" height="22.914"/>
		</g>
		<g>
			<rect x="533.981" y="346.982" fill="#FFFFFF" width="6.632" height="16.01"/>
		</g>
		<g>
			<rect x="527.507" y="346.341" fill="#FFFFFF" width="19.896" height="6.632"/>
		</g>
		<g>
			<path fill="#FFFFFF" d="M537.297,426.288c-18.365,0-33.306-14.941-33.306-33.303c0-18.368,14.942-33.309,33.306-33.309
				c12.65,0,24.051,7.02,29.75,18.322c0.259,0.512,0.505,1.03,0.738,1.561l-6.075,2.662c-0.181-0.415-0.376-0.823-0.58-1.231
				c-4.571-9.054-13.701-14.682-23.834-14.682c-14.709,0-26.674,11.969-26.674,26.677c0,14.708,11.966,26.67,26.674,26.67
				c1.919,0,3.839-0.207,5.709-0.615l1.412,6.483C542.086,426.029,539.689,426.288,537.297,426.288z"/>
		</g>
		<path fill="#FFFFFF" d="M542.271,394.643c0,2.746-2.228,4.974-4.974,4.974c-2.746,0-4.974-2.228-4.974-4.974
			c0-2.753,2.228-4.974,4.974-4.974C540.043,389.669,542.271,391.891,542.271,394.643z"/>
		<g>
			
				<rect x="555.694" y="357.615" transform="matrix(0.7071 0.7071 -0.7071 0.7071 421.5982 -288.4803)" fill="#FFFFFF" width="6.631" height="14.069"/>
		</g>
		<g>
			<g>
				<path fill="#FFFFFF" d="M563.679,419.293c-7.314,0-13.264-5.952-13.264-13.264c0-7.319,5.951-13.264,13.264-13.264
					c7.314,0,13.264,5.945,13.264,13.264C576.943,413.341,570.993,419.293,563.679,419.293z M563.679,399.397
					c-3.656,0-6.632,2.973-6.632,6.632c0,3.653,2.976,6.632,6.632,6.632c3.656,0,6.632-2.979,6.632-6.632
					C570.311,402.37,567.335,399.397,563.679,399.397z"/>
			</g>
			<g>
				<rect x="560.363" y="386.133" fill="#FFFFFF" width="6.632" height="9.948"/>
			</g>
			<g>
				<rect x="560.363" y="415.977" fill="#FFFFFF" width="6.632" height="9.948"/>
			</g>
			<g>
				<rect x="573.627" y="402.713" fill="#FFFFFF" width="9.948" height="6.632"/>
			</g>
			<g>
				<rect x="543.783" y="402.713" fill="#FFFFFF" width="9.948" height="6.632"/>
			</g>
			<g>
				
					<rect x="569.255" y="413.264" transform="matrix(0.707 0.7072 -0.7072 0.707 462.8361 -284.0403)" fill="#FFFFFF" width="9.946" height="6.63"/>
			</g>
			<g>
				
					<rect x="548.155" y="392.156" transform="matrix(0.7071 0.7071 -0.7071 0.7071 441.6487 -275.2899)" fill="#FFFFFF" width="9.947" height="6.632"/>
			</g>
			<g>
				
					<rect x="570.914" y="390.505" transform="matrix(0.707 0.7072 -0.7072 0.707 447.957 -290.23)" fill="#FFFFFF" width="6.63" height="9.953"/>
			</g>
			<g>
				
					<rect x="549.813" y="411.606" transform="matrix(0.7071 0.7071 -0.7071 0.7071 456.5737 -269.1077)" fill="#FFFFFF" width="6.632" height="9.947"/>
			</g>
		</g>
	</g>
</g>
</svg>
