<?xml version="1.0" encoding="utf-8"?>
<!-- Generator: Adobe Illustrator 17.0.0, SVG Export Plug-In . SVG Version: 6.00 Build 0)  -->
<!DOCTYPE svg PUBLIC "-//W3C//DTD SVG 1.1//EN" "http://www.w3.org/Graphics/SVG/1.1/DTD/svg11.dtd">
<svg version="1.1" id="Layer_1" xmlns="http://www.w3.org/2000/svg" xmlns:xlink="http://www.w3.org/1999/xlink" x="0px" y="0px"
	 width="44px" height="33px" viewBox="0 0 44 33" enable-background="new 0 0 44 33" xml:space="preserve">
<g>
	<path fill="#FFFFFF" d="M30.952,11.672c-6.648,0-13.242,0-19.872,0c0,0.149,0.009,0.278-0.002,0.405
		c-0.028,0.32-0.209,0.497-0.494,0.493c-0.286-0.004-0.463-0.183-0.465-0.511c-0.004-1.109-0.02-2.218,0.012-3.326
		c0.03-1.048,0.898-1.876,1.949-1.894c0.859-0.015,1.718-0.013,2.576,0c0.254,0.004,0.35-0.071,0.333-0.331
		c-0.021-0.336-0.004-0.674-0.012-1.011c-0.004-0.187-0.067-0.391-0.281-0.351c-0.12,0.022-0.255,0.205-0.298,0.342
		c-0.057,0.178-0.03,0.384-0.04,0.602c-0.315,0-0.612,0-0.977,0c0.039-0.369,0.035-0.73,0.124-1.067
		c0.152-0.582,0.717-0.918,1.334-0.855c0.546,0.056,1.057,0.506,1.075,1.058c0.039,1.238,0.029,2.477,0.026,3.716
		c0,0.131-0.083,0.262-0.129,0.397c0.376,0.232,0.747,0.014,0.763-0.485c0.017-0.543,0.004-1.087,0.004-1.63
		c0-0.116,0-0.232,0-0.384c3.7,0,7.358,0,11.048,0c0-0.509,0.015-0.983-0.013-1.455c-0.005-0.091-0.173-0.224-0.279-0.239
		c-0.076-0.011-0.176,0.144-0.262,0.227c-0.013,0.012-0.01,0.041-0.013,0.063c-0.032,0.22-0.006,0.592-0.106,0.629
		c-0.246,0.092-0.55,0.03-0.828,0.03c-0.219-0.829,0.118-1.612,0.792-1.858c0.734-0.268,1.521,0.178,1.657,0.95
		c0.036,0.202,0.046,0.41,0.047,0.616c0.005,0.946,0.009,1.892-0.003,2.837c-0.003,0.23-0.068,0.459-0.115,0.753
		c0.111,0,0.318,0.062,0.409-0.014c0.148-0.124,0.297-0.333,0.311-0.516c0.041-0.54,0.016-1.086,0.017-1.63c0-0.117,0-0.234,0-0.343
		c1.449-0.341,2.673,0.613,2.674,2.063c0.004,4.196,0.002,8.392,0.002,12.588c0,0.075-0.008,0.149-0.015,0.262
		c-0.3-0.174-0.589-0.318-0.849-0.504c-0.077-0.055-0.097-0.227-0.097-0.345c-0.005-2.968-0.004-5.936-0.004-8.903
		C30.952,11.933,30.952,11.816,30.952,11.672z"/>
	<path fill="#FFFFFF" d="M28.039,33c-3.217-0.004-5.835-2.624-5.82-5.824c0.015-3.232,2.622-5.803,5.879-5.797
		c3.198,0.006,5.768,2.625,5.763,5.872C33.856,30.412,31.231,33.004,28.039,33z M28.385,25.835c0-0.864,0.002-1.733-0.002-2.602
		c-0.001-0.129,0.012-0.282-0.05-0.381c-0.069-0.111-0.216-0.238-0.33-0.239c-0.115-0.001-0.262,0.122-0.339,0.23
		c-0.059,0.084-0.043,0.23-0.041,0.347c0.009,0.793,0.016,1.587,0.041,2.38c0.006,0.198-0.041,0.302-0.23,0.395
		c-0.475,0.234-0.744,0.637-0.748,1.169c-0.002,0.227-0.102,0.295-0.28,0.357c-0.614,0.215-1.224,0.442-1.837,0.66
		c-0.251,0.09-0.433,0.228-0.347,0.527c0.065,0.227,0.291,0.291,0.604,0.179c0.603-0.215,1.207-0.426,1.803-0.66
		c0.238-0.094,0.403-0.083,0.612,0.089c0.446,0.367,1.066,0.368,1.553,0.055c0.467-0.301,0.701-0.855,0.596-1.411
		C29.283,26.375,28.922,26.045,28.385,25.835z M24.131,25.671c0.088,0.094,0.176,0.254,0.308,0.314
		c0.218,0.097,0.368-0.055,0.461-0.246c0.365-0.748,0.915-1.308,1.666-1.67c0.224-0.108,0.39-0.256,0.275-0.535
		c-0.095-0.231-0.309-0.277-0.609-0.133c-0.87,0.418-1.525,1.057-1.957,1.923C24.233,25.41,24.201,25.502,24.131,25.671z"/>
	<path fill="#FFFFFF" d="M26.544,14.722c0.585,0,1.115,0,1.645,0c0.109,0,0.236-0.035,0.321,0.011
		c0.125,0.066,0.218,0.19,0.325,0.29c-0.103,0.106-0.194,0.287-0.31,0.305c-0.297,0.047-0.606,0.022-0.91,0.024
		c-0.344,0.002-0.689,0-1.052,0c0,0.959,0,1.876,0,2.837c0.526,0,1.033,0,1.54,0c0.109,0,0.217,0.002,0.326,0
		c0.22-0.004,0.405,0.056,0.4,0.314c-0.005,0.252-0.196,0.316-0.41,0.317c-0.511,0.003-1.022,0.002-1.532,0.002
		c-0.106,0-0.212,0-0.312,0c-0.074,0.275,0.064,0.66-0.337,0.676c-0.445,0.018-0.268-0.404-0.363-0.655c-0.919,0-1.838,0-2.809,0
		c0,0.305,0,0.605,0,0.905c0,0.141,0.007,0.283,0.001,0.424c-0.011,0.234,0.033,0.533-0.315,0.535
		c-0.358,0.003-0.305-0.3-0.308-0.532c-0.006-0.442-0.002-0.885-0.002-1.335c-0.97,0-1.889,0-2.854,0c0,0.449,0,0.881,0,1.312
		c0,0.413,0.007,0.826-0.002,1.239c-0.004,0.195,0.064,0.268,0.264,0.264c0.543-0.011,1.087-0.001,1.63-0.006
		c0.235-0.002,0.433,0.067,0.428,0.329c-0.004,0.242-0.194,0.307-0.417,0.305c-0.543-0.005-1.087-0.01-1.63,0.007
		c-0.092,0.003-0.257,0.116-0.258,0.181c-0.017,0.866-0.012,1.733-0.012,2.644c0.242,0,0.445-0.007,0.648,0.002
		c0.203,0.008,0.374,0.083,0.373,0.319c-0.001,0.236-0.163,0.3-0.373,0.311c-0.647,0.034-0.647,0.037-0.65,0.692
		c-0.001,0.239-0.005,0.478-0.001,0.717c0.003,0.216-0.08,0.377-0.306,0.378c-0.227,0.001-0.315-0.172-0.319-0.377
		c-0.007-0.38-0.002-0.761-0.005-1.141c-0.001-0.074-0.014-0.148-0.027-0.271c-0.242,0-0.478,0-0.713,0
		c-0.576,0-1.152,0.013-1.728-0.005c-0.278-0.009-0.396,0.063-0.374,0.361c0.025,0.346,0.002,0.695,0.008,1.043
		c0.004,0.216-0.078,0.381-0.298,0.39c-0.245,0.01-0.332-0.171-0.333-0.393c-0.003-0.445-0.001-0.89-0.001-1.396
		c-0.33,0-0.639,0-0.949,0c-0.315,0-0.63-0.001-0.946,0.001c-0.206,0.002-0.379-0.051-0.392-0.29
		c-0.014-0.258,0.167-0.337,0.383-0.34c0.576-0.007,1.152-0.004,1.728-0.006c0.042,0,0.084-0.011,0.15-0.02c0-0.922,0-1.84,0-2.81
		c-0.461,0-0.924,0-1.386,0c-0.174,0-0.348,0.001-0.522-0.002c-0.197-0.003-0.346-0.079-0.353-0.297
		c-0.007-0.234,0.144-0.328,0.355-0.33c0.554-0.005,1.109-0.002,1.663-0.003c0.074,0,0.148-0.008,0.25-0.014
		c0.006-0.117,0.016-0.221,0.016-0.326c0.001-2.608,0.001-5.217,0.001-7.825c0-0.054-0.001-0.109,0-0.163
		c0.006-0.224,0.099-0.401,0.338-0.392c0.22,0.009,0.297,0.179,0.294,0.394c-0.006,0.38,0.001,0.761-0.002,1.141
		c-0.001,0.147,0.019,0.258,0.205,0.257c0.837-0.005,1.673-0.006,2.51-0.01c0.029,0,0.059-0.023,0.123-0.05
		c0-0.356-0.001-0.723,0-1.091c0-0.109-0.035-0.242,0.016-0.32c0.083-0.128,0.222-0.219,0.337-0.325
		c0.092,0.116,0.25,0.225,0.262,0.349c0.036,0.366,0.026,0.738,0.012,1.107c-0.009,0.243,0.053,0.352,0.325,0.345
		c0.749-0.017,1.5-0.012,2.249-0.003c0.215,0.003,0.288-0.077,0.283-0.286c-0.01-0.369,0-0.739,0-1.108
		c0-0.221,0.068-0.406,0.318-0.401c0.229,0.004,0.3,0.185,0.302,0.39c0.004,0.369,0.008,0.739,0.001,1.108
		c-0.004,0.195,0.042,0.299,0.27,0.296c0.771-0.01,1.543-0.007,2.315,0c0.197,0.002,0.27-0.078,0.266-0.271
		c-0.009-0.369,0.001-0.739-0.005-1.108c-0.003-0.222,0.063-0.41,0.307-0.414c0.245-0.004,0.322,0.188,0.324,0.405
		C26.547,13.778,26.544,14.223,26.544,14.722z M21.02,15.352c-0.38,0-0.76,0.008-1.139-0.003c-0.198-0.006-0.296,0.04-0.293,0.267
		c0.01,0.77,0.007,1.54,0,2.31c-0.002,0.198,0.073,0.265,0.268,0.263c0.77-0.007,1.54-0.006,2.31,0.001
		c0.189,0.002,0.279-0.054,0.278-0.256c-0.006-0.781-0.006-1.562-0.002-2.343c0.001-0.181-0.068-0.249-0.25-0.244
		C21.801,15.358,21.411,15.351,21.02,15.352z M23.09,18.187c0.902,0,1.759-0.003,2.615,0.002c0.214,0.001,0.211-0.135,0.21-0.283
		c-0.001-0.586-0.001-1.172-0.001-1.758c0-0.256,0-0.512,0-0.776c-0.971,0-1.889,0-2.824,0C23.09,16.31,23.09,17.228,23.09,18.187z
		 M16.126,15.365c0,0.904-0.005,1.77,0.01,2.635c0.001,0.064,0.143,0.175,0.224,0.179c0.368,0.02,0.737,0.009,1.106,0.009
		c0.485,0,0.969,0,1.466,0c0-0.967,0-1.89,0-2.823C17.996,15.365,17.087,15.365,16.126,15.365z M18.937,21.635
		c0-0.953,0-1.869,0-2.784c-0.947,0-1.871,0-2.784,0c0,0.947,0,1.862,0,2.784C17.092,21.635,18,21.635,18.937,21.635z
		 M18.934,25.095c0-0.953,0-1.869,0-2.813c-0.893,0-1.759-0.005-2.625,0.01c-0.063,0.001-0.173,0.144-0.177,0.225
		c-0.019,0.368-0.009,0.737-0.009,1.106c0,0.485,0,0.969,0,1.471C17.084,25.095,18,25.095,18.934,25.095z"/>
	<path fill="#FFFFFF" d="M7.716,19.762c-0.274-0.472-0.538-0.929-0.82-1.415c0.239-0.141,0.455-0.282,0.683-0.399
		c0.169-0.087,0.224-0.19,0.202-0.386c-0.03-0.266-0.03-0.541,0-0.807c0.022-0.196-0.034-0.3-0.202-0.386
		c-0.221-0.113-0.431-0.248-0.682-0.395c0.277-0.482,0.544-0.947,0.821-1.427c0.254,0.144,0.485,0.262,0.702,0.403
		c0.15,0.097,0.252,0.09,0.401-0.021c0.215-0.161,0.452-0.304,0.701-0.404c0.203-0.082,0.253-0.196,0.242-0.393
		c-0.013-0.237-0.003-0.475-0.003-0.74c0.558,0,1.092,0,1.662,0c0,0.276-0.017,0.547,0.009,0.813c0.01,0.1,0.1,0.22,0.189,0.279
		c0.251,0.169,0.514,0.323,0.784,0.457c0.094,0.046,0.242,0.056,0.335,0.015c0.236-0.105,0.455-0.249,0.724-0.402
		c0.278,0.475,0.548,0.936,0.832,1.421c-0.254,0.15-0.481,0.295-0.718,0.419c-0.146,0.077-0.186,0.16-0.167,0.333
		c0.031,0.288-0.006,0.584,0.012,0.874c0.007,0.107,0.059,0.248,0.139,0.306c0.226,0.163,0.478,0.29,0.734,0.439
		c-0.279,0.479-0.545,0.937-0.827,1.422c-0.245-0.139-0.473-0.259-0.691-0.396c-0.146-0.092-0.251-0.099-0.404,0.013
		c-0.234,0.171-0.509,0.285-0.751,0.447c-0.089,0.059-0.179,0.181-0.189,0.282c-0.026,0.267-0.009,0.538-0.009,0.847
		c-0.518,0-1.005,0.009-1.49-0.011c-0.061-0.002-0.175-0.164-0.164-0.236c0.088-0.56-0.124-0.85-0.638-1.144
		c-0.452-0.258-0.739-0.261-1.106,0.028C7.943,19.661,7.838,19.698,7.716,19.762z M10.596,15.94
		c-0.676-0.001-1.221,0.536-1.228,1.211c-0.008,0.677,0.558,1.24,1.241,1.235c0.66-0.005,1.225-0.578,1.215-1.232
		C11.813,16.478,11.27,15.941,10.596,15.94z"/>
	<path fill="#FFFFFF" d="M21.56,28.499c0.092,0.333,0.173,0.624,0.259,0.935c-0.081,0.011-0.142,0.027-0.203,0.027
		c-3.163,0-6.325,0.004-9.488-0.004c-0.935-0.002-1.689-0.595-1.937-1.499c-0.054-0.196-0.069-0.407-0.07-0.611
		c-0.005-1.685-0.003-3.369-0.003-5.054c0-0.087-0.024-0.203,0.021-0.254c0.125-0.143,0.27-0.339,0.428-0.36
		c0.14-0.019,0.339,0.143,0.451,0.276c0.076,0.09,0.061,0.269,0.062,0.408c0.004,1.619,0.002,3.239,0.003,4.858
		c0.001,0.876,0.396,1.278,1.268,1.279c2.913,0.002,5.825,0,8.738,0C21.24,28.499,21.391,28.499,21.56,28.499z"/>
	<path fill="#FFFFFF" d="M34.912,20.624c0.377-0.755,0.739-1.48,1.101-2.206c0.058-0.116,0.11-0.236,0.174-0.349
		c0.147-0.26,0.422-0.361,0.66-0.248c0.233,0.11,0.329,0.398,0.201,0.669c-0.227,0.48-0.468,0.953-0.704,1.429
		c-0.246,0.495-0.487,0.992-0.74,1.484c-0.179,0.35-0.396,0.427-0.748,0.264c-0.472-0.219-0.94-0.446-1.405-0.68
		c-0.306-0.154-0.406-0.408-0.28-0.664c0.125-0.253,0.388-0.332,0.698-0.193C34.204,20.282,34.535,20.445,34.912,20.624z"/>
	<path fill="#FFFFFF" d="M29.253,3.141c-0.267-0.007-0.414-0.195-0.354-0.385c0.032-0.1,0.097-0.193,0.159-0.28
		c0.439-0.618,0.881-1.233,1.324-1.849c0.127-0.177,0.277-0.341,0.508-0.176c0.224,0.16,0.14,0.356,0.01,0.538
		c-0.46,0.643-0.917,1.288-1.385,1.925C29.438,3.019,29.314,3.09,29.253,3.141z"/>
	<path fill="#FFFFFF" d="M32.629,3.265c0.092,0.091,0.233,0.167,0.245,0.26c0.015,0.114-0.048,0.318-0.129,0.35
		c-0.605,0.238-1.219,0.453-1.84,0.644c-0.081,0.025-0.265-0.106-0.312-0.207c-0.037-0.079,0.033-0.296,0.106-0.325
		C31.319,3.736,31.952,3.514,32.629,3.265z"/>
	<path fill="#FFFFFF" d="M27.733,1.255c0,0.271-0.001,0.541,0,0.812c0.001,0.205-0.093,0.341-0.301,0.346
		c-0.209,0.006-0.324-0.134-0.321-0.331c0.007-0.606,0.016-1.213,0.059-1.817c0.007-0.101,0.2-0.28,0.276-0.265
		c0.121,0.024,0.292,0.17,0.307,0.283c0.042,0.319,0.015,0.647,0.015,0.972C27.755,1.255,27.744,1.255,27.733,1.255z"/>
	<path fill="#FFFFFF" d="M28.656,27.205c-0.006,0.353-0.281,0.622-0.626,0.612c-0.34-0.01-0.612-0.298-0.604-0.641
		c0.007-0.342,0.295-0.619,0.634-0.611C28.406,26.574,28.662,26.849,28.656,27.205z"/>
</g>
</svg>
