<?xml version="1.0" encoding="utf-8"?>
<!-- Generator: Adobe Illustrator 17.0.0, SVG Export Plug-In . SVG Version: 6.00 Build 0)  -->
<!DOCTYPE svg PUBLIC "-//W3C//DTD SVG 1.1//EN" "http://www.w3.org/Graphics/SVG/1.1/DTD/svg11.dtd">
<svg version="1.1" id="Layer_1" xmlns="http://www.w3.org/2000/svg" xmlns:xlink="http://www.w3.org/1999/xlink" x="0px" y="0px"
	 width="24px" height="24px" viewBox="0 0 24 24" enable-background="new 0 0 24 24" xml:space="preserve">
<g>
	<g>
		<path fill="#EF3D5B" d="M11.307,0c0.468,0,0.936,0,1.404,0c0.222,0.03,0.444,0.062,0.667,0.089
			c2.093,0.261,3.984,1.034,5.603,2.378c3.428,2.844,4.907,6.53,4.437,10.941c-0.376,3.53-2.029,6.409-4.94,8.451
			c-3.421,2.399-7.14,2.792-10.977,1.123C2.802,20.939,0.047,15.96,0.558,10.75c0.208-2.127,0.916-4.084,2.161-5.826
			c1.814-2.539,4.236-4.158,7.322-4.74C10.459,0.105,10.885,0.06,11.307,0z M4.814,6.259C4.796,6.321,4.79,6.351,4.779,6.38
			c-0.776,2.034-0.816,4.107-0.295,6.199c0.222,0.893,0.596,1.72,1.243,2.4c0.885,0.929,2.053,0.995,3.025,0.164
			c0.51-0.435,0.852-0.993,1.095-1.607c0.795-2.008,0.846-4.068,0.359-6.15c-0.219-0.935-0.587-1.81-1.269-2.514
			C8.346,4.262,7.645,3.961,6.783,4.202c-0.337,0.094-0.439,0.04-0.539-0.3C6.218,3.812,6.211,3.717,6.181,3.629
			c-0.066-0.197-0.21-0.29-0.415-0.259C5.573,3.4,5.465,3.527,5.459,3.724C5.456,3.816,5.461,3.915,5.494,4
			c0.093,0.243,0.202,0.48,0.328,0.774C5.699,4.739,5.576,4.731,5.488,4.672c-0.1-0.067-0.174-0.175-0.249-0.274
			C5.083,4.194,4.876,4.135,4.695,4.252C4.5,4.379,4.457,4.6,4.624,4.821c0.162,0.214,0.359,0.4,0.538,0.596
			C4.955,5.549,4.85,5.545,4.67,5.37C4.604,5.306,4.549,5.228,4.494,5.154C4.333,4.936,4.116,4.879,3.933,5.01
			C3.744,5.144,3.725,5.35,3.88,5.586C4.102,5.922,4.387,6.174,4.814,6.259z M14.172,6.26c-0.017,0.06-0.022,0.09-0.033,0.118
			c-0.777,2.034-0.816,4.107-0.296,6.2c0.222,0.893,0.596,1.721,1.243,2.401c0.884,0.929,2.053,0.996,3.025,0.166
			c0.51-0.435,0.853-0.993,1.096-1.607c0.795-2.008,0.846-4.068,0.359-6.15c-0.219-0.935-0.588-1.81-1.269-2.514
			c-0.585-0.605-1.279-0.906-2.133-0.678c-0.372,0.1-0.478,0.041-0.576-0.339c-0.019-0.075-0.023-0.155-0.048-0.228
			c-0.067-0.197-0.211-0.29-0.415-0.258c-0.194,0.03-0.301,0.157-0.307,0.354c-0.003,0.092,0.002,0.192,0.035,0.276
			c0.093,0.243,0.202,0.48,0.324,0.763c-0.109-0.025-0.228-0.024-0.312-0.077c-0.101-0.065-0.179-0.171-0.253-0.269
			c-0.167-0.221-0.372-0.285-0.558-0.164c-0.201,0.131-0.237,0.353-0.057,0.589c0.158,0.207,0.352,0.386,0.534,0.582
			c-0.168,0.132-0.341,0.112-0.499-0.051c-0.075-0.078-0.136-0.169-0.204-0.255c-0.144-0.184-0.363-0.229-0.534-0.109
			c-0.178,0.125-0.21,0.326-0.08,0.535C13.434,5.901,13.726,6.168,14.172,6.26z M9.889,17.965c0.209-0.184,0.428-0.359,0.624-0.556
			c0.168-0.169,0.155-0.397-0.001-0.542c-0.154-0.142-0.353-0.137-0.526,0.017c-0.058,0.052-0.109,0.112-0.167,0.164
			c-0.445,0.396-0.922,0.604-1.51,0.295c-0.197-0.104-0.41-0.019-0.5,0.162c-0.091,0.184-0.037,0.417,0.168,0.493
			c0.294,0.109,0.606,0.182,0.916,0.232c0.126,0.02,0.188,0.04,0.233,0.162c0.109,0.291,0.227,0.58,0.359,0.862
			c0.299,0.638,0.639,1.252,1.184,1.72c0.667,0.573,1.441,0.623,2.176,0.146c0.741-0.481,1.239-1.178,1.667-1.926
			c0.285-0.498,0.534-1.017,0.785-1.498c0.347,0.028,0.686,0.071,1.025,0.079c0.218,0.005,0.37-0.175,0.365-0.377
			c-0.005-0.202-0.16-0.352-0.381-0.364c-0.086-0.005-0.172,0.003-0.257-0.002c-0.586-0.04-1.059-0.238-1.255-0.858
			c-0.067-0.214-0.275-0.306-0.465-0.242c-0.204,0.068-0.317,0.27-0.228,0.487c0.113,0.276,0.264,0.537,0.411,0.828
			c-0.436,0.521-0.962,1.001-1.621,1.318C11.67,19.151,10.452,18.584,9.889,17.965z"/>
		<path fill="#EF3D5B" d="M9.215,6.75C8.317,6.381,7.609,6.59,7.077,7.356c-0.431,0.62-0.601,1.327-0.66,2.066
			c-0.071,0.882,0.017,1.743,0.378,2.561c0.162,0.368,0.379,0.699,0.701,0.949c0.475,0.369,0.992,0.462,1.556,0.222
			c0.036-0.015,0.072-0.03,0.108-0.043c0.005-0.002,0.013,0.004,0.045,0.016c-0.266,0.647-0.583,1.254-1.196,1.641
			c-0.55,0.347-1.148,0.255-1.663-0.232c-0.519-0.491-0.823-1.114-1.025-1.783c-0.599-1.989-0.587-3.976,0.097-5.945
			C5.61,6.254,5.89,5.742,6.321,5.326C6.946,4.722,7.686,4.71,8.316,5.304C8.73,5.696,8.997,6.182,9.215,6.75z"/>
		<path fill="#EF3D5B" d="M9.579,11.323c-0.163-0.279-0.301-0.517-0.439-0.754c-0.023,0-0.047,0.001-0.07,0.001
			c0.008,0.302-0.124,0.509-0.399,0.625c0.169,0.324,0.221,0.655,0.089,0.979c-0.058,0.141-0.209,0.243-0.318,0.363
			c-0.101-0.119-0.245-0.223-0.296-0.36c-0.131-0.352-0.095-0.704,0.135-1.03c-0.249-0.181-0.332-0.415-0.24-0.734
			c-0.37,0.213-0.55,0.519-0.66,0.88c-0.027,0-0.054,0-0.081,0c-0.052-0.43-0.132-0.859-0.15-1.29
			C7.121,9.302,7.234,8.618,7.57,7.991c0.189-0.351,0.43-0.68,0.875-0.683C8.904,7.304,9.15,7.639,9.338,8
			c0.392,0.749,0.475,1.558,0.399,2.386C9.709,10.69,9.637,10.991,9.579,11.323z"/>
		<path fill="#EF3D5B" d="M14.802,13.096c0.963,0.362,1.669,0.127,2.204-0.71c0.387-0.607,0.549-1.286,0.598-1.992
			c0.069-0.987-0.035-1.947-0.531-2.828c-0.282-0.5-0.667-0.907-1.262-0.979c-0.317-0.039-0.649,0.047-0.977,0.077
			c0.262-0.623,0.586-1.261,1.254-1.636c0.532-0.299,1.105-0.185,1.599,0.29c0.485,0.466,0.783,1.048,0.978,1.678
			c0.664,2.147,0.645,4.279-0.206,6.377c-0.204,0.502-0.497,0.954-0.937,1.29c-0.561,0.428-1.166,0.42-1.711-0.031
			C15.331,14.233,15.043,13.703,14.802,13.096z"/>
		<path fill="#EF3D5B" d="M15.395,11.146c-0.249-0.185-0.334-0.41-0.235-0.733c-0.382,0.213-0.56,0.525-0.69,0.882
			c-0.32-1.17-0.334-2.317,0.268-3.395c0.455-0.815,1.19-0.803,1.661,0.008c0.443,0.764,0.525,1.606,0.452,2.466
			c-0.026,0.308-0.101,0.612-0.159,0.946c-0.162-0.274-0.304-0.515-0.446-0.756c-0.021,0.005-0.043,0.009-0.064,0.014
			c0.004,0.289-0.117,0.496-0.396,0.611c0.145,0.303,0.206,0.611,0.108,0.931c-0.055,0.18-0.112,0.403-0.328,0.405
			c-0.217,0.001-0.278-0.222-0.329-0.402C15.141,11.784,15.177,11.46,15.395,11.146z"/>
		<path fill="#EF3D5B" d="M10.337,19.238c1.188,0.524,2.31,0.392,3.403-0.257c-0.37,0.61-0.759,1.196-1.389,1.567
			c-0.404,0.238-0.792,0.18-1.149-0.106C10.806,20.123,10.551,19.7,10.337,19.238z"/>
	</g>
</g>
</svg>
