<?xml version="1.0" encoding="utf-8"?>
<!-- Generator: Adobe Illustrator 17.0.0, SVG Export Plug-In . SVG Version: 6.00 Build 0)  -->
<!DOCTYPE svg PUBLIC "-//W3C//DTD SVG 1.1//EN" "http://www.w3.org/Graphics/SVG/1.1/DTD/svg11.dtd">
<svg version="1.1" id="Layer_1" xmlns="http://www.w3.org/2000/svg" xmlns:xlink="http://www.w3.org/1999/xlink" x="0px" y="0px"
	 width="24px" height="24px" viewBox="0 0 24 24" enable-background="new 0 0 24 24" xml:space="preserve">
<g>
	<g>
		<path fill="#EF3D5B" d="M0,7.583c0.094-0.354,0.162-0.717,0.287-1.059c0.524-1.43,2.009-2.461,3.517-2.462
			c0.069,0,0.138,0.007,0.221,0.011c0,2.576,0,5.141,0,7.723c-0.437,0.057-0.861-0.012-1.266-0.15
			c-1.519-0.517-2.428-1.569-2.708-3.156C0.039,8.422,0.017,8.355,0,8.288C0,8.053,0,7.818,0,7.583z"/>
		<path fill="#EF3D5B" d="M19.607,11.872c0,3.485,0,6.971,0,10.456c0,0.806-0.446,1.276-1.256,1.32
			c-0.07,0.004-0.141,0.002-0.211,0.002c-3.947,0-7.895,0.003-11.842-0.006c-0.252-0.001-0.52-0.045-0.753-0.137
			c-0.461-0.183-0.705-0.527-0.705-1.053c0.006-7.033,0.004-14.067,0.004-21.1c0-0.76,0.454-1.236,1.22-1.285
			c0.062-0.004,0.125-0.003,0.188-0.003c3.979,0,7.958-0.002,11.936,0.006c0.237,0,0.487,0.045,0.707,0.133
			c0.47,0.187,0.718,0.533,0.716,1.069C19.603,4.808,19.607,8.34,19.607,11.872z M5.777,11.861c0,2.89,0,5.78,0,8.67
			c0,0.438,0.117,0.555,0.556,0.555c3.916,0,7.832,0,11.749,0c0.491,0,0.586-0.096,0.586-0.592c0-5.765,0-11.529,0-17.294
			c0-0.46-0.107-0.568-0.564-0.568c-3.924,0-7.848,0-11.772,0c-0.438,0-0.555,0.118-0.555,0.557
			C5.777,6.081,5.777,8.971,5.777,11.861z M12.221,0.95c-0.611,0-1.222-0.001-1.833,0c-0.31,0.001-0.479,0.138-0.485,0.387
			c-0.006,0.258,0.17,0.415,0.486,0.415c1.23,0.002,2.46,0.002,3.69,0c0.292-0.001,0.481-0.165,0.48-0.403
			c0-0.241-0.187-0.398-0.48-0.399C13.458,0.949,12.84,0.95,12.221,0.95z M12.22,23.158c0.439,0.001,0.795-0.349,0.797-0.783
			c0.001-0.428-0.362-0.79-0.793-0.791c-0.436,0-0.796,0.354-0.797,0.786C11.425,22.802,11.782,23.156,12.22,23.158z"/>
		<path fill="#EF3D5B" d="M23.233,13.333c0,1.401,0,2.777,0,4.169c-0.943,0-1.871,0-2.813,0c0-1.393,0-2.774,0-4.169
			C21.359,13.333,22.287,13.333,23.233,13.333z"/>
		<path fill="#EF3D5B" d="M4.04,16.429c0,0.869,0.001,1.705-0.003,2.541c0,0.054-0.034,0.122-0.075,0.158
			c-0.515,0.456-1.033,0.907-1.579,1.384c-0.584-1.245-1.159-2.47-1.752-3.735C1.781,16.66,2.896,16.546,4.04,16.429z"/>
		<path fill="#EF3D5B" d="M23.512,0C23.69,0.173,23.862,0.341,24,0.475c-1.199,1.205-2.392,2.405-3.593,3.613
			c0-0.305-0.004-0.615,0.004-0.925c0.001-0.053,0.043-0.115,0.083-0.156c0.982-0.988,1.966-1.973,2.95-2.958
			C23.465,0.028,23.493,0.014,23.512,0z"/>
		<path fill="#EF3D5B" d="M6.582,3.441c3.774,0,7.508,0,11.28,0c0,0.341,0.009,0.675-0.007,1.007
			c-0.003,0.069-0.089,0.14-0.148,0.199c-1.427,1.431-2.856,2.859-4.284,4.289c-0.3,0.301-0.3,0.471-0.001,0.77
			c0.31,0.31,0.619,0.621,0.931,0.93c0.255,0.252,0.449,0.253,0.704-0.001c0.86-0.857,1.718-1.716,2.575-2.575
			c0.06-0.06,0.105-0.135,0.157-0.203c0.019,0.012,0.038,0.025,0.057,0.037c0,1.528,0,3.056,0,4.619c-0.079,0-0.162,0-0.244,0
			c-1.081,0-2.162,0.004-3.242-0.003c-0.214-0.001-0.37,0.068-0.512,0.226c-0.7,0.782-1.407,1.557-2.11,2.337
			c-0.229,0.254-0.232,0.423-0.005,0.675c0.713,0.791,1.431,1.578,2.142,2.371c0.126,0.141,0.269,0.193,0.455,0.192
			c1.081-0.005,2.162-0.002,3.242-0.002c0.085,0,0.17,0,0.275,0c0,0.653,0,1.291,0,1.949c-3.742,0-7.487,0-11.265,0
			c0-0.085,0-0.168,0-0.251c0-0.627,0.006-1.253-0.004-1.88c-0.003-0.171,0.044-0.288,0.177-0.402
			c0.683-0.587,1.355-1.186,2.033-1.779c0.162-0.142,0.297-0.291,0.198-0.524c-0.1-0.236-0.293-0.268-0.525-0.243
			c-0.614,0.067-1.229,0.122-1.864,0.184c-0.005-0.079-0.014-0.147-0.014-0.215c-0.001-1.065,0.002-2.13-0.004-3.195
			c-0.001-0.138,0.039-0.226,0.151-0.312c2.459-1.892,2.46-5.504,0.001-7.398C6.619,4.155,6.569,4.07,6.579,3.931
			C6.591,3.776,6.582,3.621,6.582,3.441z"/>
		<path fill="#EF3D5B" d="M17.849,17.595c-0.932,0-1.841-0.04-2.745,0.014c-0.596,0.035-1.01-0.133-1.37-0.613
			c-0.37-0.492-0.82-0.924-1.235-1.383c-0.057-0.063-0.111-0.129-0.172-0.199c0.639-0.706,1.269-1.402,1.903-2.095
			c0.041-0.045,0.119-0.08,0.18-0.08c1.127-0.003,2.254,0,3.381,0.002c0.014,0,0.028,0.011,0.058,0.024
			C17.849,14.694,17.849,16.129,17.849,17.595z"/>
		<path fill="#EF3D5B" d="M6.599,5.027c1.721,1.449,1.799,4.285,0,5.837C6.599,8.914,6.599,6.981,6.599,5.027z"/>
		<path fill="#EF3D5B" d="M17.869,5.591c0,0.361,0.004,0.736-0.004,1.11c-0.001,0.062-0.037,0.137-0.082,0.182
			c-1.043,1.047-2.089,2.091-3.127,3.129c-0.21-0.213-0.414-0.421-0.605-0.615C15.306,8.146,16.583,6.874,17.869,5.591z"/>
		<path fill="#EF3D5B" d="M6.603,16.104c0.36-0.036,0.706-0.071,1.052-0.105c0.008,0.014,0.015,0.028,0.023,0.041
			c-0.348,0.304-0.697,0.609-1.075,0.939C6.603,16.672,6.603,16.4,6.603,16.104z"/>
		<path fill="#EF3D5B" d="M12.598,22.384c-0.005,0.208-0.172,0.371-0.378,0.368c-0.203-0.003-0.37-0.173-0.371-0.378
			c-0.001-0.217,0.173-0.383,0.393-0.374C12.456,22.009,12.603,22.168,12.598,22.384z"/>
	</g>
</g>
</svg>
