<?xml version="1.0" encoding="utf-8"?>
<!-- Generator: Adobe Illustrator 17.0.0, SVG Export Plug-In . SVG Version: 6.00 Build 0)  -->
<!DOCTYPE svg PUBLIC "-//W3C//DTD SVG 1.1//EN" "http://www.w3.org/Graphics/SVG/1.1/DTD/svg11.dtd">
<svg version="1.1" id="Layer_1" xmlns="http://www.w3.org/2000/svg" xmlns:xlink="http://www.w3.org/1999/xlink" x="0px" y="0px"
	 width="60px" height="60px" viewBox="0 0 60 60" enable-background="new 0 0 60 60" xml:space="preserve">
<g>
	<path fill="#EF3D5B" d="M0,23.939c0.039-0.065,0.094-0.126,0.113-0.197c0.503-1.812,1.697-2.747,3.573-2.753
		c3.515-0.011,7.031-0.008,10.546-0.008c4.277,0,8.555,0.068,12.83-0.021c2.418-0.05,3.929,1.798,3.884,3.859
		c-0.077,3.533-0.019,7.069-0.023,10.604c-0.002,2.176-1.448,3.65-3.625,3.653c-7.909,0.01-15.819,0.007-23.728,0.002
		c-1.727-0.001-2.985-1.001-3.446-2.691C0.1,36.298,0.042,36.217,0,36.132C0,32.067,0,28.003,0,23.939z M27.614,22.724
		c-8.205,0-16.249,0-24.46,0c0.279,0.238,0.432,0.376,0.592,0.505c2.882,2.306,5.766,4.609,8.646,6.918
		c1.989,1.595,3.972,1.605,5.959,0.017c2.898-2.317,5.796-4.635,8.692-6.954C27.201,23.083,27.352,22.947,27.614,22.724z
		 M3.356,37.356c8.137,0,16.085,0,24.142,0c-0.151-0.131-0.212-0.199-0.287-0.247c-2.633-1.677-5.272-3.345-7.896-5.037
		c-0.314-0.203-0.486-0.056-0.721,0.087c-2.077,1.261-4.173,1.254-6.251,0.025c-0.353-0.209-0.58-0.231-0.926-0.009
		c-2.493,1.607-5,3.192-7.501,4.785C3.772,37.051,3.638,37.156,3.356,37.356z M20.401,30.743c2.944,1.874,5.78,3.678,8.727,5.553
		c0-4.22,0-8.303,0-12.538C26.165,26.13,23.327,28.401,20.401,30.743z M10.471,30.761c-2.908-2.305-5.736-4.545-8.648-6.853
		c0,4.175,0,8.202,0,12.357C4.747,34.404,7.553,32.618,10.471,30.761z"/>
	<path fill="#EF3D5B" d="M51.821,0.021c0,1.46,0,2.919,0,4.445c-0.537,0-1.003,0.03-1.461-0.02
		c-0.121-0.013-0.297-0.268-0.308-0.421C50.014,3.5,50.043,2.97,50.038,2.443c-0.002-0.209-0.028-0.418-0.047-0.682
		c-0.284,0-0.515,0-0.746,0c-8.226,0-16.452,0-24.678,0.001c-0.784,0-0.786,0.003-0.786,0.798
		c-0.001,3.908,0.001,7.816-0.001,11.723c-0.001,0.879-0.312,1.186-1.204,1.187c-3.888,0.002-7.777,0.001-11.665,0.001
		c-0.271,0-0.543,0-0.909,0c0,1.496,0,2.947,0,4.436c-0.631,0-1.167,0-1.79,0c0-0.454,0-0.896,0-1.338
		c-0.001-1.29-0.025-2.58,0.016-3.868c0.01-0.309,0.158-0.691,0.374-0.906c4.603-4.57,9.225-9.122,13.843-13.678
		c0.027-0.027,0.044-0.064,0.066-0.096C32.28,0.021,42.051,0.021,51.821,0.021z M22.018,13.625c0-3.5,0-6.953,0-10.541
		c-3.593,3.543-7.092,6.994-10.689,10.541C14.987,13.625,18.475,13.625,22.018,13.625z"/>
	<path fill="#EF3D5B" d="M46.42,55.491c-7.469-0.003-13.565-6.065-13.567-13.493c-0.002-7.572,6.077-13.608,13.698-13.6
		c7.407,0.007,13.46,6.067,13.449,13.464C59.989,49.37,53.887,55.494,46.42,55.491z M46.47,30.009
		c-6.55-0.011-11.888,5.28-11.902,11.794c-0.014,6.53,5.296,11.891,11.803,11.917c6.537,0.027,11.91-5.325,11.915-11.867
		C58.291,35.392,52.93,30.019,46.47,30.009z"/>
	<path fill="#EF3D5B" d="M38.26,20.015c0-4.806,0-9.582,0-14.4c7.246,0,14.463,0,21.711,0c0,4.809,0,9.586,0,14.4
		C52.731,20.015,45.514,20.015,38.26,20.015z M58.256,18.237c0.014-0.265,0.03-0.438,0.03-0.61c0.001-3.222-0.011-6.444,0.013-9.665
		c0.004-0.542-0.158-0.689-0.692-0.688c-5.643,0.018-11.286,0.018-16.929-0.001c-0.548-0.002-0.693,0.169-0.69,0.697
		c0.02,3.183,0.027,6.365-0.005,9.548c-0.006,0.618,0.196,0.735,0.766,0.732c5.291-0.021,10.583-0.013,15.874-0.013
		C57.147,18.237,57.671,18.237,58.256,18.237z"/>
	<path fill="#EF3D5B" d="M50.031,58.262c0-0.615,0-1.176,0-1.783c0.599,0,1.136,0,1.731,0c0,1.14,0,2.298,0,3.5
		c-14.476,0-28.96,0-43.499,0c0-6.575,0-13.164,0-19.806c0.525,0,1.06,0,1.698,0c0,6.004,0,12.024,0,18.089
		C23.353,58.262,36.643,58.262,50.031,58.262z"/>
	<path fill="#EF3D5B" d="M51.722,24.145c0,0.857-0.016,1.713,0.007,2.569c0.011,0.409-0.084,0.601-0.546,0.585
		c-1.343-0.047-1.128,0.179-1.139-1.146c-0.013-1.518,0.015-3.037-0.013-4.555c-0.009-0.495,0.164-0.635,0.639-0.62
		c1.234,0.038,1.036-0.118,1.051,1.065C51.73,22.743,51.722,23.444,51.722,24.145z"/>
	<path fill="#EF3D5B" d="M50.874,41.899c0.012,2.457-1.994,4.504-4.431,4.523c-2.433,0.019-4.453-1.977-4.464-4.41
		c-0.011-2.535,1.941-4.528,4.448-4.541C48.856,37.457,50.862,39.456,50.874,41.899z M49.165,41.826
		c-0.006-1.52-1.257-2.758-2.764-2.736c-1.519,0.022-2.724,1.26-2.715,2.788c0.009,1.529,1.234,2.735,2.765,2.721
		C47.984,44.585,49.171,43.371,49.165,41.826z"/>
	<path fill="#EF3D5B" d="M55.638,41.763c-0.241-5.359-4.583-8.983-9.148-9.098c0-0.534,0-1.069,0-1.655
		c1.353,0.015,2.655,0.223,3.878,0.748c4.201,1.803,6.499,4.996,6.893,9.558c0.033,0.38-0.069,0.549-0.469,0.519
		c-0.33-0.025-0.663-0.01-0.995-0.019C55.744,41.815,55.69,41.781,55.638,41.763z"/>
	<path fill="#EF3D5B" d="M41.906,10.131c4.824,0,9.585,0,14.436,0c0,0.485,0.035,0.951-0.025,1.405
		c-0.015,0.114-0.333,0.267-0.513,0.268c-2.285,0.019-4.569,0.013-6.854,0.013c-2.128,0-4.257-0.001-6.385-0.002
		c-0.209,0-0.418,0-0.659,0C41.906,11.227,41.906,10.71,41.906,10.131z"/>
	<path fill="#EF3D5B" d="M52.618,13.805c0,0.535,0,1.052,0,1.62c-3.561,0-7.118,0-10.711,0c0-0.529,0-1.049,0-1.62
		C45.462,13.805,49.018,13.805,52.618,13.805z"/>
</g>
</svg>
