<?xml version="1.0" encoding="utf-8"?>
<!-- Generator: Adobe Illustrator 17.0.0, SVG Export Plug-In . SVG Version: 6.00 Build 0)  -->
<!DOCTYPE svg PUBLIC "-//W3C//DTD SVG 1.1//EN" "http://www.w3.org/Graphics/SVG/1.1/DTD/svg11.dtd">
<svg version="1.1" id="Layer_1" xmlns="http://www.w3.org/2000/svg" xmlns:xlink="http://www.w3.org/1999/xlink" x="0px" y="0px"
	 width="24px" height="24px" viewBox="0 0 24 24" enable-background="new 0 0 24 24" xml:space="preserve">
<g>
	<g>
		<path fill="#EF3D5B" d="M16.401,12.31c0.954,0.575,1.871,1.128,2.81,1.694c-0.038,0.072-0.064,0.131-0.097,0.186
			c-1.84,3.05-3.682,6.098-5.518,9.149c-0.342,0.568-0.835,0.881-1.492,0.866c-0.642-0.014-1.136-0.326-1.43-0.906
			c-0.294-0.581-0.215-1.144,0.117-1.693c1.483-2.452,2.961-4.906,4.442-7.359C15.615,13.614,15.997,12.98,16.401,12.31z"/>
		<path fill="#EF3D5B" d="M2.622,11.006C3.54,10.4,4.44,9.806,5.365,9.195c0.284,0.428,0.555,0.834,0.823,1.241
			c1.018,1.543,2.037,3.085,3.048,4.632c0.083,0.126,0.159,0.287,0.16,0.432c0.011,1.861,0.007,3.722,0.006,5.583
			c0,0.033-0.009,0.065-0.025,0.175C7.109,17.816,4.874,14.424,2.622,11.006z"/>
		<path fill="#EF3D5B" d="M23.806,3.233c0.026,0.497,0.052,0.97,0.078,1.461c-0.552,0.138-1.088,0.247-1.608,0.407
			c-1.204,0.37-1.988,1.169-2.326,2.389c-0.101,0.365,0.045,0.654,0.35,0.744c0.315,0.094,0.587-0.087,0.702-0.471
			c0.265-0.886,0.84-1.442,1.746-1.654c0.386-0.09,0.769-0.19,1.237-0.307c0,0.617,0.039,1.178-0.008,1.732
			c-0.099,1.168-0.719,2.013-1.648,2.716c-0.668,0.506-1.199,0.567-1.878,0.037c-0.581-0.453-1.255-0.789-1.9-1.156
			c-0.257-0.146-0.388-0.292-0.322-0.615c0.111-0.545,0.107-1.121,0.27-1.648c0.278-0.9,0.888-1.565,1.738-1.978
			c1.129-0.549,2.269-1.075,3.405-1.609C23.68,3.265,23.724,3.258,23.806,3.233z"/>
		<path fill="#EF3D5B" d="M10.511,19.903c0-2.777,0-5.48,0-8.203c1.089,0,2.166,0,3.278,0c0,0.919,0.002,1.829-0.004,2.738
			c0,0.073-0.042,0.153-0.082,0.219c-1.022,1.7-2.047,3.399-3.072,5.098C10.61,19.79,10.579,19.82,10.511,19.903z"/>
		<path fill="#EF3D5B" d="M11.523,7.321c-0.076-0.072-0.18-0.129-0.224-0.217c-0.572-1.13-1.139-2.262-1.695-3.399
			C9.559,3.614,9.555,3.446,9.61,3.372C10.435,2.251,11.273,1.139,12.128,0c0.073,0.078,0.137,0.136,0.188,0.204
			c0.775,1.031,1.554,2.06,2.316,3.102c0.073,0.1,0.097,0.307,0.044,0.416c-0.546,1.13-1.11,2.25-1.677,3.37
			c-0.046,0.09-0.145,0.154-0.219,0.23c-0.028-0.016-0.057-0.033-0.085-0.049c0-0.533-0.01-1.067,0.011-1.599
			c0.003-0.083,0.139-0.182,0.235-0.237c0.726-0.418,1.037-1.266,0.737-2.036c-0.289-0.744-1.085-1.185-1.849-1.025
			c-0.81,0.169-1.379,0.894-1.324,1.715c0.039,0.588,0.318,1.051,0.84,1.327c0.209,0.11,0.263,0.231,0.257,0.448
			c-0.015,0.467-0.005,0.935-0.005,1.402C11.572,7.285,11.547,7.303,11.523,7.321z"/>
		<path fill="#EF3D5B" d="M19.787,13.069c-0.941-0.567-1.864-1.123-2.818-1.698c0.286-0.475,0.559-0.929,0.848-1.41
			c0.94,0.567,1.862,1.123,2.818,1.699C20.348,12.136,20.075,12.59,19.787,13.069z"/>
		<path fill="#EF3D5B" d="M13.571,10.568c-0.96,0-1.881,0-2.851,0c0.234-0.706,0.457-1.394,0.697-2.078
			c0.019-0.054,0.145-0.096,0.223-0.098c0.342-0.011,0.686-0.014,1.027,0.002c0.078,0.004,0.198,0.076,0.222,0.145
			C13.124,9.204,13.341,9.875,13.571,10.568z"/>
		<path fill="#EF3D5B" d="M1.39,7.218c0.361-0.238,0.638-0.419,0.979-0.643c0.359,0.988,1.228,1.414,2.128,1.881
			C3.745,8.952,3.054,9.408,2.296,9.908C2.201,8.911,2.183,7.935,1.39,7.218z"/>
		<path fill="#EF3D5B" d="M0,5.038c0.324-0.117,0.608-0.232,0.901-0.315c0.076-0.021,0.218,0.034,0.267,0.1
			c0.196,0.264,0.367,0.545,0.567,0.851c-0.302,0.2-0.591,0.391-0.912,0.604C0.552,5.868,0.29,5.474,0,5.038z"/>
		<path fill="#EF3D5B" d="M12.141,3.452c0.297-0.001,0.546,0.24,0.552,0.536c0.007,0.308-0.255,0.568-0.562,0.56
			c-0.296-0.008-0.536-0.257-0.534-0.554C11.6,3.696,11.844,3.453,12.141,3.452z"/>
	</g>
</g>
</svg>
