<?xml version="1.0" encoding="utf-8"?>
<!-- Generator: Adobe Illustrator 17.0.0, SVG Export Plug-In . SVG Version: 6.00 Build 0)  -->
<!DOCTYPE svg PUBLIC "-//W3C//DTD SVG 1.1//EN" "http://www.w3.org/Graphics/SVG/1.1/DTD/svg11.dtd">
<svg version="1.1" id="Layer_1" xmlns="http://www.w3.org/2000/svg" xmlns:xlink="http://www.w3.org/1999/xlink" x="0px" y="0px"
	 width="60px" height="60px" viewBox="0 0 60 60" enable-background="new 0 0 60 60" xml:space="preserve">
<g>
	<path fill="#EF3D5B" d="M31.035,57.995c0.319,0,0.595,0,0.87,0c8.823,0,17.646,0,26.469,0c0.173,0,0.346-0.007,0.518,0.002
		c0.625,0.034,1.076,0.442,1.087,0.979c0.011,0.532-0.44,0.969-1.055,1.01c-0.193,0.013-0.388,0.003-0.582,0.003
		c-9.341,0-18.682,0.028-28.023-0.008c-8.572-0.033-15.743-3.352-21.608-9.519c-4.229-4.446-6.935-9.717-8.127-15.75
		c-0.861-4.36-0.725-8.694,0.34-13.005c0.081-0.329,0.111-0.679,0.112-1.019c0.009-2.717,0.005-5.434,0.005-8.256
		c0.92,0,1.822-0.067,2.71,0.017c1.063,0.101,1.723-0.265,2.411-1.126c4.762-5.958,10.968-9.538,18.475-10.801
		c1.945-0.327,3.941-0.482,5.914-0.493c9.276-0.05,18.552-0.022,27.828-0.022c0.194,0,0.389-0.012,0.582,0.005
		c0.582,0.049,1.012,0.469,1.019,0.98c0.007,0.508-0.422,0.951-0.994,1.004c-0.235,0.022-0.474,0.007-0.712,0.007
		c-8.823,0-17.646,0-26.469,0c-0.235,0-0.47,0-0.759,0c0,5.202,0,10.362,0,15.608c1.209,0,2.41,0,3.61,0
		c1.222,0,1.514,0.295,1.514,1.531c0,2.804,0.001,5.609-0.001,8.413c-0.001,1.018-0.345,1.366-1.351,1.369
		c-1.246,0.003-2.493,0.001-3.782,0.001C31.035,38.621,31.035,48.253,31.035,57.995z M25.813,12.409c0,0.339,0,0.573,0,0.806
		c0,2.287,0.001,4.573,0,6.86c-0.003,4.972-3.884,8.848-8.863,8.85c-2.373,0.001-4.746,0.009-7.119-0.002
		c-2.911-0.013-5.238-1.217-7.028-3.493c-0.139-0.177-0.281-0.351-0.422-0.527c-1.187,9.388,1.329,17.592,7.788,24.451
		C15.227,54.724,21.513,57.59,28.952,58c0-5.288,0-10.474,0-15.666c-0.121-0.03-0.202-0.054-0.285-0.07
		c-4.429-0.849-7.443-4.117-7.936-8.606c-0.121-1.104,0.282-1.549,1.41-1.55c2.049-0.002,4.099,0,6.148-0.002
		c0.226,0,0.452-0.021,0.653-0.031c0-10.062,0-20.037,0-30.007C22.528,1.337,10.037,7.419,7.735,12.409
		C13.747,12.409,19.731,12.409,25.813,12.409z M23.818,14.47c-0.191-0.021-0.276-0.038-0.36-0.038
		c-5.627-0.002-11.253-0.008-16.879,0.018c-0.247,0.001-0.61,0.249-0.719,0.478c-0.895,1.88-1.758,3.775-2.588,5.684
		c-0.144,0.331-0.166,0.763-0.106,1.125c0.486,2.948,3.067,5.161,6.059,5.186c2.802,0.024,5.605,0.024,8.407-0.001
		c2.724-0.024,5.189-1.874,5.886-4.505c0.249-0.94,0.262-1.955,0.288-2.938C23.85,17.826,23.818,16.17,23.818,14.47z M31.035,19.639
		c0,2.462,0,4.846,0,7.235c1.064,0,2.082,0,3.093,0c0-2.44,0-4.824,0-7.235C33.081,19.639,32.078,19.639,31.035,19.639z
		 M25.841,36.249c0.69,0,1.381,0.014,2.071-0.004c0.648-0.016,1.069-0.437,1.082-1.041c0.014-0.63-0.42-1.088-1.093-1.095
		c-1.359-0.015-2.718-0.014-4.077,0c-0.689,0.007-1.116,0.44-1.114,1.074c0.003,0.632,0.433,1.05,1.125,1.064
		C24.503,36.259,25.172,36.249,25.841,36.249z M3.083,14.459c0,0.46,0,0.888,0,1.317c0.04,0.012,0.081,0.024,0.121,0.035
		c0.227-0.43,0.453-0.86,0.713-1.353C3.569,14.459,3.34,14.459,3.083,14.459z"/>
	<path fill="#EF3D5B" d="M45.487,9.798c0,1.465,0.004,2.929-0.002,4.394c-0.004,0.887-0.375,1.266-1.249,1.27
		c-1.551,0.007-3.102,0.007-4.652,0.001c-0.883-0.004-1.266-0.38-1.268-1.253c-0.005-2.929-0.004-5.859,0-8.788
		c0.001-0.886,0.376-1.266,1.25-1.27c1.551-0.007,3.102-0.007,4.652,0c0.886,0.004,1.263,0.377,1.267,1.253
		C45.492,6.869,45.487,8.333,45.487,9.798z M43.449,13.437c0-2.462,0-4.846,0-7.238c-1.063,0-2.081,0-3.096,0
		c0,2.439,0,4.823,0,7.238C41.4,13.437,42.403,13.437,43.449,13.437z"/>
	<path fill="#EF3D5B" d="M57.913,23.268c0,1.465,0.005,2.929-0.002,4.394c-0.004,0.883-0.377,1.258-1.258,1.261
		c-1.551,0.007-3.102,0.007-4.652,0c-0.878-0.004-1.258-0.384-1.259-1.261c-0.004-2.929-0.005-5.859,0.001-8.788
		c0.002-0.881,0.38-1.258,1.258-1.262c1.551-0.007,3.102-0.007,4.652,0c0.88,0.004,1.254,0.381,1.258,1.261
		C57.918,20.339,57.913,21.803,57.913,23.268z M52.779,19.638c0,2.462,0,4.845,0,7.238c1.063,0,2.081,0,3.096,0
		c0-2.439,0-4.823,0-7.238C54.829,19.638,53.825,19.638,52.779,19.638z"/>
	<path fill="#EF3D5B" d="M39.275,36.702c0,1.465,0.004,2.929-0.001,4.394c-0.003,0.921-0.37,1.286-1.296,1.289
		c-1.529,0.005-3.059,0.006-4.588,0c-0.917-0.003-1.286-0.376-1.287-1.299c-0.003-2.908-0.004-5.816,0.001-8.723
		c0.001-0.92,0.372-1.286,1.296-1.289c1.529-0.005,3.059-0.006,4.588,0c0.92,0.003,1.283,0.372,1.286,1.299
		C39.278,33.816,39.274,35.259,39.275,36.702z M37.237,40.359c0-2.459,0-4.842,0-7.238c-1.062,0-2.08,0-3.098,0
		c0,2.438,0,4.822,0,7.238C35.185,40.359,36.188,40.359,37.237,40.359z"/>
	<path fill="#EF3D5B" d="M48.594,36.729c0,1.465,0.005,2.929-0.002,4.394c-0.004,0.881-0.38,1.258-1.259,1.261
		c-1.551,0.007-3.102,0.007-4.652,0c-0.879-0.004-1.256-0.38-1.257-1.262c-0.005-2.929-0.005-5.859-0.001-8.788
		c0.001-0.88,0.38-1.258,1.259-1.261c1.551-0.006,3.102-0.006,4.652,0c0.876,0.003,1.255,0.382,1.259,1.262
		C48.599,33.8,48.594,35.265,48.594,36.729z M46.556,40.358c0-2.461,0-4.844,0-7.237c-1.062,0-2.081,0-3.097,0
		c0,2.438,0,4.821,0,7.237C44.505,40.358,45.508,40.358,46.556,40.358z"/>
	<path fill="#EF3D5B" d="M45.488,50.257c0,1.443,0.005,2.886-0.002,4.329c-0.004,0.879-0.381,1.255-1.261,1.259
		c-1.551,0.007-3.102,0.007-4.652,0c-0.878-0.004-1.254-0.381-1.255-1.264c-0.005-2.929-0.005-5.859-0.001-8.788
		c0.001-0.879,0.381-1.256,1.261-1.259c1.551-0.006,3.102-0.006,4.652,0c0.876,0.004,1.253,0.382,1.257,1.264
		C45.493,47.285,45.488,48.771,45.488,50.257z M43.45,53.82c0-2.461,0-4.844,0-7.237c-1.062,0-2.081,0-3.096,0
		c0,2.438,0,4.821,0,7.237C41.399,53.82,42.402,53.82,43.45,53.82z"/>
	<path fill="#EF3D5B" d="M47.634,50.195c0-1.465-0.004-2.929,0.002-4.394c0.004-0.884,0.377-1.262,1.254-1.266
		c1.551-0.007,3.102-0.007,4.652,0c0.882,0.004,1.261,0.378,1.262,1.257c0.005,2.929,0.005,5.859,0.001,8.788
		c-0.001,0.882-0.379,1.263-1.254,1.266c-1.551,0.006-3.102,0.006-4.652,0c-0.879-0.003-1.259-0.38-1.264-1.257
		C47.629,53.125,47.634,51.66,47.634,50.195z M49.69,46.556c0,2.417,0,4.831,0,7.26c1.04,0,2.043,0,3.072,0c0-2.436,0-4.835,0-7.26
		C51.726,46.556,50.739,46.556,49.69,46.556z"/>
	<path fill="#EF3D5B" d="M34.173,6.143c-0.4,0-0.719,0.018-1.035-0.004c-0.586-0.04-1.013-0.452-1.031-0.966
		c-0.018-0.529,0.435-0.993,1.043-1.017c0.645-0.025,1.293-0.022,1.939-0.001c0.649,0.021,1.068,0.408,1.071,1.051
		c0.015,3.06,0.014,6.119,0.002,9.179c-0.003,0.623-0.449,1.07-0.986,1.074c-0.554,0.005-0.994-0.465-0.997-1.129
		c-0.011-2.435-0.005-4.87-0.005-7.304C34.173,6.77,34.173,6.513,34.173,6.143z"/>
	<path fill="#EF3D5B" d="M49.705,6.143c-0.397,0-0.716,0.018-1.032-0.004c-0.606-0.041-1.058-0.501-1.034-1.028
		c0.023-0.511,0.457-0.934,1.04-0.955c0.667-0.024,1.337-0.027,2.003,0.002c0.603,0.027,1.007,0.429,1.01,1.045
		c0.015,3.06,0.014,6.119,0.002,9.179c-0.003,0.624-0.446,1.071-0.983,1.077c-0.574,0.007-1-0.478-1.002-1.19
		c-0.007-2.435-0.003-4.87-0.003-7.304C49.705,6.713,49.705,6.461,49.705,6.143z"/>
	<path fill="#EF3D5B" d="M40.385,19.605c-0.384,0-0.682,0.012-0.979-0.003c-0.629-0.031-1.074-0.439-1.086-0.976
		c-0.012-0.532,0.438-0.985,1.052-1.008c0.645-0.024,1.293-0.024,1.939,0c0.648,0.023,1.06,0.416,1.063,1.059
		c0.014,3.06,0.013,6.119,0,9.179c-0.003,0.619-0.46,1.068-0.994,1.065c-0.557-0.004-0.987-0.471-0.99-1.137
		c-0.01-2.435-0.004-4.87-0.004-7.304C40.385,20.223,40.385,19.967,40.385,19.605z"/>
	<path fill="#EF3D5B" d="M46.599,19.604c-0.407,0-0.727,0.019-1.044-0.004c-0.582-0.042-1.01-0.463-1.022-0.975
		c-0.012-0.53,0.44-0.986,1.052-1.008c0.646-0.023,1.293-0.022,1.939,0c0.646,0.022,1.06,0.414,1.063,1.059
		c0.015,3.06,0.014,6.119,0.001,9.179c-0.003,0.619-0.46,1.067-0.995,1.065c-0.555-0.002-0.986-0.469-0.989-1.138
		c-0.01-2.435-0.004-4.87-0.004-7.304C46.599,20.222,46.599,19.967,46.599,19.604z"/>
	<path fill="#EF3D5B" d="M52.811,33.066c-0.414,0-0.716,0.015-1.016-0.003c-0.615-0.038-1.063-0.479-1.049-1.012
		c0.013-0.514,0.44-0.946,1.024-0.97c0.667-0.027,1.337-0.028,2.003,0c0.611,0.026,1.022,0.421,1.025,1.03
		c0.015,3.081,0.016,6.162,0,9.243c-0.003,0.604-0.503,1.056-1.029,1.028c-0.556-0.03-0.952-0.496-0.954-1.174
		c-0.007-2.456-0.003-4.913-0.003-7.369C52.811,33.607,52.811,33.375,52.811,33.066z"/>
	<path fill="#EF3D5B" d="M34.172,46.527c-0.391,0-0.709,0.017-1.024-0.004c-0.611-0.039-1.06-0.49-1.041-1.02
		c0.019-0.512,0.449-0.938,1.033-0.962c0.645-0.026,1.293-0.023,1.939-0.002c0.679,0.023,1.081,0.42,1.084,1.106
		c0.011,3.016,0.01,6.033,0.002,9.05c-0.002,0.673-0.42,1.139-0.978,1.148c-0.576,0.01-1.008-0.477-1.01-1.183
		c-0.007-2.456-0.003-4.913-0.003-7.369C34.172,47.059,34.172,46.828,34.172,46.527z"/>
	<path fill="#EF3D5B" d="M17.587,17.612c2.003,0.019,3.928,1.853,4.077,3.884c0.046,0.629-0.348,1.15-0.911,1.207
		c-0.547,0.055-1.014-0.4-1.075-1.049c-0.144-1.515-1.009-2.215-2.517-2.036c-0.903,0.107-1.581,0.783-1.688,1.689
		c-0.018,0.149,0,0.303-0.021,0.451c-0.077,0.561-0.547,0.984-1.044,0.949c-0.536-0.038-0.948-0.528-0.941-1.121
		C13.49,19.59,15.56,17.593,17.587,17.612z"/>
</g>
</svg>
