<?xml version="1.0" encoding="utf-8"?>
<!-- Generator: Adobe Illustrator 17.0.0, SVG Export Plug-In . SVG Version: 6.00 Build 0)  -->
<!DOCTYPE svg PUBLIC "-//W3C//DTD SVG 1.1//EN" "http://www.w3.org/Graphics/SVG/1.1/DTD/svg11.dtd">
<svg version="1.1" id="Layer_1" xmlns="http://www.w3.org/2000/svg" xmlns:xlink="http://www.w3.org/1999/xlink" x="0px" y="0px"
	 width="24px" height="24px" viewBox="0 0 24 24" enable-background="new 0 0 24 24" xml:space="preserve">
<g>
	<g>
		<path fill="#EF3D5B" d="M14.161,17.771c0,0.663,0,1.245,0,1.919c0.585,0,1.147,0.007,1.708-0.002
			c0.513-0.008,0.741,0.214,0.748,0.745c0.018,1.373,0.033,1.372-1.341,1.372c-2.358,0-4.716,0.002-7.075-0.001
			c-0.712-0.001-0.81-0.108-0.817-0.828c-0.002-0.197,0.006-0.393-0.001-0.59c-0.019-0.472,0.222-0.69,0.675-0.694
			c0.569-0.005,1.138-0.001,1.754-0.001c0-0.632,0-1.23,0-1.92c-0.19,0-0.396,0-0.603,0c-2.614,0-5.227,0.002-7.841-0.001
			c-0.978-0.001-1.365-0.379-1.365-1.351c-0.004-5.031-0.004-10.062,0-15.093C0.004,0.393,0.401,0.003,1.34,0.002
			c7.114-0.003,14.228-0.003,21.342,0c0.983,0,1.317,0.341,1.317,1.309C24,6.323,24,11.334,23.999,16.345
			c0,1.051-0.373,1.425-1.413,1.425c-2.574,0-5.149,0-7.723,0C14.649,17.771,14.435,17.771,14.161,17.771z M22.097,1.989
			c-6.711,0-13.379,0-20.068,0c0,3.997,0,7.954,0,11.94c6.705,0,13.373,0,20.068,0C22.097,9.944,22.097,6,22.097,1.989z
			 M11.928,16.603c0.489,0.015,0.829-0.277,0.817-0.664c-0.013-0.422-0.22-0.709-0.662-0.756c-0.401-0.043-0.795,0.307-0.774,0.703
			C11.332,16.311,11.57,16.565,11.928,16.603z"/>
		<path fill="#EF3D5B" d="M12.541,12.467c0-1.252,0-2.477,0-3.735c1.963,0,3.892,0,5.861,0c0,1.248,0,2.473,0,3.735
			C16.44,12.467,14.51,12.467,12.541,12.467z"/>
		<path fill="#EF3D5B" d="M11.513,3.505c0,1.247,0,2.458,0,3.715c-1.94,0-3.871,0-5.846,0c0-1.217,0-2.441,0-3.715
			C7.591,3.505,9.52,3.505,11.513,3.505z"/>
		<path fill="#EF3D5B" d="M18.409,3.504c0,0.386,0,0.73,0,1.12c-1.953,0-3.881,0-5.856,0c0-0.35,0-0.71,0-1.12
			C14.486,3.504,16.413,3.504,18.409,3.504z"/>
		<path fill="#EF3D5B" d="M12.543,6.089c1.963,0,3.892,0,5.858,0c0,0.391,0,0.751,0,1.144c-1.965,0-3.892,0-5.858,0
			C12.543,6.846,12.543,6.485,12.543,6.089z"/>
		<path fill="#EF3D5B" d="M11.513,8.741c0,0.38,0,0.727,0,1.12c-1.945,0-3.873,0-5.846,0c0-0.352,0-0.713,0-1.12
			C7.587,8.741,9.515,8.741,11.513,8.741z"/>
		<path fill="#EF3D5B" d="M11.486,12.476c-1.939,0-3.854,0-5.817,0c0-0.365,0-0.726,0-1.135c1.91,0,3.838,0,5.817,0
			C11.486,11.686,11.486,12.045,11.486,12.476z"/>
	</g>
</g>
</svg>
