<?xml version="1.0" encoding="utf-8"?>
<!-- Generator: Adobe Illustrator 17.0.0, SVG Export Plug-In . SVG Version: 6.00 Build 0)  -->
<!DOCTYPE svg PUBLIC "-//W3C//DTD SVG 1.1//EN" "http://www.w3.org/Graphics/SVG/1.1/DTD/svg11.dtd">
<svg version="1.1" id="Layer_1" xmlns="http://www.w3.org/2000/svg" xmlns:xlink="http://www.w3.org/1999/xlink" x="0px" y="0px"
	 width="60px" height="60px" viewBox="0 0 60 60" enable-background="new 0 0 60 60" xml:space="preserve">
<g>
	<path fill="#EF3D5B" d="M30.035,0.018C46.648,0.065,60.054,13.544,60,30.146c-0.054,16.487-13.56,29.876-30.098,29.836
		C13.406,59.942-0.083,46.387,0,29.936C0.084,13.385,13.549-0.028,30.035,0.018z M29.964,57.626
		c15.249,0.046,27.606-12.258,27.666-27.547C57.689,14.84,45.356,2.408,30.123,2.35C14.889,2.291,2.426,14.637,2.367,29.843
		C2.308,45.188,14.615,57.579,29.964,57.626z"/>
	<path fill="#EF3D5B" d="M48.036,12.419c-0.567,0-0.976,0.022-1.382-0.004c-2.365-0.147-4.164,1.754-3.907,4.116
		c0.145,1.331,0.768,2.461,1.386,3.612c0.878,1.635,1.834,3.253,2.482,4.981c0.904,2.414,0.713,4.927-0.007,7.377
		c-1.357,4.619-2.752,9.226-4.133,13.838c-0.028,0.095-0.085,0.181-0.166,0.35c-3.225-9.596-6.428-19.124-9.655-28.725
		c1.017-0.083,1.924-0.157,2.83-0.231c0.203-0.017,0.435,0.019,0.603-0.067c0.195-0.1,0.334-0.308,0.498-0.469
		c-0.194-0.147-0.392-0.423-0.583-0.419c-1.147,0.026-2.294,0.177-3.44,0.173c-2.831-0.011-5.661-0.082-8.492-0.133
		c-0.331-0.006-0.674-0.102-0.989-0.04c-0.212,0.041-0.384,0.287-0.573,0.441c0.164,0.156,0.312,0.423,0.495,0.45
		c0.756,0.112,1.521,0.187,2.285,0.203c0.434,0.009,0.616,0.169,0.758,0.563c1.207,3.357,2.441,6.704,3.646,10.062
		c0.096,0.267,0.126,0.617,0.039,0.88c-1.88,5.684-3.781,11.36-5.68,17.038c-0.029,0.086-0.076,0.166-0.181,0.393
		c-3.249-9.663-6.453-19.19-9.696-28.834c0.994-0.084,1.919-0.145,2.839-0.249c0.407-0.046,1.077,0.155,1.038-0.547
		c-0.042-0.756-0.716-0.395-1.096-0.382c-2.776,0.095-5.551,0.233-8.374,0.217C12.795,10.226,18.81,6.186,26.667,5.055
		c5.27-0.759,10.313,0.179,15.047,2.655C44.04,8.927,46.122,10.464,48.036,12.419z M42.166,42.741
		c0.074-0.01,0.147-0.019,0.221-0.029c1.042-3.487,2.153-6.956,3.09-10.471c0.381-1.429,0.54-2.962,0.52-4.444
		c-0.031-2.281-1.105-4.251-2.251-6.178c-0.687-1.156-1.374-2.348-1.807-3.61c-0.936-2.732,0.248-5.265,2.846-6.458
		c0.108-0.05,0.204-0.127,0.392-0.246c-5.904-4.617-12.49-6.266-19.753-4.918c-6.142,1.141-11.04,4.363-14.873,9.465
		c0.313,0.039,0.459,0.079,0.602,0.073c2.015-0.083,4.031-0.148,6.043-0.27c1.07-0.065,1.927,0.479,2.025,1.4
		c0.089,0.842-0.58,1.582-1.574,1.722c-0.616,0.087-1.234,0.152-1.942,0.239c2.723,8.095,5.409,16.08,8.157,24.25
		c0.137-0.303,0.174-0.369,0.197-0.439c1.495-4.471,2.997-8.941,4.464-13.421c0.106-0.323,0.035-0.756-0.084-1.092
		c-0.895-2.521-1.881-5.011-2.715-7.552c-0.404-1.233-0.872-2.144-2.373-1.913c-0.144,0.022-0.301-0.044-0.452-0.067
		c-1.017-0.155-1.586-0.841-1.473-1.778c0.105-0.876,0.917-1.44,1.9-1.353c4.155,0.368,8.312,0.371,12.467-0.003
		c0.95-0.085,1.736,0.455,1.861,1.305c0.135,0.921-0.449,1.672-1.431,1.814c-0.642,0.093-1.289,0.158-2.035,0.248
		C36.87,26.99,39.518,34.866,42.166,42.741z"/>
	<path fill="#EF3D5B" d="M41.406,52.421c0.438-1.279,0.844-2.478,1.259-3.672c2.42-6.955,4.823-13.916,7.273-20.86
		c1.351-3.829,1.566-7.718,0.844-11.686c-0.032-0.174-0.048-0.351-0.078-0.568C59.003,27.259,55.678,45.066,41.406,52.421z
		 M43.566,49.608c0.063,0.044,0.126,0.089,0.189,0.133c4.968-3.524,8.253-8.229,9.671-14.181c1.134-4.762,0.835-9.453-0.859-13.914
		c-0.534,2.217-0.928,4.538-1.658,6.748c-1.822,5.515-3.799,10.978-5.71,16.463C44.648,46.439,44.11,48.025,43.566,49.608z"/>
	<path fill="#EF3D5B" d="M20.213,53.129C7.155,47.881,0.798,31.683,7.605,18.583C11.814,30.117,15.999,41.585,20.213,53.129z
		 M17.936,50.83c0.064-0.046,0.127-0.093,0.191-0.139c-3.514-9.629-7.029-19.258-10.566-28.951
		c-1.576,3.077-2.337,9.323-0.705,14.883C8.675,42.825,12.417,47.532,17.936,50.83z"/>
	<path fill="#EF3D5B" d="M30.505,30.712c2.778,7.594,5.556,15.187,8.365,22.867c-5.387,1.987-10.9,2.153-16.534,0.409
		c2.686-7.805,5.344-15.531,8.002-23.256C30.393,30.725,30.449,30.718,30.505,30.712z M30.569,34.147
		c-0.075,0.004-0.15,0.009-0.225,0.013c-2.177,6.327-4.354,12.653-6.562,19.071c4.611,1.222,9.094,1.101,13.629-0.341
		C35.104,46.571,32.836,40.359,30.569,34.147z"/>
</g>
</svg>
