<?xml version="1.0" encoding="utf-8"?>
<!-- Generator: Adobe Illustrator 17.0.0, SVG Export Plug-In . SVG Version: 6.00 Build 0)  -->
<!DOCTYPE svg PUBLIC "-//W3C//DTD SVG 1.1//EN" "http://www.w3.org/Graphics/SVG/1.1/DTD/svg11.dtd">
<svg version="1.1" id="Layer_1" xmlns="http://www.w3.org/2000/svg" xmlns:xlink="http://www.w3.org/1999/xlink" x="0px" y="0px"
	 width="60px" height="60px" viewBox="0 0 60 60" enable-background="new 0 0 60 60" xml:space="preserve">
<g>
	<path fill="#EF3D5B" d="M41.891,59.98c-0.215-0.625-0.449-1.207-0.609-1.808c-0.111-0.416-0.322-0.611-0.734-0.751
		c-0.817-0.277-1.621-0.609-2.391-0.995c-0.375-0.188-0.648-0.198-0.997,0.006c-0.434,0.253-0.913,0.428-1.344,0.685
		c-0.311,0.185-0.488,0.109-0.72-0.129c-0.999-1.025-2.009-2.04-3.036-3.038c-0.271-0.263-0.39-0.487-0.141-0.815
		c0.845-1.117,0.965-2.248,0.111-3.433c-0.182-0.252-0.3-0.586-0.343-0.897c-0.105-0.756-0.552-1.076-1.256-1.218
		c-0.469-0.095-0.914-0.304-1.404-0.474c0-1.657-0.008-3.309,0.014-4.961c0.002-0.138,0.179-0.344,0.32-0.399
		c0.656-0.254,1.483-0.302,1.95-0.741c0.445-0.419,0.519-1.231,0.76-1.869c0.05-0.132,0.095-0.275,0.181-0.381
		c0.666-0.823,0.436-1.582-0.056-2.405c-0.551-0.92-0.503-0.949,0.272-1.724c0.87-0.87,1.747-1.732,2.605-2.614
		c0.241-0.248,0.452-0.376,0.763-0.139c1.161,0.882,2.341,0.971,3.543,0.078c0.046-0.034,0.111-0.054,0.169-0.062
		c1.287-0.179,1.93-0.963,2.106-2.207c0.03-0.215,0.143-0.417,0.229-0.657c1.745,0,3.49,0,5.276,0
		c0.212,0.639,0.399,1.297,0.657,1.926c0.09,0.22,0.325,0.437,0.547,0.538c0.859,0.391,1.732,0.752,2.615,1.084
		c0.228,0.086,0.543,0.098,0.765,0.01c0.522-0.206,1.001-0.52,1.522-0.732c0.165-0.067,0.475-0.023,0.599,0.096
		c1.09,1.049,2.159,2.118,3.212,3.204c0.109,0.113,0.149,0.404,0.085,0.555c-0.275,0.647-0.826,1.265-0.845,1.906
		c-0.018,0.611,0.515,1.232,0.779,1.86c0.171,0.407,0.272,0.844,0.443,1.25c0.077,0.182,0.249,0.323,0.377,0.483
		c0.043-0.028,0.085-0.057,0.128-0.085c0-10.476,0-20.951,0-31.458c-18.695,0-37.361,0-56.075,0c0,12.865,0,25.738,0,38.652
		c1.244,0,2.501,0,3.804,0c0-0.528,0-1.046,0-1.6c0.797-0.279,1.565-0.548,2.382-0.834c-0.312-0.624-0.587-1.204-0.89-1.769
		c-0.162-0.303-0.181-0.514,0.101-0.785c1.046-1.006,2.073-2.034,3.08-3.08c0.27-0.281,0.481-0.267,0.785-0.103
		c0.565,0.304,1.146,0.579,1.78,0.896c0.234-0.692,0.429-1.344,0.682-1.972c0.068-0.168,0.311-0.373,0.477-0.376
		c1.612-0.028,3.225-0.017,4.897-0.017c0.265,0.769,0.531,1.54,0.813,2.359c0.657-0.323,1.259-0.646,1.886-0.909
		c0.166-0.07,0.482-0.03,0.605,0.089c1.075,1.035,2.115,2.106,3.181,3.149c0.232,0.227,0.245,0.407,0.098,0.681
		c-0.313,0.583-0.592,1.185-0.921,1.854c0.686,0.228,1.334,0.423,1.963,0.666c0.163,0.063,0.381,0.27,0.383,0.414
		c0.027,1.652,0.017,3.304,0.017,4.969c-0.786,0.272-1.544,0.533-2.363,0.816c0.315,0.631,0.597,1.228,0.91,1.808
		c0.156,0.29,0.151,0.486-0.103,0.733c-1.056,1.026-2.094,2.07-3.124,3.121c-0.22,0.225-0.399,0.266-0.68,0.114
		c-0.582-0.316-1.183-0.597-1.845-0.926c-0.282,0.807-0.549,1.573-0.819,2.345c-1.759,0-3.491,0-5.254,0
		c-0.261-0.763-0.519-1.52-0.802-2.348c-0.631,0.312-1.226,0.593-1.806,0.9c-0.282,0.149-0.48,0.176-0.734-0.086
		c-1.024-1.057-2.066-2.098-3.122-3.123c-0.258-0.25-0.248-0.446-0.095-0.733c0.303-0.566,0.576-1.149,0.902-1.807
		c-0.804-0.277-1.57-0.541-2.367-0.815c0-0.536,0-1.056,0-1.624c-1.928,0-3.816,0-5.755,0c0-16.793,0-33.538,0-50.329
		c19.951,0,39.923,0,59.936,0c0,15.695,0,31.394,0,47.134c-0.611,0.204-1.233,0.435-1.868,0.615c-0.351,0.1-0.506,0.296-0.63,0.631
		c-0.321,0.865-0.717,1.703-1.043,2.567c-0.086,0.228-0.101,0.543-0.014,0.765c0.204,0.523,0.516,1.003,0.727,1.524
		c0.067,0.167,0.029,0.479-0.089,0.601c-1.049,1.089-2.12,2.157-3.207,3.209c-0.113,0.11-0.441,0.166-0.549,0.086
		c-1.228-0.909-2.453-1-3.712-0.078c-0.062,0.046-0.148,0.071-0.226,0.08c-1.223,0.144-1.764,0.935-1.935,2.059
		c-0.101,0.664-0.461,0.828-1.113,0.803C44.858,59.94,43.404,59.98,41.891,59.98z M1.945,7.655c18.736,0,37.414,0,56.093,0
		c0-1.934,0-3.821,0-5.728c-18.711,0-37.389,0-56.093,0C1.945,3.848,1.945,5.735,1.945,7.655z M35.033,37.75
		c-0.093,0.156-0.187,0.288-0.254,0.433c-0.467,1-1.086,1.963-1.348,3.015c-0.261,1.044-0.68,1.692-1.764,1.82
		c-0.607,0.072-0.771,0.422-0.712,0.994c0.058,0.556-0.157,1.263,0.115,1.641c0.271,0.377,0.987,0.46,1.525,0.613
		c0.368,0.105,0.471,0.321,0.583,0.661c0.345,1.047,0.622,2.155,1.186,3.081c0.567,0.929,0.677,1.683,0.019,2.538
		c-0.341,0.444-0.282,0.808,0.171,1.167c0.454,0.359,0.81,1.021,1.292,1.112c0.446,0.084,1.015-0.387,1.505-0.658
		c0.332-0.184,0.565-0.1,0.88,0.061c0.965,0.493,1.92,1.096,2.953,1.337c1.08,0.252,1.72,0.707,1.867,1.797
		c0.078,0.577,0.386,0.751,0.951,0.69c0.558-0.06,1.28,0.182,1.649-0.09c0.392-0.289,0.482-1.017,0.651-1.57
		c0.103-0.338,0.287-0.452,0.615-0.552c0.94-0.288,1.959-0.49,2.762-1.011c1.146-0.743,2.143-0.894,3.248-0.048
		c0.098,0.075,0.375,0.066,0.463-0.017c0.526-0.497,1.211-0.953,1.455-1.574c0.147-0.376-0.386-1.038-0.655-1.549
		c-0.162-0.308-0.115-0.528,0.044-0.826c0.461-0.869,1.045-1.727,1.253-2.662c0.295-1.322,0.864-2.164,2.26-2.33
		c0.117-0.014,0.305-0.185,0.308-0.287c0.016-0.744,0.14-1.536-0.082-2.211c-0.101-0.308-0.908-0.385-1.394-0.567
		c-0.057-0.021-0.127-0.03-0.166-0.07c-0.178-0.182-0.419-0.343-0.508-0.564c-0.426-1.06-0.666-2.226-1.252-3.183
		c-0.565-0.922-0.641-1.652-0.01-2.487c0.35-0.464,0.285-0.84-0.184-1.209c-0.44-0.346-0.782-1.005-1.242-1.083
		c-0.456-0.077-1.017,0.378-1.51,0.642c-0.325,0.174-0.558,0.124-0.881-0.041c-0.982-0.502-1.957-1.117-3.01-1.355
		c-1.106-0.25-1.687-0.751-1.844-1.828c-0.071-0.49-0.315-0.714-0.853-0.657c-0.579,0.06-1.321-0.188-1.709,0.092
		c-0.406,0.292-0.449,1.064-0.702,1.602c-0.094,0.2-0.309,0.436-0.508,0.481c-1.431,0.324-2.77,0.856-3.991,1.665
		c-0.313,0.207-0.557,0.211-0.878,0.039c-0.493-0.264-1.053-0.722-1.509-0.645c-0.459,0.077-0.802,0.736-1.241,1.084
		c-0.464,0.368-0.511,0.722-0.194,1.214C34.644,36.859,34.82,37.316,35.033,37.75z M9.398,44.027
		c0.304,0.605,0.607,1.15,0.849,1.721c0.09,0.211,0.08,0.491,0.04,0.727c-0.118,0.69-0.55,1.067-1.242,1.181
		c-0.255,0.042-0.492,0.187-0.746,0.24c-0.451,0.094-0.617,0.334-0.579,0.8c0.048,0.601-0.192,1.372,0.101,1.766
		c0.311,0.418,1.098,0.487,1.683,0.694c0.609,0.215,1.035,1.183,0.755,1.761c-0.277,0.573-0.566,1.141-0.793,1.598
		c0.628,0.651,1.185,1.228,1.747,1.809c0.024-0.009,0.064-0.02,0.099-0.038c0.486-0.243,0.957-0.531,1.464-0.714
		c0.284-0.103,0.637-0.079,0.947-0.031c0.607,0.093,0.906,0.501,1.02,1.094c0.064,0.333,0.228,0.646,0.312,0.977
		c0.083,0.323,0.24,0.463,0.592,0.442c0.523-0.031,1.049-0.027,1.572-0.004c0.333,0.015,0.512-0.08,0.602-0.424
		c0.127-0.486,0.307-0.958,0.474-1.433c0.183-0.52,1.193-0.93,1.697-0.695c0.58,0.27,1.219,0.837,1.722,0.735
		c0.549-0.112,0.972-0.843,1.447-1.306c0.1-0.097,0.19-0.203,0.304-0.326c-0.286-0.569-0.575-1.12-0.837-1.683
		c-0.079-0.171-0.154-0.398-0.106-0.563c0.188-0.646,0.442-1.247,1.257-1.335c0.274-0.03,0.531-0.194,0.805-0.252
		c0.45-0.095,0.617-0.334,0.579-0.8c-0.049-0.601,0.192-1.372-0.101-1.766c-0.311-0.418-1.098-0.487-1.683-0.694
		c-0.607-0.215-1.034-1.184-0.755-1.761c0.278-0.573,0.566-1.141,0.794-1.598c-0.627-0.65-1.185-1.228-1.754-1.818
		c-0.543,0.272-1.09,0.577-1.664,0.818c-0.209,0.088-0.49,0.061-0.726,0.02c-0.665-0.114-1.038-0.519-1.151-1.196
		c-0.052-0.314-0.216-0.607-0.295-0.918c-0.082-0.322-0.238-0.464-0.591-0.443c-0.523,0.031-1.049,0.027-1.572,0.004
		c-0.332-0.015-0.514,0.077-0.603,0.423c-0.12,0.467-0.269,0.932-0.468,1.37c-0.103,0.227-0.314,0.433-0.525,0.576
		c-0.555,0.375-1.111,0.343-1.667-0.054c-0.259-0.185-0.58-0.281-0.858-0.442c-0.26-0.151-0.449-0.152-0.675,0.09
		C10.417,43.061,9.925,43.511,9.398,44.027z"/>
	<path fill="#EF3D5B" d="M8.336,30.726c-0.425-0.53-0.801-0.999-1.215-1.517c2.907-2.325,5.781-4.623,8.733-6.984
		c-2.918-2.337-5.8-4.646-8.733-6.996c0.404-0.504,0.791-0.985,1.212-1.51c3.536,2.829,7.039,5.631,10.625,8.5
		C15.407,25.064,11.896,27.876,8.336,30.726z"/>
	<path fill="#EF3D5B" d="M56.107,11.612c0,0.644,0,1.241,0,1.87c-7.079,0-14.128,0-21.225,0c0-0.603,0-1.215,0-1.87
		C41.932,11.612,48.995,11.612,56.107,11.612z"/>
	<path fill="#EF3D5B" d="M56.107,15.486c0,0.642,0,1.239,0,1.868c-7.078,0-14.126,0-21.225,0c0-0.601,0-1.212,0-1.868
		C41.933,15.486,48.995,15.486,56.107,15.486z"/>
	<path fill="#EF3D5B" d="M34.861,21.213c0-0.635,0-1.232,0-1.864c7.09,0,14.153,0,21.245,0c0,0.623,0,1.221,0,1.864
		C49.039,21.213,41.976,21.213,34.861,21.213z"/>
	<path fill="#EF3D5B" d="M34.861,25.088c0-0.642,0-1.239,0-1.868c7.078,0,14.126,0,21.225,0c0,0.6,0,1.212,0,1.868
		C49.037,25.088,41.974,25.088,34.861,25.088z"/>
	<path fill="#EF3D5B" d="M33.841,29.039c0,0.642,0,1.239,0,1.868c-7.079,0-14.128,0-21.225,0c0-0.601,0-1.213,0-1.868
		C19.664,29.039,26.728,29.039,33.841,29.039z"/>
	<path fill="#EF3D5B" d="M5.761,5.74c-0.629,0-1.225,0-1.864,0c0-0.616,0-1.226,0-1.876c0.609,0,1.219,0,1.864,0
		C5.761,4.476,5.761,5.072,5.761,5.74z"/>
	<path fill="#EF3D5B" d="M7.751,5.737c0-0.635,0-1.23,0-1.869c0.621,0,1.231,0,1.879,0c0,0.617,0,1.226,0,1.869
		C9.013,5.737,8.417,5.737,7.751,5.737z"/>
	<path fill="#EF3D5B" d="M13.508,5.74c-0.635,0-1.231,0-1.867,0c0-0.618,0-1.229,0-1.876c0.617,0,1.227,0,1.867,0
		C13.508,4.479,13.508,5.076,13.508,5.74z"/>
	<path fill="#EF3D5B" d="M54.197,44.543c-0.014,5.291-4.394,9.637-9.704,9.628c-5.328-0.009-9.674-4.389-9.658-9.735
		c0.017-5.326,4.405-9.653,9.764-9.627C49.887,34.834,54.211,39.219,54.197,44.543z M52.261,44.538
		c0.037-4.209-3.428-7.752-7.621-7.792c-4.272-0.042-7.821,3.389-7.868,7.604c-0.048,4.275,3.381,7.838,7.589,7.884
		C48.691,52.282,52.223,48.841,52.261,44.538z"/>
	<path fill="#EF3D5B" d="M21.285,49.356c-0.017,2.666-2.199,4.825-4.871,4.818c-2.655-0.007-4.834-2.21-4.817-4.87
		c0.017-2.666,2.199-4.825,4.871-4.818C19.123,44.493,21.301,46.696,21.285,49.356z M19.344,49.323
		c-0.015-1.62-1.319-2.904-2.942-2.896c-1.569,0.007-2.879,1.338-2.864,2.911c0.015,1.62,1.319,2.904,2.942,2.896
		C18.049,52.226,19.359,50.895,19.344,49.323z"/>
	<path fill="#EF3D5B" d="M44.486,48.362c-2.101-0.002-3.841-1.747-3.846-3.856c-0.004-2.14,1.737-3.889,3.876-3.892
		c2.135-0.003,3.885,1.755,3.872,3.89C48.375,46.653,46.644,48.363,44.486,48.362z M44.543,46.425
		c1.055-0.013,1.914-0.888,1.909-1.945c-0.006-1.081-0.902-1.948-1.992-1.925c-1.024,0.022-1.875,0.89-1.878,1.914
		C42.578,45.559,43.46,46.438,44.543,46.425z"/>
</g>
</svg>
