<?xml version="1.0" encoding="utf-8"?>
<!-- Generator: Adobe Illustrator 17.0.0, SVG Export Plug-In . SVG Version: 6.00 Build 0)  -->
<!DOCTYPE svg PUBLIC "-//W3C//DTD SVG 1.1//EN" "http://www.w3.org/Graphics/SVG/1.1/DTD/svg11.dtd">
<svg version="1.1" id="Layer_1" xmlns="http://www.w3.org/2000/svg" xmlns:xlink="http://www.w3.org/1999/xlink" x="0px" y="0px"
	 width="60px" height="60px" viewBox="0 0 60 60" enable-background="new 0 0 60 60" xml:space="preserve">
<g>
	<path fill="#EF3D5B" d="M29.46,31.157c-1.801-0.149-3.54-0.292-5.375-0.444c0,0.46-0.004,0.788,0.001,1.115
		c0.017,1.34,0.045,2.679,0.052,4.019c0.004,0.712-0.359,1.118-0.973,1.139c-0.641,0.022-1.065-0.381-1.081-1.111
		c-0.03-1.465-0.024-2.931-0.036-4.397c-0.002-0.206-0.018-0.412-0.031-0.703c-1.608,0.189-3.177,0.374-4.836,0.569
		c0.25,0.726,0.459,1.31,0.652,1.899c0.228,0.693,0.009,1.253-0.555,1.457c-0.612,0.222-1.117-0.066-1.385-0.8
		c-0.193-0.529-0.402-1.055-0.557-1.596c-0.116-0.405-0.336-0.47-0.696-0.357c-0.558,0.176-1.118,0.345-1.681,0.501
		c-0.619,0.172-1.16-0.084-1.321-0.606c-0.184-0.598,0.079-1.121,0.713-1.336c0.67-0.227,1.352-0.417,2.02-0.62
		c-0.396-2.103-0.787-4.181-1.2-6.375c-0.522,0-1.161,0.001-1.8,0c-0.628-0.002-1.257,0.013-1.884-0.016
		c-0.658-0.031-1.117-0.492-1.102-1.055c0.015-0.572,0.483-0.996,1.144-1c1.026-0.007,2.052-0.008,3.078,0.018
		c0.491,0.012,0.661-0.131,0.698-0.668c0.123-1.79,0.309-3.577,0.525-5.358c0.046-0.383-0.035-0.536-0.368-0.642
		c-0.238-0.076-0.473-0.171-0.693-0.288c-0.488-0.259-0.694-0.775-0.5-1.274c0.206-0.529,0.629-0.712,1.163-0.607
		c0.323,0.064,0.633,0.193,1.016,0.314c0.59-1.832,1.257-3.604,2.634-5.001c-0.037-0.049-0.074-0.099-0.111-0.148
		c-0.519,0.268-1.085,0.473-1.547,0.817c-1.274,0.947-2.515,1.94-3.747,2.942c-0.403,0.328-0.821,0.444-1.273,0.232
		c-0.416-0.194-0.612-0.58-0.521-1.042c0.042-0.212,0.147-0.451,0.299-0.598c2.636-2.533,5.552-4.567,9.26-5.202
		c2.054-0.352,4.076-0.124,6.111,0.189c2.364,0.364,4.577,1.125,6.666,2.271c0.679,0.373,1.392,0.713,1.586,1.582
		c0.023,0.104,0.135,0.217,0.235,0.271c1.902,1.02,3.047,2.749,4.005,4.557c0.865,1.632,1.478,3.399,2.176,5.117
		c0.239,0.589,0.309,1.224,1.048,1.519c0.416,0.166,0.562,0.653,0.366,1.138c-0.209,0.519-0.608,0.744-1.144,0.665
		c-0.682-0.101-1.223-0.477-1.536-1.08c-0.286-0.551-0.519-1.141-0.696-1.737c-0.742-2.492-1.81-4.825-3.488-6.82
		c-0.591-0.703-1.433-1.191-2.123-1.817c-0.342-0.31-0.601-0.711-0.896-1.072c-0.111-0.136-0.189-0.324-0.329-0.408
		c-2.38-1.42-4.996-2.081-7.724-2.374c-0.039-0.004-0.08,0.017-0.074,0.016c0.582,1.626,0.417,3.274,0.217,4.937
		c-0.083,0.689-0.03,1.398,0.01,2.095c0.008,0.137,0.258,0.388,0.367,0.374c1.5-0.204,2.996-0.446,4.596-0.694
		c-0.419-1.151-0.41-2.281-1.441-2.941c-0.2-0.128-0.347-0.364-0.473-0.577c-0.31-0.521-0.2-1.071,0.251-1.39
		c0.429-0.304,0.972-0.148,1.418,0.198c1.271,0.986,1.77,2.381,2.126,3.951c0.497-0.2,0.913-0.37,1.331-0.534
		c0.7-0.274,1.275-0.104,1.505,0.44c0.248,0.585-0.019,1.121-0.721,1.444c-0.171,0.078-0.34,0.164-0.518,0.222
		c-0.349,0.114-0.364,0.328-0.419,0.686c-0.123,0.809,0.17,1.462,0.394,2.189c0.208,0.675,0.1,1.443,0.165,2.167
		c0.057,0.622,0.163,1.239,0.254,1.914c0.895,0,1.746,0,2.598,0c0.821,0,1.26,0.325,1.288,0.956
		c0.029,0.644-0.449,1.077-1.248,1.104c-0.628,0.021-1.256,0.033-1.884,0.019c-0.371-0.008-0.522,0.108-0.513,0.501
		c0.041,1.914-0.212,3.793-0.689,5.647c-0.041,0.161,0.096,0.406,0.217,0.559c0.124,0.158,0.339,0.241,0.498,0.376
		c0.508,0.431,0.604,0.958,0.274,1.439c-0.316,0.46-0.898,0.559-1.448,0.244c-0.089-0.051-0.172-0.114-0.277-0.185
		c-0.748,1.375-1.489,2.737-2.236,4.109c0.683-0.145,1.345-0.285,2.006-0.426c0.02-0.004,0.041-0.014,0.055-0.028
		c1.922-1.824,4.342-3.141,5.539-5.7c0.76-1.626,1.388-3.264,1.537-5.063c0.066-0.792,0.533-1.239,1.183-1.158
		c0.618,0.077,0.956,0.595,0.871,1.361c-0.433,3.878-2.083,7.15-4.923,9.818c-0.362,0.34-0.804,0.597-1.216,0.883
		c-0.545,0.379-1.103,0.706-1.404,1.374c-0.255,0.567-0.844,0.677-1.443,0.695c-0.422,0.013-0.869,0.039-1.256,0.186
		c-2.579,0.977-5.203,1.75-7.995,1.564c-0.946-0.063-1.885-0.342-2.811-0.584c-1.695-0.443-3.404-0.856-5.059-1.423
		c-1.907-0.654-3.228-2.113-4.489-3.617c-0.36-0.429-0.755-0.86-1.215-1.167c-0.713-0.476-1.025-1.079-0.902-1.91
		c0.053-0.36-0.081-0.587-0.304-0.877c-0.287-0.374-0.433-0.872-0.572-1.337c-0.152-0.509-0.167-1.063-0.345-1.56
		c-1.391-3.884-1.693-7.74,0.23-11.553c0.197-0.391,0.421-0.772,0.662-1.138c0.362-0.548,0.905-0.687,1.407-0.392
		c0.516,0.303,0.673,0.906,0.319,1.471c-0.832,1.33-1.393,2.751-1.602,4.313c-0.307,2.3,0.159,4.484,0.923,6.637
		c0.213,0.6,0.312,1.24,0.478,1.857c0.045,0.168,0.106,0.364,0.226,0.474c0.522,0.477,0.732,1.067,0.664,1.749
		c-0.037,0.373,0.089,0.602,0.358,0.859c0.619,0.591,1.222,1.207,1.762,1.869c1.401,1.717,3.208,2.695,5.357,3.124
		c0.817,0.163,1.638,0.347,2.426,0.613c1.747,0.591,3.518,0.684,5.322,0.397c0.217-0.035,0.455-0.11,0.626-0.241
		C26.769,36.443,29.117,32.688,29.46,31.157z M21.9,16.596c-2.007-0.291-3.98-0.576-6.019-0.871
		c-0.036,0.134-0.127,0.347-0.148,0.566c-0.137,1.41-0.289,2.819-0.373,4.232c-0.057,0.959,0.55,1.368,1.508,1.166
		c0.505-0.106,1.032-0.143,1.549-0.14c0.981,0.007,1.962,0.07,2.943,0.098c0.214,0.006,0.429-0.034,0.541-0.044
		C21.9,19.854,21.9,18.2,21.9,16.596z M24.071,28.638c2.098,0.193,4.104,0.377,6.112,0.562c0.528-1.4,0.852-4.392,0.592-5.568
		c-0.674-0.072-1.356-0.151-2.04-0.21c-0.11-0.01-0.258,0.039-0.337,0.114c-0.653,0.62-1.316,0.637-2.028,0.098
		c-0.112-0.085-0.304-0.103-0.454-0.091c-0.393,0.031-0.784,0.137-1.176,0.137c-0.441,0.001-0.581,0.181-0.585,0.601
		c-0.011,1.088-0.056,2.175-0.083,3.263C24.064,27.914,24.071,28.285,24.071,28.638z M29.754,15.52
		c-0.15-0.016-0.212-0.036-0.268-0.026c-1.681,0.294-3.364,0.581-5.039,0.905c-0.171,0.033-0.399,0.278-0.428,0.453
		c-0.219,1.323-0.305,2.646-0.022,3.981c0.181,0.852,0.399,1.097,1.185,0.764c1.265-0.536,2.559,0.156,3.811-0.203
		c0.091-0.026,0.205,0.03,0.308,0.04c0.407,0.041,0.814,0.08,1.239,0.121c0.027-0.16,0.056-0.24,0.05-0.317
		c-0.079-1.059-0.159-2.118-0.251-3.177c-0.012-0.138-0.062-0.298-0.149-0.4C29.665,17.045,29.452,16.363,29.754,15.52z
		 M15.413,23.839c0.052,1.767,0.509,3.516,1.008,5.255c0.034,0.119,0.28,0.277,0.394,0.254c0.332-0.068,0.699-0.151,0.96-0.349
		c0.652-0.496,1.234-0.575,1.966-0.196c0.187,0.097,0.426,0.164,0.632,0.143c0.433-0.043,0.869-0.121,1.282-0.254
		c0.161-0.052,0.366-0.284,0.374-0.443c0.064-1.376,0.098-2.754,0.109-4.132c0.001-0.145-0.194-0.415-0.306-0.419
		c-1.395-0.052-2.792-0.092-4.187-0.076C16.928,23.631,16.213,23.757,15.413,23.839z M22.69,6.89
		c-2.144-0.352-6.075,3.996-6.168,6.753c1.714,0.422,3.446,0.765,5.17,0.752c0-0.857-0.028-1.606,0.006-2.352
		c0.055-1.184,0.188-2.364,0.217-3.548C21.931,7.843,21.945,7.245,22.69,6.89z"/>
	<path fill="#EF3D5B" d="M13.055,41.877c1.551-1.12,2.853-0.801,4.315,0.012c1.039,0.578,2.324,0.815,3.529,0.974
		c3.053,0.404,6.083,0.268,9.06-0.659c1.353-0.421,2.491-1.138,3.564-2.03c1.189-0.988,2.395-1.96,3.645-2.867
		c1.502-1.09,2.965-2.184,3.688-3.994c0.207-0.517,0.782-0.695,1.267-0.503c0.531,0.21,0.823,0.772,0.569,1.346
		c-0.293,0.663-0.605,1.371-1.093,1.885c-0.945,0.995-1.989,1.902-3.045,2.782c-1.219,1.016-2.553,1.898-3.734,2.954
		c-2.036,1.822-4.472,2.673-7.089,3.062c-3.428,0.509-6.843,0.388-10.185-0.612c-0.649-0.194-1.253-0.561-1.854-0.893
		c-0.411-0.227-0.74-0.241-1.155,0.022c-1.48,0.936-2.785,0.535-3.54-1.06c-0.178-0.376-0.322-0.771-0.46-1.164
		c-0.13-0.372-0.366-0.504-0.761-0.495c-1.62,0.038-2.319-0.592-2.721-2.168c-0.152-0.595-0.521-1.19-0.937-1.655
		c-3.008-3.362-4.867-7.286-5.704-11.687c-0.64-3.368-0.248-6.684,1.028-9.849c0.834-2.068,1.914-4.035,2.805-6.082
		C4.598,8.391,4.773,7.5,4.955,6.632c0.116-0.557,0.479-0.987,1.024-0.996c0.519-0.008,0.945,0.366,0.989,0.936
		c0.121,1.572-0.518,2.929-1.216,4.279c-0.719,1.39-1.442,2.784-2.063,4.219c-2.465,5.694-1.77,11.193,1.218,16.475
		c0.766,1.355,1.764,2.585,2.714,3.827c0.652,0.852,1.359,1.646,1.481,2.776c0.04,0.368,0.27,0.492,0.659,0.488
		c1.486-0.014,2.41,0.699,2.855,2.124C12.725,41.107,12.881,41.439,13.055,41.877z"/>
	<path fill="#EF3D5B" d="M46.827,20.597c-0.088,0.362-0.104,0.762-0.276,1.078c-0.652,1.202-0.851,2.504-1.062,3.833
		c-0.208,1.311-0.624,2.591-0.995,3.872c-0.201,0.692-0.76,0.968-1.351,0.763c-0.537-0.186-0.766-0.744-0.584-1.41
		c0.302-1.106,0.614-2.21,0.895-3.321c0.096-0.382,0.07-0.796,0.172-1.176c0.257-0.96,0.503-1.929,0.855-2.855
		c0.231-0.608,0.255-1.039-0.188-1.594c-0.484-0.605-0.923-1.325-1.122-2.065c-1.499-5.561-5.046-9.477-9.826-12.426
		c-0.351-0.217-0.751-0.366-1.146-0.496c-1.076-0.354-1.923-0.984-2.528-1.949c-0.094-0.15-0.329-0.367-0.428-0.335
		c-1.205,0.386-2.354-0.034-3.53-0.163c-2.85-0.314-5.716-0.61-8.547,0.082c-0.98,0.239-1.916,0.694-2.839,1.122
		c-0.766,0.355-1.51,0.782-2.379,0.614c-0.455-0.088-0.918-0.285-1.304-0.542c-0.466-0.311-0.525-0.902-0.211-1.334
		c0.321-0.442,0.784-0.633,1.259-0.346c0.521,0.314,0.959,0.197,1.402-0.075c2.741-1.686,5.772-2.007,8.883-1.827
		c1.873,0.109,3.735,0.386,5.605,0.554c0.38,0.034,0.789-0.033,1.159-0.141c1.138-0.334,2.034,0.01,2.557,1.082
		c0.284,0.582,0.728,0.929,1.302,1.197c6.222,2.906,10.484,7.53,12.458,14.182c0.195,0.656,0.676,1.224,1.005,1.843
		c0.304,0.572,0.583,1.157,0.873,1.737C46.901,20.532,46.864,20.564,46.827,20.597z"/>
	<path fill="#EF3D5B" d="M49.655,43.222c-0.719,0.329-1.28,0.161-1.858-0.397c-1.008-0.972-2.218-1.533-3.656-1.134
		c-1.862,0.517-2.716,2.389-2.077,4.513c0.371,1.233,1.093,2.24,2.074,3.077c0.906,0.774,1.824,1.542,2.649,2.397
		c0.438,0.453,0.728,1.067,1.013,1.644c0.262,0.529,0.035,1.087-0.451,1.337c-0.493,0.254-1.121,0.114-1.337-0.422
		c-0.471-1.17-1.398-1.912-2.322-2.664c-1.142-0.929-2.208-1.907-2.939-3.224c-0.585-1.052-0.859-2.158-0.969-3.339
		c-0.036-0.387-0.196-0.788-0.394-1.127c-0.24-0.412-0.595-0.755-0.875-1.146c-0.377-0.527-0.313-1.086,0.138-1.452
		c0.46-0.373,1-0.311,1.449,0.169c0.14,0.149,0.271,0.306,0.39,0.441c0.648-0.613,1.263-1.193,1.911-1.806
		c-0.141-0.15-0.315-0.299-0.443-0.48c-0.314-0.443-0.327-0.917,0.037-1.324c0.367-0.409,0.832-0.436,1.31-0.165
		c0.018,0.01,0.04,0.02,0.051,0.036c0.8,1.165,2.071,1.323,3.304,1.685c0.908,0.267,1.75,0.874,2.523,1.459
		c0.869,0.659,0.864,0.919,0.449,1.943C49.633,43.243,49.655,43.222,49.655,43.222z"/>
	<path fill="#EF3D5B" d="M49.655,43.222c0,0-0.022,0.021-0.022,0.021c0.831-0.397,1.139-0.282,1.744,0.365
		c0.638,0.682,1.307,1.364,2.066,1.898c2.32,1.63,4.44,3.421,5.716,6.037c0.887,1.819,0.977,3.669,0.204,5.52
		c-1.172,2.807-4.409,3.782-6.966,2.135c-0.562-0.362-1.069-0.754-1.83-0.602c-0.444,0.089-0.773-0.248-0.906-0.706
		c-0.143-0.492,0.044-0.871,0.442-1.136c0.542-0.361,1.161-0.406,1.743-0.172c0.556,0.224,1.082,0.539,1.593,0.859
		c1.653,1.033,3.523,0.396,4.158-1.449c0.391-1.136,0.327-2.255-0.184-3.353c-0.996-2.142-2.638-3.694-4.542-5.005
		c-1.141-0.785-2.246-1.596-3.103-2.714C49.325,44.343,49.2,43.821,49.655,43.222z"/>
</g>
</svg>
