<?xml version="1.0" encoding="utf-8"?>
<!-- Generator: Adobe Illustrator 17.0.0, SVG Export Plug-In . SVG Version: 6.00 Build 0)  -->
<!DOCTYPE svg PUBLIC "-//W3C//DTD SVG 1.1//EN" "http://www.w3.org/Graphics/SVG/1.1/DTD/svg11.dtd">
<svg version="1.1" id="Layer_1" xmlns="http://www.w3.org/2000/svg" xmlns:xlink="http://www.w3.org/1999/xlink" x="0px" y="0px"
	 width="60px" height="60px" viewBox="0 0 60 60" enable-background="new 0 0 60 60" xml:space="preserve">
<g>
	<path fill="#EF3D5B" d="M0,52.113C0,40.038,0,19.962,0,7.887c0.303-0.728,0.521-1.509,0.929-2.173
		c0.602-0.98,1.632-1.402,2.705-1.696c17.586,0,35.171,0,52.757,0c0.051,0.028,0.099,0.067,0.154,0.082
		c2.262,0.607,3.453,2.136,3.453,4.457c0.002,11.622,0.002,31.244,0,42.866c-0.001,2.756-1.8,4.558-4.541,4.559
		c-2.246,0.001-4.493,0-6.739,0c-14.747,0-29.494,0.001-44.242-0.001c-2.121,0-3.787-1.241-4.305-3.196
		C0.113,52.562,0.057,52.337,0,52.113z M10.098,53.946c13.31,0,26.565,0,39.829,0c0-13.318,0-34.596,0-47.902
		c-13.288,0-26.543,0-39.829,0C10.098,19.352,10.098,40.63,10.098,53.946z M7.945,53.981c0-13.355,0-34.644,0-47.966
		c-1.099,0-2.152,0.003-3.204-0.001C2.884,6.01,2.027,6.874,2.027,8.737c0.002,8.049,0,20.098-0.001,28.147
		c0,3.536-0.005,11.072,0.003,14.608c0.003,1.414,0.85,2.429,2.123,2.478C5.398,54.018,6.648,53.981,7.945,53.981z M52.083,6.022
		c0,13.355,0,34.643,0,47.964c0.34,0,0.631,0,0.921,0c0.801,0,1.602,0.001,2.403,0c1.669-0.002,2.59-0.902,2.591-2.555
		C58.001,43.598,58,31.764,58,23.931c0-3.809,0.004-11.618-0.002-15.428c-0.002-1.386-0.822-2.407-2.069-2.468
		C54.664,5.974,53.395,6.022,52.083,6.022z"/>
	<path fill="#EF3D5B" d="M14.035,25.009c-0.383,0-0.675,0.013-0.966-0.003c-0.644-0.034-1.021-0.394-1.029-1.036
		c-0.016-1.309-0.017-2.618,0.002-3.927c0.01-0.683,0.376-1.013,1.084-1.023c0.761-0.011,1.522-0.002,2.355-0.002
		c-0.922-2.363-0.481-4.296,1.766-5.576c1.206-0.687,3.152-0.721,4.768,0.888c0.861-0.851,1.883-1.347,3.128-1.308
		c0.827,0.026,1.573,0.279,2.235,0.766c1.57,1.157,1.938,2.747,1.18,5.23c0.772,0,1.521-0.004,2.27,0.001
		c0.827,0.006,1.174,0.346,1.179,1.174c0.008,1.192,0.004,2.383,0,3.575c-0.003,0.889-0.351,1.233-1.246,1.241
		c-0.229,0.002-0.459,0-0.75,0c0,0.263,0,0.472,0,0.681c0,2.677,0.001,5.353,0,8.03c0,0.938-0.329,1.268-1.265,1.268
		c-4.493,0.001-8.987,0.002-13.48,0.002c-0.896,0-1.232-0.336-1.233-1.24c-0.002-2.677,0.001-5.353,0.001-8.03
		C14.036,25.51,14.035,25.299,14.035,25.009z M29.982,21.047c-5.322,0-10.6,0-15.903,0c0,0.659,0,1.288,0,1.935
		c5.319,0,10.596,0,15.903,0C29.982,22.334,29.982,21.718,29.982,21.047z M25.054,25.046c0,2.667,0,5.289,0,7.901
		c1.009,0,1.974,0,2.934,0c0-2.655,0-5.263,0-7.901C27.01,25.046,26.06,25.046,25.054,25.046z M18.966,32.975
		c0-2.68,0-5.303,0-7.921c-0.993,0-1.941,0-2.885,0c0,2.66,0,5.283,0,7.921C17.06,32.975,17.992,32.975,18.966,32.975z
		 M22.959,32.973c0-2.677,0-5.299,0-7.918c-0.666,0-1.281,0-1.9,0c0,2.66,0,5.283,0,7.918C21.71,32.973,22.312,32.973,22.959,32.973
		z M20.991,18.958c0-0.715,0.008-1.376-0.002-2.036c-0.016-1.047-0.85-1.872-1.901-1.895c-1.109-0.023-1.988,0.775-2.066,1.877
		c-0.071,0.997,0.676,1.951,1.684,2.041C19.435,19.011,20.176,18.958,20.991,18.958z M23.095,18.932c0.824,0,1.626,0.072,2.41-0.019
		c0.911-0.106,1.546-1.043,1.495-2.017c-0.051-0.981-0.812-1.779-1.775-1.861c-1.002-0.085-1.997,0.537-2.109,1.452
		C23.018,17.289,23.095,18.111,23.095,18.932z"/>
	<path fill="#EF3D5B" d="M42.018,32.08c-0.095,0.763,0.242,1.902-1.038,1.884c-1.212-0.017-0.928-1.11-1.017-1.962
		c-0.592,0-1.17,0.007-1.747-0.002c-0.768-0.012-1.187-0.366-1.194-0.989c-0.007-0.627,0.413-0.994,1.169-1.011
		c0.546-0.013,1.093-0.014,1.64-0.024c0.034-0.001,0.067-0.03,0.132-0.062c0-0.934,0-1.883,0-2.883
		c-1.309-0.022-2.45-0.439-3.268-1.507c-0.491-0.641-0.733-1.378-0.688-2.188c0.105-1.897,1.56-3.148,3.989-3.377
		c0-0.274-0.009-0.559,0.002-0.843c0.025-0.674,0.451-1.127,1.031-1.111c0.565,0.016,0.945,0.449,0.961,1.105
		c0.007,0.269,0.001,0.538,0.001,0.887c0.638,0,1.217-0.005,1.796,0.001c0.735,0.008,1.2,0.389,1.217,0.986
		c0.018,0.622-0.446,1.005-1.231,1.011c-0.563,0.004-1.126,0.001-1.735,0.001c0,1.018,0,1.981,0,2.99
		c1.252,0.003,2.347,0.385,3.167,1.361c0.505,0.602,0.775,1.298,0.785,2.095C46.014,30.398,44.861,31.465,42.018,32.08z
		 M42.028,29.958c0.761,0.092,1.352-0.136,1.752-0.742c0.304-0.46,0.305-0.966-0.003-1.431c-0.405-0.61-0.997-0.828-1.749-0.758
		C42.028,27.996,42.028,28.942,42.028,29.958z M39.969,22.009c-0.793-0.014-1.411,0.195-1.791,0.864
		c-0.293,0.515-0.223,1.025,0.139,1.473c0.419,0.519,0.975,0.72,1.653,0.624C39.969,23.977,39.969,23.027,39.969,22.009z"/>
	<path fill="#EF3D5B" d="M34.058,41.999c3.536,0,7.071-0.002,10.607,0.005c0.267,0.001,0.559,0.014,0.796,0.12
		c0.448,0.201,0.597,0.609,0.501,1.076c-0.111,0.535-0.491,0.787-1.015,0.793c-1.191,0.014-2.383,0.007-3.575,0.007
		c-5.977,0-11.954-0.001-17.932-0.002c-0.117,0-0.235,0.004-0.352-0.002c-0.645-0.032-1.06-0.43-1.058-1.011
		c0.002-0.595,0.4-0.978,1.069-0.981c2.129-0.01,4.258-0.006,6.387-0.006c1.524,0,3.047,0,4.571,0
		C34.058,41.997,34.058,41.998,34.058,41.999z"/>
	<path fill="#EF3D5B" d="M19.503,40.003c-1.366,0-2.732,0-4.099,0c-0.156,0-0.314,0.01-0.468-0.011
		c-0.559-0.079-0.916-0.502-0.896-1.045c0.02-0.547,0.397-0.933,0.99-0.935c2.986-0.011,5.972-0.012,8.958-0.003
		c0.617,0.002,1.007,0.406,1.014,0.977c0.007,0.583-0.4,1.005-1.051,1.013C22.47,40.014,20.986,40.002,19.503,40.003z"/>
	<path fill="#EF3D5B" d="M40.532,40.004c-1.464,0-2.929,0.035-4.39-0.026c-0.347-0.014-0.798-0.272-0.982-0.559
		c-0.151-0.235-0.079-0.741,0.085-1.011c0.135-0.223,0.549-0.385,0.841-0.388c2.947-0.028,5.894-0.022,8.841-0.015
		c0.657,0.002,1.058,0.396,1.059,0.991c0.001,0.584-0.404,0.993-1.062,1c-1.464,0.016-2.928,0.005-4.391,0.005
		C40.532,40.003,40.532,40.003,40.532,40.004z"/>
	<path fill="#EF3D5B" d="M19.519,45.993c1.444,0,2.889-0.004,4.333,0.002c0.723,0.003,1.134,0.355,1.15,0.96
		c0.017,0.63-0.412,1.031-1.145,1.032c-2.889,0.006-5.777,0.006-8.666,0c-0.74-0.001-1.164-0.393-1.15-1.027
		c0.013-0.608,0.424-0.962,1.145-0.965C16.63,45.989,18.075,45.993,19.519,45.993z"/>
	<path fill="#EF3D5B" d="M40.506,45.993c1.444,0,2.889-0.004,4.333,0.002c0.723,0.003,1.133,0.357,1.146,0.963
		c0.014,0.633-0.41,1.027-1.149,1.029c-2.889,0.006-5.777,0.006-8.666,0c-0.738-0.001-1.163-0.396-1.147-1.031
		c0.015-0.606,0.427-0.959,1.149-0.962C37.617,45.99,39.061,45.993,40.506,45.993z"/>
	<path fill="#EF3D5B" d="M30.015,45.994c0.643,0.001,1.286-0.008,1.928,0.003c0.636,0.011,1.069,0.425,1.066,0.993
		c-0.003,0.571-0.429,0.988-1.071,0.995c-1.285,0.014-2.571,0.015-3.857,0.001c-0.634-0.006-1.064-0.433-1.066-1.003
		c-0.002-0.567,0.432-0.977,1.071-0.988C28.729,45.985,29.372,45.993,30.015,45.994z"/>
	<path fill="#EF3D5B" d="M17.053,41.999c0.643,0.001,1.285-0.011,1.927,0.004c0.612,0.014,1.026,0.407,1.044,0.957
		c0.019,0.559-0.417,1.02-1.043,1.029c-1.304,0.019-2.609,0.02-3.913,0c-0.642-0.01-1.046-0.443-1.029-1.027
		c0.016-0.568,0.402-0.944,1.028-0.96C15.729,41.986,16.391,41.999,17.053,41.999z"/>
	<path fill="#EF3D5B" d="M29.995,40.002c-0.603,0-1.207,0.009-1.81-0.002c-0.726-0.013-1.177-0.416-1.167-1.023
		c0.009-0.587,0.443-0.966,1.144-0.971c1.246-0.008,2.492-0.009,3.737,0c0.663,0.005,1.085,0.379,1.108,0.946
		c0.024,0.59-0.411,1.025-1.085,1.045C31.281,40.016,30.638,40.002,29.995,40.002z"/>
	<path fill="#EF3D5B" d="M6.03,30.001c0,1.582,0.004,3.163-0.001,4.745c-0.002,0.789-0.379,1.253-0.998,1.254
		c-0.613,0.001-1.003-0.47-1.004-1.255c-0.005-3.183-0.006-6.365,0-9.548C4.028,24.464,4.433,24.002,5.033,24
		c0.597-0.002,0.99,0.454,0.994,1.198C6.036,26.799,6.03,28.4,6.03,30.001z"/>
	<path fill="#EF3D5B" d="M55.999,29.995c0,0.936,0.008,1.871-0.002,2.807c-0.008,0.738-0.397,1.19-1,1.194
		c-0.606,0.004-0.994-0.442-0.996-1.185c-0.007-1.891-0.008-3.782,0-5.673c0.003-0.695,0.403-1.136,0.987-1.135
		c0.586,0.001,0.999,0.443,1.009,1.127c0.015,0.955,0.004,1.91,0.004,2.866C56.001,29.995,56,29.995,55.999,29.995z"/>
	<path fill="#EF3D5B" d="M53.999,19.997c0.001-0.643-0.014-1.285,0.005-1.927c0.02-0.664,0.408-1.052,1.002-1.045
		c0.563,0.007,0.973,0.392,0.983,1.013c0.022,1.324,0.024,2.648-0.003,3.972c-0.012,0.602-0.466,1.01-1.006,1.001
		c-0.548-0.01-0.958-0.42-0.978-1.027C53.982,21.322,53.998,20.659,53.999,19.997z"/>
	<path fill="#EF3D5B" d="M53.999,40.001c-0.001-0.642-0.015-1.285,0.003-1.927c0.018-0.657,0.413-1.076,0.98-1.084
		c0.559-0.008,0.999,0.418,1.009,1.061c0.021,1.304,0.023,2.608-0.003,3.912c-0.013,0.649-0.451,1.034-1.042,1.011
		c-0.562-0.022-0.924-0.406-0.942-1.046C53.986,41.286,54,40.644,53.999,40.001z"/>
</g>
</svg>
