<svg id="Layer_1" data-name="Layer 1" xmlns="http://www.w3.org/2000/svg" xmlns:xlink="http://www.w3.org/1999/xlink" viewBox="0 0 35 35"><defs><style>.cls-1{fill:#fff;}.cls-2{fill:url(#Degradado_sin_nombre_2);}</style><linearGradient id="Degradado_sin_nombre_2" x1="3.36" y1="29.54" x2="46.78" y2="-7.43" gradientUnits="userSpaceOnUse"><stop offset="0" stop-color="#ffe185"/><stop offset="0.21" stop-color="#ffbb36"/><stop offset="0.38" stop-color="#ff5176"/><stop offset="0.52" stop-color="#f63395"/><stop offset="0.74" stop-color="#a436d2"/><stop offset="1" stop-color="#5f4eed"/></linearGradient></defs><circle class="cls-1" cx="17.34" cy="17.84" r="15.24"/><path class="cls-2" d="M17.5,35A17.5,17.5,0,1,1,35,17.5,17.52,17.52,0,0,1,17.5,35Zm5.9-24.6a1.3,1.3,0,1,0,1.3,1.29A1.29,1.29,0,0,0,23.4,10.4Zm-5.76,1.66a5.44,5.44,0,1,0,5.44,5.44A5.45,5.45,0,0,0,17.64,12.06Zm0,8.92a3.48,3.48,0,1,1,3.49-3.48A3.48,3.48,0,0,1,17.64,21ZM21.88,6.67H12.8A6.63,6.63,0,0,0,6.16,13.3v9.09A6.63,6.63,0,0,0,12.8,29h9.08a6.63,6.63,0,0,0,6.63-6.63V13.3A6.63,6.63,0,0,0,21.88,6.67ZM21.93,27H12.75a4.56,4.56,0,0,1-4.56-4.56V13.26A4.56,4.56,0,0,1,12.75,8.7h9.18a4.56,4.56,0,0,1,4.55,4.56v9.17A4.56,4.56,0,0,1,21.93,27Z"/></svg>