<svg id="Layer_1" data-name="Layer 1" xmlns="http://www.w3.org/2000/svg" viewBox="0 0 35 35"><defs><style>.cls-1{fill:#245a9b;}.cls-2{fill:#fff;fill-rule:evenodd;}</style></defs><path class="cls-1" d="M17.5,35A17.5,17.5,0,1,1,35,17.5,17.52,17.52,0,0,1,17.5,35Z"/><path class="cls-2" d="M14.76,17.58V27.73A.26.26,0,0,0,15,28h3.77a.26.26,0,0,0,.26-.26V17.42h2.73a.26.26,0,0,0,.26-.24l.27-3.11a.27.27,0,0,0-.27-.29h-3v-2.2a.94.94,0,0,1,.94-.94h2.1a.25.25,0,0,0,.26-.26V7.27A.26.26,0,0,0,22.09,7H18.53a3.77,3.77,0,0,0-3.77,3.78v3H12.87a.27.27,0,0,0-.26.27v3.1a.27.27,0,0,0,.26.27h1.89Z"/></svg>